<?xml version="1.0" encoding="utf-8"?>
<!-- Generator: Adobe Illustrator 17.0.2, SVG Export Plug-In . SVG Version: 6.00 Build 0)  -->
<!DOCTYPE svg PUBLIC "-//W3C//DTD SVG 1.1//EN" "http://www.w3.org/Graphics/SVG/1.1/DTD/svg11.dtd">
<svg version="1.1" id="Layer_1" xmlns="http://www.w3.org/2000/svg" xmlns:xlink="http://www.w3.org/1999/xlink" x="0px" y="0px"
	 width="346px" height="240px" viewBox="0 0 346 240" enable-background="new 0 0 346 240" xml:space="preserve">
<path fill="#FEFEFE" d="M90.497,171.552c-0.608-1.363-1.236-2.718-1.819-4.091c-2.142-5.044-4.584-5.445-8.069-1.055
	c-1.197,1.508-2.399,2.164-4.204,1.922c-2.199-0.295-1.34-2.239-1.938-3.422c-3.438-6.809,1.327-13.909-0.893-20.731
	c-0.35-1.075,0.122-2.621-0.492-3.37c-2.733-3.328-4.429-6.547-0.747-10.273c0.093-0.094,0.134-0.385,0.062-0.476
	c-3.907-4.962-0.81-11.121-2.884-16.572c-1.364-3.588-3.582-8.032,0.234-11.901c0.666-0.675,0.548-1.458,0.114-2.276
	c-4.843-9.105-1.264-18.886-2.211-28.308c-0.143-1.422,1.124-2.351,2.077-3.262c1.764-1.687,2.525-3.497,0.916-5.698
	c-1.058-1.447-0.747-3.183,0.984-2.408c3.487,1.561,5.924-1.349,8.937-1.232c1.185-1.211,2.679-1.225,4.18-0.982
	c7.705,1.243,14.922-0.623,21.651-4.048c7.501-3.817,15.534-5.835,23.572-7.827c8.342-2.067,14.125,3.274,20.004,7.845
	c1.563,1.215,1.135,3.331,1.203,4.974c3.105-1.217,5.176-0.684,5.635,3.008c-0.903,9.983,0.177,19.954,0.393,29.912
	c0.223,10.279,0.656,20.581,1.149,30.866c0.684,14.266,1.217,28.551,1.687,39.539c-1.121-20.842-2.051-44.986-2.841-69.131
	c-0.31-9.463-0.772-18.943-0.59-28.424c0.873-2.797-0.049-5.913,1.513-8.591c1.352-1.262,3.365-1.553,4.585-2.964
	c9.734-11.258,21.24-8.849,32.899-4.126c6.493,2.63,13.046,5.002,19.777,6.945c12.266,3.539,22.863-0.487,32.976-6.967
	c2.286-1.465,4.234-5.18,7.022-3.638c2.803,1.551,1.793,5.517,1.484,8.369c-2.654,24.528-3.218,49.141-2.788,73.764
	c0.232,13.283,0.527,26.602,2.009,39.83c0.336,2.996-0.577,5.146-2.549,7.162c-7.785,7.961-17.572,11.753-28.257,13.815
	c-11.427,2.206-21.751-0.333-31.373-6.658c-8.372-5.502-17.663-8.329-26.935-3.567c-10.491,5.388-20.906,5.125-31.937,3.201
	c-8.839-1.541-17.869-1.806-26.803-2.768c-5.922-0.638-11.112-3.371-16.726-4.827C90.833,172.938,90.519,172.276,90.497,171.552z"/>
<path fill="#010204" d="M90.497,171.552c15.327,6.351,31.797,5.863,47.828,8.011c3.443,0.461,6.851,1.342,10.303,1.539
	c4.898,0.278,9.485-1.066,13.816-3.469c11.222-6.226,22.13-4.838,32.294,2.277c12.176,8.523,25.137,8.534,38.599,4.427
	c7.406-2.259,13.994-6.084,19.621-11.471c1.216-1.164,2.277-2.274,2.05-4.257c-3.009-26.184-2.623-52.442-1.889-78.727
	c0.422-15.093,1.528-30.129,2.984-45.915c-4.953,3.158-8.348,7.139-13.119,9.449c-9.928,4.806-19.999,6.104-30.463,2.811
	c-6.625-2.085-13.133-4.543-19.588-7.183c-9.199-3.762-18.587-5.359-26.988,2.245c-1.095,0.991-2.194,2.09-2.915,3.354
	c-1.119,1.96-2.417,1.987-4.091,0.93c-1.973,0.326-2.867-0.446-2.523-2.479c1.426-0.879,3.15-0.603,4.57-2.128
	c10.182-10.932,22.144-10.181,34.673-4.802c0.458,0.196,0.899,0.429,1.351,0.639c3.969,1.846,7.55,2.843,12.464,1.833
	c10.406-2.138,21.207-2.181,31.767-0.26c3.235,0.588,5.423-0.164,7.62-2.141c3.869-3.48,7.756-6.94,12.42-11.109
	c-5.675,28.475-5.617,56.096-4.678,83.884c0.156-2.069,0.32-4.138,0.466-6.208c0.164-2.324,0.381-4.646,0.458-6.973
	c0.695-20.779,1.556-41.546,4.452-62.166c0.218-1.554-0.286-3.491,1.763-4.283c0.858-0.332,1.645,0.013,2.228,0.679
	c1.342,1.532,0.558,3.121,0.053,4.686c-2.364,7.329-3.338,14.878-3.59,22.543c-1.307,3.623,1.036,7.387-0.4,10.509
	c-0.063,1.161,1.097,0.672,0.431,0.663c-0.064-0.001-0.081-0.059-0.098-0.168c-0.322-2.106-0.022-4.1,1.052-5.959
	c0.805-6.679,0.529-13.51,3.381-19.886c1.092-2.441,1.337-5.63,5.126-4.26c4.129,1.493,0.639,4.056,0.552,6.146
	c-0.43,2.726-0.757,5.464-1.011,8.216c-1.713,6.776-1.19,13.78-2.25,20.665c-2.144,13.922-1.885,28.094-3.05,42.133
	c-0.43,5.184,0.461,10.26,0.852,15.374c0.013,10.438-0.615,20.894,0.53,31.319c0.273,2.489,0.008,5.067-2.607,5.849
	c-10.455,3.124-18.611,10.831-28.893,14.244c-1.213,0.403-2.426,0.815-3.219,0.983c8.208,0.086,16.77-0.875,25.373-1.093
	c1.265-0.022,2.515,0.114,3.749,0.361c2.198,0.702,4.453,0.864,6.754,0.698c1.386-0.1,1.508-0.959,1.354-2.049
	c-1.111-3.484-0.833-7.081-1.034-10.642c-0.302-26.214,0.395-52.419,0.032-78.623c-1.061-11.924,1.455-23.692,1.551-35.564
	c1.59-3.409,0.1-7.681,2.992-10.731l-0.012,0.006c4.705-0.717,5.881-0.013,6.355,4.23c0.388,3.469,0.324,6.977,0.06,10.454
	c-1.066,14.066-1.768,28.147-1.935,42.253c0.302,16.104,0.077,32.209,0.495,48.322c0.261,10.062-0.124,20.241-0.657,30.353
	c-0.079,1.51-0.608,2.923-1.484,4.178c-0.597,0.996-1.753,1.492-2.261,2.597c-2.047,4.459-5.74,5.602-10.283,5.116
	c-10.393-1.112-20.814-1.515-31.262-1.103c-4.982,0.269-9.835-1.277-14.814-1.047c-10.802-0.37-21.46-2.137-32.155-3.488
	c-5.851-0.74-10.894-0.659-15.396,4.255c-5.513,6.018-12.546,5.922-19.698,2.81c-1.732-0.974-3.464-1.949-5.197-2.923
	c-4.6-2.984-9.727-1.728-14.568-1.422c-12.444,0.787-24.763,2.438-36.994,5.189c-6.34,1.426-13.055,1.465-19.471,3.024
	c-6.042,1.534-12.125,2.928-18.108,4.669c-2.498,0.727-4.784,1.264-5.566-1.767c-0.84-3.255,1.683-3.68,4.157-3.954
	c0.936-0.104,1.821-0.669,2.729-1.024c4.298-3.368,9.741-3.832,14.603-5.775c1.462-0.338,2.92-0.694,4.339-1.198
	c2.228-0.703,4.487-1.284,6.748-1.874c10.371-1.415,20.549-3.951,30.931-5.29c2.492-0.027,4.836-1.144,7.348-1.023
	c3.009,0.02,5.909-0.954,8.91-1c5.806,0.111,11.58-1.825,17.408-0.305c2.688,1.562,0.616,4.995,2.677,6.804
	c1.764,1.757,4.01,1.606,6.227,1.562c3.638-0.099,5.985-2.51,8.542-4.627c2.501-2.07,4.41-5.093,8.122-5.355
	c5.181-0.298,10.231,1.513,15.421,0.907c4.133-0.307,8.12,0.689,10.932,1.335c1.874,0.112,1.202-0.948,1.343-0.296
	c0.044,0.204-0.094,0.296-0.413,0.257c-4.131-0.503-7.917-1.993-11.519-4.021c-8.603-5.183-17.211-3.044-25.813-0.028
	c-2.202,0.986-4.408,1.684-6.069-0.87c-1.55-2.384-3.596-0.333-5.371-0.679c-1.33,0.125-2.655,0.075-3.985,0.096
	c-4.665-0.141-9.389,0.838-13.965-0.778c-2.659-1.134-5.473-1.035-8.291-1.191c-8.541-0.472-17.129-0.638-25.447-2.97
	c-3.216-0.766-5.933-2.715-9.295-3.418c-6.487-1.356-11.22,0.917-15.608,5.713c5.423-2.425,10.988-2.204,16.368-3.072
	c12.361,1.637,24.636,4.002,37.176,3.837c1.494-0.02,2.931,0.4,4.285,1.058c1.367,2.129-0.389,2.414-1.733,2.947
	c-5.879-0.289-11.764-0.104-17.645-0.138c-2.536-0.023-5.075-0.006-7.609-0.041c-7.272-0.696-14.542-1.509-21.875-0.765
	c-4.094,0.415-7.005,1.97-6.929,6.678c-1.104,2.426-2.966,3.122-5.451,2.397c-2.86-2.47-7.518-3.025-8.305-7.734
	c-1.451-3.732-2.155-7.669-3.197-11.518c-5.506-24.91-9.765-50.02-12.294-75.413C46.507,91.005,45.575,81.529,45.15,72
	c-0.412-1.989,0.894-3.825,0.511-5.814c0.658-2.579-2.446-7.096,1.896-7.399c2.952-0.206,1.691,4.438,1.794,6.741
	c0.922,20.621,3.278,41.086,6.399,61.463c2.915,19.03,5.935,38.05,10.066,56.868c0.164,0.748,0.616,1.433,1.012,2.323
	c1.965-2.128,2.555-3.646,1.139-6.616c-3.327-6.979-3.367-14.841-4.355-22.408c-4.134-31.634-8.354-63.264-10.013-95.153
	c-0.112-2.151-2.369-6.326,1.573-6.53c3.902-0.202,1.662,3.811,1.816,5.935c0.967,13.268,1.736,26.551,2.68,39.821
	c0.136,1.907,0.861,3.773,0.79,5.574c0-19.119-0.001-38.238,0.002-57.356c0-1.666,0.04-3.332,0.033-4.999
	c-0.007-1.609,0.223-3.289,2.242-3.121c2.02,0.169,1.836,1.635,1.533,3.35c-1.138,6.432-0.549,12.952-0.517,19.428
	c0.131,26.812-0.088,53.64,2,80.4c0.813,10.425,1.406,20.896,3.852,31.131c0.268,1.12,0.032,2.591,1.266,3.052
	c1.621,0.606,2.266-1.079,3.095-1.977C78.501,171.793,83.915,169.844,90.497,171.552z"/>
<path fill="#ECEFF9" d="M275.518,195.365c1.12-2.802,1.263-5.7,1.349-8.71c0.629-21.939-0.716-43.855-0.621-65.785
	c0.012-2.82,0.204-5.639,0.313-8.458c1.03-0.208,1.654,0.435,1.769,1.248c0.548,3.88,1.328,7.665,3.726,10.268
	c-0.126-1.203-1.738-3.616,1.435-4.596c-0.522,27.347,1.92,54.626,2.112,82.101c-2.024-0.294-2.698-3.511-5.12-1.91
	C278.118,198.982,274.956,199.396,275.518,195.365z"/>
<path fill="#D5D6E7" d="M150.555,204.407c9.103,2.616,16.243,0.286,22.329-7.321c2.542-3.177,7.576-1.631,11.458-1.256
	c11.076,1.072,22.122,2.448,33.18,3.705c1.419,3.009-0.6,4.138-2.851,4.954c-1.822,0.661-3.777,0.906-6.066,1.357
	c2.557,0.668,5.126-0.378,6.969,1.59c-1.343,1.441-3.101,0.891-4.704,0.923c-13.355,0.262-26.687,0.089-39.956-1.802
	c-1.212-0.173-4.368-1.695-3.518,2.348c0.158,0.751-1.703,0.533-2.554,0.42C159.76,208.65,154.961,207.082,150.555,204.407z"/>
<path fill="#BBBDD1" d="M283.489,119.331c-1.877,1.721-0.399,4.133-1.047,5.609c-5.984-2.171-4.101-8.152-5.884-12.529
	c0.246-17.394,0.888-34.772,2.371-52.106c0.372-4.353-1.791-5.178-5.34-4.829c2.015-2.193,4.967-1.339,7.373-1.828
	c2.424-0.493,3.832,2.184,3.736,4.812c-0.265,7.265,0.371,14.555-0.84,21.802c-0.432,2.586-0.554,5.334-0.198,7.924
	C285.09,98.591,283.445,108.952,283.489,119.331z"/>
<path fill="#030307" d="M156.416,53.094c0.455,1.219,1.302,2.039,2.523,2.479c-0.407,2.735-0.815,5.469-1.222,8.204
	c-1.481-0.636-0.932-2.598-2.203-3.371c-0.058-0.156-0.084-0.427-0.177-0.452c-3.38-0.926-4.931-3.366-6.936-6.179
	c-2.212-3.104-6.717-4.655-10.363-6.624c-1.912-1.032-4.212-1.128-6.331-0.555c-7.494,2.027-15.322,3.116-22.225,6.903
	c-9.119,5.003-18.712,6.612-28.918,4.901c-6.92-2.974-12.812-6.973-14.801-14.857c-0.079-0.312-0.172-0.651-0.124-0.957
	c0.046-0.291,0.269-0.554,0.416-0.824c1.075-0.131,1.297,0.725,1.766,1.399c8.474,12.199,21.384,15.793,34.839,9.293
	c7.176-3.467,14.504-6.252,22.243-8.142c12.945-3.163,22.983,0.738,30.09,12.022C155.98,55.468,155.017,53.747,156.416,53.094z"/>
<path fill="#2BADBE" d="M46.35,71.681c0.919,9.528,1.838,19.055,2.757,28.583c-0.35,1.946-1.469,1.926-2.762,0.969
	c-1.043-0.772-1.14-2.357-2.475-3.079c-0.841,2.066-1.39,4.406-4.133,4.781c-0.752-0.045-1.328-0.39-1.728-1.029
	c0.157-1.852-2.054-2.385-2.265-4.032c0.117-1.582-0.843-2.919-1.03-4.434c-0.07-1.502,1.311-3.096-0.285-4.501
	c-2.945-3.341-1.662-7.336-1.726-11.123C35.713,72.728,40.472,70.59,46.35,71.681z"/>
<path fill="#090806" d="M38.338,101.585c0.383,0.365,0.767,0.731,1.15,1.096c1.568,1.312,1.6,3.242,1.89,5.006
	c3.69,22.48,7.699,44.905,11.546,67.357c1.306,7.837,2.398,15.709,3.894,23.515c0.342,1.785,0.991,3.528,0.671,5.396
	c-0.133,0.573-0.418,1.058-0.846,1.459c-3.044,0.702-4.183-0.739-4.496-3.629c-1.605-14.842-4.333-29.515-6.872-44.214
	c-2.989-17.306-6.008-34.608-7.796-52.093C37.148,104.044,36.099,102.452,38.338,101.585z"/>
<path fill="#9F9FB4" d="M275.518,195.365c0.443,2.832,4.338,1.542,4.963,4.157c1.605,6.421,0.774,7.289-5.969,7.864
	c-11.284,0.963-22.57,1.289-33.883,0.899c0.554-5.474,2.808-6.928,9.72-6.315c-4.377-0.683-8.592,1.396-12.953,0.818
	c-1.826-0.242-4.139,0.425-4.853-2.259c11.182,0.703,22.434-0.492,33.575,1.225c3.267,0.504,5.737-0.462,6.199-3.893
	C272.622,195.592,273.79,195.344,275.518,195.365z"/>
<path fill="#CFD2DE" d="M74.326,208.276c19.191-4.802,38.481-8.979,58.371-9.52c2.302-0.063,4.604-0.354,6.891-0.653
	c2.842-0.372,4.688,0.819,5.771,3.381c-21.236,0.554-42.198,2.815-62.399,11.118c0.004-3.567,2.305-2.265,3.332-3.077
	c0.765-0.605,2.004-0.955,1.731-2.101c-0.306-1.283-1.619-0.9-2.531-0.809C81.745,206.989,78.282,209.277,74.326,208.276z"/>
<path fill="#B8BACE" d="M232.543,200.528c6.173,2.296,12.659,0.163,19.046,1.542c-5.009-0.2-9.265,0.848-10.96,6.214
	c-8.397,1.071-16.686-1.072-25.055-0.849c-3.423,0-6.847,0-10.874,0c2.018-4.227,5.743-3.046,8.334-3.747
	c2.6-0.703,4.198-1.429,4.488-4.154C222.529,199.866,227.536,200.197,232.543,200.528z"/>
<path fill="#060609" d="M33.903,77.593c-0.512,3.815-0.335,7.598,0.525,11.348c-0.595,0.048-1.32,0.512-1.699-0.305
	c-2.362-5.094-0.921-10.696-2.066-15.961c-0.076-0.35,0.319-1.021,0.674-1.214c4.181-2.274,7.998-5.793,13.394-4.117
	c0.828,3.039-1.674,2.868-3.364,3.532C38.049,72.179,34.415,73.161,33.903,77.593z"/>
<path fill="#F2EFDF" d="M33.903,77.593c-1.053-6.045,3.509-6.849,7.574-8.132c1.273-0.402,3.695,0.926,3.253-2.118
	c0.31-0.386,0.62-0.771,0.93-1.157c0.754,1.764,0.82,3.614,0.69,5.492C41.876,72.968,36.865,73.123,33.903,77.593z"/>
<path fill="#E8E5C8" d="M56.643,205.415c0.167-0.461,0.333-0.922,0.5-1.383c0.896-3.127,3.749-2.606,5.992-3.187
	c1.881-0.488,3.613-1.496,5.605-1.606c1.511,0.183,3.41-0.336,3.734,2.027c-4.853,2.025-9.818,3.709-14.935,4.934
	C57.24,205.938,56.941,205.676,56.643,205.415z"/>
<path fill="#AAA9AF" d="M263.42,72.332c-0.315,2.535-0.629,5.07-0.944,7.605c-0.811-4.291-1.564-8.506-0.041-12.65
	C263.401,68.844,261.724,70.917,263.42,72.332z"/>
<path fill="#2BADBE" d="M38.338,101.585c-1.34,1.065-0.437,2.624-0.859,3.893c-0.941-2.692-1.883-5.385-2.824-8.079
	c0.621-0.584,1.242-0.607,1.863-0.001C36.565,99.037,39.399,99.464,38.338,101.585z"/>
<path fill="#BBBDD1" d="M273.601,55.47c-2.927,3.028-0.088,7.095-1.862,10.33c-1.796-1.107-0.112-3.06-1.062-4.372
	c0.768-2.323,0.449-4.922,1.803-7.096C272.854,54.711,273.227,55.091,273.601,55.47z"/>
<path fill="#393618" d="M36.518,97.398c-0.622,0-1.243,0-1.864,0c-0.767-1.331-2.195-2.672,0.06-3.958
	C35.959,94.466,37.641,95.293,36.518,97.398z"/>
<path fill="#020304" d="M135.548,78.606c3.373,0.651,3.704,2.365,3.733,5.886c0.094,11.289,1.003,22.588,2.016,33.845
	c0.641,7.126,0.293,14.302,1.474,21.403c0.464,2.792-3.673,6.258-6.664,5.985c-3.803-0.348-7.686-0.464-11.367-1.363
	c-9.232-2.255-18.154-0.293-27.155,1.287c-3.085,0.542-6.223,0.846-9.35,1.067c-2.985,0.211-4.507-1.877-2.797-3.96
	c2.667-3.248,1.775-6.587,1.59-9.92c-0.91-16.468-0.154-32.936-0.241-49.403c-0.022-4.089,2.332-5.756,5.629-6.11
	c12.261-1.318,24.57-1.448,36.886-0.816C130.667,79.341,132.846,79.75,135.548,78.606z"/>
<path fill="#010204" d="M155.514,60.406c2.228,0.147,1.955,1.929,2.203,3.371c0.413,14.621,0.69,29.247,1.275,43.862
	c0.678,16.936,1.743,33.857,2.381,50.795c0.173,4.604,0.702,9.32-0.735,13.927c-2.05-4.583-2.244-9.471-2.431-14.272
	c-1.055-27.078-2.013-54.159-2.848-81.245C155.191,71.376,154.623,65.875,155.514,60.406z"/>
<path fill="#0C0804" d="M166.161,97.57c-4.011-3.991,0.034-4.289,2.446-5.335c3.157-1.479,4.853-0.502,4.676,3.008
	c-0.085,1.679-0.034,3.024,1.905,3.426c1.663,0.345,2.962-0.263,3.779-1.733c0.891-1.604,0.158-2.869-1.005-3.985
	c-1.45-1.392-3.212-2.365-4.805-3.562c-5.716-4.295-5.932-9.424-0.672-14.656c3.363-1.892,7.528-1.13,10.843-3.468
	c1.685-1.188,3.334,0.047,3.862,1.841c0.835,2.841,0.22,5.632-1.27,8.154c-0.779,1.319-2.022,1.61-3.451,0.862
	c-1.03-0.539-1.918-1.344-3.061-1.662c-1.407-0.392-2.724-0.244-3.434,1.181c-0.655,1.313,0.243,2.197,1.196,2.937
	c1.55,1.203,3.635,1.782,4.45,3.838l-0.104-0.08c4.151,3.302,5.322,6.594,3.775,10.621c-1.466,3.818-5.129,5.929-9.985,5.754
	C170.001,104.52,167.527,102.588,166.161,97.57z"/>
<path fill="#020408" d="M238.293,80.651c-4.723,1.568-8.81,1.72-12.784,1.712c-8.134-0.015-16.267-0.46-24.401-0.714
	c-1.395-0.043-3.422-0.802-3.534,1.415c-0.099,1.978,2.018,1.268,3.131,1.466c10.356,1.84,20.846,1.479,31.297,1.798
	c1.288,0.039,3.399-0.944,3.564,1.382c0.205,2.877-2.258,1.848-3.612,1.801c-10.951-0.381-21.899-0.858-32.843-1.397
	c-3.291-0.162-7.128-7.095-5.7-9.975c0.589-1.187,1.588-1.123,2.52-0.924c13.441,2.864,27.058,2.145,40.646,2.075
	C236.819,79.288,237.065,79.659,238.293,80.651z"/>
<path fill="#2BADBE" d="M172.68,75.698c-4.468,5.951-3.69,10.031,2.613,13.857c1.27,0.771,2.497,1.616,3.723,2.457
	c2.951,2.025,2.615,4.542,0.562,6.79c-2.37,2.594-5.099,1.681-7.6-0.049c-0.656-0.454-1.265-1.17-0.536-2.067
	c3.534-4.346-0.421-3.905-2.836-4.45c-1.845-2.467-4.116-4.726-5.448-7.445c-2.846-5.812-0.297-9.353,7.11-10.504
	C171.618,73.826,172.792,73.663,172.68,75.698z"/>
<path fill="#040507" d="M196.836,117.886c-7.492,0.409-14.896-1.435-22.37-0.903c-1.145,0.082-2.019-0.217-2.26-1.386
	c-0.308-1.495,0.838-2.3,1.937-2.35c2.977-0.135,6.005-0.226,8.95,0.156c16.619,2.156,33.139,0.211,49.684-0.951
	c1.326-0.093,3.34-1.316,3.734,0.833c0.417,2.272-1.757,2.468-3.404,2.565C221.018,116.558,208.926,117.214,196.836,117.886z"/>
<path fill="#030308" d="M202.052,134.827c-8.955-0.24-17.955,0.527-26.842-1.16c-1.866-0.354-4.584-0.355-3.78-3.284
	c0.692-2.518,2.659-0.709,4.127-0.471c9.529,1.547,19.139,2.037,28.76,1.599c9.823-0.447,19.562-0.107,29.244,1.643
	c1.314,0.237,2.931,0.234,2.723,2.07c-0.141,1.236-1.253,1.976-2.62,1.555C223.28,133.582,212.629,134.815,202.052,134.827z"/>
<path fill="#020305" d="M206.042,141.709c-11.103,0.005-22.256-0.962-33.276,1.189c-1.552,0.303-2.785-0.254-3.101-1.708
	c-0.398-1.83,1.293-2.235,2.521-2.345c4.294-0.385,8.609-0.811,12.912-0.769c13.275,0.128,26.558-0.083,39.817,0.959
	c2.778,0.218,5.611-0.361,8.421-0.402c1.102-0.016,2.894-1.283,3.204,0.888c0.345,2.416-1.807,1.986-3.106,2.033
	c-4.312,0.156-8.63,0.134-12.946,0.15C215.674,141.724,210.858,141.709,206.042,141.709z"/>
<path fill="#020204" d="M174.779,121.664c16.828,2.945,34.699,0.726,52.347,2.586c2.314,0.244,6.466-0.457,6.233,2.135
	c-0.383,4.265-4.102,1.472-6.347,1.141c-9.256-1.362-18.559-0.754-27.842-0.89c-7.464-0.109-14.938,0.081-22.368-0.877
	c-1.149-0.148-2.315-0.236-3.44-0.495c-1.34-0.308-2.861-1.02-2.6-2.488C171.019,121.334,172.56,120.987,174.779,121.664z"/>
<path fill="#2BADBE" d="M172.68,75.698c-0.476-1.03-1.419-1.262-2.411-1.412c5.264-0.673,8.316-5.84,13.526-6.644
	c4.991-0.771,6.566,0.813,4.905,5.454c-0.905,2.529,2.317,3.683,1.086,6.798c-1.702,4.307-5.18,5.972-8.167,8.522
	c-1.47-0.736-2.932-1.486-4.411-2.204c-2.483-1.205-4.526-2.953-2.765-5.782c1.563-2.512,4.183-2.018,6.709-1.006
	c1.441,0.578,2.558,4.248,4.035,1.7c1.309-2.257,2.209-5.596,0.714-8.581c-0.411-0.82-1.586-1.441-1.951-0.692
	C181.434,77.002,175.894,72.915,172.68,75.698z"/>
<path fill="#2BADBE" d="M166.161,97.57c1.206,1.557,2.082,3.362,3.853,4.474c4.447,2.791,9.997,2.217,13.082-1.44
	c3.029-3.592,2.474-7.905-1.58-12.268c5.019,1.633,7.366,5.509,7.349,10.969c-0.017,5.335-3.181,7.064-7.655,7.786
	c-4.492,0.725-8.925,0.376-13.129-1.251C163.664,104.132,163.211,101.698,166.161,97.57z"/>
<path fill="#131418" d="M213.387,148.061c-5.037,0-10.06-0.082-15.079,0.019c-7.446,0.15-14.926-0.186-22.288,1.412
	c-1.529,0.332-3.212,0.256-3.55-1.68c-0.296-1.695,1.233-2.38,2.521-2.5c11.911-1.111,23.828-1.098,35.71,0.35
	C211.725,145.786,213.502,146.048,213.387,148.061z"/>
<path fill="#0E0F13" d="M234.645,95.614c-12.809-1.12-24.612-1.578-36.437-1.416c-1.813,0.025-3.735-0.227-3.679-2.312
	c0.06-2.242,1.958-1.95,3.77-1.829c11.781,0.784,23.573,1.419,35.361,2.102c1.439,0.083,3.291-0.32,3.032,2.083
	C236.467,96.317,234.85,95.602,234.645,95.614z"/>
<path fill="#010204" d="M206.893,96.149c8.961-0.306,17.847,1.161,26.785,1.28c1.243,0.017,2.969-0.438,2.907,1.643
	c-0.061,2.054-1.852,1.618-3.016,1.508c-12.899-1.215-25.828-0.741-38.748-0.8c-1.184-0.005-2.424,0.06-2.481-1.61
	c-0.064-1.861,1.165-2.05,2.639-2.036C198.949,96.175,202.921,96.149,206.893,96.149z"/>
<path fill="#2BADBE" d="M135.548,78.606c-1.406,0.663-1.555,3.708-4.178,2.112c-1.643-1-3.232-1.893-2.066-4.212
	C131.874,75.752,133.841,76.793,135.548,78.606z"/>
<path fill="#020202" d="M221.789,147.989c-0.051,1.23-0.772,1.714-1.942,1.708c-1.274-0.007-1.756-0.786-1.753-1.901
	c0.003-1.21,0.694-1.783,1.906-1.693C221.158,146.189,221.85,146.731,221.789,147.989z"/>
<path fill="#2BADBE" d="M51.814,175.542c-3.725-21.342-7.464-42.681-11.158-64.028c-0.506-2.926-0.786-5.891-1.169-8.836
	c2.194-1.497,3.591-3.426,3.014-6.797c2.063,0.973,3.714,1.382,3.981,3.606c0.251,2.095,1.297,2.045,2.627,0.778
	c3.353,25.373,7.238,50.66,12.53,75.714c0.835,1.635-0.238,3.241-0.071,4.884c0.179,1.755,0.631,4.375-1.667,4.425
	c-2.206,0.048-5.435-0.281-6.083-3.22C53.318,179.807,51.681,177.945,51.814,175.542z"/>
<path fill="#A5A5B8" d="M258.444,193.64c-10.383,0-20.766,0-31.149,0c-0.057-0.15-0.113-0.299-0.17-0.449
	c2.547-0.682,5.059-1.559,7.647-2.009c8.309-1.446,13.609-8.841,21.481-10.893c8.223-2.143,11.379-5.63,9.39-15.095
	c-1.572-7.483,0.258-15.819,0.021-23.787c3.54,2.206,0.51,5.083,1.145,7.445c0.725-0.978-0.174-2.57,0.473-3.764
	c0.358-0.662,1.339-0.484,1.224-2.005c-0.923-12.243-0.336-24.519-0.359-36.784c-0.003-1.83-0.379-4.125,2.23-4.898
	c0.07,25.67,0.144,51.34,0.194,77.01c0.002,0.978-0.224,1.955-0.344,2.933c-0.869,1.746-1.706,3.522-3.872,4.018
	c-3.552,0.384-7.12,0.802-10.55,1.801c-2.764,0.805-3.095,1.829-1.752,3.829C255.665,191.639,258.528,190.215,258.444,193.64z"/>
<path fill="#C2C4D6" d="M270.376,101.4c-1.415,1.553-0.862,3.474-0.871,5.233c-0.064,12.92-0.048,25.841-0.065,38.762
	c-0.001,0.622,0.006,1.76-0.137,1.784c-1.341,0.224-0.232-1.449-1.624-1.574c-0.088,1.493-0.183,3.11-0.33,5.628
	c-1.474-3.788,0.412-7.116-1.685-9.826c-1.768-18.391-0.333-36.682,1.787-54.942c0.971-8.358,2.144-16.691,3.226-25.036
	c1.321,1.222,0.656,2.927,1.062,4.372C271.285,77.667,270.831,89.534,270.376,101.4z"/>
<path fill="#2BADBE" d="M152.512,183.428c2.206-0.022,5.148-2.875,5.934,2.191c0.287,1.849,2.692,0.934,4.003-0.307
	c6.759-0.526,13.323-3.497,20.296-1.493c2.044,0.588,4.4,0.52,4.376,3.548c-1.423,3.112-4.221,1.983-6.48,1.861
	c-2.768-0.15-5.504-0.77-8.236,0.183c-2.621,1.607-5.075,3.364-7.147,5.722c-2.191,2.493-4.793,4.545-8.528,3.788
	c-2.068-2.25-4.847-2.042-7.527-2.175c-1.836-1.831-0.913-4.069-0.909-6.172c-0.21-0.416-0.247-0.846-0.115-1.292
	C149.52,187.257,150.516,184.972,152.512,183.428z"/>
<path fill="#2BADBE" d="M51.814,175.542c0.915,2.165,2.573,3.842,3.067,6.403c0.371,1.924,4.163,0.141,5.186,2.947
	c0.445-3.246,0.633-6.144,1.572-8.911c1.023,3.78,2.047,7.562,3.071,11.344c0.105,3.715,2.159,6.491,4.429,9.166
	c0.51,1.33,0.557,2.61-0.405,3.779c-3.606,2.052-8.104,1.354-11.593,3.763C53.561,194.873,53.659,185.026,51.814,175.542z"/>
<path fill="#2BADBE" d="M82.483,198.705c-2.004,0.53-4.009,1.06-6.013,1.59c-2.432-1.711-5.907-2.007-7.183-5.29
	c0.551-1.058,1.264-1.424,2.269-0.529c2.011,0.024,3.914-0.208,5.092-2.154c9.076-4.757,18.945-6.063,28.977-6.654
	c2.582,0.039,5.164,0.078,7.746,0.116c0.44,0.372,0.563,0.829,0.37,1.372c-1.127,1.553-2.85,1.58-4.457,1.504
	c-6.624-0.312-12.168,2.137-17.048,6.405C89.437,197.489,85.456,196.741,82.483,198.705z"/>
<path fill="#2BADBE" d="M91.578,194.317c4.468-4.945,10.106-7.073,16.692-7.045c1.945,0.008,3.989,0.383,5.773-0.841
	c5.523-0.894,11.01-0.977,16.42,0.72c1.153,0.491,2.607,0.758,2.387,2.489c-0.159,1.254-1.291,1.19-2.204,1.361
	c-2.94,0.603-5.859,1.395-8.911,1.013c-6.416-0.433-12.852-1.169-19.08,1.259C98.96,193.574,95.57,197.189,91.578,194.317z"/>
<path fill="#9F9FAC" d="M105.625,185.669c-9.659,2.218-19.318,4.436-28.977,6.654c-1.59-4.507,0.722-6.373,4.771-7.161
	C89.53,183.584,97.581,184.355,105.625,185.669z"/>
<path fill="#ACAEC0" d="M130.646,191.002c2.332-1.119,2.337-2.136-0.134-3.044c-0.4-1.041-0.579-1.931,1.072-1.577
	c0.996-0.078,1.471-0.741,1.783-1.587c-0.325-0.575-0.254-1.097,0.214-1.564c5.079,0.091,10.157,0.182,15.236,0.272
	c1.646,2.116,1.226,4.151-0.241,6.145c-0.003,0.337-0.097,0.647-0.282,0.928C142.411,190.717,136.529,190.86,130.646,191.002z"/>
<path fill="#EBEEEF" d="M90.492,180.261c-5.878,1.21-12.283,0.368-17.701,5.262c3.933-10.695,16.438-14.19,24.919-7.688
	c0.48,0.368,1.141,0.499,1.718,0.741c-0.244,2.558-2.084,2.077-3.648,1.794C94.006,180.049,92.274,179.503,90.492,180.261z"/>
<path fill="#2BADBE" d="M258.444,193.64c-1.62-2.208-4.257-0.525-6.17-1.613c2.376-4.362,7.318-4.422,11.029-6.54
	c0.962-0.549,2.267-0.299,3.18-1.11c1.248-1.01,2.496-2.021,3.744-3.032c0.469,3.649,0.937,7.298,1.406,10.947
	c-2.35,3.125-5.746,0.894-8.554,1.672C261.534,193.856,259.989,193.748,258.444,193.64z"/>
<path fill="#2BADBE" d="M239.149,51.268c-8.269,4.626-16.721,5.19-25.36,1.068C222.111,49.695,230.622,50.451,239.149,51.268z"/>
<path fill="#E1E3DC" d="M91.578,194.317c3.848,0.479,7.079-2.269,10.872-2.077c3.544-1.049,7.23-0.947,10.858-1.276
	c1.126-0.102,3.142-0.438,1.665,1.937c-10.831,1.934-21.661,3.869-32.491,5.804C84.801,195.763,88.856,196.421,91.578,194.317z"/>
<path fill="#2BADBE" d="M186.884,187.694c-3.555-4.504-8.641-3.383-13.099-2.905c-3.801,0.407-7.543,0.637-11.337,0.523
	c9.112-3.579,18.238-5.328,27.417-0.21c-0.01,1.12-0.184,2.195-0.871,3.129C188.043,189.029,187.403,188.599,186.884,187.694z"/>
<path fill="#9FA2B4" d="M90.492,180.261c2.638-2.367,6.331,0.857,8.936-1.685c9.743,2.822,19.733,3.735,29.826,3.91
	c1.458,0.025,3.017-0.261,4.327,0.742c-0.071,0.521-0.142,1.043-0.214,1.564c-5.463-2.75-11.488-1.681-17.169-1.947
	C107.552,182.441,99.062,181.071,90.492,180.261z"/>
<path fill="#9796A5" d="M188.593,188.095c0.061-1.151-0.141-2.415,1.272-2.992c4.187,1.827,8.374,3.655,12.561,5.482
	c-0.012,0.245-0.023,0.49-0.035,0.735c-4.366-0.334-8.733-0.669-13.099-1.003C188.733,189.678,188.459,188.951,188.593,188.095z"/>
<path fill="#2BADBE" d="M114.972,192.902c-0.245-2.697-2.355-1.393-3.32-1.178c-3.071,0.686-6.119,0.666-9.203,0.517
	c6.398-2.56,12.823-2.859,19.283-0.225C119.554,192.87,117.311,193.25,114.972,192.902z"/>
<path fill="#2BADBE" d="M69.775,195.478c2.144,1.728,5.698,1.496,6.695,4.817c-1.162,1.025-2.628,0.795-3.997,0.97
	c-1.087-0.933-2.458-0.798-3.74-0.993c-0.012-1.301-0.025-2.602-0.038-3.903C68.473,195.367,68.724,194.938,69.775,195.478z"/>
<path fill="#2BADBE" d="M69.775,195.478c-0.361,0.298-0.721,0.596-1.081,0.893c-5.299-1.266-3.963-5.456-3.985-9.046
	c1.013,2.009,1.745,4.195,4.737,4.073c1.956-0.079,2.305,1.428,2.109,3.078C70.713,194.367,69.968,194.432,69.775,195.478z"/>
<path fill="#CDCED2" d="M257.522,153.806c2.047,4.292,0.701,8.722,0.861,13.091c-0.525,0.03-1.05,0.061-1.575,0.091
	c-0.241-4.355-0.482-8.711-0.722-13.066C256.565,153.883,257.044,153.845,257.522,153.806z"/>
<path fill="#2BADBE" d="M188.593,188.095c0.564,0.637,1.034,1.303,0.7,2.223c-5.631-0.302-11.259-0.603-16.888-0.905
	c2.863-2.09,6.103-0.414,9.133-0.9c1.778-0.285,3.672,0.196,5.344-0.819C187.454,187.828,188.023,187.961,188.593,188.095z"/>
<path fill="#2BADBE" d="M149.203,196.746c3.042-1.121,6.517-3.739,7.526,2.176C153.863,199.436,151.015,199.881,149.203,196.746z"/>
<path fill="#9F9FAC" d="M131.585,186.38c-0.357,0.526-0.714,1.053-1.071,1.578c-5.366-1.901-10.917-1.783-16.476-1.527
	c-0.207-0.225-0.43-0.44-0.664-0.646C119.451,185.703,125.555,184.905,131.585,186.38z"/>
<path fill="#2BADBE" d="M148.576,189.647c0.078-2.048,0.157-4.096,0.238-6.145c1.235-0.025,2.466-0.049,3.698-0.074
	C151.842,185.907,151.008,188.283,148.576,189.647z"/>
<path fill="#A5A5B8" d="M263.079,193.964c2.686-1.401,5.976,0.281,8.554-1.672c0.98,1.084,1.438,2.128-0.662,2.1
	C268.339,194.356,265.668,194.834,263.079,193.964z"/>
<path fill="#FDFDFD" d="M91.566,87.445c1.354,0.354,2.38-0.382,2.997-1.337c4.897-7.582,12.699-6.803,20.236-7.657
	c7.429-0.842,12.658,1.715,17.08,7.328c1.217,1.545,1.943,2.928,1.969,4.857c0.163,11.987,1.241,23.916,2.351,35.844
	c0.49,5.266-8.032,13.543-13.133,12.312c-7.265-1.752-14.414-2.183-21.703-0.57c-4.438,0.982-7.124-3.66-11.334-3.841
	c-0.257-0.011-0.468-4.291-0.468-6.585c-0.003-13.479,0.063-26.958,0.106-40.437C90.326,86.817,90.961,86.785,91.566,87.445z"/>
<path fill="#2BADBE" d="M91.566,87.445c-0.633-0.028-1.266-0.056-1.899-0.085c-0.291-6.766-0.168-6.916,5.668-6.759
	C94.926,83.376,92.145,84.825,91.566,87.445z"/>
<path fill="#2BADBE" d="M131.669,139.984c1.209-2.141,2.306-4.457,4.756-4.211c1.03,0.104,1.355,2.436,0.902,3.503
	C136.07,142.236,133.63,139.377,131.669,139.984z"/>
<path fill="#2BADBE" d="M266.483,184.377c-4.238,3.474-9.636,4.796-14.207,7.654c-2.101-2.348-0.766-5.598,3.099-6.22
	C259.045,185.22,262.661,183.861,266.483,184.377z"/>
<path fill="#B8BACE" d="M111.527,132.684c-5.196-3.96-5.088-4.747,3.231-23.61c-3.896,3.129-6.867,5.604-9.941,7.942
	c-1.232,0.937-2.708,2.605-4.282,0.909c-1.245-1.342-0.722-3.079,0.289-4.604c2.608-3.937,5.155-7.915,7.373-12.159
	c-3.223,1.783-5.873,4.103-7.986,7.005c-0.753,1.034-1.546,1.898-2.819,0.928c-1.32-1.005-1.241-2.25-0.183-3.444
	c3.647-4.116,7.524-7.99,12.193-10.958c1.332-0.846,2.937-1.062,4.138,0.131c1.392,1.383,1.014,2.956-0.026,4.508
	c-2.205,3.29-4.325,6.635-5.85,10.831c4.288-2.981,8.587-5.947,12.857-8.954c0.949-0.668,1.802-1.471,2.694-2.219
	c1.278-1.073,2.659-1.596,3.912-0.12c1.264,1.49,0.326,2.659-0.741,3.887c-3.369,3.878-6.903,7.654-9.882,11.821
	C112.738,119.843,109.868,125.574,111.527,132.684z"/>
</svg>
