<?xml version="1.0" encoding="utf-8"?>
<!-- Generator: Adobe Illustrator 17.0.2, SVG Export Plug-In . SVG Version: 6.00 Build 0)  -->
<!DOCTYPE svg PUBLIC "-//W3C//DTD SVG 1.1//EN" "http://www.w3.org/Graphics/SVG/1.1/DTD/svg11.dtd">
<svg version="1.1" id="Layer_1" xmlns="http://www.w3.org/2000/svg" xmlns:xlink="http://www.w3.org/1999/xlink" x="0px" y="0px"
	 width="346px" height="240px" viewBox="0 0 346 240" enable-background="new 0 0 346 240" xml:space="preserve">
<g>
	<path fill="#FEFEFE" d="M93.754,172.611c7.472,0.076,14.855-1.301,22.364-1.102c6.64,0.177,13.174,1.497,19.865,1.221
		c3.928-0.162,5.265-1.637,5.414-5.328c0.431-10.629,0.507-10.633,11.125-11.747c0.99-0.104,1.997-0.037,2.997-0.043
		c9.719-0.058,11.954-2.896,9.797-12.285c-0.4-1.741-1.317-2.638-3.047-2.677c-3.967-0.09-5.111-2.453-4.919-5.966
		c0.054-0.997,0.012-1.999,0.007-2.998c-0.031-7.091-1.762-8.882-8.768-9.074c-7.228-0.198-6.909-0.216-7.331-7.586
		c-0.344-5.995-0.127-11.989-1.298-18.043c-0.775-4.009,1.9-8.504,1.48-13.067c-0.201-2.183-0.479-4.296-1.248-6.308
		c-0.538-1.409-1.425-2.564-3.23-2.671c-9.676-0.575-19.384-0.659-29.057-1.001c-7.944-0.28-16.092-1.329-24.115,0.584
		c-2.367,0.564-3.765,1.709-4.045,3.712c-0.421,3.008-1.98,7.104,1.114,8.79c4.422,2.412,1.983,6.517,3.524,9.538
		c0.7,1.372-1.81,1.455-2.848,1.784c-6.181,1.955-7.523,3.68-7.373,10.09c0.045,1.921-0.392,4.216-2.329,4.358
		c-1.892,0.139-1.081-2.321-1.57-3.604c-1.465-3.842-1.141-8.849-6.673-10.152c-1.187-0.28-2.446-1.662-2.044-3.102
		c1.444-5.17-2.313-5.045-5.373-5.261c-3.376-0.239-5.255-0.112-3.415-4.837c1.302-3.343-0.314-7.764-0.365-11.708
		c-0.074-5.669,2.029-6.801,7.539-5.969c4.147,0.626,8.8,2.229,12.447-2.251c1.786-2.194,8.898-1.456,10.495,0.876
		c1.772,2.589,4.085,2.199,6.158,1.325c2.002-0.844,3.867-1.034,5.765-0.402c3.911,1.303,7.478,1.242,10.525-1.912
		c0.497-0.514,0.988-0.911,1.675-0.391c6.585,4.985,13.283,3.871,20.119,0.537c0.934-0.456,2.435-0.467,3.39-0.044
		c5.24,2.321,10.678,2.155,16.192,1.749c6.54-0.482,8.986,1.536,8.546,7.956c-0.305,4.464,1.969,8.693,0.42,13.299
		c-0.687,2.042,1.521,3.625,3.775,3.63c2.76,0.006,5.347-0.549,5.913-4.017c0.259-1.584-0.901-4.165,2.046-4.182
		c2.741-0.015,3.703,1.687,4.118,4.508c1.244,8.455-0.722,16.809-0.267,25.246c0.476,8.819,0.058,18.066,1.825,26.339
		c1.319,6.176-0.188,11.158-0.035,16.648c0.118,4.222-1.996,7.614-2,11.587c-0.002,1.727-1.981,1.929-3.554,1.95
		c-7.914,0.103-15.259,4.449-23.396,3.115c-1.288-0.211-2.81,0.507-3.362,1.781c-2.378,5.493-7.23,5.841-12.166,6.094
		c-1.351,0.069-2.716-0.001-3.715-1.074c-2.428-2.608-5.394-2.227-8.344-1.438c-3.394,0.908-6.612,0.904-9.471-1.364
		c-1.452-1.152-3.067-1.116-4.733-1.115c-5.331,0.005-10.662,0.044-15.992-0.012c-3.99-0.042-7.487,0.414-11.187,2.822
		c-4.36,2.837-9.765,3.528-14.786,0.236c-1.8-1.18-3.798-1.988-6.023-2.262c-1.074-0.132-2.356-0.606-2.699-1.916
		c-0.414-1.584,0.687-2.681,1.819-3.234c6.248-3.051,3.359-8.632,3.742-13.271c0.05-0.611-0.762-1.764-1.339-1.885
		c-8.14-1.716-5.587-8.241-5.122-12.903c0.363-3.637,0.157-7.159-0.004-10.69c-0.184-4.028,0.368-6.085,5.13-7.438
		c8.624-2.45,17.399-0.053,25.963-2.104c2.353-0.564,3.907,1.771,3.002,4.841c-2.585,8.777-2.803,17.718-1.682,26.78
		c0.463,3.745,0.71,7.657,0.143,11.353c-0.677,4.42,0.933,5.861,4.992,5.698C90.087,172.55,91.922,172.611,93.754,172.611z"/>
	<path fill="#010204" d="M40.493,196.394c-2.533-4.921-1.619-6.369,3.851-6.611c21.326-0.944,42.592,1.101,63.884,1.212
		c19.116,0.1,38.265-0.223,57.327-2.182c3.143-0.323,6.289-0.68,9.443-0.835c8.042-0.397,8.146-0.38,8.162-8.612
		c0.045-23.795,0.678-47.588-0.197-71.386c-0.193-5.256-0.132-10.63,1.02-15.864c0.75-3.406,0.151-6.008-3.393-7.741
		c-6.158-3.011-12.249-4.033-18.498-0.548c-1.19,0.664-2.396,1.693-3.499,0.501c-1.072-1.158-0.15-2.386,0.684-3.51
		c3.315-4.467,5.907-9.239,5.86-15.028c-0.008-0.981-0.198-2.202,1.229-2.219c1.362-0.017,1.344,1.245,1.438,2.195
		c0.457,4.647-1.754,8.617-3.717,13.095c7.285-0.889,13.782,0.294,19.672,3.995c1.045-1.445,0.102-2.012-0.652-2.627
		c-5.357-4.373-9.759-9.478-12.328-16.001c-0.769-1.952-2.227-2.461-4.305-2.61c-34.96-2.506-69.88-5.7-104.999-5.06
		c-9.383,0.171-18.778-0.393-29.283,0.609c4.445-3.539,8.94-3.375,12.863-3.444c28.454-0.497,56.899-0.49,85.284,2.333
		c12.401,1.233,24.886,1.638,37.34,2.291c2.675,0.14,3.924,0.563,5.187,3.647c2.547,6.221,6.312,12.035,12.468,15.649
		c8.383,2.496,8.76,3.117,6.983,11.935c-0.395,1.961-0.532,3.933-0.558,5.927c-1.517,13.402-0.513,26.853-0.869,40.273
		c-0.422,15.887,0.244,31.787-0.649,47.668c-0.096,1.701-0.462,3.27-1.249,4.759c-2.094,7.047-3.149,8.018-10.903,7.887
		c-17.116-0.289-34.085,2.845-51.213,2.062c-1.358-0.062-2.579,0.606-3.905,0.738c-19.384,0.62-38.802,0.928-58.139-0.02
		C56.786,198.477,48.582,197.486,40.493,196.394z"/>
	<path fill="#010204" d="M234.115,100.596c0.122-8.219,0.874-16.349,0.163-24.691c-0.452-5.294,0.994-11.264,1.396-16.975
		c0.142-2.02,2.427-4.885,5.975-4.751c6.814,0.257,13.637,0.272,20.456,0.363c1.798,0.024,3.682,0.486,5.27-0.844
		c6.969,0.032,7.598,1.136,5.793,7.857c-1.772,6.599-2.158,13.45-2.196,20.257c-0.11,19.945-0.303,39.896,0.043,59.836
		c0.285,16.465-1.488,32.862-1.049,49.31c0.063,2.348-1.596,4.421-0.753,6.796l-0.062,0.051c2.457,5.207,0.355,8.917-5.211,9.006
		c-3.352,0.054-6.524-1.14-9.761-1.825c-3.604-0.762-7.241-0.809-10.884-1.002c-2.21-0.117-4.109-1.211-5.977-2.304
		c-1.766-1.668-1.72-3.277-0.258-5.245c1.412-1.9,2.87-2.269,5.11-1.654c5.117,1.407,10.211,2.668,15.698,2.329
		c3.601-0.223,4.66-1.704,4.725-4.808c0.139-6.66,0.469-13.322,0.409-19.98c-0.215-23.982,1.17-47.948,0.277-71.947
		c-0.476-12.789,0.297-25.629,0.706-38.44c0.093-2.91-0.453-4.33-3.672-4.281c-4.489,0.068-8.999-0.497-13.47-0.252
		c-3.534,0.194-7.785-0.265-6.877,6.119c0.278,1.955,1.157,5.087-1.106,7.699c-1.42,1.639,0.981,2.833,2.945,3.373
		c1.689,0.464,4.829,0.095,4.181,2.932c-0.545,2.386-3.013,1.216-4.712,0.726c-2.067-0.596-2.997-0.277-2.958,2.25
		c0.084,5.458,1.855,10.972-0.544,16.398c-0.565,1.277,0.63,2.108,1.893,2.406c1.775,0.419,3.549,0.856,5.343,1.173
		c1.121,0.198,1.939,0.721,1.913,1.845c-0.033,1.446-1.082,1.935-2.414,1.889c-0.331-0.011-0.676-0.16-0.989-0.104
		c-1.991,0.354-5.333-1.943-5.692,0.278c-0.498,3.077-2.546,6.814,0.548,9.879c1.187,1.176,1.294,2.441-0.146,3.328
		c-2.127,1.311-1.793,1.841,0.057,3.407c3.158,2.673-1.716,3.277-1.982,5.462c2.758,0.534,5.446,1.013,8.113,1.592
		c0.959,0.209,2.115,0.557,1.893,1.873c-0.221,1.309-1.177,2.121-2.527,1.698c-2.654-0.833-6.22-1.269-7.467,0.587
		c-1.885,2.805-1.457,6.962-0.7,10.208c0.642,2.754,1.869,4.904-0.875,6.986c-0.096,0.073-0.149,0.391-0.08,0.467
		c3.888,4.335-1.349,8.619-0.269,13.266c2.616-0.66,4.946-1.632,7.464-1.131c1.358,0.271,2.198,1.077,2.014,2.363
		c-0.158,1.102-1.131,1.329-2.314,1.247c-2.774-0.191-6.748-0.332-7.313,2.291c-0.685,3.183-2.437,7.149,1.644,10.437
		c3.012,2.427-1.712,2.889-2.407,4.725c2.077,1.538,5.832,2.92,0.778,5.557c-1.608,0.839-0.739,2.73-0.779,4.147
		c-0.084,3.009-0.026,6.021-0.026,9.976c-3.625-6.603-2.957-12.81-2.944-18.923c-1.999-9.358-0.908-18.827-0.313-28.161
		c0.549-8.619,0.73-17.267,1.36-25.889c0.592-8.096,1.897-16.197,1.422-24.368C232.879,103.692,233.49,102.143,234.115,100.596z"/>
	<path fill="#020304" d="M207.508,205.419c-1.622-2.339-6.629-2.162-5.09-6.85c2.234-1.376,3.669,0.621,5.367,1.341
		c1.819,0.771,3.515,1.045,5.035-0.436c1.817-1.771,3.066-3.928,3.238-6.481c0.098-1.445-1.193-1.401-2.156-1.152
		c-2.614,0.675-5.166,0.74-7.79-0.038c-1.722-0.51-2.372,0.617-2.474,2.169c-0.107,1.635,0.015,3.322-1.088,4.727
		c-4.109-1.16-2.544-4.602-2.459-7.024c0.514-14.766,1.463-29.517,1.96-44.284c0.568-16.895,1.006-33.8,1.056-50.702
		c0.011-3.756,0.85-6.685,2.576-9.915c3.2-5.99,5.281-12.44,5.277-19.4c-0.003-5.584,4.053-1.739,6.116-2.543
		c1.764,1.134,1.806,3.087,2.171,4.82c2.334,11.095,7.028,21.294,11.998,31.364c1.185,2.401,0.507,4.53,0.157,6.737
		c-0.776,4.888-2.096,9.705-1.529,14.736c-0.487,14.118-1.764,28.182-2.578,42.273c-0.383,6.636-1.194,13.25-1.302,19.889
		c-0.069,4.234-0.537,8.237-2.66,11.947l-0.044-0.057c-0.521,3.324-0.499,6.747-3.745,9.092
		C215.615,208.466,211.678,208.56,207.508,205.419z"/>
	<path fill="#040407" d="M132.838,86.56c3.466,0.254,2.618,2.746,2.445,4.812c-1.014,12.086-2.257,24.158-1.711,36.32
		c0.112,2.501-0.519,5.379,4.611,4.592c-4.189,2.237-4.241,4.958-3.873,8.157c0.301,2.617,0.877,4.124,3.848,3.693
		c0.978-0.142,2.164,0.128,2.06,1.444c-0.079,0.997-1.187,1.099-1.979,1.033c-3.208-0.265-3.193,1.362-3.036,3.993
		c0.332,5.574,0.101,11.182,0.101,17.656c-2.611-4.729-6.264-3.541-9.87-2.958c-10.688,1.727-21.537,1.208-32.295,2.04
		c-2.518,0.195-5.973-0.926-5.845-5.826c0.378-14.45,0.312-28.916-0.638-43.375c-0.271-4.123-1.919-3.973-4.558-2.93
		c-1.904,0.753-4.119,1.312-4.452-0.994c-0.306-2.121,2.149-2.382,4.068-2.54c2.066-0.17,4.925,0.756,4.597-3.243
		c-0.193-2.358-0.864-3.367-3.321-2.93c-1.296,0.231-2.651,0.192-3.979,0.171c-1.131-0.017-1.891-0.546-1.753-1.832
		c0.115-1.077,0.969-1.101,1.785-1.307c2.367-0.595,5.753,1.717,6.999-1.612c0.822-2.197,0.231-4.92,0.286-7.407
		c0.261-11.875,0.277-11.929,12.32-13.065c9.431-0.89,18.869-1.783,28.305,0.015c1.893,0.361,4.178,0.074,4.235,2.993
		c-0.913,1.238-2.264,1.366-3.592,1.226c-10.106-1.067-20.215-0.738-28.736-0.162c7.168-1.545,15.827,0.951,24.56,0.686
		c2.278-0.069,4.754-0.125,6.155,2.352c-0.922,3.172-3.678,2.39-5.796,2.444c-7.489,0.192-14.984,0.035-22.477,0.094
		c-2.64,0.021-5.333-0.16-8.742,1.61c3.908,0.693,6.898,0.26,9.917-0.06c5.434-0.576,6.868,0.893,6.48,6.382
		c-0.613,8.678-2.16,10.031-11.043,9.973c-1.96-0.013-3.931-0.761-6.414,0.152c2.811,3.286,0.971,6.123-0.122,9.507
		c-1.516,4.692-0.928,9.955-0.375,14.879c0.915,8.146,0.726,16.284,0.836,24.433c0.076,5.636,0.469,6.177,5.864,6.13
		c9.811-0.086,19.589-0.936,29.374-1.597c3.623-0.245,5.105-1.925,4.202-5.547c-0.241-0.965-0.354-1.983-0.312-2.975
		c0.174-4.063-2.027-5.187-5.67-4.865c-2.83,0.25-5.579,0.964-8.393,1.259c-1.895,0.198-4.099,0.199-4.441-2.076
		c-0.323-2.143,1.724-3.019,3.509-3.588c2.403-0.767,5.005-0.335,7.403-1.006c2.415-0.676,6.708,0.41,5.944-4.034
		c-0.667-3.876-4.166-2.043-6.619-1.909c-0.991,0.054-1.971,0.348-2.97,0.371c-2.05,0.047-4.488,0.034-4.63-2.554
		c-0.136-2.489,2.237-2.975,4.277-3.267c1.652-0.236,3.331-0.264,4.987-0.17c4.111,0.234,5.626-1.746,5.55-5.711
		c-0.213-10.983-0.044-21.961,0.974-32.912c0.153-1.651-0.018-3.338,0.664-4.92C131.811,87.046,132.242,86.701,132.838,86.56z"/>
	<path fill="#CBCDE0" d="M269.214,197.753c-1.646-2.25-0.753-4.793-0.711-7.186c0.486-27.582,1.472-55.158,1.127-82.752
		c-0.176-14.107-0.36-28.218,0.958-42.283c0.233-2.489,0.333-5.246,2.507-7.174c1.485-1.317,0.044-1.921-0.7-2.697
		c-1.373-1.432-3.345-1.314-5.02-1.963c1.87-1.318,3.729-2.82,6.041-3.092c4.863-0.574,9.117,3.738,7.908,8.744
		c-6.182,25.594-5.015,51.621-5.025,77.587c-0.006,17.252-0.035,34.504,0.08,51.755c0.026,3.924,0.388,7.633-5.356,7.035
		C269.775,195.597,269.523,196.807,269.214,197.753z"/>
	<path fill="#020307" d="M100.386,64.795c-16.656-0.992-33.328-0.397-49.962-1.515c-4.036-0.271-3.832,2.215-3.882,4.725
		c-0.349,17.823-0.824,35.647-0.933,53.472c-0.117,19.153-0.107,38.307,0.73,57.457c0.185,4.24,1.774,5.213,5.658,5.492
		c23.346,1.679,46.583-0.785,69.861-1.561c9.481-0.316,18.959-0.781,28.427-1.363c8.384-0.516,16.959,0.126,24.902-3.501
		c1.109-0.506,1.541,0.119,1.914,0.8c0.604,1.104,0.019,1.733-0.973,2.363c-3.26,2.072-7.074,2.195-10.602,2.426
		c-33.375,2.181-66.787,3.681-100.225,4.491c-5.986,0.145-11.987-0.295-17.98-0.464c-1.922-0.054-3.454-0.123-3.567-2.895
		c-0.971-23.793-0.683-47.601-0.843-71.4c-0.107-15.815,0.377-31.637,0.807-47.451c0.146-5.376,1.632-6.235,6.785-5.832
		c21.285,1.668,42.623,1.189,63.943,1.403c12.16,0.122,24.32,0.178,36.48,0.252c0.91,0.006,2.138-0.663,2.32,0.887
		c0.147,1.253-0.991,1.738-1.912,1.887c-1.634,0.263-3.315,0.312-4.976,0.315C131.034,64.803,115.71,64.795,100.386,64.795z"/>
	<path fill="#020307" d="M31.817,107.604c-3.227-13.68-6.455-27.36-9.681-41.041c-0.152-0.645-0.176-1.344-0.442-1.936
		c-0.755-1.682-0.723-4.571-3.609-3.726c-3.233,0.946-1.002,3.34-0.556,4.876c7.088,24.395,12.34,49.163,15.422,74.384
		c0.181,1.477,1.673,3.816-0.487,4.217c-2.233,0.415-1.8-2.37-2.011-3.8c-2.537-17.235-5.026-34.485-9.327-51.388
		c-2.197-8.634-3.833-17.47-7.778-25.585c-1.171-2.408-0.597-4.531,1.921-5.201c4.915-1.308,3.69-4.024,1.879-6.863
		c-2.495-3.913-2.195-4.83,2.812-5.094c8.454-0.446,16.926-0.766,25.39-0.751c38.663,0.068,77.211-2.686,115.794-4.56
		c4.482-0.218,8.962-0.562,13.426-1.013c2.079-0.21,3.506-0.049,2.342,2.454c-1.906,4.099,0.192,5.359,3.792,5.723
		c1.478,0.15,3.242,0.085,3.595,1.968c0.378,2.02-1.575,2.045-2.741,2.875c-2.949,2.101-4.506,5.445-6.64,9.734
		c-1.369-6.056,2.046-8.781,4.426-12.305c-3.363-1.182-6.485-3.159-8.818,1.337c-0.492,0.948-1.463,0.944-2.158,0.559
		c-1.307-0.724-0.343-1.858,0.066-2.475c1.346-2.03,3.149-3.768,4.068-6.711c-9.827,0.523-19.338,1.002-28.845,1.54
		c-31.082,1.76-62.181,3.097-93.301,3.96c-8.815,0.244-17.643-0.331-26.451,0.835c-2.872,0.38-3.412,0.681-2.602,3.793
		c4.25,16.328,8.517,32.662,11.715,49.244C33.353,104.383,33.761,106.037,31.817,107.604z"/>
	<path fill="#C8CADC" d="M187.38,187.704c0.712-1.065,2.162-1.689,2.035-3.255c-1.532-18.864-0.126-37.747-0.205-56.619
		c-0.046-11.056-0.654-22.203,1.124-33.226c2.171-1.091,4.612-0.412,6.853-1.043c-0.983,16.679-0.226,33.411-1.679,50.088
		c-0.59,6.766,0.298,13.66-0.278,20.429c-0.782,9.184-0.702,18.477-2.856,27.523C189.623,191.693,187.18,191.392,187.38,187.704z"/>
	<path fill="#BBBED2" d="M40.493,196.394c11.562,0.466,23.121,0.871,34.696,1.079c13.095,0.236,26.185,0.177,39.277,0.331
		c2.974,0.035,5.899-1.104,8.885-0.274c0.812,0.944,3.073-0.287,2.993,1.733c-0.066,1.667-1.7,1.63-2.991,1.957
		c-3.267,0.827-6.91-0.978-9.929,1.447c-5.541,2.025-11.409,0.704-17.112,1.725c-7.121,1.274-14.437,1.458-21.671,2.088
		c-6.984,0.608-13.853-1.106-20.825-1.09c-1.855,0.004-4.516-1.574-4.539-3.156c-0.031-2.11,2.698-2.36,4.661-2.659
		c0.62-0.095,1.222-0.307,2.789-0.714c-4.312-1.701-7.917-0.59-11.346-1.091C43.703,197.524,41.631,198.577,40.493,196.394z"/>
	<path fill="#AAABC2" d="M113.424,202.667c0.431-3.413,3.867-2.731,5.186-2.495c2.538,0.454,4.651-0.783,7.048-0.166
		c-0.049-1.946-2.141-1.162-2.307-2.476c8.683-1.496,17.487-0.431,26.232-1.369c10.518-1.128,21.133-1.405,31.715-1.857
		c3.967-0.169,7.261-0.398,5.072-5.776c-0.048-0.118,0.656-0.543,1.01-0.825c0.672,2.57,3.605,2.244,4.993,3.898
		c-2.67,9.963-2.916,10.501-16.211,10.876c-14.262,0.402-28.546,0.027-42.821-0.009c-5.324-0.597-10.647-0.638-15.969,0.017
		C116.056,202.546,114.74,202.607,113.424,202.667z"/>
	<path fill="#CACEDF" d="M223.33,196.598c1.827-14.753,1.971-29.637,3.435-44.411c0.733-7.393,0.19-14.855,1.628-22.213
		c0.524-2.683,0.015-5.568-0.023-8.361c1.496-6.698,1.968-13.608,4.186-20.156c0.52-0.287,1.039-0.574,1.559-0.861
		c0.305,19.053-1.85,37.994-2.593,56.999c-0.342,8.744-0.675,17.489-1.012,26.234c-2.596,1.214-1.559,3.468-1.349,5.316
		c0.395,3.474,0.326,6.799-1.287,9.825C225.467,199.44,226.865,193.681,223.33,196.598z"/>
	<path fill="#030307" d="M41.396,62.008c-1.373,35.767,0.238,71.604-2.502,107.823c-2.839-0.98-2.687-2.851-2.561-4.54
		c2.303-30.74,1.459-61.546,2.035-92.322c0.069-3.684,0.921-7.353,1.41-11.029C40.318,61.962,40.857,61.985,41.396,62.008z"/>
	<path fill="#030509" d="M176.447,153.765c0.467-19.777,0.82-39.569,2.57-59.295c0.102-1.151-0.634-3.08,1.531-2.934
		c2.092,0.141,1.939,1.926,1.742,3.447c-3.207,24.813-2.888,49.765-2.999,74.702c-0.005,1.022,0.616,2.711-1.13,2.729
		c-1.363,0.014-1.658-1.572-1.676-2.678C176.4,164.413,176.447,159.089,176.447,153.765z"/>
	<path fill="#AAABC0" d="M232.556,101.457c-0.469,6.911-1.245,13.759-4.186,20.156c0.33-5.769,0.7-11.536,2.375-17.115
		c0.349-1.164,0.494-2.275-0.171-3.341c-6.979-11.188-11.473-23.298-13.499-36.325c5.102-0.706,6.139,3.203,7.037,6.666
		c1.62,6.245,2.889,12.587,4.133,18.923C229.024,94.386,230.458,98.037,232.556,101.457z"/>
	<path fill="#ABACC3" d="M237.32,201.679c4.774,1.956,9.899,0.223,14.758,1.409c2.736,0.668,5.593,0.905,8.268,1.742
		c7.318,2.292,9.509,0.616,8.807-7.026c2.085,1.108,4.303,2.399,4.047,5.051c-0.282,2.916-3.09,3.985-5.344,4.523
		c-7.056,1.684-14.072,3.189-21.547,1.411C241.838,207.725,240.615,203.619,237.32,201.679z"/>
	<path fill="#2BADBE" d="M132.838,86.56c-0.247,0.345-0.493,0.69-0.74,1.035c-0.976,0.89-1.961,0.83-2.954,0.029
		c-1.093-1.321-2.598-1.313-4.111-1.266c-10.635,0.331-21.259-1.429-31.902-0.187c-0.4,0.047-0.842-0.275-1.456-0.493
		c0.8-1.526,2.202-1.63,3.394-1.761c11.223-1.231,22.446-3.16,33.704-0.189c0.73,0.193,1.605-0.166,2.412-0.268
		C132.725,83.966,132.534,85.395,132.838,86.56z"/>
	<path fill="#A6A4B8" d="M197.186,93.562c-1.814,3.44-4.458,1.421-6.853,1.043c0.088-1.136-0.034-2.338,0.297-3.398
		c1.873-5.978,2.091-11.235-5.3-13.564c1.803-0.008,3.609-0.084,5.409-0.013c5.52,0.219,7.734,3.082,6.925,8.569
		C197.308,88.624,197.334,91.106,197.186,93.562z"/>
	<path fill="#B0B1C3" d="M207.508,205.419c9,3.188,12.475,0.356,15.778-8.879c0.108,1.667,0.564,3.194,1.347,4.708
		c1.421,2.749,0.354,5.252-1.549,7.245c-3.24,3.394-7.238,3.45-11.439,2.045C209.15,209.704,206.899,208.733,207.508,205.419z"/>
	<path fill="#121417" d="M143.133,135.706c-1.884,0.272-2.55-0.844-3.138-2.107c-0.411-0.882-1.227-1.736-0.533-2.745
		c1.01-1.47,2.291-0.388,3.529-0.369c2.452,0.036,4.531,2.229,7.177,1.029c0.808-0.366,2.098-0.484,2.249,1.008
		c0.117,1.158-0.697,1.832-1.676,2.172C148.213,135.571,145.381,134.258,143.133,135.706z"/>
	<path fill="#101016" d="M60.882,106.77c-2.894,0.2-4.046-1.241-4.025-3.504c0.013-1.399,0.402-3.514,2.28-3.088
		c2.856,0.648,7.857,1.995,7.876,3.113C67.073,106.837,62.689,105.347,60.882,106.77z"/>
	<path fill="#05060A" d="M159.391,145.517c-2.233,2.51-9.741,4.478-11.418,3.149c-1.306-1.035-2.207-2.687-1.543-4.368
		c0.524-1.326,1.921-0.866,3.037-0.498C152.566,144.822,155.756,145.452,159.391,145.517z"/>
	<path fill="#0E0E13" d="M59.363,116.74c2.55-3.258,5.618-1.833,8.625-0.741c0.522,0.19,0.991,0.806,1.236,1.339
		c0.093,0.203-0.594,1.094-0.789,1.051c-3.508-0.773-6.557,2.344-10.028,1.193c-0.975-0.323-2.45-0.831-1.919-2.397
		C56.885,116.011,57.682,115.055,59.363,116.74z"/>
	<path fill="#05090F" d="M257.806,67c-0.128,1.993-1.995,2.51-3.753,2.704c-2.018,0.223-2.999-1.134-3.04-3.068
		c-0.036-1.654,0.663-3.303,2.422-3.06C255.156,63.815,257.619,63.789,257.806,67z"/>
	<path fill="#BBBED2" d="M117.372,202.485c5.322-1.4,10.645-1.441,15.97-0.016C128.018,202.474,122.695,202.48,117.372,202.485z"/>
	<path fill="#050507" d="M36.711,181.734c-0.214-0.043-1.52,0.124-1.291-1.307c0.187-1.168,1.027-1.898,2.385-1.918
		c1.206-0.018,1.939,0.592,1.933,1.642C39.73,181.552,38.708,182.017,36.711,181.734z"/>
	<path fill="#2BADBE" d="M216.302,172.411c-12.058,2.027-12.375,1.868-11.544-9.975c0.965-13.759,0.781-27.534,1.031-41.304
		c0.051-2.808,0.457-5.609,0.699-8.413c0.962-2.672-0.414-6.014,2.34-8.173c0.094-0.132,0.187-0.265,0.28-0.397
		c3.283,4.293,7.462,1.993,11.389,1.547c0.757,10.421,0.706,20.81-1.238,31.124c-0.185,0.981-0.253,1.977-0.029,2.972
		c0.072,1.175,0.076,2.339-0.44,3.439c-2.129,6.459-0.517,13.112-1.04,19.651C217.494,166.089,218.811,169.544,216.302,172.411z"/>
	<path fill="#F3F5F5" d="M213.811,78.849c2.301,6.869,4.601,13.738,6.907,20.605c0.282,0.841,0.389,1.719-0.456,2.217
		c-1.639,0.968-3.39-0.945-5.23,0.316c-3.111,2.132-2.249-1.378-3.083-2.449c-0.485-0.622-0.778-1.912-1.243-1.954
		c-7.415-0.663-4.23-4.55-2.61-8.104c1.577-3.46,2.97-7.004,4.444-10.511C212.964,78.93,213.388,78.889,213.811,78.849z"/>
	<path fill="#EFF2F3" d="M202.549,198.699c-0.072-1.317-0.175-2.633-0.211-3.951c-0.148-5.365,0.255-5.922,5.2-3.822
		c2.802,1.19,4.67-0.275,6.929-0.685c3.003-0.545,4.229,0.23,2.906,3.36c-0.512,1.212-0.842,2.505-1.401,3.692
		c-2.429,5.155-5.545,6.002-10.287,2.949c-1.022-0.658-1.579-2.312-3.269-1.676C202.418,198.569,202.549,198.699,202.549,198.699z"
		/>
	<path fill="#2BADBE" d="M216.302,172.411c0.01-8.455-0.018-16.91,0.062-25.364c0.016-1.665-0.762-3.838,1.865-4.493
		c2.215,4.364,1.025,8.984,0.857,13.482c-0.123,3.283-0.424,6.543,0.039,9.816C218.12,168.01,221.654,172.123,216.302,172.411z"/>
	<path fill="#2BADBE" d="M218.318,139.61c-0.664-0.098-1.681-0.414-1.429-1.002c4.131-9.645,3.57-19.81,3.476-29.93
		c-0.009-0.993,0.084-1.987,0.131-2.982c2.665,2.829,1.039,6.309,1.051,9.361c0.034,8.115-0.686,16.233-1.105,24.35
		C219.81,140.275,219.09,140.215,218.318,139.61z"/>
	<path fill="#2BADBE" d="M218.318,139.61c0.708-0.066,1.416-0.132,2.124-0.2c0.47,8.856-0.419,17.647-1.316,26.44
		c-1.876-5.735-0.293-11.627-0.764-17.429c-0.158-1.946-0.094-3.91-0.133-5.866C218.259,141.573,218.288,140.591,218.318,139.61z"/>
	<path fill="#99A3AE" d="M206.399,185.896c2.27-4.488,6.722-6.375,10.583-8.985C213.827,180.34,210.856,183.959,206.399,185.896z"/>
	<path fill="#A3A5AE" d="M211.323,186.874c1.019-2.503,2.844-4.052,6.016-5.331C215.97,184.829,214.302,186.562,211.323,186.874z"/>
	<path fill="#2BADBE" d="M208.828,104.545c-0.78,2.723-1.56,5.447-2.34,8.171C206.808,109.862,205.015,106.401,208.828,104.545z"/>
	<path fill="#FCFDFC" d="M129.144,87.624c0.985-0.009,1.969-0.019,2.954-0.028c0.241,13.987-2.039,27.918-0.938,41.923
		c0.17,2.167-0.728,3.001-2.884,2.902c-3.327-0.152-6.662-0.215-9.991-0.162c-1.529,0.024-3.32,0.525-3.02,2.445
		c0.249,1.594,2.068,1.604,3.318,1.274c2.935-0.775,5.898-0.841,8.893-1.014c2.713-0.157,3.438,0.614,4.024,3.418
		c1.048,5.015-0.839,5.95-5.248,5.771c-3.784-0.153-7.66-0.224-11.363,1.062c-1.138,0.395-2.383,0.765-1.887,2.287
		c0.493,1.511,1.667,1.155,2.879,0.767c4.339-1.391,8.836-1.536,13.345-1.516c1.332,0.006,2.796-0.174,2.958,1.77
		c0.318,3.809,0.62,7.62,0.929,11.43c0.148,1.83-0.541,2.571-2.525,2.745c-12.448,1.094-24.912,1.633-37.406,1.671
		c-2.216,0.007-2.791-0.764-2.827-2.877c-0.253-14.819-0.431-29.645-1.092-44.448c-0.159-3.553,3.176-2.557,4.227-4.021
		c-1.066-2.389-3.801-0.37-4.3-2.214c-0.413-1.525-0.523-3.509,0.133-4.849c0.785-1.605,2.516-0.666,3.972-0.214
		c4.069,1.263,8.21,0.423,12.326,0.148c1.136-0.076,1.99-0.522,1.902-1.769c-0.21-2.994,0.003-5.866,0.675-8.857
		c0.565-2.519-2.026-2.543-3.864-2.431c-4.148,0.254-8.289,0.612-12.431,0.949c-0.928,0.075-2.111,0.689-2.363-0.791
		c-0.19-1.115-0.222-2.404,1.21-2.92c2.205-0.794,4.468-1.254,6.832-1.262c8.995-0.031,17.99-0.052,26.984-0.203
		C126.095,88.585,127.953,89.45,129.144,87.624z"/>
	<path fill="#2BADBE" d="M101.941,96.119c-2.138,2.038-3.256,4.058-5.839,2.634c-0.719-0.396-1.536-1.303-0.989-1.937
		C96.745,94.924,98.916,95.644,101.941,96.119z"/>
	<path fill="#2BADBE" d="M101.676,103.173c-0.924-0.104-1.507-0.579-1.381-1.549c0.179-1.377,1.38-1.777,2.435-1.945
		c0.881-0.14,1.407,0.635,1.315,1.577C103.908,102.669,102.858,103.017,101.676,103.173z"/>
	<path fill="#090706" d="M126.408,127.983c-2.543-3.983-4.5-5.403-7.277-2.454c-1.376,1.462-3.107-0.468-4.732-0.217
		c-4.412,0.681-8.993,0.659-13.042,2.876c-2.653,1.452-4.797,0.16-6.99-1.013c-1.285-0.687-1.764-1.821-0.33-2.642
		c5.703-3.269,2.674-7.614,0.972-11.15c-1.58-3.283-0.733-4.509,2.278-4.515c9.079-0.02,18.149,0.007,27.205-0.824
		c1.383-0.127,2.982,0.56,2.396,2.316C125.141,115.599,126.597,120.903,126.408,127.983z"/>
	<path fill="#03050A" d="M105.476,142.852c-4.449,1.86-7.703,2.835-11.153,3.104c-0.843,0.066-1.666,0.128-1.945-0.902
		c-0.263-0.969,0.236-1.673,1.125-1.835C97.046,142.576,100.581,140.996,105.476,142.852z"/>
	<path fill="#06070C" d="M106.175,147.626c-3.748,3.079-7.75,2.575-11.151,3.804c-0.333,0.12-1.228-0.516-1.431-0.987
		c-0.548-1.269,0.481-1.697,1.425-2.071C98.388,147.033,101.818,147.017,106.175,147.626z"/>
	<path fill="#06070D" d="M105.008,134.861c-2.736,0-5.473,0.055-8.206-0.032c-0.886-0.028-2.238,0.2-2.334-1.175
		c-0.095-1.366,0.941-2.316,2.197-2.046C99.458,132.206,102.594,131.472,105.008,134.861z"/>
	<path fill="#040707" d="M104.171,138.193c-3.613,1.887-6.455,2.343-9.364,2.549c-1.148,0.081-2.106-0.469-2.177-1.565
		c-0.075-1.162,0.952-1.701,2.028-1.648C97.459,137.668,100.3,136.924,104.171,138.193z"/>
	<path fill="#070709" d="M114.18,99.887c-1.675,0.021-3.193-0.054-3.401-1.637c-0.138-1.049,0.909-1.744,2.046-1.201
		c1.222,0.583,3.407-0.401,3.635,1.586C116.668,100.449,114.695,99.357,114.18,99.887z"/>
	<path fill="#161718" d="M127.237,97.448c-0.452,1.442-1.647,1.412-2.772,1.399c-1-0.012-2.241-0.267-1.828-1.54
		c0.404-1.245,1.862-1.022,2.97-1.051C126.42,96.234,127.265,96.282,127.237,97.448z"/>
	<path fill="#2BADBE" d="M123.513,120.157c0.126,0.617-0.411,1.507-2.008,1.987c-2.942,0.886-9.123-1.305-10.645-3.838
		c-0.601-0.999-0.207-1.585,0.608-1.942c3.018-1.321,6.055-2.601,9.114-3.822c1.138-0.454,1.87,0.015,2.035,1.294
		C122.849,115.633,123.124,117.426,123.513,120.157z"/>
	<path fill="#2BADBE" d="M99.749,124.236c5.695-6.219,7.176-6.319,12.522-1.259C108.16,123.39,104.535,123.755,99.749,124.236z"/>
	<path fill="#2BADBE" d="M113.547,111.13c-2.893,1.409-5.474,6.422-9.456,0.75C107.669,111.597,110.608,111.364,113.547,111.13z"/>
	<path fill="#2BADBE" d="M99.334,112.941c2.128,0.934,4.084,2.01,4.314,4.189c0.096,0.906-2.144,2.404-3.001,1.847
		C98.666,117.69,99.036,115.346,99.334,112.941z"/>
</g>
</svg>
