<?xml version="1.0" encoding="utf-8"?>
<!-- Generator: Adobe Illustrator 17.0.2, SVG Export Plug-In . SVG Version: 6.00 Build 0)  -->
<!DOCTYPE svg PUBLIC "-//W3C//DTD SVG 1.1//EN" "http://www.w3.org/Graphics/SVG/1.1/DTD/svg11.dtd">
<svg version="1.1" id="Layer_1" xmlns="http://www.w3.org/2000/svg" xmlns:xlink="http://www.w3.org/1999/xlink" x="0px" y="0px"
	 width="200px" height="170px" viewBox="0 0 200 170" enable-background="new 0 0 200 170" xml:space="preserve">
<path fill="#050304" d="M83.213,141.628c-3.589,2.493-7.482,4.238-11.372,5.95c-5.868,2.582-11.491,0.31-12.965-5.126
	c-2.199-8.112,2.035-19.402,9.729-25.945c5.339-4.379,10.15-2.934,14.824-1.211c5.261,1.939,5.208,2.04,9.264-3.093
	c1.274-2.122-0.027-2.741-1.497-3.358c-12.817-5.378-21.376-14.561-24.899-28.229c-1.987-2.034,0.152-5.572-1.595-7.694
	c-0.195-3.075-0.033-6.2,0.352-9.359c1.57-12.876,10.259-21.802,23.396-24.45c12.128-2.444,22.645-0.028,32.541,4.365
	c2.558,1.136,5.024,2.483,7.375,3.953c0.383,0.223,0.765,0.46,1.153,0.678c8.776,5.772,17.139,11.981,22.841,20.942
	c0.639,1.16,1.386,2.243,2.086,3.364c4.989,10.095,7.707,20.982,7.417,33.146c-0.422,17.69-15.084,34.014-33.303,36.429
	c-4.169,0.553-8.358,0.909-12.421,0.569c-6.984-2.232-12.733-6.238-18.204-10.603c-2.015-1.608-3.838-2.865-6.439,0.217
	C88.887,135.446,86.86,139.181,83.213,141.628z"/>
<path fill="#2BADBE" d="M115.635,141.393c7.273,0.66,14.593-0.479,21.987-3.242c11.972-4.474,18.483-13.212,21.426-24.695
	c3.807-14.855,0.027-27.47-5.225-39.637c-0.228-0.527-0.322-1.128-0.478-1.694c-1.016-4.778,0.476-7.2,4.904-7.96
	c2.374,5.908,4.747,11.816,7.121,17.724c1.888,1.295-0.172,4.13,1.32,5.579c0.052,1.834,0.104,3.668,0.156,5.501
	c0.072,1.933-0.716,4.068,0.348,5.769c0.05,0.277,0.108,0.551,0.175,0.822c0.908,2.804,0.566,5.687-1.041,8.649
	c-0.251,1.537-0.502,3.073-0.753,4.61c-1.575,1.446-0.815,3.566-2.306,5.037c-3.217,2.976-4.442,7.011-6.963,10.385
	c-7.891,10.561-18.053,16.53-30.19,18.438c-4.617,0.726-8.475-0.919-12.11-2.86C113.682,142.545,113.73,141.472,115.635,141.393z"/>
<path fill="#2BADBE" d="M128.495,48.602c-8.098-4.244-16.386-8.036-26.197-8.981c-6.993-0.674-13.975-0.159-20.99,2.969
	c-8.186,3.65-13.203,9.878-14.727,18.256c-0.72,3.959-0.927,7.916-1.366,11.875c-0.575,0.917-1.128,0.828-1.671,0.264
	c1.094-3.241-1.549-5.199-1.356-8.264c0.751-11.935,8.947-22.293,21.968-26.935c9.179-3.273,18.228-4.869,26.717-1.862
	c3.574,1.266,7.084,2.643,9.84,5.152c3.128,0.362,5.632,1.913,8.208,3.236C131.394,45.583,131.121,47.017,128.495,48.602z"/>
<path fill="#2BADBE" d="M151.432,69.502c-5.94-8.268-13.794-14.576-22.065-20.455c2.391-2.384,5.579-2.92,8.302-4.562
	c1.552-0.936,2.599,0.176,3.613,0.951c6.913,4.154,12.901,9.168,15.902,16.961C154.191,64.005,153.527,67.259,151.432,69.502z"/>
<path fill="#2BADBE" d="M141.282,45.436c-4.241-0.761-7.87,2.942-11.915,3.611c-0.29-0.148-0.581-0.297-0.871-0.445
	c3.105-2.081,0.899-3.225-0.421-3.45c-3.115-0.531-4.811-2.882-7.362-4.078c0.953-0.069,2.03,0.171,2.839-0.256
	C132.124,36.285,136.743,40.739,141.282,45.436z"/>
<path fill="#2BADBE" d="M92.692,112.202c-0.375,1.066-0.788,2.127-1.117,3.199c-1.075,3.504-2.894,4.118-5.637,2.545
	c-5.098-2.924-10.629-4.444-17.331-1.441c5.446-5.752,11.388-5.567,17.341-4.308C88.145,112.662,90.142,113.802,92.692,112.202z"/>
<path fill="#2BADBE" d="M115.635,141.393c-0.997,0.565-1.43,1.432-1.629,2.425c-7.316-1.57-11.856-6.904-17.296-10.956
	c-2.033-1.514-3.056-1.967-4.62,0.824c-2.106,0.754-2.406,0.029-1.386-1.777c1.569-3.541,3.498-4.058,6.167-2.053
	C102.718,134.246,108.52,138.719,115.635,141.393z"/>
<path fill="#2BADBE" d="M151.432,69.502c0.736-3.203,0.657-6.983,5.751-7.105c0.355,0.589,0.71,1.179,1.066,1.768
	c-3.545,1.756-4.753,4.61-4.905,7.96C152.334,71.543,151.602,70.742,151.432,69.502z"/>
<path fill="#2BADBE" d="M90.705,131.91c-0.062,1.022,0.24,1.745,1.387,1.776c-2.678,2.97-4.274,7.16-8.882,7.945
	C85.71,138.389,88.207,135.149,90.705,131.91z"/>
<path fill="#2BADBE" d="M63.544,72.985c0.557-0.087,1.114-0.174,1.671-0.263c0.36,2.629,0.719,5.259,1.08,7.892
	c-1.88-0.142-1.968-1.544-1.677-3.019C64.983,75.737,64.286,74.37,63.544,72.985z"/>
<path fill="#FEFDFC" d="M104.009,110.565c1.106-0.573,2.47,0.115,3.415-1.24c-0.494-0.25-0.989-0.5-1.483-0.75
	c-2.227-0.477-1.763-2.427-1.765-4.134c3.151-7.518,3.491-15.067,4.503-22.62c0.62-4.625-1.491-8.676-0.256-13.395
	c0.326-3.626,0.885-7.265,1.409-10.901c0.162-0.829,0.466-1.623,1.015-2.35c2.709-2.013,4.333-0.22,6.221,0.643
	c4.721,4.972,7.539,11.322,11.066,17.161c5.676,13.109,7.211,27.356,4.459,42.767c-0.165,0.923-0.629,1.848-0.954,2.773
	c-1.719,4.047-2.785,8.305-6.31,11.715c-1.74,1.683-3.433,2.859-5.682,2.494c-6.606-2.954-12.329-7.093-17.534-11.799
	C98.864,117.993,99.842,113.987,104.009,110.565z"/>
<path fill="#FEFEFD" d="M103.605,60.139c-1.171,0.852-1.893,1.945-2.191,3.265c-2.524,5.283-2.243,10.601-3.117,15.904
	c-0.315,2.747-1.08,5.592,0.382,7.948c-0.046,2.65-0.163,5.303-1.108,7.992c-1.212,2.688-2.048,5.422-2.562,8.207
	c-0.291,1.575-0.599,3.24-2.91,3.046c-2.436-0.882-4.955-1.646-6.529-3.753c0.929-2.407,0.786-4.5-0.785-6.173
	c-2.056-2.779-5.014-4.808-6.462-8.093c-4.704-7.979-6.84-17.122-8.244-26.592c-0.179-1.207,0.096-2.494,0.428-3.761
	c1.196-3.199,2.095-6.582,6-8.098c0.606-1.288,1.835-1.642,2.896-1.792c8.397-1.185,16.646-1.627,24.145,1.109
	c1.84,0.671,3.415,1.707,4.509,3.301c0.648,1.182,0.609,2.492,0.009,3.9C107.025,58.326,105.54,59.529,103.605,60.139z"/>
<path fill="#F9FAF5" d="M80.548,122.253c6.269-0.203,7.083,1.585,3.618,7.277c-3.499,5.747-8.208,9.671-14.536,11.638
	c-2.805,0.872-4.167,0.384-4.215-2.6C65.296,131.185,73.269,122.488,80.548,122.253z"/>
<path fill="#2BADBE" d="M107.761,53.268c-9.036-5.92-19.894-5.456-31.253-3.236c0.09-2.816,2.798-3.339,4.452-4.174
	c6.259-3.16,12.6-4.614,18.579-2.252c6.609,2.611,13.329,5.091,17.731,10.74c0.36,0.817,0.413,1.633-0.455,2.447
	c-2.233,0.184-3.071-2.324-5.413-1.93C109.695,55.17,108.692,54.28,107.761,53.268z"/>
<path fill="#2BADBE" d="M104.009,110.565c-3.969,6.397-3.892,7.32,0.931,10.878c4.798,3.539,9.6,7.073,14.4,10.609
	c0.909,0.79,2.605,1.232,1.846,2.941c-0.784,1.767-2.471,1.078-3.771,1.281c-0.921,0.144-1.867,0.216-2.683-0.157
	c-5.615-1.661-9.088-6.022-13.435-9.273c-4.958-3.708-5.374-8.825-1.555-14.846C101.024,109.98,102.516,110.608,104.009,110.565z"/>
<path fill="#2BADBE" d="M70.507,58.13c1.922,10.488,3.85,20.973,9.056,29.996c-0.537,1.654,0.175,2.836,0.742,4.147
	c0.744,1.721,0.573,3.475-1.811,4.634C68.892,86.506,65.534,73.833,70.507,58.13z"/>
<path fill="#2BADBE" d="M109.66,68.291c0.727,12.224,0.374,24.517-4.432,37.094c-1.073,0.978-0.809,3.183-3.02,3.118
	c-2.201-0.384-1.016-2.129-0.732-3.375c1.983-8.712,3.868-17.421,5.031-26.139c-0.449-2.872,0.466-5.887,0.713-8.831
	C107.339,68.736,107.885,67.547,109.66,68.291z"/>
<path fill="#2BADBE" d="M96.959,95.632c0.292-2.841,0.584-5.683,0.876-8.524c-1.479-2.258,0.784-5.494-0.702-7.75
	c0.444-3.863,0.76-7.724,1.391-11.59c0.268-1.642,1.107-3.345,2.892-4.366c0.601,10.644-0.802,21.44-3.413,32.33
	C97.564,96.024,97.221,95.975,96.959,95.632z"/>
<path fill="#2BADBE" d="M134.41,128.641c5.77-6.823,13.061-11.744,20.055-17.036c0.358,0.432,0.715,0.864,1.073,1.296
	c-6.745,5.522-13.49,11.044-20.235,16.565C135.005,129.191,134.707,128.916,134.41,128.641z"/>
<path fill="#2BADBE" d="M116.816,56.793c0.152-0.816,0.303-1.631,0.455-2.447c5.411,5.007,9.03,11.22,10.863,18.633
	C123.492,68.245,120.422,62.316,116.816,56.793z"/>
<path fill="#2BADBE" d="M139.804,107.946c3.964-4.762,8.224-9.267,12.866-13.403c0.835-0.744,1.855-2.769,3.093-1.448
	c0.974,1.039-0.369,2.404-1.365,3.309c-3.32,3.016-6.752,5.91-10.066,8.932c-1.136,1.036-2.053,2.312-3.07,3.478
	C140.566,108.815,140.134,108.451,139.804,107.946z"/>
<path fill="#2BADBE" d="M78.494,96.907c1.051-1.582,1.905-3.078,0.634-4.639c-0.966-1.187-1.042-2.658,0.435-4.142
	c1.96,2.697,3.92,5.394,5.88,8.091c0.964,2.829-0.416,3.977-3.305,4.044C80.582,99.494,79.388,98.355,78.494,96.907z"/>
<path fill="#2BADBE" d="M140.707,94.849c2.522-4.726,6.084-8.458,9.925-11.955c0.612-0.557,1.376-1.317,2.083-0.771
	c0.314,0.243,0.381,1.259,0.1,1.632C149.465,88.213,145.377,91.871,140.707,94.849z"/>
<path fill="#2BADBE" d="M114.733,136.119c0.618-0.062,1.252-0.198,1.851-0.174c3.43,0.14,4.583-1.002,2.757-3.893
	c6.769-0.656,8.122-6.472,10.873-10.948c0.516-0.839,0.951-1.717,1.425-2.58c-0.494,6.604-4.774,11.729-9.405,16.565
	C119.919,137.506,117.195,136.88,114.733,136.119z"/>
<path fill="#2BADBE" d="M143.515,114.273c4.035-3.787,8.025-7.634,13.06-10.138c-2.495,5.396-7.803,7.772-12.169,11.148
	C143.4,115.578,143.057,115.283,143.515,114.273z"/>
<path fill="#2BADBE" d="M109.66,68.291c-3.173,0.992-1.901,3.374-2.363,5.134c-0.482,1.838-0.545,3.709-0.791,5.565
	c0.275-5.045,0.55-10.09,0.825-15.134c0.556-2.3-0.193-4.668,1.616-6.906c0.804-0.551,1.538-0.704,2.12-0.01
	C110.599,60.723,110.129,64.507,109.66,68.291z"/>
<path fill="#2BADBE" d="M152.085,90.868c-3.997,4.15-7.994,8.301-11.991,12.451c-0.289-0.261-0.578-0.522-0.867-0.783
	c2.637-5.345,7.862-8.421,11.921-12.519C151.46,90.301,151.773,90.585,152.085,90.868z"/>
<path fill="#2BADBE" d="M152.806,120.042c-3.584,4.056-7.613,7.561-12.485,10.02C143.984,126.105,147.856,122.406,152.806,120.042z"
	/>
<path fill="#2BADBE" d="M148.595,73.445c-0.991,3.323-5.819,8.83-10.967,12.828C140.384,80.347,144.559,76.95,148.595,73.445z"/>
<path fill="#2BADBE" d="M96.959,95.632c0.348,0.031,0.696,0.063,1.044,0.097c-0.777,2.98-1.565,5.958-2.326,8.937
	c-0.58,2.271-1.625,3.235-3.581,1.832c2.473-0.817,2.033-2.777,2.222-4.32C94.607,99.82,94.903,97.549,96.959,95.632z"/>
<path fill="#2BADBE" d="M146.78,70.401c-2.96,3.427-5.92,6.853-9.132,10.572C138.084,77.175,141.091,73.407,146.78,70.401z"/>
<path fill="#2BADBE" d="M82.138,100.26c1.792-0.853,3.329-1.889,3.304-4.044c1.68,1.857,4.989,3.393,0.128,6.532
	C84.057,102.367,82.774,101.707,82.138,100.26z"/>
<path fill="#2BADBE" d="M109.197,57.018c-0.241,2.313-0.219,4.651-1.865,6.837c-0.154-2.296-1.462-3.468-3.723-3.717
	c1.391-0.891,1.783-2.92,3.66-3.264C108.036,56.44,108.684,56.464,109.197,57.018z"/>
<path fill="#2BADBE" d="M148.965,80.592c-2.817,3.096-5.635,6.191-8.452,9.287C142.077,85.645,144.985,82.631,148.965,80.592z"/>
<path fill="#2BADBE" d="M139.804,107.946c0.486,0.289,0.972,0.579,1.458,0.868c0.008,0.676-0.365,1.584,0.784,1.566
	c0.379,0.396,0.334,0.826-0.133,1.289c-0.812,0.815-1.624,1.631-2.88,2.892C138.656,112.06,138.55,110.074,139.804,107.946z"/>
<path fill="#2BADBE" d="M141.913,111.668c0.044-0.429,0.088-0.859,0.133-1.289c1.79-2.297,4.101-3.91,6.574-5.347
	C146.956,107.835,144.41,109.727,141.913,111.668z"/>
<path fill="#2BADBE" d="M138.421,61.676c-1.419,1.654-2.837,3.308-4.256,4.962c-0.347-2.846,2.063-3.834,3.289-5.598
	C137.776,61.252,138.098,61.464,138.421,61.676z"/>
<path fill="#2BADBE" d="M102.208,108.503c1.007-1.039,2.013-2.079,3.02-3.118c0.143,1.102-0.569,2.534,0.725,3.19
	C104.556,109.244,103.347,109.045,102.208,108.503z"/>
<path fill="#2BADBE" d="M143.515,114.273c0.297,0.337,0.594,0.673,0.891,1.01c-1.256,1.629-2.658,3.07-5.329,4.141
	C140.376,117.04,141.838,115.585,143.515,114.273z"/>
<path fill="#2BADBE" d="M109.197,57.018c-0.643-0.048-1.285-0.096-1.928-0.144c0.164-1.202,0.328-2.404,0.492-3.606
	c1.604-0.13,2.845,0.357,3.642,1.595c-0.112,0.692-0.223,1.383-0.335,2.076C110.444,56.965,109.82,56.992,109.197,57.018z"/>
<path fill="#2BADBE" d="M97.132,79.358c3.015,1.856,0.831,5.071,0.703,7.749C94.951,85.217,97.116,82.007,97.132,79.358z"/>
<g>
	<path fill="#2BADBE" d="M50.969,21.067c0.664,1.589,2.751,2.093,3.033,3.973c-0.817,1.438-2.164,1.959-3.708,2.146
		c-1.911-0.387-2.773-2.722-5.866-2.714c3.352,4.65,7.714,7.447,11.129,11.121c1.311,1.196,2.496,2.45,2.033,4.451
		c-3.16,3.652-5.176,7.441-3.94,12.692c0.856,3.635-0.767,7.27-2.402,10.639c-0.701,1.272-1.759,1.713-3.097,1.163
		c-2.057-0.845-1.224-2.81-1.577-4.314c1.178-1.546,1.816-2.958-0.996-3.244c-1.297-0.132-2.721-0.738-3.845,0.657
		c0.77,2.07,3.059,0.838,4.198,1.986c0.385,2.182,1.776,4.509-0.875,6.273l0.042,0.005c-0.615-0.283-1.391-0.11-1.922-0.49
		c-1.598-1.142-3.029-2.163-4.402,0.363c-0.416,0.766-1.424,0.479-2.131-0.082c-1.092-1.426-1.965-2.931-1.833-4.816
		c0.046-3.581,1.219-6.671,4.274-9.176c-0.722-0.286-1.277-0.379-1.669-0.682c-1.711-1.323-5.208-0.244-5.428-3.297
		c-0.267-3.702,0.975-7.255,3.112-10.31c0.889-1.271,2.385-1.993,3.848-0.407c2.308,1.081,2.198,2.929,1.58,4.94
		c-1.914,3.738,1.679,3.529,3.368,4.585c1.957,1.223,2.66-0.079,3.039-1.766c0.505-0.79,2.645,0.626,1.992-0.8
		c-1.195-2.61-0.067-6.021-2.835-8.004c-2.787-2.897-5.623-5.751-8.338-8.715c-1.039-1.134-1.983-2.826-0.516-4.008
		c3.023-2.436,5.667-5.65,9.985-5.959C48.672,18.342,48.805,20.708,50.969,21.067z"/>
	<path fill="#2BADBE" d="M50.811,26.825c0.811-1.048,1.964-1.483,3.192-1.784c2.625,2.905,5.673,5.29,9.027,7.291
		c1.064,0.635,2.073,1.576,0.557,2.389c-2.47,1.324-3.342,4.31-5.995,5.325c-0.79-1.445-1.362-3.064-3.037-3.802
		c0.907-2.336,0.41-4.188-1.574-5.849C51.941,29.524,50.297,28.75,50.811,26.825z"/>
	<path fill="#2BADBE" d="M39.797,41.982c0.489-1.792,0.248-3.458-0.85-4.979c1.936,0.384,3.909,0.64,5.801,1.18
		c3.469,0.992,1.736-0.983,1.345-2.225c1.995,0.146,3.11,1.14,2.646,3.194c-0.28,1.24-0.171,2.277,0.947,2.803
		c1.24,0.585,1.832,0.83,0.6,2.221c-1.059,1.195-1.766,2.014-3.163,0.649C43.927,45.819,41.968,43.626,39.797,41.982z"/>
	<path fill="#2BADBE" d="M37.721,65.942c0.84-0.433,0.736-1.341,1.081-2.02c0.956-1.879,2.444-2.658,3.557-0.238
		c0.628,1.366,2.024,1.262,2.739,2.217c-2.295,0.716-4.663,0.779-7.037,0.784c-0.278-0.073-0.421-0.207-0.429-0.403
		C37.624,66.092,37.654,65.979,37.721,65.942z"/>
	<path fill="#2BADBE" d="M46.807,60.236c0.883,1.892,0.564,5.485,4.442,3.14c-0.856,3.81-3.597,2.986-6.193,2.52
		c0.102-0.09,0.3-0.25,0.293-0.26c-1.457-1.988,1.094-3.708,0.375-5.637C46.269,59.238,46.614,59.391,46.807,60.236z"/>
	<path fill="#2BADBE" d="M37.721,65.942c0.118,0.246,0.231,0.493,0.34,0.743c-3.514,0.262-4.5-1.502-3.251-5.809
		C35.781,62.565,36.751,64.253,37.721,65.942z"/>
	<path fill="#2BADBE" d="M50.969,21.067c-3.434,0.896-3.361-1.674-3.746-3.791C50.474,16.561,49.713,19.811,50.969,21.067z"/>
	<path fill="#0A0905" d="M50.811,26.825c1.45,1.437,2.826,2.96,4.367,4.291c2.427,2.097,2.525,3.775-0.624,5.127
		c-3.103-2.855-6.282-5.635-9.271-8.604c-1.117-1.109-3.292-2.411-1.376-4.351c1.691-1.712,2.889,0.237,4.103,1.166
		C48.98,25.196,49.88,26.031,50.811,26.825z"/>
	<path fill="#110906" d="M39.797,41.982c2.751,0.151,4.692,2.389,7.325,2.844c0.585,0.905,1.536,1.771,0.485,2.92
		c-0.783,0.856-1.779,0.671-2.693,0.306c-1.791-0.716-3.595-1.427-5.31-2.303C37.013,44.426,37.747,43.138,39.797,41.982z"/>
	<path fill="#0E0605" d="M46.807,60.236c-0.361-0.079-0.722-0.158-1.083-0.237c-0.817-0.07-1.642-0.25-2.448-0.187
		c-1.457,0.114-3.078,0.234-3.078-1.698c0-2.13,1.606-2.65,3.502-2.414c0.956,0.119,1.933,0.144,2.866,0.359
		c1.132,0.261,2.712,0.037,2.934,1.684C49.76,59.68,48.049,59.768,46.807,60.236z"/>
</g>
</svg>
