<?xml version="1.0" encoding="utf-8"?>
<!-- Generator: Adobe Illustrator 17.0.2, SVG Export Plug-In . SVG Version: 6.00 Build 0)  -->
<!DOCTYPE svg PUBLIC "-//W3C//DTD SVG 1.1//EN" "http://www.w3.org/Graphics/SVG/1.1/DTD/svg11.dtd">
<svg version="1.1" id="Layer_1" xmlns="http://www.w3.org/2000/svg" xmlns:xlink="http://www.w3.org/1999/xlink" x="0px" y="0px"
	 width="346px" height="240px" viewBox="0 0 346 240" enable-background="new 0 0 346 240" xml:space="preserve">
<g>
	<path fill="#020205" d="M186.655,84.699c-1.554-12.734-1.416-25.515-1.194-38.308c0.067-3.858,2.214-4.193,5.221-4.104
		c13.292,0.395,26.585,0.859,39.88,1c20.124,0.214,40.243-0.24,60.344-1.242c1.117-0.056,2.11-0.215,2.424,0.901
		c0.448,1.596-0.938,2.002-2.051,2.101c-3.968,0.353-7.946,0.706-11.925,0.767c-2.57,0.039-3.513,0.972-3.504,3.548
		c0.034,9.613-0.013,19.228-0.193,28.839c-0.059,3.175,1.224,3.926,4.207,3.721c4.112-0.283,8.169-1.203,12.361-0.802
		c2.704,0.259,4.138-1.092,4.104-4.196c-0.09-8.447,0.119-16.897,0.21-25.346c1.131-1.491,0.535-3.215,0.57-4.825
		c0.043-1.957,0.098-3.779,2.606-4.011c2.231-0.206,3.872,0.72,4.739,2.84c0.451,1.102,0.573,2.281,0.409,3.436
		c-1.199,8.449-0.508,16.945-0.644,25.419c-0.055,3.413-0.709,6.527-2.552,9.476c-1.751,2.801-4.049,4.219-7.337,4.347
		c-17.433,0.678-34.873,1.375-52.287,2.261c-16.422,0.835-32.931-0.406-49.272,2.041c-3.55,0.532-5.392-0.905-5.618-4.474
		C187.081,86.946,187.395,85.743,186.655,84.699z"/>
	<path fill="#A4A4BB" d="M186.655,84.699c1.494,0.671,0.764,2.001,0.87,3.057c0.295,2.923,1.71,3.989,4.688,3.408
		c10.009-1.953,20.164-1.43,30.283-1.737c20.878-0.631,41.776-0.836,62.62-2.394c1.821-0.136,3.649-0.201,5.475-0.221
		c9.383-0.104,12.157-3.088,12.273-12.707c0.107-8.932-1.227-17.91,0.941-26.791c0.641-2.625-1.359-3.444-3.492-3.763
		c-2.661-0.399-2.867,1.306-2.992,3.356c-0.095,1.556,0.815,3.352-0.782,4.671c-0.086-2.966-0.827-6.092,0.838-8.766
		c1.098-1.763,1.579-4.949,4.724-4.069c3.004,0.84,6.139,1.908,6.533,5.893c1.42,14.347,1.142,28.684-0.292,43.005
		c-0.177,1.77-0.88,3.525-1.57,5.19c-0.411,0.992-0.862,1.676,0.2,2.558c6.551,5.437,4.246,12.968,4.393,19.818
		c0.045,2.068-2.422,2.822-4.32,3.567c-6.413,2.516-13.299,2.643-19.955,3.744c-4.941,0.817-9.459-1.304-11.506-6.621
		c3.4-2.682,7.371-1.656,11.015-1.244c3.992,0.452,7.966,0.21,11.935,0.528c3.02,0.242,4.499-0.935,3.594-4.129
		c-0.32-1.128-0.523-2.254-0.493-3.438c0.19-7.59,0.168-7.512-7.539-8.892c-6.334-1.134-12.57-0.487-18.819,0.563
		c-2.971,0.499-4.053,2.323-4.247,5.207c-0.256,3.793,0.782,7.63-0.409,11.38c-6.363,3.855-28.542,3.226-34.073-0.967
		c0.76-1.069,1.943-1.516,3.077-1.277c5.778,1.214,11.574-0.769,17.406,0.374c5.104,1,6.025-0.139,5.612-5.427
		c-0.269-3.445,2.098-7.407-1.905-10.148c-2.034-2.144-4.679-1.283-7.076-1.311c-2.401-0.028-4.615-1.12-7.009-0.974
		c1.011,0.614,2.959-0.739,3.173,1.535c-3.127,2.39-6.683,1.385-10.049,1.062c-6.623-0.635-7.185-0.148-6.158,6.592
		c0.101,0.66,0.287,1.292,0.464,1.93c0.098,0.466,0.115,0.937,0.059,1.41c-0.617,1.719-1.08,3.334,1.277,4.234
		c0.706,0.269,1.957,0.627,1.041,1.939c-2.978-0.088-5.714-0.1-7.968,2.696c-1.218,1.511-3.448,2.486-5.869,2.164
		c-7.888-1.048-15.795-1.943-23.685-2.979c-1.296-0.17-2.593-0.667-3.273-2.005c2.805-2.219,6.03-1.473,9.068-1.015
		c4.626,0.698,9.249,0.565,13.884,0.579c3.276,0.01,4.8-1.141,3.045-4.518c-1.115-2.147-1.3-4.41-0.879-6.768
		c0.544-3.054-0.746-4.328-3.833-3.985c-9.448,1.047-18.732-2.366-28.202-1.074c-1.173,0.16-2.28-0.33-3.146-1.211
		c0.896-1.681,2.68-0.793,4.237-1.445C186.213,92.453,186.397,88.586,186.655,84.699z"/>
	<path fill="#010204" d="M37.515,203.049c-2.535,0.011-5.414,2.155-7.392-1.271c-0.735-1.273-0.979-2.786-0.139-3.741
		c2.188-2.488,4.972-2.412,8.154-1.798c16.023,3.09,32.178,1.42,48.269,0.739c21.923-0.928,43.828-2.3,65.786-1.677
		c8.307,0.236,8.261,0.176,8.001-8.06c-0.835-26.433-1.281-52.881-2.389-79.302c-0.845-20.135,0.334-40.211,0.625-60.314
		c0.041-2.869,0.831-5.177,3.213-6.844c4.711-0.425,6.861,1.677,6.099,6.7c-0.743,4.902-1.263,9.813-1.85,14.726
		c-0.908,7.601-0.58,15.184-0.731,22.776c-0.573,18.605,0.485,37.192,1.282,55.749c0.606,14.116,0.494,28.212,0.812,42.315
		c0.105,4.67,0.662,9.28,2.847,13.53c-1.114,4.141-4.408,6.502-10.2,6.566c-5.306,0.059-10.606-0.12-15.926,0.063
		c-10.281,0.354-20.564,0.695-30.846,0.998c-22.415,0.661-44.833,1.404-67.265,1.08C42.912,205.241,39.784,205.705,37.515,203.049z"
		/>
	<path fill="#C4C7D9" d="M169.693,196.733c-2.483-0.335-3.29-1.589-3.556-4.24c-1.15-11.447-0.402-22.917-0.777-34.369
		c-0.774-23.624-1.189-47.259-1.738-70.89c-0.019-0.825,0.108-1.654,0.167-2.48c2.325-2.049,5.574-2.68,7.711-5.018
		c0.043,5.816,0.282,11.639,0.094,17.448c-0.57,17.604,0.785,35.17,1.269,52.74c0.422,15.323,1.876,30.63,1.828,45.998
		c-0.008,2.647-0.485,4.89-2.242,6.842C168.928,201.942,170.776,198.668,169.693,196.733z"/>
	<path fill="#ACACC1" d="M169.693,196.733c0.919,2.01,1.839,4.021,2.757,6.031c-0.047,3.157-1.536,4.853-4.789,5.135
		c-10.359,0.899-20.594,1.446-31.104,0.427c-13.176-1.277-26.552-1.133-39.849,0.114c-10.714,1.005-21.471,1.564-32.213,2.273
		c-6.622,0.437-13.246,0.983-19.877,1.117c-6.797,0.138-8.702-2.419-7.104-8.779c5.223,1.279,10.542,1.149,15.851,1.028
		c23.889-0.546,47.786-0.91,71.664-1.783c11.949-0.437,23.873-1.198,35.841-0.744C164.648,201.693,167.776,200.213,169.693,196.733z
		"/>
	<path fill="#010206" d="M154.129,125.139c-3.726-3.291-3.208-7.721-2.966-11.797c0.685-11.532-1.74-22.854-1.901-34.313
		c-0.043-3.044-2.091-2.24-3.839-2.233c-29.973,0.117-59.947,0.227-89.92,0.315c-3.33,0.01-6.67,0.011-9.986-0.233
		c-2.922-0.215-3.687,1.072-3.731,3.778c-0.216,13.325,0.716,26.609,1.134,39.911c0.096,3.047,2.046,2.48,3.694,2.685
		c15.548,1.934,31.176,2.178,46.812,2.048c17.619-0.147,35.237-0.412,52.855-0.621c1.624-0.019,3.248-0.003,6-0.003
		c-4.303,3.281-8.523,2.866-12.191,2.907c-26.804,0.304-53.613,0.335-80.419,0.207c-5.79-0.027-11.58-1.009-17.361-1.637
		c-1.132-0.123-3.132,0.364-2.687-1.848c1.594-7.931-0.616-15.787-0.331-23.712c0.28-7.8-0.194-15.64-0.619-23.447
		c-0.191-3.506,1.659-4.757,4.448-4.402c28.009,3.564,56.086,1.169,84.134,1.119c7.154-0.013,14.309-0.121,21.462-0.26
		c2.422-0.047,3.171,1.188,3.246,3.377c0.356,10.308,1.98,20.528,2.469,30.798C154.703,113.455,153.568,119.239,154.129,125.139z"/>
	<path fill="#020307" d="M149.295,191.624c-7.989,0.999-15.933-0.441-23.903-0.437c-5.825,0.003-11.65,0.053-17.474,0.038
		c-2.467-0.006-3.447-0.333-4.747-3.578c-3.332-8.312-0.061-16.482-1.297-24.621c-0.383-2.522,2.575-5.624,5.279-5.482
		c13.966,0.733,27.904-0.325,41.853-0.183c3.872,0.039,4.408,0.764,3.045,4.935c-2.041,6.247-0.508,13.001,0.411,19.508
		C153.521,185.76,152.975,189.197,149.295,191.624z"/>
	<path fill="#030304" d="M185.603,96.726c11.3-1.794,22.515,1.799,33.83,0.512c3.416-0.389,3.708,2.286,3.152,4.757
		c-0.682,3.037-0.75,5.63,1.183,8.474c2.416,3.554,1.16,5.412-3.244,5.708c-8.345,0.56-16.544-1.432-24.857-1.457
		c-2.929-1.773-7.284,0.605-9.456-2.885c-1.805-2.901-0.344-6.424-0.915-9.632C184.974,100.391,183.64,98.438,185.603,96.726z"/>
	<path fill="#030309" d="M35.18,186.169c-2.286-2.452-2.474-5.359-2.486-8.248c-0.128-32.993-0.167-65.985-0.344-98.978
		c-0.065-12.13-0.365-24.26-0.721-36.385c-0.064-2.191,1.057-2.026,2.429-2.014c23.147,0.207,46.293,0.414,69.44,0.619
		c15.828,0.14,31.656,0.279,47.483,0.414c1.803,0.015,3.606,0.002,5.751,0.002c-1.065,3.261-3.48,2.276-5.107,2.282
		c-21.66,0.085-43.321,0.032-64.981,0.008c-15.664-0.017-31.331,0.091-46.992-0.165c-3.673-0.06-4.838,0.701-4.815,4.552
		c0.174,30.328,0.091,60.658,0.159,90.987C35.03,154.878,34.4,170.517,35.18,186.169z"/>
	<path fill="#030407" d="M270.623,115.872c-2.921-4.857-0.372-10.091-0.824-15.138c-0.201-2.24,3.513-2.44,5.63-2.916
		c8.591-1.93,17.238-0.363,25.861-0.089c2.543,0.081,2.602,2.026,2.599,3.981c-0.006,3.576-2.495,7.174,0.784,10.78
		c1.186,1.304-2.769,5.023-4.953,4.696c-8.003-1.198-16.067-1.273-24.134-1.29C273.931,115.888,272.277,115.88,270.623,115.872z"/>
	<path fill="#AAACBF" d="M171.501,79.735c-0.668,4.596-4.277,4.674-7.712,5.018c0.647-12.643-0.788-25.42,2.784-37.881
		c1.095-3.82-1.171-5.768-4.931-6.092c0.68-3.058,2.614-3.539,5.514-3.287c3.023,0.262,4.215,1.74,5.104,4.388
		c2.42,7.204,0.938,14.437,0.124,21.568C171.763,68.89,171.822,74.31,171.501,79.735z"/>
	<path fill="#06070B" d="M106.702,68.406c-2.23-8.512-7.872-10.776-15.435-6.547c-2.671,1.494-5.319,3.028-8.783,5.003
		c7.344,1.858,13.825-1.271,20.184,0.782c-6.767,1.839-13.653,2.956-20.635,2.072c-2.471-0.313-2.646-3.199-2.736-5.313
		c-0.175-4.133-0.051-8.278-0.122-12.417c-0.04-2.34,1.381-2.865,3.236-2.615c7.699,1.037,15.535,0.531,23.187,2.111
		c0.959,0.198,1.755,0.017,2.124,1.41c1.026,3.88,0.047,8.153,2.71,11.828C110.963,65.45,106.948,65.723,106.702,68.406z"/>
	<path fill="#050509" d="M188.745,178.61c20.656,2.066,41.12-1.465,61.682-2.105c4.15-0.129,8.303-0.199,12.455-0.247
		c1.391-0.016,3.631-0.682,3.631,1.315c0,2.34-2.584,2.508-4.182,2.144c-6.461-1.471-12.85-0.482-19.293-0.057
		c-19.058,1.256-38.101,3.113-57.237,2.165c-1.832-0.091-5.176,1.65-5.206-1.633c-0.03-3.331,3.315-1.4,5.169-1.723
		C186.721,178.302,187.75,178.55,188.745,178.61z"/>
	<path fill="#2BADBE" d="M65.619,61.264c-0.125,1.631,0.082,3.634-2.43,3.402c-2.616-0.241-5.809,1.167-7.477-2.192
		c-0.361-0.728-0.392-1.607-1.316-1.927c-3.425-0.277-6.842-0.753-10.418-0.496c3.225,1.052,6.713-0.536,9.655,1.499
		c0.242,2.541-0.158,5.041-3.186,5.168c-3.884,0.163-8.217,0.698-10.694-3.428c-0.634-1.056-1.159-2.326-1.621-3.509
		c-0.647-1.659-1.13-3.722,0.085-5.243c1.177-1.474,3.035-0.824,4.675-0.483c3.5,0.729,7.929,3.039,10.301,1.71
		c3.468-1.944,6.366-0.763,9.485-1.077c3.052-0.307,3.142,1.597,2.918,3.78c-0.866,1.911-2.941,1.028-4.237,1.805
		C62.669,61.009,64.578,59.162,65.619,61.264z"/>
	<path fill="#07070A" d="M234.479,186.919c-15.661-0.066-31.294,0.69-46.916,1.719c-0.993,0.065-1.986,0.145-2.981,0.18
		c-1.439,0.051-2.938-0.275-2.931-1.936c0.009-1.96,1.83-1.522,3.049-1.553c12.481-0.321,24.963-0.609,37.446-0.885
		c11.462-0.254,22.923-0.5,34.386-0.696c1.15-0.02,2.927-0.839,3.099,1.289c0.203,2.506-1.823,1.851-3.158,1.86
		C249.143,186.944,241.811,186.919,234.479,186.919z"/>
	<path fill="#0A0706" d="M94.155,112.978c-2.155,0.1-4.314,0.344-6.462,0.266c-3.174-0.115-5.474-1.253-4.862-5.106
		c0.101-0.634,0.024-1.327-0.11-1.963c-1.198-5.668-0.872-6.251,5.064-5.896c4.12,0.247,8.213,1.078,12.296,1.777
		c4.712,0.807,4.596,4.029,4.322,7.903c-0.328,4.649-3.464,2.923-5.762,3.166c-1.478,0.156-2.985,0.029-4.479,0.029
		C94.159,113.095,94.157,113.037,94.155,112.978z"/>
	<path fill="#06070A" d="M83.095,91.899c11.722,1.393,22.687,0.732,33.298,3.748c-6.705,0-13.424,0.279-20.109-0.083
		c-5.983-0.324-11.95-0.644-17.939-0.477c-1.303,0.036-2.991,0.525-3.556-0.923c-0.612-1.568,0.763-2.179,2.161-2.613
		c3.207-0.996-0.455-2.493,0.156-3.884c0.308-0.7-0.565-2.042,0.865-2.304c0.975-0.179,1.12,0.751,1.366,1.563
		c1.453,4.795,3.273,3.726,5.144,0.243c0.495-0.921,1.252-2.083,2.191-1.265c3.863,3.369,8.277,1.315,12.449,1.592
		c0.891,0.059,2.244-0.313,2.371,1.092c0.134,1.473-1.213,1.219-2.12,1.35c-4.038,0.586-8.051,1.919-12.082-0.291
		C85.391,88.606,84.942,90.623,83.095,91.899z"/>
	<path fill="#06070B" d="M252.942,146.649c-4.687,3.752-9.057,1.721-13.012,0.94c-18.318-3.615-36.772-4.556-55.366-3.743
		c-0.664,0.029-1.328,0.076-1.993,0.107c-1.309,0.061-2.589-0.522-2.686-1.705c-0.113-1.375,1.261-1.766,2.507-1.739
		c7.652,0.163,15.305,0.319,22.956,0.532c13.144,0.365,25.983,2.833,38.804,5.532C246.677,147.104,249.41,146.649,252.942,146.649z"
		/>
	<path fill="#151618" d="M48.543,164.728c0.696,2.595,2.911,1.744,4.518,1.801c11.804,0.419,23.612,0.729,35.42,1.021
		c1.644,0.041,3.986-0.447,3.906,1.737c-0.08,2.165-2.543,1.668-4.103,1.544c-12.455-0.986-24.925-0.319-37.386-0.346
		c-3.669-0.008-5.551-0.762-4.051-4.782C47.124,164.875,47.684,164.542,48.543,164.728z"/>
	<path fill="#05070F" d="M49.32,146.498c-10.544,0.118-10.544,0.118-10.581-0.964c-0.307-8.948,1.055-10.336,10.017-10.464
		c2.848-0.041,4.821,0.776,4.948,4.002C53.865,143.136,51.902,146.469,49.32,146.498z"/>
	<path fill="#05060C" d="M119.436,147.445c-3.619,0.129-6.803-0.031-4.162-5.058c0.145-0.275,0.007-0.7,0.153-0.973
		c1.061-1.982-2.659-4.551-0.012-5.711c3.604-1.578,7.73-1.785,11.751-1.349c0.469,0.051,1.221,0.211,1.324,0.503
		c1.224,3.474-2.39,6.65-0.519,10.465c0.506,1.032-2.409,1.637-4.08,1.729C122.403,147.132,120.92,147.309,119.436,147.445z"/>
	<path fill="#0A0B10" d="M90.283,176.754c-4.683,0-9.434,0.104-14.179-0.022c-9.272-0.247-18.538-0.381-27.803,0.213
		c-1.301,0.083-2.853,0.28-2.968-1.695c-0.09-1.55,0.754-2.779,2.288-2.67c13.777,0.983,27.637,0.193,41.37,1.967
		C89.846,174.658,90.427,175.336,90.283,176.754z"/>
	<path fill="#05070B" d="M78.107,148.161c0-2.065,0.108-3.885-0.026-5.688c-0.191-2.583-0.191-5.139,2.505-6.419
		c3.196-1.518,6.928-1.343,9.444,0.621c2.653,2.071-0.106,5.467-0.045,8.304c0.045,2.077-1.523,3.174-3.661,3.18
		C83.579,148.167,80.834,148.161,78.107,148.161z"/>
	<path fill="#07080C" d="M49.602,180.575c10.446,1.414,20.788,0.526,31.096,0.892c0.832,0.029,1.675-0.003,2.494,0.119
		c1.883,0.28,5.053,0.124,4.818,2.17c-0.259,2.26-3.31,1.141-5.077,0.948c-11.129-1.22-22.259,0.869-33.385-0.121
		c-1.829-0.163-4.645,1.316-4.741-1.685C44.701,179.606,47.79,180.767,49.602,180.575z"/>
	<path fill="#1D1F23" d="M238.619,150.863c-5.181-0.686-9.736-1.373-14.312-1.88c-12.128-1.345-24.228-1.346-36.265,0.978
		c-0.97,0.187-1.994,0.162-2.989,0.132c-0.94-0.029-2.149,0.207-2.417-1.111c-0.332-1.63,1.031-2.044,2.123-2.168
		c17.748-2.017,35.432-2.436,52.86,2.454C237.852,149.333,237.971,149.804,238.619,150.863z"/>
	<path fill="#2BADBE" d="M143.14,61.283c-1.926,0.627-2.325,3.381-4.626,3.416c-2.738,0.042-5.953,1.389-7.982-1.205
		c-2.057-2.63-1.175-6.029-0.986-9.133c0.093-1.531,1.36-1.705,2.567-1.698c1.326,0.008,2.698,0.36,3.97,0.125
		c4.537-0.839,6.424,1.039,6.061,5.499c-0.699,1.922-2.369,0.545-3.491,1.034C140.039,60.219,142.477,58.727,143.14,61.283z"/>
	<path fill="#05060A" d="M48.543,164.728c-0.565,0.325-1.13,0.65-1.696,0.975c-3.59-4.664-3.254-6.48,2.464-6.038
		c11.808,0.913,23.739,0.678,35.432,2.965c0.073,0.014,0.095,0.293,0.236,0.772c-9.866,0-19.65,0.176-29.42-0.118
		C52.953,163.206,50.695,163.304,48.543,164.728z"/>
	<path fill="#0A0B0E" d="M184.532,165.254c3.776,1.377,5.225-0.43,5.707-3.508c0.241-1.543,0.812-2.641,2.509-2.172
		c1.947,0.538,1.238,2.146,0.786,3.247c-0.962,2.342-1.225,4.794-1.531,7.246c-0.126,1.01-0.121,2.132-1.278,2.396
		c-1.468,0.335-1.465-1.077-1.655-1.911c-0.299-1.308-0.7-2.215-2.269-1.781c-0.894,0.247-2.396,0-2.279,1.329
		c0.196,2.236-0.717,3.726-2.514,2.257c-1.097-0.897-4.422-2.06-2.286-5.037c0.654-0.911,1.069-2.066,1.33-3.171
		c0.505-2.14,0.832-4.95,3.806-3.77C187.592,161.464,184.965,163.626,184.532,165.254z"/>
	<path fill="#141419" d="M76.681,188.177c-1.272,1.382-3.194,1.416-4.879,1.553c-6.452,0.525-12.919,0.928-19.388,1.165
		c-1.948,0.071-3.933-0.476-5.877-0.864c-1.263-0.252-1.305-1.375-1.216-2.377c0.084-0.944,0.758-1.625,1.673-1.424
		c9.395,2.057,18.857,0.371,28.281,0.579C75.985,186.823,76.51,187.196,76.681,188.177z"/>
	<path fill="#080A0D" d="M187.376,126.784c-0.115,0.467-0.341,1.101-0.418,1.752c-0.135,1.129-0.491,2.501,1.244,2.682
		c1.335,0.139,2.123-0.584,2.369-1.978c0.172-0.97,0.491-1.941,0.911-2.833c0.344-0.732,1.033-1.427,1.896-1.119
		c0.511,0.182,1.185,0.964,1.155,1.435c-0.207,3.273-0.322,6.59-0.998,9.78c-0.391,1.843-2.075,3.085-3.188,0.378
		c-0.967-2.352-2.129-2.712-4.09-1.42c-1.323,0.871-2.69,1.126-3.055-0.744c-0.672-3.441,0.39-6.788,1.172-10.107
		c0.092-0.389,1.11-0.909,1.558-0.799C187.325,124.154,187.405,125.393,187.376,126.784z"/>
	<path fill="#0B0D10" d="M198.27,172.521c-1.531-0.102-3.986-1.196-3.42-1.896c1.889-2.336-1.255-5.76,1.948-7.416
		c1.952-1.01,4.059-1.713,6.068-0.307c1.323,0.925,1.169,2.172,0.104,3.402c-1.021,1.179-3.885,2.649,0.275,3.515
		c0.115,0.024,0.272,0.987,0.073,1.203C201.956,172.499,200.105,172.51,198.27,172.521z"/>
	<path fill="#2BADBE" d="M121.752,61.193c-0.515,3.167-2.649,4.228-5.345,3.258c-3.887-1.399-2.643-5.162-2.99-8.088
		c-0.162-1.362,0.427-3.12,2.096-2.452c2.274,0.91,6.606-1.059,6.309,3.969C119.076,58.928,121.266,60.078,121.752,61.193z"/>
	<path fill="#14151A" d="M62.243,141.693c1.383,0.617,3.99-1.264,4.326,1.405c0.387,3.07-2.458,5.604-5.628,5.825
		c-4.193,0.291-3.865-4.089-3.892-5.506C56.992,140.283,60.376,142.459,62.243,141.693z"/>
	<path fill="#010204" d="M53.633,61.55c-3.604-0.088-7.212-0.11-10.811-0.304c-1.133-0.061-2.426-0.552-2.091-2.105
		c0.298-1.378,1.495-1.042,2.396-0.744c3.666,1.212,8.01-1.147,11.269,2.15C54.142,60.881,53.887,61.216,53.633,61.55z"/>
	<path fill="#101114" d="M146.142,146.588c-3.733,0.596-7.259-0.516-10.831-0.79c-0.859-0.066-1.615-0.745-1.621-1.586
		c-0.003-0.479,0.665-1.158,1.193-1.41C136.716,141.924,144.745,144.615,146.142,146.588z"/>
	<path fill="#010306" d="M197.715,131.834c1.068-1.825-0.334-6.018,2.348-5.651c3.577,0.489,1.075,3.966,0.821,6.121
		c-0.142,1.203,0.829,3.584-1.54,3.312C197.979,135.46,197.521,133.512,197.715,131.834z"/>
	<path fill="#090A0F" d="M97.686,146.878c-2.105-0.033-4.299,0.175-4.92-2.297c-0.238-0.945,0.88-2.168,1.812-1.625
		c2.237,1.302,6.169-0.491,6.85,2.592C101.913,147.748,98.878,146.304,97.686,146.878z"/>
	<path fill="#08090D" d="M145.274,138.893c-2.65,2.044-5.11,1.96-7.547,2.081c-1.327,0.066-2.263-0.085-2.246-1.717
		c0.014-1.32,0.788-1.77,1.889-1.569C139.806,138.135,142.53,136.756,145.274,138.893z"/>
	<path fill="#010204" d="M143.14,61.283c-2.134-0.121-4.269-0.218-6.4-0.375c-0.773-0.057-1.806,0.05-1.924-1.045
		c-0.142-1.324,0.996-1.666,1.932-1.71c1.796-0.085,3.603,0.076,5.401,0.135c0.893,0.509,2.558-0.24,2.673,1.527
		C144.893,60.911,143.89,61.005,143.14,61.283z"/>
	<path fill="#010204" d="M65.619,61.264c-1.785,0.183-3.568,0.383-5.355,0.544c-1.091,0.098-2.138-0.274-2.159-1.434
		c-0.02-1.153,1.077-1.478,2.105-1.553c1.795-0.13,3.591-0.236,5.387-0.352C67.43,59.385,67.381,60.317,65.619,61.264z"/>
	<path fill="#05070A" d="M104.558,140.605c-2.222,0.443-4.437,0.933-6.671,1.307c-0.952,0.159-2.145,0.23-2.195-1.176
		c-0.039-1.103,0.82-1.965,1.831-1.991C99.869,138.684,102.356,138.002,104.558,140.605z"/>
	<path fill="#0E0F13" d="M66.86,138.191c-2.147,2.007-4.53,1.509-6.789,1.534c-0.946,0.01-1.531-0.527-1.51-1.516
		c0.02-0.954,0.58-1.607,1.513-1.559C62.304,136.765,64.729,136.054,66.86,138.191z"/>
	<path fill="#010204" d="M121.752,61.193c-0.636-0.058-1.27-0.139-1.907-0.168c-1.199-0.055-2.966,0.597-3.098-1.222
		c-0.154-2.114,1.77-1.773,3.152-1.86c0.639-0.04,1.281-0.044,1.922-0.064c0.678,0.843,2.623,0.399,2.372,2.073
		C124.003,61.21,122.58,60.78,121.752,61.193z"/>
	<path fill="#FAFBFA" d="M149.295,191.624c2.562-2.788,3.984-5.942,3.166-9.82C154.523,186.431,153.116,190.797,149.295,191.624z"/>
	<path fill="#060709" d="M267.632,185.674c-0.287,1.112-0.767,2.168-2.145,2.128c-1.064-0.03-1.827-0.778-1.883-1.834
		c-0.074-1.371,0.93-2.058,2.13-2.143C266.83,183.748,267.415,184.568,267.632,185.674z"/>
	<path fill="#2BADBE" d="M217.382,67.957c0.653-0.827,2.559-1.51,1.412-2.685c-5.135-5.264-0.28-10.946-0.863-16.378
		c-0.16-1.486,0.818-1.771,1.986-0.353c0.56,0.681,1.684,0.294,2.636-0.375c3.932-2.761,8.074-2.711,12.027-0.115
		c1.62,1.064,2.439,1.155,3.518-0.619c0.957-1.574,3.085-1.504,3.753-0.265c0.7,1.299,0.964,3.708-1.425,4.364
		c-4.317,1.186-3.049,2.744-0.223,3.973c3.16,1.375,0.778,3.723,1.559,5.422c-1.627,0.999-2.436-2.502-3.82-0.503
		c-1.27,1.835,0.823,2.071,1.722,2.812c1.377,1.135,2.118,2.506,1.858,4.343c-0.583,4.12-0.315,8.251,0.117,12.349
		c0.252,2.393-0.796,2.886-2.815,2.832c-1.993-0.053-3.992,0.022-5.986,0.107c-1.496,0.064-2.203,0.37-2.485-2.042
		c-0.297-2.537-2.391-2.017-3.184,0.503c-1.498,2.341-3.02,2.817-4.593,0.071c-0.822-3.05-4.057-0.242-5.335-2.193
		C217.168,75.447,216.914,71.697,217.382,67.957z"/>
	<path fill="#F4F5F6" d="M269.429,61.609c1.484,0.14,3.432-1.095,3.25,2.061c-0.127,2.204-0.237,3.899-3.075,3.914
		c-7.646,0.042-14.95,2.435-22.464,3.415c-1.451,0.189-3.261,1.131-3.238-1.339c0.017-1.847-1.052-4.442,2.499-4.868
		C254.094,63.87,261.755,62.686,269.429,61.609z"/>
	<path fill="#ECEDEE" d="M273.129,46.171c0.834,4.314-0.572,5.64-4.836,5.757c-6.419,0.176-12.803,1.446-19.215,2.119
		c-1.45,0.152-3.745,2.069-4.138-1.273c-0.333-2.829,1.316-3.652,3.871-3.905C256.851,48.073,264.873,47.101,273.129,46.171z"/>
	<path fill="#F1F2F3" d="M247.022,62.172c-1.32,0.395-2.24,0.11-2.348-1.505c-0.109-1.632,0.048-3.171,1.966-3.444
		c8.042-1.143,16.097-2.193,24.151-3.248c1.25-0.164,2.479-0.021,2.241,1.722c-0.229,1.682-0.683,2.986-2.914,3.246
		c-6.408,0.746-12.781,1.793-19.169,2.714C249.643,61.845,248.331,62.001,247.022,62.172z"/>
	<path fill="#F0F1F2" d="M246.156,77.961c-0.924,0.213-2.263,0.367-2.48-1.576c-0.138-1.235,0.023-2.233,1.631-2.493
		c7.82-1.265,15.616-2.681,23.448-3.86c1.532-0.231,3.781-1.008,3.898,2.182c0.104,2.819-1.459,2.489-3.407,2.707
		C261.688,75.766,254.161,76.883,246.156,77.961z"/>
	<path fill="#E9EBEC" d="M243.743,81.056c8.816-1.268,17.588-3.281,26.636-3.527c1.679-0.046,2.435,0.605,2.734,2.146
		c0.286,1.471-0.304,2.291-1.75,2.339c-8.798,0.292-17.596,0.554-26.395,0.784C244.286,82.815,243.761,82.341,243.743,81.056z"/>
	<path fill="#2BADBE" d="M189.256,80.539c7.097-8.384,14.936-15.954,24.587-21.488C205.935,66.532,197.666,73.61,189.256,80.539z"/>
	<path fill="#2BADBE" d="M210.527,51.644c-7.256,6.246-14.511,12.492-21.767,18.738c-0.401-0.471-0.803-0.942-1.204-1.413
		c7.23-6.231,13.791-13.212,21.945-18.409C210.481,50.317,210.729,50.767,210.527,51.644z"/>
	<path fill="#2BADBE" d="M213.773,68.851c-1.606,5.278-12.319,14.777-17.1,15.214C202.101,78.428,207.276,73.83,213.773,68.851z"/>
	<path fill="#2BADBE" d="M217.382,67.957c0.578,3.936-0.527,8.007,0.959,11.869c1.697,0.13,3.365,0.425,5.005,0.88
		c0.786,3.245,2.501,0.677,3.82,0.615c0.792,0.535,1.959,0.981,0.804,2.149c-0.264,0.267-0.949,0.1-1.437,0.164
		c-9.75,1.27-9.87,1.27-9.731-8.619C216.834,72.694,215.405,70.143,217.382,67.957z"/>
	<path fill="#2BADBE" d="M202.467,63.621c-4.375,4.15-8.749,8.301-13.124,12.451c-0.45-0.45-0.9-0.9-1.35-1.35
		c3.808-4.732,8.893-8.235,13.566-12.134C202.523,62.352,202.741,62.77,202.467,63.621z"/>
	<path fill="#2BADBE" d="M199.768,54.3c-3.424,4.073-6.759,8.238-11.741,10.605C191.305,60.691,194.723,56.632,199.768,54.3z"/>
	<path fill="#2BADBE" d="M202.467,63.621c-0.302-0.344-0.605-0.688-0.908-1.032c3.087-4.398,7.981-6.427,12.233-9.327
		C210.81,57.599,206.451,60.405,202.467,63.621z"/>
	<path fill="#2BADBE" d="M202.736,74.81c-2.436,2.5-4.858,5.013-7.317,7.49c-0.646,0.651-1.388,1.76-2.319,0.39
		c-0.52-0.766-0.205-1.506,0.556-2.137c2.689-2.232,5.327-4.523,7.985-6.792C202.68,73.407,202.925,73.883,202.736,74.81z"/>
	<path fill="#2BADBE" d="M197.219,51.776c-2.323,3.654-5.434,6.481-9.144,8.681C190.519,56.93,193.04,53.484,197.219,51.776z"/>
	<path fill="#2BADBE" d="M204.894,83.635c1.938-3.347,4.781-5.557,9.347-7.833C211.285,80.048,208.843,82.738,204.894,83.635z"/>
	<path fill="#2BADBE" d="M202.736,74.81c-0.365-0.35-0.73-0.7-1.095-1.05c2.84-2.421,5.24-5.447,9.415-6.15
		C208.282,70.01,205.509,72.41,202.736,74.81z"/>
	<path fill="#2BADBE" d="M192.724,51.576c-0.591,0.754-1.104,1.59-1.793,2.239c-0.801,0.754-1.195,2.086-2.547,2.075
		c-0.254-0.002-0.642-0.613-0.73-0.997c-0.384-1.67,0.704-2.292,2.035-2.8c0.851-0.325,1.625-0.849,2.433-1.283
		C192.322,51.065,192.523,51.321,192.724,51.576z"/>
	<path fill="#2BADBE" d="M210.527,51.644c-0.342-0.361-0.684-0.723-1.026-1.084c1.232-2.154,3.229-2.934,6.027-3.591
		C214.698,50.097,212.132,50.348,210.527,51.644z"/>
	<path fill="#2BADBE" d="M187.761,50.828c0.183-4.146,1.076-5.63,4.231-4.833C191.467,47.99,189.844,48.697,187.761,50.828z"/>
	<path fill="#050504" d="M233.656,107.212c-2.233-2.38-2.297-5.398-2.052-8.306c0.177-2.102,2.055-2.118,3.817-2.011
		c4.746,0.288,9.498,0.475,14.248,0.702c3.633-1.367,7.288-1.177,10.954-0.152c3.764-0.286,4.433,1.832,4.11,5.015
		c-0.325,3.198-1.061,6.187,0.555,9.634c1.331,2.84-2.028,3.428-4.394,3.385c-8.116-0.146-16.23-0.378-24.345-0.576l-0.088-0.061
		c-0.524-0.293-1.017-0.7-1.579-0.855c-1.299-0.359-3.156,0.376-3.521-1.743c-0.337-1.953,0.888-3.007,2.447-3.794
		c2.155-1.069,3.859-2.428,3.307-5.29C235.372,104.021,236.08,106.996,233.656,107.212z"/>
	<path fill="#2BADBE" d="M233.656,107.212c1.409-2.435,1.232-6.105,5.191-6.59c-2.767,1.936,3.554,9.626-5.04,7.829
		C233.758,108.038,233.707,107.625,233.656,107.212z"/>
	<path fill="#D8DDE6" d="M260.623,97.446c-3.643,0.676-7.299,0.355-10.954,0.152c-0.912-1.423-2.768-0.488-4.341-1.851
		c5.013,0,9.52,0.041,14.026-0.024C260.773,95.702,261.086,96.218,260.623,97.446z"/>
	<path fill="#FAFBFA" d="M105.259,187.587c6.563-6.019,12.673-9.95,18.578-14.148c1.347-0.957,2.725-0.895,4.223-0.275
		c6.268,2.594,12.493,5.248,18.468,8.504c3.039,1.656,2.345,4.046,1.979,6.45c-0.493,3.239-2.849,1.24-4.23,1.183
		c-11.436-0.468-22.865-1.123-34.296-1.707C108.884,187.539,107.783,187.587,105.259,187.587z"/>
	<path fill="#F6F6F7" d="M122.19,171.024c-4.872,3.569-9.404,6.875-13.918,10.205c-0.915,0.675-1.73,1.819-3.012,1.045
		c-1.012-0.611-0.608-1.804-0.55-2.736c0.328-5.298,0.803-10.588,1.051-15.889c0.082-1.762,0.708-2.996,2.137-1.544
		C111.917,166.188,117.281,168.071,122.19,171.024z"/>
	<path fill="#F5F5F7" d="M130.111,170.382c5.035-3.289,10.09-4.865,14.959-6.855c1.985-0.811,3.243-0.619,3.238,1.893
		c-0.01,4.452-0.003,8.904-0.003,13.763C142.404,176.328,136.541,173.492,130.111,170.382z"/>
	<path fill="#EFF0F1" d="M114.059,161.765c9.822-0.837,19.456-0.784,29.225-1.213c-5.265,2.604-10.295,6.193-15.864,7.524
		C122.309,169.298,118.171,164.833,114.059,161.765z"/>
	<path fill="#2BADBE" d="M202.904,107.964c2.491-3.245,5.532-5.8,9.223-7.542C210.43,104.662,206.404,105.983,202.904,107.964z"/>
	<path fill="#2BADBE" d="M206.314,100.872c-1.42,1.256-2.841,2.511-4.804,4.247C202.005,101.993,203.146,100.425,206.314,100.872z"
		/>
	<path fill="#F9FAFA" d="M287.129,99.878c2.246,0,3.576-0.018,4.906,0.003c6.434,0.101,6.375,0.212,6.054,6.398
		c-0.127,2.442-1.24,2.997-3.239,3.437c-6.078,1.337-12.203,1.274-18.351,0.908c-1.758-0.104-4.137,0.282-3.571-2.637
		c0.481-2.481-1.209-6.015,2.762-7.058C279.729,99.869,283.88,99.687,287.129,99.878z"/>
	<path fill="#EAEEEF" d="M93.274,58.133c-3.358,1.987-6.295,3.755-9.267,5.464c-0.908,0.522-2.569,1.652-2.635-0.186
		c-0.115-3.236,0.348-6.553,1.044-9.733c0.399-1.825,2.15-1.108,3.258-0.444C88.157,54.72,90.547,56.36,93.274,58.133z"/>
	<path fill="#ECEEF0" d="M89.873,52.776c4.398,0,8.111,0,12.386,0C97.952,57.099,94.206,56.698,89.873,52.776z"/>
	<path fill="#D3D6CF" d="M105.182,54.783c0.59,1.756,1.473,3.606,0.207,4.455c-1.71,1.148-3.087-0.89-6.05-1.359
		C102.09,56.422,103.579,55.633,105.182,54.783z"/>
	<path fill="#2BADBE" d="M98.797,104.798c-1.62,1.749-3.202,3.535-4.879,5.226c-0.585,0.59-1.492,0.875-2.183,0.148
		c-0.824-0.867-0.048-1.543,0.59-1.959C94.293,106.929,95.596,104.688,98.797,104.798z"/>
	<path fill="#2BADBE" d="M92.406,104.039c-2.049,3.09-2.936,3.888-6.185,5.568C87.276,105.785,88.376,104.795,92.406,104.039z"/>
	<path fill="#2BADBE" d="M101.64,108.819c0.153,1.488-0.487,2.226-1.934,2.134c-0.732-0.047-1.896,0.23-1.828-0.938
		c0.083-1.427,1.314-2.275,2.503-2.677C101.409,106.99,101.597,108.039,101.64,108.819z"/>
	<path fill="#959BA3" d="M120.528,138.787c-0.124,1.342-0.608,2.164-1.608,2.483c-0.725,0.231-1.276-0.201-1.197-0.972
		c0.111-1.085,0.311-2.297,1.634-2.496C119.728,137.746,120.224,138.516,120.528,138.787z"/>
	<path fill="#010204" d="M224.096,71.638c-1.189-0.262-2.27-0.784-2.251-2.138c0.024-1.684,1.311-2.1,2.71-1.998
		c1.279,0.093,2.167,0.851,1.99,2.212C226.376,71.028,225.299,71.481,224.096,71.638z"/>
	<path fill="#010204" d="M235.108,58.533c-0.167,1.068-0.612,1.957-1.768,2.053c-1.337,0.111-2.254-0.652-2.347-1.946
		c-0.104-1.449,0.936-1.966,2.24-1.916C234.364,56.767,235.017,57.389,235.108,58.533z"/>
	<path fill="#010204" d="M223.345,80.707c-2.045,1.844-3.7,1.473-5.005-0.882C220.567,76.951,222.298,76.884,223.345,80.707z"/>
	<path fill="#010204" d="M229.72,62.738c-0.15,1.117-0.653,1.931-1.864,1.742c-1.209-0.189-2.24-0.888-2.056-2.247
		c0.148-1.092,1.146-1.521,2.22-1.418C229.153,60.923,229.743,61.596,229.72,62.738z"/>
	<path fill="#010204" d="M228.911,52.029c-0.301,1.196-0.911,1.861-2.108,1.641c-1.261-0.231-2.203-1.036-2.104-2.295
		c0.081-1.033,1.088-1.608,2.168-1.534C228.231,49.935,228.793,50.859,228.911,52.029z"/>
	<path fill="#010204" d="M230.83,72.429c0.854,0.151,1.647,0.493,1.516,1.486c-0.139,1.052-0.837,1.785-1.985,1.62
		c-0.838-0.12-1.549-0.742-1.548-1.599C228.815,72.706,229.772,72.416,230.83,72.429z"/>
	<path fill="#2BADBE" d="M245.585,100.943c1.46,1.052,2.597,1.028,4.363,0.015c2.042-1.17,4.807-1.5,6.796,0.592
		c0.818,0.86,2.436,1.722,1.804,3.209c-0.744,1.749-1.782-0.583-2.749-0.095c-1.564,0.789-3.145,1.543-4.703,2.343
		c-1.905,0.978-3.758,0.986-5.578-0.197C246.669,104.867,244.578,102.887,245.585,100.943z"/>
	<path fill="#2BADBE" d="M245.585,100.943c-0.021,1.955,4.899,3.967-0.067,5.866c-1.17-0.153-2.854,1.136-3.391-0.74
		c-0.501-1.747-0.9-3.776-0.44-5.429C241.893,99.901,244.319,99.666,245.585,100.943z"/>
</g>
</svg>
