<?xml version="1.0" encoding="utf-8"?>
<!-- Generator: Adobe Illustrator 17.0.2, SVG Export Plug-In . SVG Version: 6.00 Build 0)  -->
<!DOCTYPE svg PUBLIC "-//W3C//DTD SVG 1.1//EN" "http://www.w3.org/Graphics/SVG/1.1/DTD/svg11.dtd">
<svg version="1.1" id="Layer_1" xmlns="http://www.w3.org/2000/svg" xmlns:xlink="http://www.w3.org/1999/xlink" x="0px" y="0px"
	 width="346px" height="240px" viewBox="0 0 346 240" enable-background="new 0 0 346 240" xml:space="preserve">
<g>
	<path fill="#020204" d="M114.23,167.726c-14.151-31.913-2.739-62.003,21.537-82.359c9.611-8.059,20.936-9.297,32.899-6.926
		c1.176,0.233,2.746,0.368,2.592,1.687c-0.268,2.289-2.113,0.631-3.147,0.684c-5.732,0.294-11.549-0.801-18.375,1.084
		c13.796,2.511,25.823,6.707,37.593,11.705c15.87,0.969,22.683,13.137,29.098,24.78c4.494,8.156,5.992,17.835,5.439,27.183
		c-0.663,11.204-5.534,21.111-12.295,30.074c-4.155,5.509-9.549,9.73-14.522,14.383c-2.586,2.42-5.818,3.853-9.256,4.744
		c-9.078,2.351-18.248,3.428-27.638,2.337c-3.801-0.441-7.664-0.245-11.489-0.107c-6.315,0.228-12.305-0.793-17.736-4.145
		c-2.633-1.625-4.75-1.255-7.29,0.511c-8.724,6.065-15.855,13.666-22.308,22.005c-5.447,7.04-12.545,11.24-21.467,12.264
		c-5.198,0.597-9.094-1.272-11.671-5.843c-0.32-5.967,0.295-11.768,3.056-17.187c2.063-2.631,3.26-1.759,3.827,1.016
		c0.241,1.181-0.334,2.291-0.868,3.328c-1.483,2.878-1.537,5.659,1.471,7.406c2.843,1.651,5.979,2.102,8.835-0.305
		c1.147-0.966,2.294-1.967,3.202-3.145c7.084-9.192,16.431-15.948,25.074-23.467c1.75-1.522,4.709-2.799,2.103-5.923
		c-2.006-2.406-3.708-4.148-7.422-1.845c-9.249,5.737-17.466,12.703-25.645,19.779c-1.506,1.302-3.452,3.98-5.413,2.013
		c-2.455-2.462,0.494-4.426,2.054-6.203c2.758-3.143,5.915-5.823,9.727-7.645c5.038-3.659,9.73-8.005,15.218-10.768
		c4.728-2.38,7.481-6.793,11.91-9.239c1.743,0.857,1.7,2.25,1.113,3.784c-1.556,4.068,1.155,6.12,3.878,8.118
		c0.829,0.608,1.885,0.841,2.757,0.084c1.194-1.036,0.54-2.1-0.215-3.03C118.164,175.244,115.519,171.902,114.23,167.726z"/>
	<path fill="#AFAFC5" d="M66.195,221.789c8.759,7.123,19.474,5.949,28.464-3.4c6.767-7.037,12.15-15.369,20.052-21.362
		c2.768-2.1,5.37-4.42,8.019-6.675c1.916-1.631,3.754-1.205,5.352,0.33c3.471,3.336,7.939,4.525,12.351,4.708
		c14.721,0.613,29.442,2.322,44.127-1.531c7.143-1.874,11.58-6.881,16.648-11.235c10.319-8.865,16.691-20.289,18.864-33.603
		c2.013-12.33-0.991-24.134-7.381-34.735c-3.288-5.455-7.203-10.599-12.38-14.794c-3.972-3.217-8.24-4.847-12.982-5.892
		c2.928,0.578,5.594-1.104,8.47-0.978c0.894-0.071,1.767-0.033,2.558,0.458c1.259,1.21,2.893-0.147,4.222,0.599
		c0.894,2.896,3.973,3.807,5.538,6.093c3.503,5.106,8.398,9.279,10.291,15.464c2.535,8.284,6.035,16.297,6.999,25.021
		c0.202,1.34,0.149,2.69,0.164,4.033c-0.586,2.494,3.109,2.898,2.623,5.34c-2.083-0.158-3.422,0.451-3.824,2.819
		c-1.351,7.964-4.777,14.732-10.027,21.109c-5.125,6.226-9.494,13.169-15.735,18.33c-8.56,7.077-19.594,7.405-29.843,9.708
		c-8.519,1.914-17.217,1.056-25.831,0.932c-3.812-0.055-7.379-1.946-10.479-4.178c-3.544-2.552-6.394-1.811-9.267,0.991
		c-2.516,2.454-4.617,5.218-6.517,8.145c-5.892,9.078-14.559,14.794-24.006,19.381c-6.384,3.1-13.423,1.949-20.137,1.492
		C69.36,228.146,66.298,225.916,66.195,221.789z"/>
	<path fill="#FBFCFC" d="M86.196,189.612c-3.364,3.155-6.744,6.293-10.083,9.473c-1.177,1.121-3.112,2.646-1.862,4.068
		c1.689,1.922,2.694-0.675,3.801-1.618c8.569-7.305,16.719-15.154,26.768-20.523c1.622-0.867,2.8-2.185,4.096-3.844
		c1.015,1.305,1.91,2.467,2.817,3.621c4.281,5.443,4.405,5.589-0.77,9.919c-9.688,8.106-19.039,16.535-27.392,26.045
		c-2.633,2.998-8.21,3.267-11.268,0.697c-3.484-2.928-3.18-6.257-0.585-9.624c0.762-0.988,1.267-2.014,0.523-3.171
		c-0.919-1.43-1.981-0.538-2.99-0.053c-0.974-2.296,0.353-4.743-0.732-7.191c-0.857-1.936,0.445-3.225,2.687-2.263
		c1.902,0.816,3.735,0.174,4.228-1.335C77.39,187.829,82.166,189.822,86.196,189.612z"/>
	<path fill="#030306" d="M259.262,128.658c-2.41-3.088-6.619-2.991-9.404-6.248c-9.103-10.645-5.886-25.735,7.289-31.182
		c6.453-2.668,12.803-2.25,19.124,0.405c3.316-1.046,4.876,0.587,6.483,3.4c4.757,8.325,4.08,16.741,0.371,24.897
		c-2.571,5.655-8.156,8.354-14.04,9.188C265.972,129.559,262.492,129.702,259.262,128.658z"/>
	<path fill="#2BADBE" d="M224.704,151.823c-0.659-1.345-1.53-2.651-0.779-4.256c3.01-6.435,8.425-6.769,14.481-5.901
		c10.588,1.518,21.282,1.585,31.945,2.024c2.516,0.104,2.99,0.997,2.268,3.415c-2.126,7.122-6.342,10.674-13.744,10.122
		c-6.39-0.477-13.132,1.262-19.104-2.499c1.357-1.947,3.503-1.613,5.426-1.814c6.106-0.64,12.264-0.756,17.08-1.572
		c-10.379,0.71-21.976,2.429-33.696,1.28C227.259,152.491,225.913,152.493,224.704,151.823z"/>
	<path fill="#030409" d="M71.257,96.629c-3.156-2.946-0.501-7.915-3.706-10.796c-3.011-2.707-7.205,0.278-10.574-2.341
		c-3.669-2.853-6.264-5.936-5.987-10.683c0.256-4.396,3.835-5.904,7.215-7.318c3.664-1.532,7.386-3.012,11.405-3.315
		c4.38-0.33,8.516-0.124,11.788,3.651c2.953,3.407,7.356,0.27,10.819,1.843c0.395,0.353,0.65,1.175,0.419,1.254
		c-4.657,1.597-3.243,5.669-3.63,8.928c-0.449,3.785-2.454,6.646-5.611,8.266c-3.687,1.892-6.435,4.397-8.399,8.006
		C74.275,95.449,73.415,97.173,71.257,96.629z"/>
	<path fill="#2BADBE" d="M111.006,103.598c-3.355,7.175-4.463,6.756-10.654,2.775c-5.155-3.314-9.9-7.425-15.598-9.856
		c-1.5-0.64-2.491-1.409-3.113-2.811c-0.882-1.399-1.115-2.695,0.582-3.687c0.926-1.314,1.673-2.815,2.814-3.904
		c2.499-2.384,4.206-4.678,8.853-1.679c5.247,3.386,10.07,7.731,16.164,9.916c1.821,0.653,1.464,3.138,1.834,4.881
		c-2.038,1.554-3.391-0.307-4.754-1.152c-4.781-2.965-9.496-6.041-14.247-9.067c4.649,3.532,9.66,6.544,14.456,9.865
		C109.004,100.031,111.415,100.769,111.006,103.598z"/>
	<path fill="#030407" d="M94.221,67.623c1.651-0.848,2.397,0.514,3.311,1.39c0.933,0.893,1.911,0.891,2.385-0.251
		c1.426-3.437,4.944-4.14,7.561-5.994c3.589-2.544,4.339-5.332,1.926-9.274c-5.071-8.283-18.15-9.678-24.499-2.419
		c-3.924,4.487-3.266,9.552,2.084,14.304c-4.135,0.676-5.916-1.756-6.827-4.812c-1.774-5.951,0.892-11.506,6.457-14.558
		c9.162-5.024,17.181-2.752,24.622,3.64c7.121,5.52,6.964,13.007-0.622,19.476c-2.496,2.128-5.234,3.912-7.152,6.691
		c-1.315,1.905-3.222,2.111-5.223,0.89c-1.033-1.671-2.066-3.341-3.1-5.012C93.87,70.557,93.126,69.299,94.221,67.623z"/>
	<path fill="#2BADBE" d="M288.528,95.77c3.068-0.815,1.089-3.464,1.859-5.114c1.93-2.286,4.131-4.23,8.095-5.524
		c-3.881,0.14-5.886,3.629-8.983,1.6c-0.853-1.571,0.819-2.688,0.74-4.119c1.901-1.577,4.254-2.355,6.345-3.597
		c2.471-1.468,4.303-0.825,5.546,1.71c2.012,1.65,3.688,3.179,1.166,5.934c-1.542,1.684-1.615,4.505,0.129,5.733
		c4.778,3.364,2.387,4.81-1.194,6.289c-1.788-2.292-4.15-3.017-7.582-2.565c3.058,0.586,5.738,0.432,7.642,2.484
		c0.048,1.451,0.763,3.606-0.59,4.158c-7.47,3.047-0.388,4.254,0.846,5.598c1.084,1.18,2.06,2.188,1.826,3.719
		c-0.383,2.505-2.575,1.28-3.984,1.675c-0.193-0.122-0.387-0.244-0.583-0.362c-1.79-2.719-4.118-4.706-7.386-5.413
		c-0.389-0.258-0.678-0.604-0.89-1.016c-0.374-3.179-0.71-6.339-3.223-8.787C287.715,97.597,287.249,96.457,288.528,95.77z"/>
	<path fill="#BFBECC" d="M288.528,95.77c2.39,3.555,4.743,7.122,3.61,11.758c0.078,1.877-1.021,3.359-1.674,4.99
		c-2.788,8.838-9.749,13.794-17.128,18.334c-0.658,0.405-1.859,0.861-2.29,0.558c-3.586-2.529-8.096-0.879-11.784-2.752
		c3.451-0.411,6.952,0.608,10.388-0.425c13.593-4.084,19.541-19.934,12.076-32.121c-1.323-2.159-1.781-5.238-5.455-4.48
		C281.91,88.411,284.823,93.263,288.528,95.77z"/>
	<path fill="#2BADBE" d="M208.116,99.773c-2.774-1.063-6.033-1.569-6.326-5.491c-0.895-2.746,1.4-4.088,2.595-5.921
		c4.215-6.466,10.976-10.34,16.115-15.862c1.294-0.954,2.498-0.082,3.734,0.192c3.236,0.98,2.706,3.376,1.061,4.835
		c-6.888,6.108-11.631,13.68-15.825,21.705C209.299,99.559,208.58,99.6,208.116,99.773z"/>
	<path fill="#B9B9CC" d="M94.221,67.623c0.309,1.357,0.618,2.714,0.926,4.071c0.992,7.352-2.357,12.083-8.933,14.927
		c-1.998,0.864-3.063,2.462-3.09,4.684c-0.442,1.16-0.882,2.322-1.325,3.485c-1.28,1.494-2.409,3.153-3.865,4.444
		c-3.129,2.776-5.739,1.699-6.678-2.605c0.685-0.679,1.441-1.301,2.044-2.047c2.854-3.53,4.391-7.828,9.572-9.702
		c5.428-1.964,6.913-9.61,3.723-14.502c1.539-1.596,5.338,1.497,5.621-2.708C92.885,67.654,93.553,67.639,94.221,67.623z"/>
	<path fill="#04060A" d="M247.445,42.833c-1.046-0.482-1.52-0.642-1.933-0.9c-5.593-3.485-5.64-3.498-6.892,3.312
		c-0.405,2.202,0.273,5.039-3.665,4.133c-1.167-0.268-1.747,0.898-1.978,1.868c-1.312,5.497-4.13,3.78-6.505,1.11
		c-2.972-3.342-5.298-5.014-7.42,0.579c-0.471,1.242-1.37,2.518-3.002,1.284c-1.405-1.062-1.117-2.247,0.041-3.354
		c0.12-0.115,0.238-0.235,0.341-0.365c5.148-6.55,5.147-6.55,12.71,0.672c0.76-5.471,7.458-6.229,8.289-11.684
		c-0.542-0.13-0.812-0.265-1.071-0.246c-1.898,0.143-3.999,3.629-5.5,0.574c-1.308-2.662,2.319-2.468,3.682-3.357
		C240.257,32.733,244.335,34.667,247.445,42.833z"/>
	<path fill="#050609" d="M153.107,49.763c0.075-1.649,0.12-3.3,0.233-4.946c0.222-3.236,6.391-6.52,9.229-4.876
		c1.304,0.755,1.647,2.066,1.303,3.467c-1.076,4.373-1.822,8.741-0.645,13.233c0.183,0.698,0.381,1.769-0.77,1.987
		c-0.962,0.182-2.018,0.264-2.379-1.079c-0.612-2.277-1.532-1.998-3.029-0.569c-2.451,2.34-3.772,1.544-3.8-1.735
		c-0.016-1.826-0.003-3.651-0.003-5.477C153.199,49.766,153.153,49.765,153.107,49.763z"/>
	<path fill="#040507" d="M219.353,63.084c-2.993,0-5.988-0.051-8.979,0.021c-1.489,0.036-3.474-0.724-2.803-1.822
		c3.331-5.455-0.245-11.241,1.256-16.687c0.403-1.462-0.691-4.122,1.464-4.112c2.3,0.01,1.255,2.571,1.263,4.046
		c0.018,3.49-0.104,6.983-0.263,10.471c-0.18,3.951,1.352,5.676,5.572,5.514c6.632-0.255,13.29-0.249,19.898,0.831
		c1.681,0.275,3.469,0.858,5.076-0.895c1.293-1.41,2.621,0.109,3.145,1.106c0.848,1.613-0.706,2.605-1.882,2.838
		c-1.562,0.309-3.285,0.118-4.89-0.15C231.962,63.202,225.692,62.601,219.353,63.084z"/>
	<path fill="#C0C1CF" d="M98.247,76.706c0.964,0.005,2.576,0.363,2.793-0.037c3.123-5.759,9.998-7.793,13.137-13.595
		c2.993-5.533-0.482-9.282-2.933-13.425c2.177-0.917,3.819-0.113,5.206,1.589c3.221,3.951,2.407,12.929-1.604,16.033
		c-3.71,2.871-6.918,5.979-8.885,10.437C104.296,81.481,102.084,81.077,98.247,76.706z"/>
	<path fill="#2BADBE" d="M224.235,72.691c-0.986,1.063-1.918-0.355-2.887-0.062c-2.502-0.502-4.375,0.437-6.163,2.216
		c-4.803,4.776-9.184,9.891-13.208,15.332c-1.129,1.526-1.85,3.608-4.262,3.682c-0.638-0.412-1.276-0.824-1.915-1.236
		c4.796-8.462,10.349-16.507,17.599-22.901C216.96,66.581,221.075,69.864,224.235,72.691z"/>
	<path fill="#040409" d="M148.001,46.514c3.702-0.552,4.987,1.003,3.595,4.831c-0.327,0.9-0.569,2.103-0.243,2.927
		c2.617,6.623-2.96,4.789-5.826,5.69c-0.379,0.119-1.097-0.097-1.342-0.407c-2.67-3.379-1.459-7.241-1.109-10.917
		C143.356,45.7,145.764,46.347,148.001,46.514z"/>
	<path fill="#06090E" d="M175.536,53.024c0.075,1.488,0.2,2.976,0.204,4.464c0.002,0.811-0.063,1.811-0.951,2.119
		c-1.259,0.437-1.835-0.529-2.089-1.532c-0.729-2.869-2.063-1.819-3.416-0.572c-3.213,2.959-4.239,0.774-3.878-2.034
		c0.395-3.066-2.096-7.366,2.851-8.92C173.435,44.924,174.851,46.265,175.536,53.024z"/>
	<path fill="#150F04" d="M224.704,151.823c4.725-1.386,9.457,0.369,14.214-0.065c8.237-0.752,16.505-1.158,24.755-1.768
		c1.545-0.114,3.145-0.85,4.809,1.205c-9.743,2.596-19.338,2.247-28.712,3.533c-3.044-0.017-6.089-0.033-9.135-0.05
		C228.555,153.94,225.512,155.203,224.704,151.823z"/>
	<path fill="#0F0F10" d="M161.752,66.349c-4.8,0-9.6,0.037-14.399-0.023c-1.413-0.018-3.469,0.204-3.164-2.018
		c0.259-1.883,2.005-1.579,3.593-1.513c9.775,0.405,19.555,0.703,29.336,0.944c1.212,0.03,2.681-0.238,2.82,1.179
		c0.171,1.743-1.43,1.946-2.781,1.832C172.024,66.318,166.891,66.236,161.752,66.349z"/>
	<path fill="#2BADBE" d="M101.872,33.554c-1.555-0.488-3.791-0.878-3.449-2.815c0.511-2.895,2.413-5.278,4.988-6.842
		c0.945-0.574,2.189-0.777,3.323-0.894c2.336-0.241,5.151-2.394,6.908,0.083c1.826,2.575-1.97,3.153-2.754,4.876
		c-1.219,2.677-1.857,5.751-5.753,5.607c-1.496-1.668-0.591-3.363-0.179-5.009C103.541,29.897,104.321,32.752,101.872,33.554z"/>
	<path fill="#EEEFF1" d="M114.23,167.726c2.87,3.747,5.027,8.032,8.475,11.34c1.523,1.461,0.951,2.549-0.437,3.613
		c-1.212,0.929-2.212,2.854-4.018,0.834c-1.634-1.828-3.215-3.706-4.873-5.511c-2.285-2.489-0.321-4.025,1.067-5.889
		c0.686-0.923-0.622-1.703-1.118-2.506C113.627,168.979,113.928,168.352,114.23,167.726z"/>
	<path fill="#140A05" d="M111.006,103.598c-4.803-4.601-10.842-7.415-16.203-11.209c-1.077-0.762-2.176-1.502-3.19-2.342
		c-1.111-0.92-2.806-2.011-1.307-3.533c1.039-1.056,2.269,0.058,3.378,0.96c5.632,4.58,11.849,8.285,18.205,11.761
		c1.145,1.378,4.156,1.773,2.94,4.381C113.923,105.555,112.3,104.098,111.006,103.598z"/>
	<path fill="#2BADBE" d="M88.278,23.305c-2.907-0.32-2.679-2.792-1.753-4.001c1.868-2.441,5.488-3.523,7.921-3.199
		c2.434,0.324,3.88,3.86,4.044,6.88c0.188,3.46-2.494,3.259-4.747,3.55c-2.074-0.296-2.092-2.309-2.906-3.603
		C89.552,20.889,89.088,22.96,88.278,23.305z"/>
	<path fill="#2BADBE" d="M290.463,112.518c-0.068-1.874-0.505-3.871,1.674-4.99l0.093,0.079c2.546,1.975,5.203,3.799,7.759,5.759
		c0.132,0.129,0.264,0.257,0.398,0.384c-0.628,1.443,1.17,4.265-1.615,4.275c-2.313,0.008-5.336,0.128-6.409-3.166
		C292.066,113.941,292.882,111.811,290.463,112.518z"/>
	<path fill="#2BADBE" d="M77.453,27.093c2.721-1.82,9.767-1.521,11.932,0.643c1.643,1.642,0.5,2.753-1.108,3.252
		c-2.697,0.836-5.465,1.12-8.18-0.068C80.516,28.746,77.195,29.156,77.453,27.093z"/>
	<path fill="#332408" d="M289.499,86.732c2.838,0.132,4.533-2.541,7.148-2.916c1.15-0.165,2.588-0.201,2.933,1.112
		c0.321,1.224-1.012,1.502-1.935,1.555c-3.144,0.178-3.657,4.859-7.258,4.173C290.021,89.364,287.819,88.487,289.499,86.732z"/>
	<path fill="#2BADBE" d="M302.13,80.726c-2.416-2.323-4.97-1.892-7.117,0.135c-1.457,1.376-2.942,1.823-4.774,1.752
		c0.9-2.61,8.963-6.643,11.117-5.436C302.758,77.964,302.246,79.454,302.13,80.726z"/>
	<path fill="#262309" d="M88.278,23.305c0.617-1.362-1.162-3.749,1.153-4.158c2.168-0.383,1.811,2.211,2.562,3.474
		c0.728,1.224,1.802,2.332,1.75,3.916C90.217,28.342,89.301,25.735,88.278,23.305z"/>
	<path fill="#342A0F" d="M101.872,33.554c0.655-3.555,1.694-6.896,5.039-9.853c0.718,4.122-2.41,6.635-1.777,9.867
		C104.041,34.782,102.954,34.685,101.872,33.554z"/>
	<path fill="#040406" d="M287.381,150.469c0.136,1.903-0.541,2.33-1.729,2.213c-1.428-0.141-2.482-0.742-2.602-2.298
		c-0.098-1.27,0.635-2.505,1.767-2.365C286.274,148.199,287.257,149.455,287.381,150.469z"/>
	<path fill="#030303" d="M137.206,26.126c-0.627,1.388-1.57,1.836-2.841,1.573c-1.21-0.251-2.184-0.938-2.103-2.228
		c0.081-1.278,1.026-2.101,2.34-1.795C135.91,23.983,136.691,25.046,137.206,26.126z"/>
	<path fill="#2E240C" d="M77.453,27.093c2.039,0.475,6.063-0.42,2.645,3.827C78.175,30.364,74.308,31.151,77.453,27.093z"/>
	<path fill="#020204" d="M313.182,124.006c-0.213,1.252-0.944,2.16-2.106,2.425c-1.353,0.308-2.177-0.867-2.488-1.818
		c-0.443-1.355,0.738-1.973,1.905-2.164C311.75,122.242,312.652,122.863,313.182,124.006z"/>
	<path fill="#050505" d="M45.344,46.646c-1.165-0.319-2.107-0.886-2.227-2.258c-0.102-1.167,0.329-1.938,1.622-1.881
		c1.466,0.064,2.666,0.668,2.624,2.289C47.336,45.831,46.479,46.488,45.344,46.646z"/>
	<path fill="#080808" d="M278.374,64.291c0.021,1.374-0.9,1.548-1.951,1.481c-1.298-0.082-2.212-0.735-2.162-2.094
		c0.05-1.372,1.08-2.073,2.315-1.852C277.745,62.034,278.53,62.917,278.374,64.291z"/>
	<path fill="#161618" d="M223.157,115.958c-1.078-0.059-2.099-0.334-1.991-1.579c0.109-1.259,0.981-1.974,2.322-1.924
		c0.978,0.036,2.069,0.062,1.92,1.458C225.27,115.197,224.41,115.864,223.157,115.958z"/>
	<path fill="#0F0F0F" d="M50.259,120.146c-0.313,1.055-1.073,1.921-2.375,1.624c-0.939-0.214-1.697-1.005-1.64-2.114
		c0.079-1.516,1.411-1.826,2.434-1.736C49.524,117.994,50.431,118.762,50.259,120.146z"/>
	<path fill="#151619" d="M97.222,58.096c-0.482,1.079-0.583,2.359-1.771,2.401c-1.222,0.043-2.338-0.599-2.242-2.07
		c0.069-1.062,0.776-1.843,1.905-1.93C96.332,56.402,96.682,57.427,97.222,58.096z"/>
	<path fill="#0A0C0B" d="M101.832,58.782c-2.063,0.087-2.675-0.472-2.647-1.671c0.021-0.901,0.365-1.52,1.39-1.545
		c1.101-0.027,1.968,0.413,2.117,1.514C102.849,58.239,102.054,58.755,101.832,58.782z"/>
	<path fill="#FAFBFC" d="M118.241,111.591c5.27-10.416,12.818-18.813,22.181-25.762c4.444-3.298,8.996-1.962,13.36-0.917
		c9.833,2.355,19.683,5.083,28.657,9.746c15.525,8.067,25.672,20.113,29.532,38.03c5.149,23.897-9.735,44.674-34.005,53.571
		c-14.798,5.425-29.441,6.678-43.821-1.517c-7.604-4.333-13.246-10.438-17.395-18.042c0.317-0.429,0.73-0.726,1.234-0.895
		c4.064-0.691,5.429,2.665,7.272,5.059c6.909,8.978,16.214,13.397,27.265,13.193c9.711-0.179,18.995-2.93,27.772-7.342
		c11.169-5.614,18.624-14.576,20.976-26.511c3.679-18.667-0.429-35.133-16.352-47.649c-9.649-7.584-20.942-9.572-32.329-11.481
		c-6.346-1.064-11.525,2.731-16.423,6.195c-5.043,3.567-9.537,7.801-13.324,12.732c-0.915,1.192-1.885,2.344-3.375,2.878
		C118.604,112.88,117.897,112.733,118.241,111.591z"/>
	<path fill="#DADCDE" d="M118.241,111.591c0.275,0.337,0.551,0.674,0.826,1.011c0.75,3.838-1.421,7.062-2.605,10.337
		c-4.653,12.858-2.426,25.398,0.866,37.987c0.49,1.873,1.779,3.619,0.93,5.711c-0.503,0.021-1.006,0.041-1.508,0.062
		C107.907,148.076,108.494,129.709,118.241,111.591z"/>
	<path fill="#120E06" d="M197.715,93.858c5.576-7.645,11.296-15.168,18.311-21.591c1.885-1.726,3.785-3.236,5.322,0.362
		c-6.344,7.372-14.779,12.854-19.556,21.648C200.146,96.884,198.793,96.687,197.715,93.858z"/>
	<path fill="#FAFAFB" d="M261.12,93.557c-0.269,4.64-0.417,8.915-0.803,13.169c-0.211,2.324,0.492,3.619,2.742,4.512
		c3.523,1.397,6.922,3.12,10.326,4.8c1.915,0.945,2.259,2.081,0.454,3.74c-5.054,4.646-16.573,4.991-21.778,0.774
		c-4.821-3.905-5.387-8.902-4.174-14.38C249.255,100,254.262,95.209,261.12,93.557z"/>
	<path fill="#ECEEEF" d="M265.767,107.169c2.509-4.233,5.968-6.312,8.738-9.046c1.206-1.191,2.117-0.489,2.542,0.838
		c0.551,1.721,1.047,3.471,1.403,5.242c0.565,2.81-0.452,3.918-3.477,3.463C272.134,107.24,269.218,107.332,265.767,107.169z"/>
	<path fill="#E8EBEC" d="M263.115,103.267c0.556-3.041,1.18-6.072,1.643-9.128c0.297-1.96,1.524-2.457,3.151-2.172
		c2.048,0.359,4.927,0.015,5.757,1.978c0.97,2.296-2.065,2.798-3.395,4.046c-2.012,1.888-4.04,3.76-6.061,5.639
		C263.845,103.509,263.48,103.388,263.115,103.267z"/>
	<path fill="#EDEFF1" d="M269.879,110.455c2.123,0,4.245,0.007,6.368-0.002c2.174-0.009,1.853,1.416,1.546,2.754
		c-0.308,1.344-1.019,2.069-2.48,1.28c-1.865-1.008-3.736-2.004-5.605-3.005C269.766,111.139,269.823,110.797,269.879,110.455z"/>
	<path fill="#F8F9F9" d="M72.186,86.275c-1.566-0.422-1.79-1.671-2.222-2.705c-0.842-2.013-1.703-2.535-4.107-1.578
		c-4.626,1.841-9.646-0.725-11.18-5.387c-0.927-2.817-0.916-5.585,2.749-6.822c3.274-1.105,6.416-2.634,9.729-3.587
		c6.96-2.002,10.926-0.258,14.503,6.003c1.652,2.892-0.151,7.504-3.676,7.535C73.027,79.777,72.44,82.667,72.186,86.275z"/>
	<path fill="#342A08" d="M302.291,98.601c-3.126-0.227-6.117-1.475-9.364-0.995c-1.462,0.216-2.338-0.838-1.107-2.125
		c1.708-1.785,3.967-1.518,6.082-0.82c2.006,0.662,5.105,0.305,4.328,4.02C302.23,98.681,302.291,98.601,302.291,98.601z"/>
	<path fill="#342404" d="M299.99,113.366c-3.211-1.079-7.078-1.273-7.759-5.759C297.133,106.406,298.908,109.42,299.99,113.366z"/>
	<path fill="#CED1D3" d="M160.331,45.634c-0.084,1.771-1.279,2.88-2.863,3.412c-1.058,0.355-1.274-0.691-1.251-1.521
		c0.046-1.658,0.148-3.357,2.291-3.695C159.75,43.633,160.244,44.388,160.331,45.634z"/>
	<path fill="#020205" d="M118.257,166.636c-7.591-18.129-8.149-36.154,0.81-54.035c4.566-6.174,10.006-11.416,15.98-16.277
		c8.679-7.064,17.963-8.561,28.274-4.703c3.91,1.463,8.249,1.774,11.947,3.39c8.543,3.733,15.833,9.572,20.994,17.377
		c13.992,21.161,11.109,58.503-24.156,69.317c-8.607,2.639-17.289,4.884-26.395,3.174c-9.345-1.755-16.953-6.295-22.428-14.256
		C122.072,168.865,121.418,166.072,118.257,166.636z"/>
	<path fill="#333439" d="M66.872,74.018c2.141-1.251,4.754-1.419,7.251-2.018c1.264-0.303,1.878,0.335,2.111,1.341
		c0.243,1.049-0.613,1.21-1.438,1.517C71.957,75.916,69.285,75.828,66.872,74.018z"/>
	<path fill="#FEFEFD" d="M181.961,102.76c13.117,7.481,18.375,19.612,18.99,33.87c1.117,25.872-14.552,39.777-38.385,44.85
		c-12.79,2.722-24.564,1.075-34.129-8.556c-5.627-5.666-9.231-12.463-9.403-20.78c-0.127-6.156-0.333-12.301,0.387-18.434
		c3.456-4.24,5.939-9.123,9.433-13.402c7.695-9.426,17.975-13.839,29.24-16.748c1.445-0.373,3.018-0.449,4.461-0.158
		c6.164,1.243,12.186,0.87,18.126-1.164C181.178,102.069,181.623,102.366,181.961,102.76z"/>
	<path fill="#ACACC0" d="M181.961,102.76c-5.556,2.393-11.123,2.548-17.268,2.201c-12.946-0.732-23.989,4.818-33.028,14.092
		c-3.912,4.013-6.983,8.708-9.89,13.467c-0.7,1.145-1.445,1.054-2.354,1.19c0.269-8.837,4.424-16.201,9.12-23.261
		c2.752-4.137,6.987-6.725,11.65-8.158c8.929-2.744,18.162-4.022,27.379-2.2C172.358,101.038,177.369,100.826,181.961,102.76z"/>
	<path fill="#92949C" d="M149.084,93.389c1.621-3.595,3.578-1.636,5.726-1.353C153.037,93.782,151.337,93.915,149.084,93.389z"/>
	<path fill="#2BADBE" d="M134.358,152.553c-0.111-2.596-0.222-5.192-0.333-7.789c2.894-6.152,4.457-6.659,9.923-3.098
		c0.944,0.615,1.485-0.003,2.163-0.371c0.407-0.208,0.833-0.347,1.28-0.429c3.065,0.201,6.124-3.491,9.23,0.263
		c1.362-2.95-0.908-6.499,2.021-8.795c2.322-0.607,4.289-0.43,5.089,2.314c0.362,3.158-1.197,6.055-1.548,9.609
		c2.962-0.957,5.503-2.384,8.605-1.214c-0.157-3.778-3.055-6.172-3.328-9.458c0.764-5.366,5.666-3.847,8.803-5.056
		c1.813-0.699,2.69,1.258,3.124,2.922c0.484-0.121-0.185,2.928,1.012,0.434c1.438-2.993,1.574-6.705,5.034-8.492
		c0.033,5.201,2.516,6.925,7.665,6.138c4.283-0.654,4.909,2.361,5.051,5.978c0.157,3.997-1.523,5.411-5.22,5.249
		c-3.173-0.138-6.178,0.697-9.205,1.558c-2.825,0.804-4.145,2.401-3.677,5.35c-0.683,2.628-2.228,3.542-5.067,3.547
		c-5.57,0.011-11.093,2.001-16.722,0.43l-0.002-0.001c-6.304-1.146-12.492-1.125-18.445,1.687
		C137.872,154.246,135.781,155.55,134.358,152.553z"/>
	<path fill="#2BADBE" d="M163.176,134.61c-0.771-1.789-2.816-1.304-4.048-2.271c-2.778-1.206-2.412,1.285-2.989,2.586
		c-1.926,4.344-3.702,4.653-7.423,0.951c-0.908,1.9,0.543,4.462-1.67,5.748l-0.339,0l-0.338,0.029
		c-3.087-0.091-2.505-2.941-3.436-4.628c-0.915-1.657-0.699-4.365-3.271-4.474c-2.247-0.095-2.558,2.278-3.439,3.812
		c-0.418,0.727-0.819,1.465-1.86,1.281c-2.099,0.072-4.483-0.019-4.204-2.817c0.363-3.637-2.681-7.945,2.173-10.829
		c5.966-3.545,12.593-5.13,19.225-6.317c9.151-1.638,18.442-2.629,27.779-1.967c1.718,0.122,4.212-1.011,5.052,1.844
		c-6.221,0.293-11.401,3.54-17.491,6.1c2.275,1.54,4.228,1.181,6.247,0.718c3.899-0.894,6.499,0.353,7.187,4.573
		c-0.123,1.332-0.277,2.643-1.941,2.959c-0.276-2.137-1.207-3.773-3.368-1.966c-2.074,1.734-6.378-0.615-6.78,3.844
		C166.606,134.378,164.907,134.596,163.176,134.61z"/>
	<path fill="#2BADBE" d="M179.346,128.802c-0.676-3.256-2.621-4.598-5.715-3.23c-1.981,0.876-3.747,0.992-5.689,0.19
		c-1.207-0.499-3.421,0.554-3.36-1.819c0.04-1.544,1.69-1.851,2.942-2.214c3.161-0.915,6.23-2.051,8.804-4.15
		c2.732-2.227,5.383,0.929,8.062-0.023c0.776,0.44,2.316,0.573,0.779,1.941C182.538,122.168,183.337,126.984,179.346,128.802z"/>
	<path fill="#160C07" d="M134.363,137.643c0.769-1.769,1.504-3.554,2.318-5.302c0.686-1.472,1.753-2.136,3.527-2.016
		c1.925,0.13,2.435,1.317,2.883,2.786c0.891,2.924,0.912,6.184,3.278,8.542c-0.086,1.72-0.519,5.071-2.465,2.14
		c-4.026-6.063-6.251-3.541-8.981,0.594c-0.149,0.225-0.591,0.256-0.897,0.378C132.377,142.307,133.194,139.966,134.363,137.643z"/>
	<path fill="#2BADBE" d="M134.358,152.553c2.757,2.182,4.907-0.007,7.22-1.006c5.574-2.408,11.139-3.571,16.677,0.098
		c-6.99,1.829-14.482,0.643-21.309,3.753C134.906,156.327,134.023,154.617,134.358,152.553z"/>
	<path fill="#201605" d="M178.12,130.713c0.94-2.265,1.996-4.49,2.781-6.808c0.534-1.576,1.156-2.719,3.042-2.496
		c0.733,1.255,0.365,2.586,0.263,3.897c-1.799,2.783-2.816,5.9-3.899,8.997c-0.438,1.253-0.451,3.803-2.524,3.717
		C175.776,137.936,177.802,131.748,178.12,130.713z"/>
	<path fill="#2BADBE" d="M158.257,151.645c5.691-0.373,11.382-0.987,17.074-1.009c2.538-0.01,3.13-2.042,4.716-2.971
		c0.657,3.179-0.349,4.436-3.841,4.184c-5.139-0.371-10.167,2.109-15.417,0.9C159.846,152.532,158.81,152.695,158.257,151.645z"/>
	<path fill="#0F0E05" d="M163.176,134.61c1.424-1.903,3.092-2.304,5.067-0.825c1.479,2.759,2.97,5.511,4.431,8.279
		c0.451,0.854,1.091,1.774,0.029,2.634c-0.805,0.652-1.531,0.185-2.244-0.274c-2.313-1.489-4.368-1-6.188,0.884
		c-0.798,0.825-1.512,2.054-2.826,1.064c-1.019-0.768-1.01-2.137-0.742-3.22C161.417,140.277,162.338,137.454,163.176,134.61z"/>
	<path fill="#181409" d="M147.046,141.624c-0.077-2.303-0.196-4.606-0.208-6.91c-0.004-0.838,0.35-1.676,1.306-1.835
		c0.909-0.151,1.612,0.391,1.93,1.197c0.544,1.379-0.095,3.735,2.529,3.37c2.742-0.382,1.984-3.014,2.69-4.702
		c0.469-1.121,0.001-2.929,1.818-3.094c1.865-0.169,1.994,1.296,2.017,2.688c-1.677,2.745-1.482,5.639-0.63,8.562
		c0.259,0.89,1.188,1.835,0,2.587c-1.213,0.768-2.411,0.166-2.897-0.946c-1.422-3.26-3.098-2.981-4.944-0.506
		C149.118,144.101,148.187,142.268,147.046,141.624z"/>
	<path fill="#2BADBE" d="M168.022,139.716c0.193,1.045-0.38,1.592-1.261,1.668c-0.98,0.084-2.112-0.119-1.95-1.426
		c0.085-0.682,0.705-1.631,1.303-1.845C167.346,137.672,167.626,138.892,168.022,139.716z"/>
	<path fill="#201605" d="M179.377,142.431c0.193,1.045-0.38,1.592-1.261,1.668c-0.98,0.084-2.112-0.119-1.95-1.426
		c0.085-0.682,0.705-1.631,1.303-1.845C178.701,140.387,178.981,141.607,179.377,142.431z"/>
	<path fill="#2BADBE" d="M141.327,135.99c0.193,1.045-0.38,1.592-1.261,1.668c-0.98,0.084-2.112-0.119-1.95-1.426
		c0.085-0.682,0.705-1.631,1.303-1.845C140.65,133.946,140.93,135.166,141.327,135.99z"/>
</g>
<path fill="#040507" d="M17.648,143.316c-1.706-4.092-1.274-7.766,2.123-10.86c1.88-0.752,3.686-2.395,5.756-0.627
	c0.348,1.657-1.108,1.525-1.792,2.063c-3.197,2.517-4.234,5.813-2.132,9.2c2.085,3.358,5.763,3.652,9.362,2.722
	c1.718-0.444,2.743-1.929,3.008-3.663c0.262-1.718-0.086-3.611-1.872-4.199c-2.691-0.886-2.906-3.152-3.905-5.202
	c6.136-0.453,10.656,3.195,10.747,8.421c0.084,4.841-3.325,7.238-9.578,7.411C24.471,148.718,20.618,147.154,17.648,143.316z"/>
<path fill="#050509" d="M240.972,206.607c-6.362-0.266-9.803-2.942-9.695-7.538c0.109-4.639,4.998-9.542,9.287-9.314
	c3.758,0.2,9.477,6.75,9.403,10.768C249.89,204.717,246.738,206.849,240.972,206.607z"/>
<path fill="#090B0E" d="M61.448,139.819c4.31-0.139,7.895,2.88,7.933,6.978c0.028,3.027-1.457,5.076-4.757,5.177
	c-4.879,0.149-8.405-3.096-8.49-7.73C56.069,140.692,56.944,139.964,61.448,139.819z"/>
<path fill="#07070B" d="M187.434,17.796c4.726-1.051,6.118,1.539,6.906,4.503c0.973,3.663-0.71,6.186-4.215,7.271
	c-3.835,1.187-6.958-0.182-8.895-3.606c-1.845-3.26-0.783-6.438,1.124-9.34c0.676-1.028,1.688-1.587,2.986-0.749
	c1.648,1.065,1.126,2.06,0.081,3.221c-0.535,0.594-0.931,1.378-1.19,2.143c-0.71,2.099-0.402,3.894,1.698,5.132
	c1.418,0.836,2.876,1.193,4.129-0.002c1.745-1.664,1.339-3.651,0.213-5.466C189.701,19.986,188.804,19.272,187.434,17.796z"/>
<path fill="#232526" d="M41.685,170.565c1.579,0.243,2.573,1.102,2.511,2.624c-0.073,1.793-1.203,2.625-3.007,2.387
	c-1.538-0.203-2.491-1.07-2.19-2.664C39.263,171.513,40.192,170.587,41.685,170.565z"/>
<path fill="#080908" d="M176.117,2.107c0.804,0.205,2.05-0.186,2.189,1.267c0.135,1.406-0.655,2.139-1.973,2.284
	c-1.027,0.113-1.961-0.03-2.133-1.369C174.016,2.856,174.58,2.117,176.117,2.107z"/>
<path fill="#121116" d="M308.307,166.72c-0.621,1.018-1.454,1.75-2.725,1.663c-0.885-0.061-1.742-0.677-1.687-1.446
	c0.085-1.177,0.955-2.02,2.275-1.923C307.205,165.09,307.979,165.66,308.307,166.72z"/>
<path fill="#EFF2F3" d="M239.55,203.872c-2.343-0.484-5.39-0.321-4.934-3.652c0.423-3.092,2.583-5.933,5.836-5.762
	c2.472,0.13,5.137,2.177,5.18,5.247C245.689,203.876,241.91,203.01,239.55,203.872z"/>
<path fill="#E1E4E7" d="M64.732,146.697c0.013,1.592-1.09,1.948-2.29,1.79c-1.838-0.242-2.928-1.374-2.807-3.313
	c0.084-1.35,0.569-2.953,2.17-2.573C63.659,143.041,64.512,144.783,64.732,146.697z"/>
</svg>
