<?xml version="1.0" encoding="utf-8"?>
<!-- Generator: Adobe Illustrator 17.0.2, SVG Export Plug-In . SVG Version: 6.00 Build 0)  -->
<!DOCTYPE svg PUBLIC "-//W3C//DTD SVG 1.1//EN" "http://www.w3.org/Graphics/SVG/1.1/DTD/svg11.dtd">
<svg version="1.1" id="Layer_1" xmlns="http://www.w3.org/2000/svg" xmlns:xlink="http://www.w3.org/1999/xlink" x="0px" y="0px"
	 width="346px" height="240px" viewBox="0 0 346 240" enable-background="new 0 0 346 240" xml:space="preserve">
<g>
	<path fill="#020305" d="M182.004,66.132c7.687-3.867,16.569-5.302,23.004-11.796c1.75-1.765,3.587,0.405,5.032,1.75
		c2.853,3.147,2.117,6.605,0.343,9.74c-6.374,11.264-12.209,22.882-20.593,32.888c-1.2,1.433-2.273,2.903-2.36,4.83
		c-0.597,13.156-2.642,26.072-6.354,38.715c-0.74,3.578-1.332,6.979-5.103,9.163c-5.906,3.42-6.539,3.365-8.743-3.532
		c-0.673-2.57-1.342-5.148-2.088-7.706c-0.105-0.361-0.301-0.588-0.91-0.758c-2.532,6.847-6.883,12.68-11.026,18.612
		c0.185,1.315,1.287,1.507,2.214,1.528c6.324,0.139,12.812,2.158,18.844-1.523c4.313-0.241,5.687,2.142,5.144,5.968
		c-1.836,12.935-0.517,25.933-0.875,38.897c-0.061,2.208,0.545,4.267,1.478,6.26c1.568,3.35-0.147,4.981-3.18,5.841
		c-1.805,0.512-3.631,0.393-5.444,0.034c-10.897-2.155-21.829-1.507-32.814-0.76c-5.817,0.396-11.996,2.036-17.317-2.158
		c0.184-4.548,1.077-9.035,1.525-13.569c0.838-8.486-0.012-16.881-0.221-25.303c-0.327-13.185,1.717-12.957,13.457-14.412
		c2.119-0.263,4.293,0.267,6.263-0.313c-4.213-5.677-3.852-12.183-3.424-18.593c0.327-4.899,2.194-9.643,0.734-14.725
		c-0.603-2.1,0.113-4.698,3.059-4.64c2.836,0.056,3.2,2.339,3.101,4.721c-0.277,6.648-1.592,13.221-1.423,19.897
		c0.054,2.122-0.15,4.309,1.397,6.754c2.832-2.195,4.577-4.968,6.084-7.796c2.506-4.701,5.489-9.142,7.688-14.002
		c0.963-2.129,2.276-3.751,4.768-3.772c2.488-0.021,3.827,1.711,4.961,3.646c2.155,3.674,1.917,7.921,2.783,11.956
		c4.483-13.393,6.374-27.142,6.508-41.101c0.047-4.874,1.411-8.197,5.26-11.508c7.947-6.835,12.495-16.166,16.328-26.099
		c-6.834,2.937-13.693,5.505-19.711,9.874c-10.024,7.277-12.92,18.074-14.509,29.434c-0.627,4.482-0.977,8.941-3.753,12.744
		c-1.855,2.542-3.812,2.819-6.217,0.576c-3.168-2.955-5.162-6.63-6.015-10.712c-1.201-5.745-5.32-9.08-9.481-12.277
		c-2.549-1.958-5.749-2.455-8.949-0.678c-2.769,1.537-5.945,2.152-8.792,3.55c-2.611,0.751-5.111,3.053-7.967,0.611
		c-0.256-0.466-0.365-0.967-0.334-1.498c0.984-4.179,4.916-2.669,7.452-3.858c0.471-0.163,0.959-0.29,1.412-0.495
		c6.347-2.883,6.346-2.886,3.292-8.797c-0.076-0.147-0.26-0.273-0.267-0.415c-0.105-2.167-3.855-4.891-0.355-6.272
		c3.446-1.359,2.695,2.899,3.464,4.675c3.526,8.146,14.932,11.395,22.191,6.226c4.458-3.175,9.218-5.886,12.829-10.188
		c5.781-6.887,6.34-11.292,1.471-18.59c-1.308-1.96-1.778-3.325-0.067-5.211c1.886-2.078,0.938-4.722,0.978-7.152
		c-3.806-4.317-6.557-9.658-12.056-12.333c-2.213-1.076-4.227-2.606-7.062-3.014c-0.58,2.149,1.034,3.77,1.196,5.632
		c0.13,1.496,0.472,3.3-1.207,3.933c-1.45,0.546-2.251-0.981-3.02-2.053c-4.44-6.198-5.52-6.126-9.427,0.621
		c-0.166,0.287-0.358,0.565-0.483,0.871c-1.047,2.562-3.481,5.449-1.719,7.836c1.605,2.173,4.526-0.457,6.916-0.605
		c2.133-0.132,4.211-0.946,6.408-0.77c1.252,0.208,2.538,0.368,2.878,1.93c-1.266,2.333-3.793,2.222-5.847,3.034
		c-0.689,0.24-1.39,0.443-2.096,0.621c-1.089,0.366-2.165,0.865-3.288,1.032c-6.642,0.989-11.055,4.612-13.27,10.949
		c-0.329,0.942-0.968,1.712-1.691,2.4c-1.523,1.168-0.119,3.718-2.55,4.87c-1.731-3.5,0.043-6.678,0.737-9.796
		c0.43-1.93,2.064-3.386-0.021-5.617c-1.345-1.439,0.66-2.416,2.082-2.936c2.936-1.993,4.215-4.764,4.567-8.306
		c0.43-4.327,2.19-8.263,4.662-11.657c-4.559,1.421-6.341,6.287-10.071,8.945c-1.898,3.417-1.377,7.055-0.549,11.059
		c-8.375-7.356,2.188-25.029,13.93-26.412c1.355-0.487,2.53-1.773,4.182-0.939c5.45-0.303,10.991-1.294,15.954,2.103
		c8.509,1.608,17.932,11.634,18.137,20.165c0.138,5.741,1.453,11.145,2.55,16.679C177.344,66.709,178.877,67.427,182.004,66.132z"/>
	<path fill="#FCFDFD" d="M121.963,95.115c3.328-2.522,7.529-3.192,11.13-5.333c2.872-1.708,6.802,0.305,8.944,2.563
		c3.747,3.948,9.27,6.49,9.302,13.706c0.016,3.564,3.416,7.348,6.54,10.191c1.378,1.254,1.898,0.227,2.638-0.789
		c3.128-4.29,3.458-9.211,4.066-14.303c1.106-9.253,4.461-18.072,10.025-25.447c1.919-2.544,5.566-4.921,9.038-6.524
		c6.27-2.894,12.471-5.939,19.379-9.246c-1.713,8.178-6.06,14.468-10.139,20.768c-3.036,4.689-6.398,9.323-11.401,12.267
		c-2.884,1.697-1.819,4.441-1.774,6.738c0.295,15.105-2.466,29.749-6.372,44.234c-0.233,0.865-0.166,2.042-1.739,2.457
		c-1.554-2.959-1.565-6.185-1.601-9.417c-0.039-3.468-1.174-6.534-3.838-8.818c-2.291-1.965-4.561-1.258-5.502,1.282
		c-3.536,9.541-9.186,17.765-15.556,26.667c-2.761-8.375-1.829-16.071-1.291-23.734c0.198-2.816,0.579-5.618,0.777-8.434
		c0.105-1.498-0.655-2.633-2.149-2.94c-1.719-0.353-2.012,1.063-1.902,2.181c0.905,9.134-0.827,18.234-0.186,27.397
		c0.322,4.605,2.372,7.084,6.39,9.086c-5.768-0.01-11.23,0.655-16.711,1.096c-4.272,0.344-6.483,1.828-6.35,6.704
		c0.304,11.145,0.081,22.305,0.062,33.459c-0.006,3.64-0.074,7.272-2.771,10.185c5.013,4.457,11.264,5.163,17.516,5.448
		c6.755,0.309,13.534-0.038,20.298,0.145c1.981,0.054,4.464-0.5,5.297,2.357c-8.322,5.957-17.117,1.016-25.698,1.273
		c-6.031,0.181-11.255-1.383-16.452-4.033c-1.59-0.811-3.337-1.299-2.707-3.409c1.715-5.748,1.905-11.521,0.817-17.377
		c6.856-8.835-2.578-16.944-1.172-25.609c0.574-3.539,0.06-6.386,4.535-8.684c3.171-1.628,5.72-3.941,9.672-4.602
		c2.59-0.434,3.74-3.69,2.181-6.555c-2.824-5.187,0.931-10.353-0.137-15.506c8.758-3.099,0.32-8.333,1.44-12.535
		c-0.572,4.772-4.287,7.405-6.757,10.854c-1.055,1.473-1.546,3.372-2.678,4.764c-2.541,3.122,1.754,7.641-0.042,8.547
		c-2.539,1.28-5.726,0.614-6.664,4.631c-0.555,2.375-2.854,1.608-4.631,1.212c4.061-6.754,5.67-14.784,10.676-21.014
		c4.135-5.146,5.557-10.363,2.199-16.494c-1.589-2.901-1.682-5.582,2.845-5.672c0.632-0.086,1.296,0.031,2.421-0.558
		c-3.395-1.269-7.118-0.955-9.409-3.782c-1.231-1.753-2.032-3.742-3.064-5.605C120.706,97.55,120.148,96.156,121.963,95.115z"/>
	<path fill="#020305" d="M243.944,118.082c0.632-3.927,1.464-7.835,1.823-11.787c0.233-2.568,1.225-4.036,3.676-3.148
		c13.692,4.962,27.612,1.772,41.45,1.371c3.14-0.091,6.263-0.729,9.417-0.108c2.06,0.406,4.033,0.83,3.624,3.654
		c-4.583,1.187-5.781,4.139-5.596,8.75c0.376,9.408,0.21,18.843,0.061,28.263c-0.054,3.372,0.625,6.187,3.418,8.259
		c0.258,0.323,0.516,0.646,0.774,0.969c-0.032,2.312-0.944,4.731,1.486,6.618c0.914,0.709,0.873,2.281,0.013,3.195
		c-5.929,6.301-4.652,14.467-5.725,21.999c-0.346,2.432-0.026,4.951-0.034,7.436c-0.098,5.17-1.964,10.318-0.123,15.501
		c0.39,1.44,0.917,2.838,1.062,4.343c0.566,5.865-1.125,7.344-6.986,6.444c-6.559-1.008-13.244-0.719-19.815-0.783
		c-7.755-0.076-15.436-0.531-23.136-1.183c-1.63-0.138-2.795-0.901-3.647-2.243c-1.106-4.555,2.805-4.277,5.231-5.443
		c1.127-0.298,2.277-0.392,3.438-0.362c10.226,1.384,20.445,1.393,30.679-0.04c2.173-0.304,3.916-0.759,4.185-3.292
		c1.228-11.257,1.409-22.542,1.3-33.848c-0.037-3.836-0.97-5.855-5.435-5.483c-5.836,0.486-11.509-1.419-17.28-2.088
		c-3.989-0.462-7.935-0.619-11.924-0.106c-3.419,0.44-4.95,2.101-5.669,5.682c-2.126,10.596-0.535,21.201-0.78,31.792
		c-0.061,2.619,0.468,5.357-1.208,7.738c-3.42,1.197-4.334-1.429-5.33-3.648c-1.829-4.073-1.592-8.46-1.322-12.738
		c0.594-9.412,2.028-18.76,2.047-28.223c0.01-4.992,3.709-6.118,7.842-6.515c-2.934-0.248-4.081-2.096-4.336-4.478
		c-0.273-2.552,1.084-4.05,3.7-4.295c10.557,1.902,21.225,1.134,31.857,1.371c4.221,0.094,6.068-1.81,6.493-5.758
		c0.232-2.16,0.248-4.315,0.298-6.477c0.194-8.31-0.396-16.627,0.583-24.935c0.537-4.558-0.681-5.152-5.398-5.207
		c-10.121-0.118-20.207,1.923-30.336,0.447c-3.512-0.512-4.191,1.794-4.633,4.447c-1.542,9.252-1.674,18.539-0.685,27.849
		c0.229,2.154,0.606,4.29,0.059,6.45c-2.65,2.925-5.145,2.969-5.568-0.13c-1.338-9.802-1.954-19.676-0.198-29.526
		C243.345,118.536,243.712,118.319,243.944,118.082z"/>
	<path fill="#020206" d="M125.011,104.017c2.129,1.87,4.945,1.601,7.407,2.424c1.563,0.523,4.526-0.042,4.242,2.266
		c-0.241,1.955-2.945,1.472-4.739,1.432c-3.433-1.256-7.297,0.581-11.02-2.104c-0.198,3.299,0.427,5.738,2.141,7.782
		c2.181,2.602,2.016,5.082,0.172,7.736c-1.831,2.634-2.53,5.775-3.764,8.676c-2.48,5.831-5.027,10.887-12.255,13.457
		c-8.654,3.077-17.115,7.365-24.92,12.553c-1.954,1.299-3.906,2.792-6.335,0.928c-1.965-1.297-2.843-2.475-2.538-5.442
		c0.497-4.839-2.712-9.127-4.393-13.636c-1.476-1.047-2.092-2.489-1.971-4.274c0.415-1.972,1.553-2.786,3.553-2.203
		c1.429,0.791,0.361,2.549,1.355,3.51c0.8,4.253,2.861,8.074,4.143,12.151c0.914,2.905,2.283,2.547,4.392,1.488
		c7.552-3.794,15.129-7.544,22.756-11.185c2.206-1.053,4.612-1.687,6.926-2.513c-0.926-2.186-1.994-4.324-2.754-6.566
		c-3.867-11.404-7.635-22.841-11.49-34.249c-0.54-1.597,0.315-2.412,1.259-3.425c2.191-2.35,4.263-4.812,7.356-8.338
		c-8.778,3.302-16.154,6.06-23.514,8.858c-1.422,0.541-3.161,2.453-4.163,0.237c-1.059-2.342,1.465-2.962,3.074-3.58
		c6.16-2.365,12.341-4.678,18.565-6.869c1.78-0.627,3.253-1.587,4.647-2.769c4.233-1.814,6.629-0.977,8.366,3.375
		c1.518,3.802,2.596,7.774,3.507,11.778l-0.114,0.227C116.13,101.115,121.399,101.554,125.011,104.017z"/>
	<path fill="#A8A8BF" d="M75.939,159.167c1.97-0.049,3.661-0.324,5.524-1.541c9.148-5.978,18.792-11.065,29.232-14.473
		c1.895-0.619,4.308-0.679,2.831-3.732c-0.301-0.623-0.727-1.323,0.029-1.659c7.205-3.204,4.422-12.359,9.918-16.635
		c0.751-0.584,0.774-2.63-0.156-3.218c-4.151-2.625-3.039-7.445-5.877-12.449c5.399,2.861,10.103,3.083,14.478,4.68
		c-1.127,0.097-2.254,0.193-3.605,0.309c0.961,2.285,1.875,4.373,2.721,6.489c1.482,3.707,1.699,7.325-0.803,10.758
		c-4.192,5.753-8.145,11.606-9.676,18.768c-0.549,2.568-3.557,3.373-4.767,5.568c-10.055,1.747-18.85,6.929-28.252,10.45
		c-2.777,1.04-3.419,4.152-3.482,6.756c-0.225,9.305-5.303,16.852-8.816,24.935c-0.821,1.888-1.101,3.768-1.628,5.644
		c-1.399,4.977-4.426,5.812-8.643,2.305c5.557-0.594,5.88-4.67,6.662-9.06c1.452-8.153,2.734-16.359,4.725-24.399
		c0.756-3.054,0.969-5.802-0.421-8.617C75.913,159.751,75.915,159.459,75.939,159.167z"/>
	<path fill="#020205" d="M193.025,106.964c10.981,0.781,21.72-2.186,32.675-2.09c4.688,0.041,8.523,1.769,12.217,4.272
		c1.763,1.906,1.589,4.299,1.543,6.6c-0.208,10.273-0.515,20.544-1.683,30.764c-0.247,2.159-0.357,4.32,0.017,6.448
		c0.694,3.943-1.554,6.093-4.858,5.841c-14.768-1.128-29.474,0.976-44.213,0.472c-0.665-0.023,0.176-0.032-0.489-0.089
		c-2.601-0.914-3.955-2.997-3.054-5.407c1.908-5.108,0.416-10.142,0.384-15.208c0.073-6.573-0.467-13.148,0.371-19.712
		c0.293-2.298-0.047-5.138,3.183-5.087c2.7,0.043,3.012,2.583,3.189,4.788c0.053,0.656,0.049,1.315,0.056,1.967
		c-1.088,7.439-1.342,14.929-0.662,22.408c0.568,6.254,1.767,6.875,8.009,6.454c7.453-0.503,14.934-0.156,22.402-0.232
		c5.378-0.055,7.26-1.569,7.217-6.724c-0.075-9.01,1.094-17.944,1.148-26.93c0.033-5.507-0.407-6.008-6.035-5.886
		c-10.499,0.229-20.91,1.428-31.228,3.435c-2.676,0.295-5.513,0.105-5.325-3.321C188.038,107.007,190.29,106.013,193.025,106.964z"
		/>
	<path fill="#ACADC3" d="M187.956,158.191c13.392-0.263,26.784-0.539,40.176-0.773c1.477-0.026,2.968,0.353,4.434,0.257
		c2.832-0.185,5.581-0.33,3.488-4.644c-1.257-2.589,0.284-5.492,0.493-8.256c0.897-11.861,1.846-23.716,1.369-35.629
		c3.858-1.542,4.958,0.343,5.078,3.871c0.058,1.693-0.808,3.659,0.949,5.065c-0.735,9.762,0.347,19.494,0.466,29.242
		c0.017,1.388-0.027,2.748,1.819,2.932c1.626,0.162,1.915-0.878,1.847-2.185c2.101-0.103,3.106,0.858,2.905,2.991
		c-4.484,2.807-4.458,2.959,1.676,8.834c-0.68,0.227-1.227,0.509-1.801,0.587c-4.311,0.583-5.794,2.251-5.814,7.303
		c-0.04,10.2-1.86,20.387-1.875,30.646c-0.004,2.622,0.316,5.278,0.813,7.855c0.377,1.955,1.176,3.913,3.852,3.654
		c1.315-0.07,2.553,0.05,3.318,1.34c-1.285,1.733-5.239-0.446-5.053,3.446c0.99,2.565-0.785,3.146-2.627,3.452
		c-2.29,0.38-2.147-1.286-2.1-2.788c0.101-0.986,0.474-2.033,0.134-2.954c-5.344-14.469-2.203-29.494-2.857-44.262
		c-0.125-2.822-0.525-5.19-2.694-7.068c0.149-0.806,1.06-2.043-0.998-1.433c-1.834,0.543-2.961,2.676-5.194,2.245
		c-1.095-1.395-2.514-1.119-4.053-1.001c-10.363,0.793-20.735,1.469-31.091,2.351c-1.661,0.141-3.326,0.202-4.631-1.13
		c-0.524-2.185,1.123-1.203,1.998-1.757C190.853,159.587,188.087,160.934,187.956,158.191z"/>
	<path fill="#020306" d="M35.941,122.311c-3.941-1.218-8.009-2.203-11.322-4.826c-10.686-8.457-8.439-29.82,2.929-37.36
		c8.647-5.735,17.147-6.806,26.76-4.447c2.512,0.616,5.149,0.883,7.846,0.882c5.759-0.001,12.431,7.008,13.411,13.529
		c0.558,3.716,1.083,7.437-0.099,11.816c4.878-1.827,8.952-3.353,13.027-4.879c-2.886,5.756-9.656,5.987-13.455,10.292
		c-3.213,4.392-6.589,8.355-11.151,11.753c-5.623,4.188-11.126,5.55-17.611,4.328C42.846,122.753,39.38,122.716,35.941,122.311z"/>
	<path fill="#FEFEFE" d="M79.068,137.381c-0.752-5.406,2.698-10.552-1.902-14.822c-0.752-0.698,0.075-2.277,0.741-3.235
		c2.16-3.111,3.091-6.578,3.047-10.305c-0.026-2.171,0.993-2.798,3.036-2.94c6.779-0.469,9.261,1.195,9.833,7.963
		c0.352,4.165,1.379,6.871,5.986,7.631c2.643,0.436,3.776,2.486,2.72,5.331c-0.633,1.704-1.357,3.472-1.47,5.248
		c-0.174,2.725-1.368,3.665-4.013,3.961c-3.837,0.429-7.623,0.851-9.469,5.513c-0.918,2.319-3.931,4.271-6.705,3.016
		C77.284,143.117,79.666,139.362,79.068,137.381z"/>
	<path fill="#ADAFC3" d="M164.083,219.061c-3.626-1.674-7.486-0.867-11.246-1.006c-7.438-0.277-14.951,0.85-22.299-0.969
		c-3.777-0.935-7.419-2.32-9.566-5.975c3.851,2.516,8.184,2.628,12.491,2.159c13.414-1.46,26.767-2.292,40.094,0.944
		c1.677,0.407,3.816-0.728,5.641-1.415c1.178-0.444,1.263-1.739,0.241-2.345c-3.4-2.016-2.236-5.147-2.23-8.029
		c0.024-10.647,0.005-21.293,0.071-31.94c0.011-1.811,0.213-3.651,0.584-5.424c1.176-5.62,0.889-6.017-4.859-5.897
		c1.129-3.471,4.055-4.573,6.891-3.518c2.78,1.034,6.85,1.574,6.682,6.176c-2.05,1.299-2.521,3.089-2.427,5.519
		c0.621,15.965-1.463,31.9-0.663,47.875c0.015,0.291-0.281,0.584-0.475,0.859C177.075,219.422,170.575,219.218,164.083,219.061z"/>
	<path fill="#010204" d="M235.955,161.107c3.515-0.389,4.649,0.998,4.305,4.625c-1.115,11.75-0.242,23.535-0.094,35.304
		c0.036,2.913,0.394,5.834,2.24,8.514c1.388,2.016,1.968,4.663-0.436,6.766c-1.494,2.168-3.648,1.835-5.846,1.655
		c-5.122-0.42-10.258-0.975-15.362,0.224c-9.003,0.625-18.041,0.635-26.943,2.649c-4.15,0.939-5.631-1.14-4.947-5.732
		c0.776-1.568,1.723-2.449,3.782-2.545c12.451-0.576,24.89-1.436,37.339-2.072c3.997-0.204,6.001-0.746,5.377-6
		c-1.572-13.216-1.127-26.571-0.948-39.881C234.442,163.166,234.867,162.024,235.955,161.107z"/>
	<path fill="#020306" d="M75.933,160.044c3.921,0.969,3.207,3.412,2.52,6.454c-2.211,9.79-4.433,19.608-5.904,29.525
		c-1.043,7.03-0.504,7.11-7.582,6.097c-1.075-4.564-1.549-9.353-4.903-13.062c-1.615-0.958-2.119-2.781-3.397-4.511
		c-2.058,6.267-3.506,12.511-7.534,17.6c-1.071,0.997-1.896,2.394-3.635,2.326c-1.154-0.045-2.362-0.023-3.208-1.009
		c-0.984-1.147-0.11-2.025,0.346-3.104c3.732-8.843,7.155-17.801,9.489-27.134c1.667-6.665,1.899-6.745,6.826-2.103
		c2.44,4.355,3.063,9.101,3.014,13.992c0.456,2.78,1.691,5.168,3.679,7.601c3.596-7.751,4.266-15.888,6.155-23.71
		C72.571,165.807,72.033,161.855,75.933,160.044z"/>
	<path fill="#B4B4C7" d="M191.006,121.108c-0.913-2.17,1.906-6.437-2.065-6.435c-3.548,0.001-1.483,4.002-1.626,6.146
		c-0.404,6.093-0.389,12.214-0.539,18.325c-2.827-1.397-0.301-3.639-1.331-4.907c-0.591,2.949,2.251,9.152-5.452,7.898
		c0.977-7.24,3.904-14.079,4.432-21.408c0.404-5.61,1.896-11.131,1.258-16.833c-0.16-1.425-0.415-3.01,0.88-4.227
		c10.218-9.6,15.254-22.634,22.677-34.09c2.091-3.227,1.135-6.285,0.8-9.492c4.664,0.363,6.174,2.035,5.183,6.602
		c-2.015,9.28-7.291,16.985-12.905,24.336c-4.612,6.04-8.769,12.089-9.293,19.942c-1.662,0.886-4.739,0.13-4.516,3.218
		c0.21,2.919,2.564,2.182,4.451,1.939C193.29,115.33,194.801,118.796,191.006,121.108z"/>
	<path fill="#2BADBE" d="M145.762,45.955c-4,0.18-7.792,1.379-11.579,2.5c-3.247,0.961-3.864-0.344-3.269-3.19
		c1.042-4.979,3.31-9.329,6.65-13.126c2.146-2.44,3.925-3.018,6.051,0.404c1.233,1.984,1.484,4.724,3.844,6.336
		c1.535-3.607-1.002-5.981-1.708-8.725c-0.469-1.824-0.601-3.252,1.861-2.366c8.64,3.106,16.104,7.609,19.163,17.027
		c-0.513,0.062-1.026,0.125-1.539,0.189C158.782,46.097,152.234,45.243,145.762,45.955z"/>
	<path fill="#ABABBF" d="M220.594,216.929c5.321-1.222,10.683-0.444,16.034-0.359c1.779,0.028,3.561-0.163,5.342-0.255
		c1.975,1.029,3.486,0.851,4.128-1.588c4.819,3.786,10.611,2.989,16.083,3.117c8.804,0.205,17.619-0.111,26.43-0.18
		c1.154-0.009,2.333,0.021,3.461,0.237c6.326,1.213,6.727,0.805,5.484-5.843c-0.183-0.982-0.378-1.961-0.568-2.942
		c2.006-0.648,2.825,0.942,3.891,2.066c4.303,6.648,2.562,10.819-7.143,11.834c-7.436,0.778-14.807-1.447-22.186-2.361
		c-6.215-0.77-12.643,0.166-18.681-2.274c-2.463-0.995-3.023,2.17-4.838,2.772c-1.748,0.071-3.733-0.975-5.063,1.072
		c-8.249,2.604-16.66,0.348-24.979,0.833c0.205-3.349,3.757-1.781,5.124-3.394C223.112,217.901,220.979,218.231,220.594,216.929z"/>
	<path fill="#B3B4CA" d="M301.816,153.336c-3.815,0.523-5.451-0.611-5.272-4.969c0.52-12.62,0.577-25.26,0.733-37.894
		c0.03-2.397,0.622-3.461,3.229-2.577c1.042,0.353,2.279,0.13,3.427,0.169c2.658,12.911-0.161,25.828,0.071,38.74
		C304.049,149.304,301.796,150.914,301.816,153.336z"/>
	<path fill="#030407" d="M70.639,134.114c-1.648-0.107-2.725,0.483-2.806,2.293c-1.538-0.267-2.855-0.779-4.029,1.225
		c-1.8,3.073-4.293,5.721-6.049,8.867c-0.878,1.572-1.956,3.028-3.83,3.581c-0.849,0.736-1.598,1.67-2.57,2.166
		c-1.804,0.921-3.699,0.501-5.057-0.842c-1.529-1.511,0.09-2.732,0.931-3.834c4.51-5.912,9.534-11.456,12.968-18.135
		c0.349-0.679,0.55-1.433,1.007-2.653c-7.462,1.358-14.183,3.5-20.887,5.678c-1.786,0.58-3.801,1.675-4.379-0.997
		c-0.504-2.33,1.708-2.203,3.332-2.549c2.248-0.479,4.434-1.249,6.647-1.895c6.567-3.255,13.5-5.138,20.823-5.557
		c0.758,0.543,1.517,1.085,2.275,1.628C69.106,126.831,70.282,130.412,70.639,134.114z"/>
	<path fill="#05060D" d="M183.014,216.076c-1.967-5.962-0.842-12.099-0.87-18.143c-0.051-11.054,1.393-22.101,0.043-33.171
		c-0.44-3.608,2.13-3.918,4.819-3.861c1.036-0.672,1.972-0.63,2.769,0.392c7.436,0.714,14.816-0.284,22.212-0.745
		c5.129-0.32,10.251-0.799,15.384-0.959c1.006-0.031,4.217-1.075,2.393,2.33c-13.405,1.054-26.749,3.043-40.236,2.793
		c-2.65-0.049-3.438,0.922-3.494,3.44c-0.292,12.945-1.711,25.88-0.291,38.837c0.307,2.799-0.884,5.48-0.215,8.401
		C185.913,217.073,184.076,216.479,183.014,216.076z"/>
	<path fill="#2BADBE" d="M224.976,33.095c-5.1-0.364-10.363,0.713-15.232-1.711c-2.183-2.415-1.279-5.261-1.047-8.192
		c-2.001,2.031,0.077,5.058-2.034,6.848c-3.201-4.136-2.3-8.913-0.656-12.906c1.596-3.877,6.16-2.383,9.367-2.032
		c3.301,0.361,1.302,3.436,1.572,5.303c0.198,1.369-0.808,2.907,0.847,4.404c3.669-3.669,7.768-6.483,13.348-4.749
		c1.364,0.424,3.238,0.312,3.747,1.885c0.607,1.879-1.477,2.298-2.479,3.251c-2.071,1.968-4.88,3.256-5.712,6.339
		C226.779,32.779,225.924,32.988,224.976,33.095z"/>
	<path fill="#ACADC3" d="M220.594,216.929c1.766,0.384,4.642-0.376,4.586,2.292c-0.054,2.586-2.575,2.58-4.777,2.49
		c-0.785-0.032-1.609,0.873-2.415,1.35c-5.581-0.547-10.702,1.716-16.047,2.609c-3.614,0.604-7.177,0.919-10.677-0.875
		c-5.777-2.96-6.035-3.734-2.391-9.683c-0.156,3.826,1.228,5.471,5.355,4.412C202.864,217.308,211.734,217.08,220.594,216.929z"/>
	<path fill="#C7C8DA" d="M297.035,193.112c-0.065-7.63,0.309-15.253,2.06-22.681c0.59-2.504,0.048-6.077,4.303-6.819
		c1.387-0.242,1.154-2.625-0.468-2.917c-6.815-1.227-3.322-3.304-0.604-5.449c0.207-0.163,0.182-0.621,0.264-0.942
		c3.591,2.111,3.932,5.432,3.132,8.997c-2.422,10.799-3.223,21.778-3.856,32.782C298.663,197.683,298.612,194.157,297.035,193.112z"
		/>
	<path fill="#B5B7C9" d="M182.004,66.132c-2.007,1.05-4.013,2.101-6.618,3.465c0.812-9.019-2.457-16.909-3.138-25.246
		c-0.549-6.73-5.783-11.333-11.18-15.156c-1.61-1.14-3.42-1.999-5.138-2.986c3.522-3.501,6.845-1.965,9.321,1.02
		c3.456,4.167,6.537,8.688,9.392,13.296c1.518,2.45,2.743,5.254,1.612,8.451c-0.555,1.57-0.291,3.291,0.574,4.8
		c1.89,3.3,3.747,6.576,3.187,10.64C179.841,65.688,181.011,65.932,182.004,66.132z"/>
	<path fill="#030407" d="M39.834,198.108c-3.851-5.13-3.974-11.757-5.17-17.594c-3.421-16.691-5.102-33.741-5.295-50.959
		c-0.016-1.378-0.064-2.792,0.159-4.128c0.216-1.295,1.154-1.913,2.246-1.821c1.129,0.095,1.848,0.797,1.685,2.308
		c-2.628,24.407,2.621,47.749,6.771,71.241C40.257,197.306,40.092,197.505,39.834,198.108z"/>
	<path fill="#0B0A07" d="M164.207,50.091c-0.789,5.175-4.365,7.355-9.029,8.126c-10.968,1.814-21.519,4.627-30.433,12.456
		c0.381-3.24,0.381-3.24,2.537-5.436c1.741-3.278,5.446-3.923,8.064-6.031c0.607-0.364,1.241-0.672,1.897-0.938
		c1.598-0.551,3.178-1.153,4.795-1.654c3.267-1.188,6.675-1.828,10.08-2.353c3.645-0.562,6.679-1.618,7.685-5.699
		c0.281-1.14,1.182-1.964,2.489-2.113C164.837,46.664,164.565,48.355,164.207,50.091z"/>
	<path fill="#2BADBE" d="M224.976,33.095c0.575-0.521,1.149-1.043,1.722-1.562c2.464-0.085,4.931-0.172,7.397-0.259
		c0.302,3.335-3.624,3.408-4.698,6.05c4.571,0.151,6.097-3.932,9.005-5.855c1.578-0.269,3.571-1.109,4.436,0.69
		c1.033,2.147-1.21,2.838-2.468,4.101c-5.127,5.148-11.111,6.702-18.073,5.124c-1.364-0.309-3.102,0.146-3.385-2.028
		c-0.262-2.014,1.347-2.415,2.569-3.152C222.842,35.382,224.673,35.104,224.976,33.095z"/>
	<path fill="#2BADBE" d="M137.084,59.301c-0.368,0.2-0.735,0.401-1.103,0.601c-4.516-0.169-6.786,4.64-11.066,4.994
		c-0.636,0-1.272,0-1.908,0c1.258-6.697,3.881-12.208,11.453-13.657c2.234-0.428,4.404-1.19,6.604-1.799
		C142.841,53.979,139.618,56.501,137.084,59.301z"/>
	<path fill="#2BADBE" d="M122.415,40.398c2.595-5.614,6.927-9.198,12.754-11.145c-4.38,5.601-6.627,11.797-6.76,18.819
		c-0.065,3.441-3.238,2.529-5.156,3.346C122.37,47.789,123.946,43.975,122.415,40.398z"/>
	<path fill="#BEC0CC" d="M66.739,121.463c-6.794,2.401-13.746,4.213-20.823,5.557c-2.102-4.16-6.513-3.429-9.975-4.709
		c5.678,0.465,11.436-1.228,17.098,0.793c0.982,0.35,2.635-0.424,3.677-1.127c5.84-3.936,12.752-6.579,16.323-13.333
		c0.328-0.62,1.316-0.892,1.998-1.326c-2.122,5.147-4.199,10.331-10.229,12.215C65.271,120.359,66.802,120.117,66.739,121.463z"/>
	<path fill="#BFBFD0" d="M53.925,150.081c3.75-5.456,7.499-10.911,11.35-16.515c0.908,1.009,1.733,1.925,2.558,2.841
		c0.392,1.227,0.783,2.455,1.175,3.682c-3.404,2.074-4.627,5.744-6.558,8.906C59.796,153.341,56.889,153.685,53.925,150.081z"/>
	<path fill="#A6A7BD" d="M115.015,95.514c-3.324-2.779-3.383-6.976-4.331-10.668c-1.116-4.342-3.484-5.583-7.542-4.485
		c1.681-3.19,4.843-3.879,7.609-2.949c4.146,1.394,6.536,4.959,7.157,9.316c0.359,2.519,0.568,4.713,3.918,4.304
		C119.742,92.809,115.891,91.901,115.015,95.514z"/>
	<path fill="#D6D5D8" d="M297.035,193.112c3.032-1.32,1.968,4.02,4.832,2.972c0.79,5.106-1.097,10.037-0.988,15.099
		c-1.699,0.068-2.501-1.553-3.891-2.065C295.321,203.778,296.549,198.446,297.035,193.112z"/>
	<path fill="#BBBBCB" d="M49.133,202.148c2.469-6.871,5.711-13.473,7.092-21.139c2.233,2.543,2.804,5.411,3.839,8.05
		c-2.997,0.68-3.086,3.652-4.028,5.673C54.484,198.061,52.463,200.627,49.133,202.148z"/>
	<path fill="#161719" d="M284.865,45.743c3.264-0.316,5.474,2.505,8.445,1.064c0.71-0.344,1.249,0.92,1.061,1.81
		c-0.282,1.334-1.318,2.233-2.526,1.745c-4.185-1.692-8.297-1.574-12.529-0.263c-1.322,0.41-2.25-0.514-2.445-1.823
		c-0.207-1.391,1.056-1.708,1.945-1.721C281.071,46.524,283.273,46.296,284.865,45.743z"/>
	<path fill="#1A0F0E" d="M238.402,31.468c-0.693,3.106-6.038,7.801-8.915,7.889c-1.115,0.034-1.935-0.373-2.368-1.368
		c-0.501-1.151,0.253-1.767,1.102-2.379c1.975-1.422,4.459-2.158,5.874-4.336C235.568,30.508,237.026,30.075,238.402,31.468z"/>
	<path fill="#020305" d="M164.207,50.091c-0.44-1.331-0.314-3.112-2.459-3.081c-4.265-0.169-8.507,2.687-12.791,0.1
		c-0.724-1.33-2.176-0.643-3.195-1.155c6.41-1.986,12.846-3.441,19.474-0.952C164.893,46.699,164.55,48.395,164.207,50.091z"/>
	<path fill="#211C0A" d="M206.662,30.04c-0.861-2.949-0.122-5.85,0.259-8.761c0.137-1.05,0.557-2.084,1.678-2.114
		c1.595-0.043,1.665,1.346,1.653,2.484c-0.037,3.248-1.184,6.44-0.504,9.732C208.431,31.591,207.347,31.274,206.662,30.04z"/>
	<path fill="#14161A" d="M263.964,46.174c2.828-0.414,5.606-1.163,8.536-0.612c1.315,0.247,2.289,0.792,2.353,2.016
		c0.074,1.414-1.081,2.063-2.355,1.804c-2.507-0.51-5.286,0.483-7.55-1.344C264.19,47.644,263.484,47.222,263.964,46.174z"/>
	<path fill="#B4B4BF" d="M70.639,134.114c-4.145-2.951-2.598-6.782-1.632-10.526c0.04-0.156,0.007-0.331,0.008-0.497
		c4.114,4.022,2.577,9.225,2.931,14.033C70.66,136.489,71.239,135.045,70.639,134.114z"/>
	<path fill="#A5A6B2" d="M61.965,185.115c-0.881-4.691-3.097-9.094-3.014-13.992C63.423,175.04,63.665,179.869,61.965,185.115z"/>
	<path fill="#0F1011" d="M249.095,45.959c1.728-0.069,4.048,0.21,3.777,2.077c-0.393,2.71-3.624,0.795-5.343,2.07
		c-0.949,0.703-2.389-0.457-2.193-1.751C245.634,46.4,247.309,45.934,249.095,45.959z"/>
	<path fill="#2BADBE" d="M124.916,64.896c1.963-1.601,4.397-2.562,5.993-4.684c1.486-1.976,3.311-1.294,5.072-0.31
		c-2.899,1.778-5.798,3.556-8.698,5.334C126.494,65.123,125.705,65.01,124.916,64.896z"/>
	<path fill="#07090D" d="M290.914,97.967c0.106,1.15-0.809,1.389-1.456,1.837c-0.919,0.637-1.912,0.715-2.717-0.088
		c-1.398-1.393-4.268,1.409-4.896-1.748c-0.084-0.42,0.716-1.467,1.07-1.45c2.549,0.12,5.091,0.425,7.629,0.729
		C290.708,97.266,290.815,97.764,290.914,97.967z"/>
	<path fill="#03080D" d="M300.579,69.868c-0.611,1.088,0.399,3.629-1.798,3.317c-2.204-0.313-1.765-2.862-1.983-4.562
		c-0.132-1.029-0.285-2.817,1.37-2.592C299.992,66.28,300.68,67.933,300.579,69.868z"/>
	<path fill="#313134" d="M300.801,86.655c-0.328,1.25-0.365,3.08-1.947,3.024c-1.674-0.06-1.999-1.895-2.096-3.309
		c-0.091-1.333,0.239-2.836,2.012-2.696C300.423,83.804,300.551,85.355,300.801,86.655z"/>
	<path fill="#080B0F" d="M139.978,24.106c-1.297,0.746-2.644,1.267-4.182,0.939c0.676-0.585,1.883-0.99,0.775-2.195
		c-1.055-1.147-1.232-2.272,0.096-3.326c0.679-0.539,1.448-0.729,2.247-0.238c1.126,0.693,1.405,1.647,1.032,2.928
		C139.777,22.791,139.956,23.471,139.978,24.106z"/>
	<path fill="#2D3237" d="M299.149,56.802c-1.865-0.707-2.13-2.309-2.237-3.98c-0.078-1.225,0.198-2.584,1.609-2.496
		c1.811,0.113,2.215,1.672,2.153,3.276C300.625,54.866,300.819,56.268,299.149,56.802z"/>
	<path fill="#2B3035" d="M300.713,62.139c-0.104,1.62-0.013,3.233-1.826,3.271c-1.657,0.034-2.053-1.356-2.075-2.791
		c-0.021-1.364,0.049-3.167,1.467-3.335C300.107,59.066,300.4,60.957,300.713,62.139z"/>
	<path fill="#18191C" d="M300.641,96.721c-0.347,1.957-1.532,2.83-3.122,2.934c-1.346,0.089-2.252-0.807-2.011-2.197
		c0.27-1.558,1.163-2.765,2.972-2.712C299.834,94.786,300.555,95.572,300.641,96.721z"/>
	<path fill="#28282C" d="M249.952,66.857c-0.372,1.041-0.493,2.425-2.011,2.3c-1.569-0.129-2.049-1.563-2.246-2.787
		c-0.195-1.209,0.526-2.375,1.895-2.225C248.985,64.299,249.773,65.407,249.952,66.857z"/>
	<path fill="#080810" d="M259.317,48.134c-0.4,1.417-1.755,1.772-2.944,2.015c-1.287,0.263-2.396-0.771-2.307-1.87
		c0.147-1.816,2.065-1.878,3.379-2.088C258.295,46.056,259.186,46.89,259.317,48.134z"/>
	<path fill="#06080B" d="M256.97,98.652c-0.589,1.275-1.593,1.773-2.826,1.713c-1.38-0.067-2.729-0.656-2.538-2.194
		c0.175-1.411,1.608-1.354,2.797-1.254C255.617,97.02,256.586,97.439,256.97,98.652z"/>
	<path fill="#343436" d="M141.099,69.715c-0.275,1.137-0.927,2.071-2.266,1.912c-1.251-0.148-2.118-1.091-1.9-2.331
		c0.222-1.265,1.375-1.665,2.619-1.563C140.718,67.829,141.28,68.439,141.099,69.715z"/>
	<path fill="#111216" d="M247.703,56.152c1.507,0.583,1.846,1.783,1.657,3.216c-0.132,1.001-0.339,2.133-1.739,1.744
		c-1.497-0.416-2.018-1.625-1.823-3.098C245.939,56.943,246.531,56.218,247.703,56.152z"/>
	<path fill="#1E2027" d="M275.9,97.916c0.933-1.359,2.11-1.883,3.606-0.926c0.776,0.496,0.932,1.399,0.593,2.127
		c-1.004,2.16-2.699,0.841-4.155,0.688C275.371,99.188,275.349,98.559,275.9,97.916z"/>
	<path fill="#020407" d="M248.969,86.066c0.227,1.536-0.255,2.17-1.522,2.188c-1.329,0.019-2.28-0.635-2.478-1.869
		c-0.21-1.307,0.613-2.261,1.937-2.276C248.264,84.094,248.768,85.203,248.969,86.066z"/>
	<path fill="#ACADC3" d="M242.967,222.227c1.207-2.627,2.462-5.025,5.063-1.072C246.573,222.6,244.729,222.222,242.967,222.227z"/>
	<path fill="#01040A" d="M300.137,77.94c0,1.119-0.593,2.141-1.606,2.069c-1.23-0.087-1.821-1.242-1.806-2.503
		c0.015-1.246,0.555-2.443,1.878-2.279C299.898,75.388,300.135,76.73,300.137,77.94z"/>
	<path fill="#101512" d="M145.804,70.245c-1.105-0.318-2.223-0.881-2.056-2.268c0.142-1.175,1.234-1.458,2.306-1.321
		c1.055,0.134,1.923,0.523,1.819,1.856C147.776,69.756,147.053,70.24,145.804,70.245z"/>
	<path fill="#04050A" d="M263.964,46.174c0.328,0.622,0.656,1.243,0.984,1.865c-1.169,1.346-2.469,2.236-4.096,0.75
		c-0.386-0.353-0.762-1.264-0.574-1.602C261.106,45.692,262.414,45.346,263.964,46.174z"/>
	<path fill="#0B0D10" d="M264.164,99.211c-0.42,1.273-1.344,1.931-2.557,1.722c-0.951-0.164-1.819-0.852-1.683-2.02
		c0.125-1.067,0.853-1.796,1.941-1.717C263.048,97.284,263.975,97.895,264.164,99.211z"/>
	<path fill="#0E0F17" d="M275.9,97.916c0.015,0.63,0.029,1.259,0.044,1.889c-0.162,0.037-0.323,0.104-0.485,0.106
		c-1.376,0.022-2.941,1.121-3.984-0.755c-0.429-0.772,0.002-1.361,0.44-1.749C273.378,96.111,274.607,97.409,275.9,97.916z"/>
	<path fill="#0E1013" d="M269.198,98.991c-0.186,1.36-0.856,2.027-1.895,2.114c-1.558,0.132-1.904-1.201-1.886-2.237
		c0.017-0.988,1.05-1.634,2.045-1.593C268.563,97.321,268.924,98.299,269.198,98.991z"/>
	<path fill="#0C0F12" d="M249.049,94.767c0.056,1.353-0.855,1.534-1.883,1.552c-1.089,0.019-1.989-0.532-2.155-1.524
		c-0.176-1.057,0.724-1.764,1.689-1.924C248.064,92.643,248.642,93.664,249.049,94.767z"/>
	<path fill="#040509" d="M247.566,74.216c1.138,0.569,1.676,1.451,1.512,2.738c-0.133,1.045-0.717,2.104-1.672,1.945
		c-1.236-0.205-1.505-1.534-1.505-2.713C245.901,75.088,246.504,74.439,247.566,74.216z"/>
	<path fill="#FEFEFE" d="M173.676,205.746c-3.723,1.405-6.753,1.085-9.703,0.908c-11.139-0.667-22.269-0.749-33.399,0.077
		c-2.772,0.206-4.449-0.445-4.066-3.8c1.318-11.541-0.378-23.125,0.327-34.696c0.156-2.56,0.802-3.452,3.15-3.894
		c9.439-1.775,18.902-1.045,28.369-0.487c1.158,0.068,2.307,0.287,3.465,0.354c10.01,0.578,10.054,0.573,9.937,10.908
		c-0.089,7.818,0.198,15.652-0.83,23.441C170.564,201.29,170.71,203.907,173.676,205.746z"/>
	<path fill="#FAFBFB" d="M189.774,161.293c-0.923-0.13-1.846-0.261-2.768-0.392c-1.017-0.465-2.349-0.666-2.998-1.439
		c-3.624-4.314-7.254-3.32-11.002-0.298c-0.881,2.666-3.242,2.638-5.29,2.539c-5.229-0.253-10.464-0.635-15.659-1.273
		c-3.72-0.457-0.467-1.5-0.037-2.286c5.662-2.198,8.872-7.058,12.408-11.53c1.617-2.045,2.699-2.085,3.556,0.488
		c0.435,1.237,0.854,2.48,1.309,3.709c0.385,1.039,0.398,2.363,1.963,2.516c2.008,0.196,1.489-1.146,1.453-2.256
		c-0.009-0.271,0.272-0.802,0.37-0.791c6.412,0.754,5.206-4.936,6.916-8.145c4.939-1.08,5.846-4.575,4.625-10.207
		c1.894,3.096,0.308,5.574,2.158,7.216c0.139,5.06,2.659,10.17-0.827,15.155c-1.176,1.682,0.752,2.872,2.007,3.892
		c1.167,1.947,3.848,0.33,5.158,2.444C192.004,160.854,190.889,161.073,189.774,161.293z"/>
	<path fill="#2BADBE" d="M148.957,47.11c2.606-0.401,5.201-0.989,7.82-1.134c1.659-0.092,3.678-0.983,4.971,1.034
		c-0.986,6.65-5.4,8.688-11.499,8.956c-2.754,0.121-5.469,1.118-8.202,1.717c-1.212-0.162-1.979-1.14-1.436-2.007
		c1.318-2.104,0.793-4.833,2.518-6.727C145.071,48.337,147.014,47.723,148.957,47.11z"/>
	<path fill="#B3B4C6" d="M167.983,147.102c-0.799-0.007-1.305-2.281-2.073-0.687c-1.564,3.25-4.679,5.162-6.455,8.084
		c-1.817,2.988-4.183,4.008-7.436,3.646c4.907-6.805,9.332-13.89,12.499-22.681C166.466,139.782,167.224,143.442,167.983,147.102z"
		/>
	<path fill="#EAEDEF" d="M159.999,88.182c1.576,0.038,2.775-1.788,5.165-0.568c-3.379,2.299-0.552,7.688-5.698,9.304
		c-5.704,1.792-9.137-1.049-12.534-4.956c2.188-1.773,4.587-1.53,6.784-2c0.768-0.269,1.614-0.577,2.227,0.161
		C159.917,94.905,159.349,90.285,159.999,88.182z"/>
	<path fill="#9897AA" d="M125.011,104.017c-0.938-0.303-1.906-0.936-2.809-0.854c-5.535,0.502-6.937-2.915-7.301-7.42
		c2.554,2.04,4.714-0.355,7.062-0.628C121.104,98.724,124.683,100.814,125.011,104.017z"/>
	<path fill="#2BADBE" d="M161.052,104.06c-1.011,1.609,0.896,5.433-2.479,5.432c-1.027,0-5.07-1.964-4.75-4.989
		c0.254-2.399,2.347-4.052,4.902-3.858C160.097,100.749,162.329,101.184,161.052,104.06z"/>
	<path fill="#BFC3CE" d="M159.999,88.182c0.556,0.995,2.384,1.297,1.39,3.15c-0.831,1.55-2.197,1.969-3.609,2.13
		c-1.329,0.151-2.675-0.214-2.452-2.129c0.144-1.235-1.006-0.994-1.612-1.372C155.811,89.369,157.905,88.775,159.999,88.182z"/>
	<path fill="#2BADBE" d="M143.129,48.95c0.899,3.068-1.672,5.705-1.083,8.734c-1.51,0.977-3.194,1.427-4.962,1.617
		c0.648-3.561,4.028-6.02,3.981-9.861C141.753,49.276,142.441,49.113,143.129,48.95z"/>
	<path fill="#040609" d="M138.186,109.465c0.59,0.184,0.786,0.189,0.897,0.288c2.982,2.667,2.69,6.154,2.282,9.609
		c-0.082,0.693-1.229,0.992-1.467,0.303C138.776,116.421,136.976,113.21,138.186,109.465z"/>
	<path fill="#FEFEFE" d="M251.151,211.281c-1.026-0.644-2.663,0.223-3.318-1.34c-0.009-5.813,0.473-11.678-0.143-17.426
		c-0.92-8.589,0.883-16.895,1.518-25.325c0.159-2.109,1.154-2.593,3.057-3.028c7.847-1.791,15.569-0.27,23.314,0.558
		c4.128,0.441,8.225,1.381,12.398,0.859c3.662-0.458,4.674,1.261,4.506,4.616c-0.618,12.295-1.111,24.596-1.651,36.896
		c-1.045,2.231-2.865,2.838-5.243,3.063c-9.623,0.91-19.228,1.629-28.853,0.11c-1.037-0.164-1.977,0.091-2.844,0.661
		C252.978,211.043,252.064,211.162,251.151,211.281z"/>
	<path fill="#FEFEFE" d="M250.981,151.062c-0.622-1.334-1.629-2.293-2.905-2.991c-1.58-12.419-1.45-24.815,0.438-37.197
		c0.393-2.578,1.168-3.239,4.204-2.861c10.915,1.36,21.909,0.67,32.826-0.374c4.074-0.389,6.249-0.101,6.021,4.818
		c-0.501,10.796-0.439,21.617-0.914,32.414c-0.336,7.641-0.722,8.256-8.104,8.133C272.013,152.828,261.337,154.287,250.981,151.062z
		"/>
	<path fill="#B7B9CB" d="M253.891,210.924c1.927-3.309,5.051-1.793,7.437-1.367c8.795,1.569,17.45-0.595,26.17-0.485
		c1.494,0.019,2.142-1.454,3.333-1.982c-0.057,2.094-1.172,3.485-3.175,3.698C276.411,211.986,265.153,212.9,253.891,210.924z"/>
	<path fill="#A0A1B5" d="M291.467,160.283c-11.286,0-22.572,0-33.857,0c0.008-0.618,0.016-1.236,0.024-1.854
		C268.926,158.006,280.207,158.923,291.467,160.283z"/>
	<path fill="#F7F8F9" d="M105.547,87.824c2.948,8.472,5.25,16.279,8.378,23.739c3.042,7.256,0.396,13.345-2.866,20.566
		c-3.732-11.892-8.118-22.744-10.426-34.193C99.907,94.334,102.731,91.255,105.547,87.824z"/>
	<path fill="#FEFEFE" d="M191.006,121.108c2.141-2.672-0.116-6.3,1.955-8.987c3.172-2.364,7.003-1.636,10.542-2.132
		c8.219-1.152,16.477-1.893,24.802-2.005c2.93-0.039,3.778,0.952,3.665,3.595c-0.479,11.116-0.927,22.234-1.356,33.352
		c-0.139,3.618-1.992,5.509-5.567,5.621c-10.436,0.325-20.892-0.464-31.319,0.562c-2.351,0.231-2.413-1.5-2.728-3.249
		C189.39,138.936,189.825,130.027,191.006,121.108z"/>
	<path fill="#FDFEFE" d="M44.356,77.207c5.357-0.136,10.481,0.517,14.95,2.376c9.274,3.857,13.385,18.363,7.077,26.349
		c-8.469,10.723-18.728,16.901-33.87,12.903c-7.344-1.939-12.569-8.55-12.014-16.211c0.571-7.879,2.085-15.003,10.369-19.832
		C35.422,80.137,39.153,76.921,44.356,77.207z"/>
	<path fill="#150D08" d="M220.458,31.41c-1.607-0.347-1.884-1.636-1.213-2.926c1.458-2.802,3.312-5.429,5.969-7.173
		c1.656-1.087,2.85-0.125,2.918,1.854C228.183,24.678,222.063,31.331,220.458,31.41z"/>
	<path fill="#0A0A0E" d="M47.858,92.283c-1.234,0.057-2.107-0.118-2.191-1.462c-0.086-1.38,0.427-2.197,1.895-2.189
		c1.089,0.006,2.001,0.535,2.182,1.567C49.999,91.646,48.916,92.118,47.858,92.283z"/>
	<path fill="#0A0A0E" d="M53.095,87.046c-1.234,0.057-2.107-0.118-2.191-1.462c-0.086-1.38,0.427-2.197,1.895-2.189
		c1.089,0.006,2.001,0.535,2.182,1.567C55.236,86.409,54.153,86.881,53.095,87.046z"/>
</g>
</svg>
