<?xml version="1.0" encoding="iso-8859-1"?>
<!-- Generator: Adobe Illustrator 17.0.2, SVG Export Plug-In . SVG Version: 6.00 Build 0)  -->
<!DOCTYPE svg PUBLIC "-//W3C//DTD SVG 1.1//EN" "http://www.w3.org/Graphics/SVG/1.1/DTD/svg11.dtd">
<svg version="1.1" id="Layer_1" xmlns="http://www.w3.org/2000/svg" xmlns:xlink="http://www.w3.org/1999/xlink" x="0px" y="0px"
	 width="50px" height="50px" viewBox="0 0 50 50" style="enable-background:new 0 0 50 50;" xml:space="preserve">
<path style="fill:#2CAEBF;" d="M23.532,40.875l-7.009-15.397c0,0-10.816-9.265-6.211-15.338C18,0,23.239,0.811,28.41,3.415
	s10.302,9.223,7.371,14.296s-7.373,7.351-9.458,13.048s-2.791,11.194-2.791,11.194"/>
<path style="fill:#B7B8CD;" d="M22.617,41.375c0.46-0.65,0.92-1.3,1.379-1.95c1.742,0.75,2.111-0.398,2.194-1.693
	c0.117-1.823,0.278-3.596,1.002-5.324c0.782-1.866,1.902-3.416,3.308-4.859c2.305-2.367,4.464-4.899,6.197-7.713
	c2.454-3.983,2.04-7.967-0.488-11.813c-0.503-0.765-1.423-1.327-1.251-2.441c0.966-0.118,1.419,0.63,1.912,1.214
	c1.752,2.075,2.958,4.487,4.102,6.924c1.286,2.739,0.407,5.416-0.923,7.7c-1.347,2.313-2.428,4.999-5.212,6.254
	c-1.101,0.496-1.079,1.887-1.383,2.925c-1.504,5.139-3.608,10.134-3.77,15.606c-0.032,1.077-0.733,1.889-1.859,1.721
	c-1.688-0.252-3.586-0.368-4.196-2.475c-0.151-0.52-0.077-1.106-0.106-1.661C23.801,42.767,23.55,41.943,22.617,41.375z"/>
<path d="M34.957,5.581c5.984,5.667,4.674,12.97-0.838,18.738c-3.752,3.927-8.095,7.916-7.479,14.328
	c0.072,0.747,0.072,1.865-1.093,2.114c-1.047,0.224-1.401-0.463-1.552-1.336c0.375-1.942,0.766-3.88,1.122-5.825
	c0.794-4.334,3.39-7.394,6.452-10.457c3.609-3.611,5.316-9.005,1.2-14.163c-1.393-1.746-2.617-3.852-5.313-3.951
	C26.688,5,26.181,4.451,25.901,3.731c-0.252-0.291-0.707-0.658-0.377-0.988c0.566-0.566,1.323-0.294,2.013-0.132
	C30.254,2.992,32.637,4.208,34.957,5.581z"/>
<path d="M28.284,14.168c0.003,0.71,0.019,1.421,0.008,2.131c-0.032,2.131-0.897,3.75-3.105,4.137
	c-2.068,0.363-3.918-0.234-5.07-2.155c-1.102-1.839-0.627-3.466,0.821-4.911c0.551-0.55,1.08-1.123,1.62-1.685
	C25.083,10.334,26.947,11.142,28.284,14.168z"/>
<path d="M27.537,2.611c-0.507,0.429-2.052-0.658-1.636,1.12c-5.573-0.708-9.284,2.513-12.138,6.487
	c-3.993,5.559-0.842,10.441,2.758,15.313c-5.726-3.253-7.679-10.38-4.566-15.525C15.491,4.16,22.094,1.026,27.537,2.611z"/>
<path d="M22.948,39.601c-1.636-0.702-1.697-1.791-2.016-2.736c-0.93-2.756-1.405-5.689-3.134-8.137
	c-0.432-0.611-0.483-1.214,0.241-1.591c0.692-0.36,1.295,0.005,1.57,0.624c0.608,1.368,1.148,2.77,1.645,4.183
	C22.089,34.316,22.497,36.777,22.948,39.601z"/>
<path d="M22.617,41.375c0.663-0.025,1.477-0.452,1.808,0.523c0.298,0.877-0.038,1.53-0.903,1.893
	C21.935,43.466,21.671,42.647,22.617,41.375z"/>
<path style="fill:#A6A6B0;" d="M28.284,14.168c-1.27-2.3-3.126-3.25-5.726-2.483c0.583-0.967,1.341-1.624,2.527-1.085
	C26.656,11.314,28.332,11.981,28.284,14.168z"/>
<path style="fill:#A2A2BA;" d="M26.397,16.264c-0.292,1.208-0.415,2.593-2.181,2.54c-1.059-0.031-1.272-0.834-1.244-1.665
	c0.053-1.565,1.198-2.204,2.493-2.407C26.588,14.556,26.283,15.597,26.397,16.264z"/>
</svg>
