<?xml version="1.0" encoding="utf-8"?>
<!-- Generator: Adobe Illustrator 18.0.0, SVG Export Plug-In . SVG Version: 6.00 Build 0)  -->
<!DOCTYPE svg PUBLIC "-//W3C//DTD SVG 1.1//EN" "http://www.w3.org/Graphics/SVG/1.1/DTD/svg11.dtd">
<svg version="1.1" id="Layer_1" xmlns="http://www.w3.org/2000/svg" xmlns:xlink="http://www.w3.org/1999/xlink" x="0px" y="0px"
	 width="334.3px" height="245.8px" viewBox="0 3.2 334.3 245.8" enable-background="new 0 3.2 334.3 245.8" xml:space="preserve">
<g>
	<g>
		<path fill="#54588A" d="M334.3,247c0,1.1-0.9,2-2,2H198.6c-1.1,0-2-0.9-2-2V10.1c0-1.1,0.9-2,2-2h133.6c1.1,0,2,0.9,2,2V247z"/>
	</g>
	<g>
		<path fill="#6E77B0" d="M216.3,247c0,1.1-0.9,2-2,2h-45.2c-1.1,0-2-0.9-2-2V10.1c0-1.1,0.9-2,2-2h45.2c1.1,0,2,0.9,2,2V247z"/>
	</g>
	<g>
		<path fill="#A7A9AC" d="M23.1,45.1c-1.5,1.5-2.2,3.4-2.2,5.4c-1.5-0.4-3.1-0.1-4.3,1.1c-1.2,1.2-1.5,2.8-1.1,4.3
			c-2,0-3.9,0.8-5.4,2.2c-3,3-3,7.9,0,10.9c1.2,1.2,2.6,1.9,4.1,2.1c1,0.2,2.1,0.1,3.1-0.1l12.3-3c0.8-0.2,1.5-0.6,2.2-1.2
			c0.6-0.6,1-1.4,1.2-2.2l3-12.3c0.2-1,0.3-2.1,0.1-3.1c-0.3-1.5-1-2.9-2.1-4.1C31,42.1,26.1,42.1,23.1,45.1z M18.7,60.3
			c1.8,1.8,1.8,4.7,0,6.5c-1.8,1.8-4.7,1.8-6.5,0c-1.8-1.8-1.8-4.7,0-6.5C14,58.5,16.9,58.5,18.7,60.3z M18.5,55.7
			c-0.6-0.6-0.6-1.6,0-2.2c0.6-0.6,1.6-0.6,2.2,0c0.6,0.6,0.6,1.6,0,2.2C20.1,56.3,19.1,56.3,18.5,55.7z M31.8,47.2
			c1.8,1.8,1.8,4.7,0,6.5c-1.8,1.8-4.7,1.8-6.5,0c-1.8-1.8-1.8-4.7,0-6.5C27.1,45.4,30,45.4,31.8,47.2z"/>
		<path fill="#D1D3D4" d="M49.2,77.2L31.8,59.8c-1.9-1.9-5-1.9-7,0l7,7v0l13.9,13.9L49.2,77.2z"/>
		<path fill="#BCBEC0" d="M31.8,66.8l-3.5-3.5l-3.5-3.5c-1.9,1.9-1.9,5,0,7l17.4,17.4l3.5-3.5L31.8,66.8z"/>
	</g>
	<g>
		<rect x="24.6" y="199.8" fill="#E6E7E8" width="103.2" height="39.3"/>
		<rect x="24.6" y="199.8" fill="#D1D3D4" width="99.4" height="9.8"/>
		<rect x="122.9" y="199.8" fill="#D1D3D4" width="93.4" height="39.3"/>
		<rect x="122.9" y="199.8" fill="#BCBEC0" width="88.5" height="9.8"/>
		<path fill="#DA5379" d="M201.6,190c10.9,0,19.7,8.8,19.7,19.7v19.7c0,10.9-8.8,19.7-19.7,19.7H118v-9.8h83.6
			c5.4,0,9.8-4.4,9.8-9.8v-19.7c0-5.4-4.4-9.8-9.8-9.8H118V190H201.6z"/>
	</g>
	<rect x="19.7" y="190" fill="#F17095" width="98.3" height="9.8"/>
	<rect x="19.7" y="239.2" fill="#F17095" width="98.3" height="9.8"/>
	<g>
		<path fill="#30A480" d="M19.7,126.1C8.8,126.1,0,134.9,0,145.8v24.6C0,181.2,8.8,190,19.7,190h127.8v-63.9H19.7z"/>
		<path fill="#71C297" d="M19.7,170.3v-24.6c0-10.9,8.8-19.7,19.7-19.7h-9.8c-10.9,0-19.7,8.8-19.7,19.7v24.6
			c0,10.9,8.8,19.7,19.7,19.7h9.8C28.5,190,19.7,181.2,19.7,170.3z"/>
		<path fill="#71C297" d="M59,170.3v-24.6c0-10.9,8.8-19.7,19.7-19.7h-9.8c-10.9,0-19.7,8.8-19.7,19.7v24.6
			c0,10.9,8.8,19.7,19.7,19.7h9.8C67.8,190,59,181.2,59,170.3z"/>
		<rect x="78.7" y="135.9" fill="#D1D3D4" width="122.9" height="44.2"/>
		<rect x="83.6" y="135.9" fill="#BCBEC0" width="118" height="9.8"/>
		<path fill="#228063" d="M93.4,126.1c-10.9,0-19.7,8.8-19.7,19.7v24.6c0,10.9,8.8,19.7,19.7,19.7h113.1v-9.8H93.4
			c-5.4,0-9.8-4.4-9.8-9.8v-24.6c0-5.4,4.4-9.8,9.8-9.8h113.1v-9.8H93.4z"/>
		<rect x="152.4" y="165.4" fill="#BCBEC0" width="9.8" height="14.7"/>
		<path fill="#F59830" d="M172.1,165.4h-19.7c2.7,0,4.9,2.2,4.9,4.9v24.6l9.8-4.9l9.8,4.9v-24.6C177,167.6,174.8,165.4,172.1,165.4z
			"/>
	</g>
	<g>
		<circle fill="#FFE171" cx="186.8" cy="89.2" r="4.9"/>
		<path fill="#6D6E71" d="M115.2,77.3l-5.2-5.2l2.6-2.6c1-1,1-2.5,0-3.5c-1-1-2.5-1-3.5,0l-7,7c-1,1-1,2.5,0,3.5
			c0.5,0.5,1.1,0.7,1.7,0.7c0.6,0,1.3-0.2,1.7-0.7l2.6-2.6l5.2,5.2c0.2,0.2,0.6,0.4,0.9,0.4c0.3,0,0.6-0.1,0.9-0.4
			C115.6,78.6,115.6,77.8,115.2,77.3z"/>
		<g>
			<path fill="#F38055" d="M33.2,99.5c0,1.1-0.9,2-2,2h-5.8c-1.1,0-2-0.9-2-2v-5.8c0-1.1,0.9-2,2-2h5.8c1.1,0,2,0.9,2,2V99.5z"/>
		</g>
		<g>
			<path fill="#ADD8DF" d="M127.2,77.6c1-0.4,1.4-1.5,0.8-2.4l-11.4-18.7c-0.6-0.9-1-0.8-1,0.3v23c0,1.1,0.8,1.7,1.9,1.3L127.2,77.6
				z"/>
		</g>
		<path fill="#58595B" d="M81.1,96.6c-2.1,0-4-1.3-4.7-3.4l-9.8-29.5c-0.9-2.6,0.5-5.4,3.1-6.2c2.6-0.9,5.4,0.5,6.2,3.1l9.8,29.5
			c0.9,2.6-0.5,5.4-3.1,6.2C82.2,96.5,81.6,96.6,81.1,96.6z"/>
		<path fill="#4CADC1" d="M154.9,67.1h-31.9c-5.5,8.8-15.8,14.7-27.7,14.7s-22.1-5.9-27.7-14.7H59c-16.3,0-22.8,14.6-22.8,30.9
			l-6.7,10.9v2.5H59h9.8h78.7h36.9V96.6C184.4,80.3,171.1,67.1,154.9,67.1z"/>
		<g>
			<path fill="#268998" d="M67.6,67.1C67.6,67.1,67.6,67.1,67.6,67.1l-8.6,0c-16.3,0-29.5,13.2-29.5,29.5v14.7h9.8V96.6
				C39.3,80.7,51.9,67.8,67.6,67.1z"/>
		</g>
		<rect x="39.3" y="101.5" fill="#268998" width="145" height="9.8"/>
		<path fill="#292B2F" d="M39.3,111.4c0-10.9,8.8-19.7,19.7-19.7s19.7,8.8,19.7,19.7"/>
		<path fill="#292B2F" d="M127.8,111.4c0-10.9,8.8-19.7,19.7-19.7c10.9,0,19.7,8.8,19.7,19.7"/>
		<g>
			<circle fill="#58595B" cx="59" cy="111.4" r="14.7"/>
			<circle fill="#D1D3D4" cx="59" cy="111.4" r="9.8"/>
			<circle fill="#A7A9AC" cx="59" cy="111.4" r="7.4"/>
			<circle fill="#D1D3D4" cx="59" cy="111.4" r="3.7"/>
		</g>
		<g>
			<circle fill="#58595B" cx="147.5" cy="111.4" r="14.7"/>
			<circle fill="#D1D3D4" cx="147.5" cy="111.4" r="9.8"/>
			<circle fill="#A7A9AC" cx="147.5" cy="111.4" r="7.4"/>
			<circle fill="#D1D3D4" cx="147.5" cy="111.4" r="3.7"/>
		</g>
		<rect x="76.2" y="111.4" fill="#D1D3D4" width="54.1" height="4.9"/>
		<path fill="#D1D3D4" d="M29.5,108.9c-1.4,0-2.5,1.1-2.5,2.5v4.9h12.3v-7.4H29.5z"/>
		<path fill="#D1D3D4" d="M184.4,108.9c1.4,0,2.5,1.1,2.5,2.5v4.9h-19.7v-7.4H184.4z"/>
		<path fill="#D1D3D4" d="M88.5,90.5h-9.8c-0.7,0-1.2-0.5-1.2-1.2c0-0.7,0.6-1.2,1.2-1.2h9.8c0.7,0,1.2,0.5,1.2,1.2
			C89.7,89.9,89.2,90.5,88.5,90.5z"/>
		<g>
			<path fill="#268998" d="M36.9,103c0,0.6-0.5,1-1,1H28c-0.6,0-1-0.4-1-1V90.2c0-0.6,0.4-1,1-1h7.8c0.5,0,1,0.4,1,1V103z"/>
		</g>
		<path fill="#4CADC1" d="M186.8,84.3c0-1.4-1.1-2.5-2.5-2.5H177c-4.1,0-7.4,3.3-7.4,7.4h17.2V84.3z"/>
		<path fill="#268998" d="M169.6,89.2c0,4.1,3.3,7.4,7.4,7.4h7.4c1.4,0,2.5-1.1,2.5-2.5v-4.9H169.6z"/>
	</g>
	<rect x="167.1" y="22.9" fill="#959EC8" width="49.2" height="14.7"/>
	<rect x="167.1" y="47.4" fill="#959EC8" width="49.2" height="14.7"/>
	<polygon fill="#41456E" points="250.7,8.1 250.7,67.1 265.5,59.7 280.2,67.1 280.2,8.1 	"/>
	<path fill="#DB613A" d="M280.2,3.2h-29.5v4.9h4.9v49.2l14.7-7.4l14.7,7.4V8.1C285.1,5.4,282.9,3.2,280.2,3.2z"/>
	<path fill="#DB613A" d="M265.5,8.1"/>
	<path fill="#B24626" d="M245.8,8.1c0-2.7,2.2-4.9,4.9-4.9c2.7,0,4.9,2.2,4.9,4.9"/>
	<g>
		<polygon fill="#D7A628" points="262.3,95.6 269.5,96.9 274.8,91.8 280.8,96.1 287.8,93.7 291.3,100.2 298.6,101.1 299,108.5 
			305.2,112.5 302.3,119.3 306.2,125.6 300.6,130.5 301.4,137.8 294.3,139.8 291.8,146.7 284.5,145.4 279.2,150.6 273.2,146.3 
			266.2,148.6 262.7,142.1 255.4,141.2 255,133.9 248.8,129.9 251.7,123.1 247.8,116.8 253.4,111.9 252.6,104.6 259.8,102.6 		"/>
		<g>
			<g>
				<path fill="#BF912C" d="M271.9,130.5l-3.4,2l-7.4-4.7l-0.1,0c0.7,1,1.2,1.8,1.5,2.4l2.5,4.3l-2.3,1.3l-5.5-9.6l3.4-2l7.4,4.7
					l0,0c-0.6-0.9-1.1-1.7-1.4-2.3l-2.5-4.3l2.3-1.3L271.9,130.5z"/>
				<path fill="#BF912C" d="M281,125.3l-5.7,3.3l-5.5-9.6l5.7-3.3l1.2,2.1l-3.1,1.8l0.9,1.5l2.9-1.7l1.2,2.1l-2.9,1.7l1,1.8l3.1-1.8
					L281,125.3z"/>
				<path fill="#BF912C" d="M294.5,117.5l-3.1,1.8l-3.3-3.7c-0.1-0.1-0.4-0.5-0.8-0.9c-0.4-0.5-0.7-0.9-1-1.2
					c0.1,0.3,0.3,0.7,0.4,1.2c0.2,0.5,0.3,0.9,0.4,1.3c0.1,0.4,0.6,2,1.5,4.9l-3.1,1.8l-7.9-8.2l2.5-1.4l3.8,4.2
					c0.9,0.9,1.5,1.7,2,2.3c-0.2-0.5-0.4-1.1-0.7-2c-0.3-0.9-0.5-1.6-0.7-2.1l-1.3-4.1l2.4-1.4l2.9,3.2c0.5,0.5,1,1.1,1.6,1.8
					c0.6,0.7,1,1.2,1.3,1.5c-0.2-0.5-0.6-1.5-1-2.8l-1.7-5.4l2.5-1.4L294.5,117.5z"/>
			</g>
			<g>
				
					<rect x="273.3" y="130.6" transform="matrix(0.866 -0.5 0.5 0.866 -27.9774 159.2414)" fill="#BF912C" width="19.7" height="2.5"/>
				
					<rect x="261" y="109.3" transform="matrix(0.866 -0.5 0.5 0.866 -18.9805 150.2445)" fill="#BF912C" width="19.7" height="2.5"/>
			</g>
		</g>
	</g>
</g>
</svg>
