<?xml version="1.0" encoding="utf-8"?>
<!-- Generator: Adobe Illustrator 18.0.0, SVG Export Plug-In . SVG Version: 6.00 Build 0)  -->
<!DOCTYPE svg PUBLIC "-//W3C//DTD SVG 1.1//EN" "http://www.w3.org/Graphics/SVG/1.1/DTD/svg11.dtd">
<svg version="1.1" id="Layer_1" xmlns="http://www.w3.org/2000/svg" xmlns:xlink="http://www.w3.org/1999/xlink" x="0px" y="0px"
	 width="447px" height="223.5px" viewBox="0 0 447 223.5" enable-background="new 0 0 447 223.5" xml:space="preserve">
<g>
	<g>
		<path fill="#595A5C" d="M106.9,38.9v179.8c0,2.7,2.2,4.9,4.9,4.9h262.4c2.7,0,4.9-2.2,4.9-4.9V38.9H106.9z"/>
		<path fill="#D2D3D4" d="M379,38.9V14.6c0-2.7-2.2-4.9-4.9-4.9H111.8c-2.7,0-4.9,2.2-4.9,4.9v24.3H379z"/>
		<rect x="165.2" y="19.4" fill="#FFFFFF" width="204.1" height="9.7"/>
		<circle fill="#FFFFFF" cx="121.5" cy="24.3" r="4.9"/>
		<circle fill="#FFFFFF" cx="136" cy="24.3" r="4.9"/>
		<circle fill="#FFFFFF" cx="150.6" cy="24.3" r="4.9"/>
		<path fill="#424143" d="M204.1,38.9v184.6h170.1c2.7,0,4.9-2.2,4.9-4.9V38.9H204.1z"/>
		<g>
			<path fill="#2A2C2F" d="M369.3,192.3c0,1.1-0.9,2-2,2H215.8c-1.1,0-2-0.9-2-2V50.6c0-1.1,0.9-2,2-2h151.5c1.1,0,2,0.9,2,2V192.3z
				"/>
		</g>
		<g>
			<path fill="#F59831" d="M311,215.2c0,0.6,0.5,1,1,1h56.3c0.6,0,1-0.4,1-1v-12.6c0-0.5-0.4-1-1-1H312c-0.5,0-1,0.5-1,1V215.2z"/>
		</g>
		<g>
			<path fill="#ABABAB" d="M116.6,91.3c0,0.6,0.4,1,1,1H152c0.5,0,1-0.4,1-1v-7.7c0-0.5-0.5-1-1-1h-34.4c-0.6,0-1,0.5-1,1V91.3z"/>
		</g>
		<g>
			<path fill="#D57528" d="M157.9,91.3c0,0.6,0.4,1,1,1h34.4c0.6,0,1-0.4,1-1v-7.7c0-0.5-0.4-1-1-1h-34.4c-0.6,0-1,0.5-1,1V91.3z"/>
		</g>
		<rect x="116.6" y="48.6" fill="#6E6F72" width="48.6" height="4.9"/>
		<rect x="116.6" y="66.8" fill="#818285" width="77.7" height="2.4"/>
		<rect x="116.6" y="60.7" fill="#818285" width="77.7" height="2.4"/>
		<rect x="116.6" y="72.9" fill="#818285" width="77.7" height="2.4"/>
		<g>
			<g>
				<path fill="#6E6F72" d="M194.3,130.4c0,1.1-0.9,2-2,2h-73.7c-1.1,0-2-0.9-2-2v-21.5c0-1.1,0.9-2,2-2h73.7c1.1,0,2,0.9,2,2V130.4
					z"/>
			</g>
			<rect x="126.3" y="115.4" fill="#595A5C" width="58.3" height="2.4"/>
			<rect x="126.3" y="121.5" fill="#595A5C" width="38.9" height="2.4"/>
		</g>
		<g>
			<g>
				<path fill="#6E6F72" d="M194.3,159.6c0,1.1-0.9,2-2,2h-73.7c-1.1,0-2-0.9-2-2V138c0-1.1,0.9-2,2-2h73.7c1.1,0,2,0.9,2,2V159.6z"
					/>
			</g>
			<rect x="126.3" y="144.5" fill="#595A5C" width="58.3" height="2.4"/>
			<rect x="126.3" y="150.6" fill="#595A5C" width="38.9" height="2.4"/>
		</g>
		<rect x="223.5" y="55.9" fill="#248164" width="68" height="4.9"/>
		<rect x="223.5" y="65.6" fill="#248164" width="106.9" height="4.9"/>
		<rect x="233.2" y="75.3" fill="#248164" width="68" height="4.9"/>
		<rect x="242.9" y="85" fill="#248164" width="77.7" height="4.9"/>
		<rect x="242.9" y="94.7" fill="#248164" width="38.9" height="4.9"/>
		<rect x="242.9" y="104.5" fill="#248164" width="48.6" height="4.9"/>
		<rect x="233.2" y="113.9" fill="#248164" width="68" height="4.9"/>
	</g>
	<g>
		<circle fill="#424143" cx="87.5" cy="136" r="48.6"/>
		<path fill="#D2D3D4" d="M87.5,63.2c-40.3,0-72.9,32.6-72.9,72.9s32.6,72.9,72.9,72.9s72.9-32.6,72.9-72.9S127.7,63.2,87.5,63.2z
			 M36.6,119.5c2.5-7.7,10.7-11.8,18.4-9.4c7.7,2.5,11.8,10.7,9.4,18.4c-2.5,7.7-10.7,11.8-18.4,9.4
			C38.3,135.4,34.1,127.2,36.6,119.5z M76.4,176.1c-4.7,6.5-13.8,8-20.4,3.2c-6.5-4.7-8-13.8-3.2-20.4c4.7-6.5,13.8-8,20.4-3.2
			C79.7,160.4,81.1,169.5,76.4,176.1z M72.9,97.2c0-8.1,6.5-14.6,14.6-14.6S102,89.1,102,97.2s-6.5,14.6-14.6,14.6
			S72.9,105.2,72.9,97.2z M118.9,179.3c-6.5,4.7-15.6,3.3-20.4-3.2c-4.7-6.5-3.3-15.6,3.2-20.4c6.5-4.7,15.6-3.3,20.4,3.2
			C126.8,165.4,125.4,174.6,118.9,179.3z M128.9,137.9c-7.7,2.5-15.9-1.7-18.4-9.4c-2.5-7.7,1.7-15.9,9.4-18.4
			c7.7-2.5,15.9,1.7,18.4,9.4C140.8,127.2,136.6,135.4,128.9,137.9z"/>
		<path fill="#E7E7E7" d="M87.5,48.6C39.2,48.6,0,87.7,0,136s39.2,87.5,87.5,87.5s87.5-39.2,87.5-87.5S135.8,48.6,87.5,48.6z
			 M87.5,208.9c-40.3,0-72.9-32.6-72.9-72.9s32.6-72.9,72.9-72.9s72.9,32.6,72.9,72.9S127.7,208.9,87.5,208.9z"/>
		<path fill="#BDBEC0" d="M19.4,140.9c0-40.3,32.6-72.9,72.9-72.9c18.9,0,36.1,7.2,49,19C128,72.4,108.8,63.2,87.5,63.2
			c-40.3,0-72.9,32.6-72.9,72.9c0,21.4,9.2,40.6,23.8,53.9C26.6,177,19.4,159.8,19.4,140.9z"/>
		<path fill="#E7E7E7" d="M87.5,77.7C76.7,77.7,68,86.4,68,97.2s8.7,19.4,19.4,19.4s19.4-8.7,19.4-19.4S98.2,77.7,87.5,77.7z
			 M87.5,111.8c-8.1,0-14.6-6.5-14.6-14.6s6.5-14.6,14.6-14.6S102,89.1,102,97.2S95.5,111.8,87.5,111.8z"/>
		<path fill="#E7E7E7" d="M56.5,105.5c-10.2-3.3-21.2,2.3-24.5,12.5s2.3,21.2,12.5,24.5c10.2,3.3,21.2-2.3,24.5-12.5
			C72.3,119.8,66.7,108.9,56.5,105.5z M64.4,128.5c-2.5,7.7-10.7,11.8-18.4,9.4c-7.7-2.5-11.8-10.7-9.4-18.4
			c2.5-7.7,10.7-11.8,18.4-9.4C62.6,112.7,66.8,120.9,64.4,128.5z"/>
		<path fill="#E7E7E7" d="M76,151.8c-8.7-6.3-20.8-4.4-27.1,4.3c-6.3,8.7-4.4,20.8,4.3,27.1s20.8,4.4,27.1-4.3
			C86.6,170.2,84.7,158.1,76,151.8z M76.4,176.1c-4.7,6.5-13.8,8-20.4,3.2c-6.5-4.7-8-13.8-3.2-20.4c4.7-6.5,13.8-8,20.4-3.2
			C79.7,160.4,81.1,169.5,76.4,176.1z"/>
		<path fill="#E7E7E7" d="M126,156.1c-6.3-8.7-18.5-10.6-27.1-4.3c-8.7,6.3-10.6,18.5-4.3,27.1c6.3,8.7,18.5,10.6,27.1,4.3
			S132.3,164.7,126,156.1z M118.9,179.3c-6.5,4.7-15.6,3.3-20.4-3.2c-4.7-6.5-3.3-15.6,3.2-20.4c6.5-4.7,15.6-3.3,20.4,3.2
			C126.8,165.4,125.4,174.6,118.9,179.3z"/>
		<path fill="#E7E7E7" d="M142.9,118c-3.3-10.2-14.3-15.8-24.5-12.5s-15.8,14.3-12.5,24.5c3.3,10.2,14.3,15.8,24.5,12.5
			C140.6,139.2,146.2,128.2,142.9,118z M128.9,137.9c-7.7,2.5-15.9-1.7-18.4-9.4c-2.5-7.7,1.7-15.9,9.4-18.4
			c7.7-2.5,15.9,1.7,18.4,9.4C140.8,127.2,136.6,135.4,128.9,137.9z"/>
		<circle fill="#BDBEC0" cx="87.5" cy="136" r="9.7"/>
		<circle fill="#E7E7E7" cx="87.5" cy="136" r="4.9"/>
	</g>
	<path fill="#2A2C2F" d="M306.1,97.2c-21.5,0-38.9,17.4-38.9,38.9c0,7.2,2,14,5.4,19.7l-4.5,4.5l-1.7-1.7l-6.9,6.9l0,0l-31.1,31.1
		l8.6,8.6l8.6,8.6l31.1-31.1l3.2-3.2l3.7-3.7l-1.7-1.7l4.5-4.5c5.8,3.4,12.5,5.4,19.7,5.4c21.5,0,38.9-17.4,38.9-38.9
		S327.6,97.2,306.1,97.2z"/>
	<path fill="#231F20" d="M306.1,97.2c-21.5,0-38.9,17.4-38.9,38.9c0,7.2,2,14,5.4,19.7l-4.5,4.5l-1.7-1.7l-6.9,6.9l-28.9,28.9H265
		l11.7-11.7l3.2-3.2l3.7-3.7l-1.7-1.7l4.5-4.5c5.8,3.4,12.5,5.4,19.7,5.4c21.5,0,38.9-17.4,38.9-38.9S327.6,97.2,306.1,97.2z"/>
	<g>
		
			<rect x="247.5" y="163.2" transform="matrix(0.7071 0.7071 -0.7071 0.7071 206.8146 -124.3919)" fill="#7F684F" width="12.1" height="48.6"/>
		
			<rect x="238.9" y="154.6" transform="matrix(0.7071 0.7071 -0.7071 0.7071 198.2255 -120.8342)" fill="#97805D" width="12.1" height="48.6"/>
		
			<rect x="271.9" y="157.7" transform="matrix(0.7071 0.7071 -0.7071 0.7071 195.9941 -148.0855)" fill="#818285" width="9.7" height="9.7"/>
		
			<rect x="265" y="150.8" transform="matrix(0.7071 0.7071 -0.7071 0.7071 189.1229 -145.2393)" fill="#A8AAAD" width="9.7" height="9.7"/>
		
			<rect x="264.9" y="165.2" transform="matrix(0.7071 0.7071 -0.7071 0.7071 199.6103 -141.7848)" fill="#D7A729" width="12.1" height="9.7"/>
		
			<rect x="256.3" y="156.6" transform="matrix(0.7071 0.7071 -0.7071 0.7071 191.0212 -138.2271)" fill="#FEE172" width="12.1" height="9.7"/>
		<circle fill="#BDBEC0" cx="301.2" cy="131.2" r="38.9"/>
		<circle fill="#2A2C2F" cx="301.2" cy="131.2" r="34"/>
		<path fill="#231F20" d="M319.9,102.8c3.5,5.4,5.6,11.8,5.6,18.7c0,18.8-15.2,34-34,34c-6.9,0-13.3-2.1-18.7-5.6
			c6.1,9.2,16.5,15.3,28.4,15.3c18.8,0,34-15.2,34-34C335.2,119.3,329.2,108.9,319.9,102.8z"/>
		<circle opacity="0.25" fill="#FFFFFF" cx="287.9" cy="117.8" r="9.7"/>
		<circle opacity="0.25" fill="#FFFFFF" cx="300" cy="130" r="4.9"/>
	</g>
	<path fill="#2A2C2F" d="M330.4,38.9c0,12.7,8.1,23.5,19.4,27.5l-9.7,11.4L379,68V38.9H330.4z"/>
	<path fill="#231F20" d="M349.8,66.4l-9.7,11.4l29.2-7.3V48.6h-37.2C335,56.9,341.5,63.4,349.8,66.4z"/>
	<g>
		<path fill="#AED8DF" d="M417.8,0h-68c-16.1,0-29.2,13.1-29.2,29.2s13.1,29.2,29.2,29.2h68c16.1,0,29.2-13.1,29.2-29.2
			S433.9,0,417.8,0z"/>
		<polygon fill="#AED8DF" points="340.1,48.6 340.1,77.7 369.3,58.3 		"/>
	</g>
	<circle fill="#FFFFFF" cx="349.8" cy="29.2" r="19.4"/>
	<g>
		<rect x="346.6" y="19.4" fill="#F28055" width="6.5" height="19.4"/>
		<rect x="340.1" y="25.9" fill="#F28055" width="19.4" height="6.5"/>
	</g>
	<g>
		<rect x="379" y="13.4" fill="#4CADC1" width="29.2" height="7.3"/>
		<rect x="379" y="26.7" fill="#85C4CF" width="48.6" height="2.4"/>
		<rect x="379" y="34" fill="#85C4CF" width="48.6" height="2.4"/>
		<rect x="379" y="41.3" fill="#85C4CF" width="38.9" height="2.4"/>
	</g>
	<g>
		<circle fill="#FFFFFF" cx="383.8" cy="199.2" r="24.3"/>
		<circle fill="#73C298" cx="383.8" cy="199.2" r="19.4"/>
	</g>
	<polygon fill="#FFFFFF" points="380.2,209.9 371.2,200.9 374.6,197.5 380.2,203.1 393.1,190.2 396.5,193.6 	"/>
</g>
</svg>
