<?xml version="1.0" encoding="utf-8"?>
<!-- Generator: Adobe Illustrator 18.0.0, SVG Export Plug-In . SVG Version: 6.00 Build 0)  -->
<!DOCTYPE svg PUBLIC "-//W3C//DTD SVG 1.1//EN" "http://www.w3.org/Graphics/SVG/1.1/DTD/svg11.dtd">
<svg version="1.1" id="Layer_1" xmlns="http://www.w3.org/2000/svg" xmlns:xlink="http://www.w3.org/1999/xlink" x="0px" y="0px"
	 width="447px" height="302.4px" viewBox="0 0 447 302.4" enable-background="new 0 0 447 302.4" xml:space="preserve">
<g>
	<rect x="52.6" y="289.2" fill="#B34726" width="368.1" height="13.1"/>
	<polygon fill="#DC613A" points="420.7,289.2 52.6,289.2 52.6,78.9 223.5,78.9 236.7,92 249.8,78.9 420.7,78.9 	"/>
	<polygon fill="#D2D3D4" points="407.6,92 381.3,52.6 368.1,184.1 381.3,236.6 407.6,276.1 	"/>
	<path fill="#E7E7E7" d="M197.2,52.6H92v223.5h144.6V92C236.6,70.2,219,52.6,197.2,52.6z"/>
	<path fill="#E7E7E7" d="M276.1,52.6h105.2v223.5H236.6V92C236.6,70.2,254.3,52.6,276.1,52.6z"/>
	<path fill="#D2D3D4" d="M197.2,52.6v223.5h39.4V92C236.6,70.2,219,52.6,197.2,52.6z"/>
	<path fill="#F2F2F2" d="M276.1,52.6v223.5h-39.4V92C236.6,70.2,254.3,52.6,276.1,52.6z"/>
	<path fill="#BDBEC0" d="M381.3,236.6H276.1c-21.8,0-39.4,17.7-39.4,39.4h170.9L381.3,236.6z"/>
	<path fill="#BDBEC0" d="M92,236.6h105.2c21.8,0,39.4,17.7,39.4,39.4H65.7L92,236.6z"/>
	<polygon fill="#F2F2F2" points="92,52.6 65.7,92 65.7,276.1 92,236.6 	"/>
	<g>
		<rect x="105.2" y="69" fill="#85C4CF" width="39.4" height="39.4"/>
		<rect x="111.8" y="75.6" fill="#AED8DF" width="26.3" height="26.3"/>
		<g>
			<path fill="#268999" d="M128.4,95.6l-1-3.2h-5l-1,3.2h-3.1l4.8-13.7h3.5l4.8,13.7H128.4z M126.7,89.9c-0.9-2.9-1.4-4.6-1.5-5
				c-0.1-0.4-0.2-0.7-0.2-0.9c-0.2,0.8-0.8,2.8-1.8,5.9H126.7z"/>
		</g>
	</g>
	<g>
		<rect x="157.8" y="101.9" fill="#D2D3D4" width="39.4" height="6.6"/>
		<rect x="105.2" y="115" fill="#D2D3D4" width="92" height="6.6"/>
		<rect x="105.2" y="128.2" fill="#D2D3D4" width="92" height="6.6"/>
		<rect x="105.2" y="141.3" fill="#D2D3D4" width="92" height="6.6"/>
		<rect x="105.2" y="154.5" fill="#D2D3D4" width="92" height="6.6"/>
		<rect x="105.2" y="167.6" fill="#D2D3D4" width="92" height="6.6"/>
		<rect x="105.2" y="180.8" fill="#D2D3D4" width="92" height="6.6"/>
		<rect x="105.2" y="193.9" fill="#D2D3D4" width="92" height="6.6"/>
	</g>
	<g>
		<rect x="276.1" y="101.9" fill="#D2D3D4" width="92" height="6.6"/>
		<rect x="276.1" y="115" fill="#D2D3D4" width="92" height="6.6"/>
		<rect x="276.1" y="128.2" fill="#D2D3D4" width="92" height="6.6"/>
		<rect x="276.1" y="141.3" fill="#D2D3D4" width="92" height="6.6"/>
		<rect x="276.1" y="154.5" fill="#D2D3D4" width="92" height="6.6"/>
		<rect x="276.1" y="167.6" fill="#D2D3D4" width="92" height="6.6"/>
		<rect x="276.1" y="180.8" fill="#D2D3D4" width="65.7" height="6.6"/>
	</g>
	<path fill="#D2D3D4" d="M313,57.5c-6.7,11.6-10.6,25.1-10.6,39.4c0,43.6,35.3,78.9,78.9,78.9V57.5H313z"/>
	<g>
		<circle fill="#F59831" cx="368.1" cy="78.9" r="78.9"/>
		<path fill="#D57528" d="M409.2,11.5c7.3,12,11.5,26,11.5,41.1c0,43.6-35.3,78.9-78.9,78.9c-15,0-29.1-4.2-41.1-11.5
			c13.9,22.7,38.8,37.8,67.4,37.8c43.6,0,78.9-35.3,78.9-78.9C447,50.4,431.9,25.4,409.2,11.5z"/>
		<g>
			<g>
				<path fill="#D57528" d="M426.9,131.5h-62.3c2.2-3.9,3.5-8.4,3.5-13.1c0-14.5-11.8-26.3-26.3-26.3h-13.1c-3.6,0-6.6-2.9-6.6-6.6
					c0-3.6,2.9-6.6,6.6-6.6H447c0-4.5-0.4-8.9-1.1-13.1h-58.1c-7.3,0-13.1-5.9-13.1-13.1s5.9-13.1,13.1-13.1h26.3
					c7.1,0,12.9-5.7,13.1-12.7c-4.6-5.2-9.8-9.7-15.5-13.6H355c0-4.5-2.3-8.5-5.7-10.9c-34.4,8.5-60,39.5-60,76.6
					c0,43.6,35.3,78.9,78.9,78.9C391.5,157.8,412.5,147.6,426.9,131.5z"/>
				<g>
					<path fill="#BA6128" d="M410.1,13.1c4.4,7.7,7.6,16.2,9.3,25.2c4.5-2,7.7-6.4,7.8-11.6c-0.2-0.2-0.4-0.4-0.5-0.6
						c-0.9-1-1.8-2-2.8-2.9c-0.3-0.3-0.6-0.6-0.9-0.9c-0.9-0.9-1.8-1.7-2.7-2.5c-0.4-0.3-0.8-0.7-1.2-1c-0.9-0.7-1.8-1.5-2.7-2.2
						c-0.5-0.4-1-0.7-1.4-1.1c-0.9-0.6-1.8-1.3-2.7-1.9c-0.2-0.1-0.4-0.3-0.7-0.4H410.1z"/>
					<path fill="#BA6128" d="M446.8,74.3c0-0.5-0.1-1-0.1-1.4c-0.1-1.3-0.2-2.6-0.4-3.9c-0.1-0.7-0.2-1.4-0.3-2
						c-0.1-0.4-0.1-0.8-0.2-1.2h-26.3c-0.8,4.5-1.9,8.9-3.4,13.1H447C447,77.4,446.9,75.8,446.8,74.3z"/>
					<path fill="#BA6128" d="M373.7,157.5c0.9-0.1,1.9-0.1,2.8-0.2c0.5-0.1,1-0.1,1.6-0.2c0.9-0.1,1.7-0.2,2.5-0.3
						c0.5-0.1,1.1-0.2,1.6-0.3c0.8-0.1,1.6-0.3,2.4-0.5c0.5-0.1,1.1-0.2,1.6-0.4c0.8-0.2,1.6-0.4,2.4-0.6c0.5-0.1,1-0.3,1.5-0.4
						c0.8-0.2,1.6-0.5,2.4-0.7c0.5-0.2,1-0.3,1.5-0.5c0.8-0.3,1.6-0.6,2.4-0.9c0.5-0.2,0.9-0.4,1.4-0.5c0.8-0.3,1.6-0.7,2.4-1
						c0.4-0.2,0.8-0.4,1.2-0.6c0.8-0.4,1.7-0.8,2.5-1.2c0.4-0.2,0.7-0.4,1.1-0.6c0.9-0.5,1.7-0.9,2.6-1.4c0.3-0.2,0.6-0.3,0.9-0.5
						c0.9-0.6,1.9-1.1,2.8-1.7c0.2-0.1,0.4-0.2,0.6-0.4c1.1-0.7,2.1-1.4,3.1-2.2c0,0,0.1,0,0.1-0.1c4.4-3.2,8.4-6.9,12-10.9
						c0,0,0,0,0,0l-62.3,0c0.7-1.2,1.3-2.6,1.9-3.9c-7.7,2.5-16,3.9-24.6,3.9c-15,0-29.1-4.2-41.1-11.5c0.8,1.3,1.6,2.6,2.5,3.8
						c0.2,0.3,0.4,0.6,0.6,0.9c0.7,1,1.4,2,2.2,2.9c0.2,0.3,0.4,0.6,0.7,0.8c1.9,2.4,4,4.6,6.2,6.8c0.2,0.2,0.5,0.5,0.7,0.7
						c0.9,0.8,1.8,1.6,2.7,2.4c0.3,0.3,0.6,0.5,0.9,0.8c1,0.9,2.1,1.7,3.2,2.6c0.1,0.1,0.2,0.2,0.4,0.3c1.2,0.9,2.5,1.8,3.8,2.7
						c0.3,0.2,0.6,0.4,0.8,0.5c1,0.6,2,1.3,3.1,1.9c0.4,0.2,0.8,0.4,1.1,0.7c1.1,0.6,2.1,1.2,3.2,1.7c0.3,0.1,0.5,0.3,0.8,0.4
						c1.4,0.7,2.8,1.3,4.2,1.9c0.3,0.1,0.6,0.2,0.8,0.3c1.1,0.5,2.3,0.9,3.5,1.3c0.4,0.2,0.9,0.3,1.3,0.5c1.1,0.4,2.2,0.7,3.3,1
						c0.4,0.1,0.8,0.2,1.2,0.3c1.5,0.4,3,0.8,4.5,1.1c0.2,0,0.4,0.1,0.6,0.1c1.3,0.3,2.6,0.5,4,0.7c0.5,0.1,1,0.1,1.5,0.2
						c1.1,0.1,2.3,0.3,3.4,0.3c0.5,0,0.9,0.1,1.4,0.1c1.6,0.1,3.2,0.2,4.8,0.2c1.4,0,2.8,0,4.2-0.1
						C372.8,157.6,373.2,157.6,373.7,157.5z"/>
				</g>
				<path fill="#BA6128" d="M414.1,105.2c0,7.3,5.9,13.1,13.1,13.1h9.1c4.6-8,7.9-16.9,9.5-26.3h-18.6
					C420,92,414.1,97.9,414.1,105.2z"/>
			</g>
			<path fill="#F59831" d="M341.8,105.2h-48.1c3.5,9.8,8.8,18.7,15.6,26.3h32.5c7.3,0,13.1-5.9,13.1-13.1
				C355,111.1,349.1,105.2,341.8,105.2z"/>
			<path fill="#F59831" d="M341.8,39.4h-42c-2.4,4.2-4.4,8.6-6.1,13.1h48.1c3.6,0,6.6-2.9,6.6-6.6S345.5,39.4,341.8,39.4z"/>
		</g>
		<circle fill="#D57528" cx="387.8" cy="52.6" r="6.6"/>
		<circle fill="#D57528" cx="427.3" cy="105.2" r="6.6"/>
		<circle fill="#F59831" cx="361.5" cy="46" r="6.6"/>
		<circle fill="#F59831" cx="309" cy="85.5" r="6.6"/>
		<circle fill="#F59831" cx="295.8" cy="85.5" r="3.3"/>
	</g>
	<rect x="401" y="184.1" fill="#248164" width="13.1" height="52.6"/>
	<rect x="72.3" y="92" fill="#6E78B1" width="13.1" height="52.6"/>
	<rect x="59.2" y="184.1" fill="#F59831" width="13.1" height="52.6"/>
	<rect x="170.9" y="289.2" fill="#87351E" width="26.3" height="13.1"/>
	<g>
		<g>
			<path fill="#939598" d="M184.1,298.4c0,2.2-1.8,4-4,4H4c-2.2,0-4-1.8-4-4v-84c0-2.2,1.8-4,4-4h176.1c2.2,0,4,1.8,4,4V298.4z"/>
		</g>
		<rect x="6.6" y="230.1" fill="#424143" width="170.9" height="65.7"/>
		<polygon fill="#E7E7E7" points="29.6,285.9 29.6,272.8 16.4,272.8 16.4,253.1 29.6,253.1 29.6,239.9 49.3,239.9 49.3,253.1 
			62.4,253.1 62.4,272.8 49.3,272.8 49.3,285.9 		"/>
		<polygon fill="#595A5C" points="59.2,256.4 46,256.4 46,243.2 32.9,243.2 32.9,256.4 19.7,256.4 19.7,269.5 32.9,269.5 
			32.9,282.7 46,282.7 46,269.5 59.2,269.5 		"/>
		<circle fill="#424143" cx="39.4" cy="262.9" r="4.9"/>
		<polygon fill="#424143" points="39.4,244.9 34.5,249.8 44.4,249.8 		"/>
		<polygon fill="#424143" points="39.4,281 44.4,276.1 34.5,276.1 		"/>
		<polygon fill="#424143" points="57.5,262.9 52.6,258 52.6,267.9 		"/>
		<polygon fill="#424143" points="21.4,262.9 26.3,267.9 26.3,258 		"/>
		<g>
			<g>
				<path fill="#E7E7E7" d="M144.6,283.9c0,1.1-0.9,2-2,2h-15.7c-1.1,0-2-0.9-2-2v-15.7c0-1.1,0.9-2,2-2h15.7c1.1,0,2,0.9,2,2V283.9
					z"/>
			</g>
			<circle fill="#2FA480" cx="134.8" cy="276.1" r="6.6"/>
		</g>
		<g>
			<g>
				<path fill="#E7E7E7" d="M170.9,283.9c0,1.1-0.9,2-2,2h-15.7c-1.1,0-2-0.9-2-2v-15.7c0-1.1,0.9-2,2-2h15.7c1.1,0,2,0.9,2,2V283.9
					z"/>
			</g>
			<circle fill="#DC613A" cx="161.1" cy="276.1" r="6.6"/>
		</g>
		<g>
			<g>
				<path fill="#E7E7E7" d="M157.8,257.7c0,1.1-0.9,2-2,2H140c-1.1,0-2-0.9-2-2v-15.7c0-1.1,0.9-2,2-2h15.7c1.1,0,2,0.9,2,2V257.7z"
					/>
			</g>
			<circle fill="#D7A729" cx="147.9" cy="249.8" r="6.6"/>
		</g>
		<path fill="#595A5C" d="M72.3,230.1v9.9c0,1.8,1.5,3.3,3.3,3.3h32.9c1.8,0,3.3-1.5,3.3-3.3v-9.9H72.3z"/>
		<path fill="#595A5C" d="M111.8,295.8v-9.9c0-1.8-1.5-3.3-3.3-3.3H75.6c-1.8,0-3.3,1.5-3.3,3.3v9.9H111.8z"/>
		<g>
			<path fill="#595A5C" d="M111.8,274.1c0,1.1-0.9,2-2,2H74.3c-1.1,0-2-0.9-2-2v-22.3c0-1.1,0.9-2,2-2h35.4c1.1,0,2,0.9,2,2V274.1z"
				/>
		</g>
		<path fill="#818285" d="M98.6,266.2H85.5c-1.8,0-3.3-1.5-3.3-3.3c0-1.8,1.5-3.3,3.3-3.3h13.1c1.8,0,3.3,1.5,3.3,3.3
			C101.9,264.8,100.4,266.2,98.6,266.2z"/>
	</g>
	<rect x="184.1" y="236.6" fill="#A8AAAD" width="13.1" height="39.4"/>
	<rect x="184.1" y="276.1" fill="#B34726" width="13.1" height="13.1"/>
</g>
</svg>
