<?xml version="1.0" encoding="utf-8"?>
<!-- Generator: Adobe Illustrator 18.0.0, SVG Export Plug-In . SVG Version: 6.00 Build 0)  -->
<!DOCTYPE svg PUBLIC "-//W3C//DTD SVG 1.1//EN" "http://www.w3.org/Graphics/SVG/1.1/DTD/svg11.dtd">
<svg version="1.1" id="Layer_1" xmlns="http://www.w3.org/2000/svg" xmlns:xlink="http://www.w3.org/1999/xlink" x="0px" y="0px"
	 width="329.5px" height="249px" viewBox="-8.2 0 329.5 249" enable-background="new -8.2 0 329.5 249" xml:space="preserve">
<g>
	<g>
		<path fill="#58595B" d="M321.2,243.2c0,2.7-2.2,4.8-4.8,4.8H171c-2.7,0-4.8-2.2-4.8-4.8V107.5c0-2.7,2.2-4.8,4.8-4.8h145.4
			c2.7,0,4.8,2.2,4.8,4.8V243.2z"/>
		<path fill="#6D6E71" d="M321.2,238.4c0,2.7-2.2,4.8-4.8,4.8H171c-2.7,0-4.8-2.2-4.8-4.8V102.7c0-2.7,2.2-4.8,4.8-4.8h145.4
			c2.7,0,4.8,2.2,4.8,4.8V238.4z"/>
		<rect x="175.9" y="107.5" fill="#FFFFFF" width="135.7" height="116.3"/>
		<rect x="175.9" y="88.2" fill="#959EC8" width="135.7" height="29.1"/>
		<rect x="175.9" y="214.1" fill="#E6E7E8" width="135.7" height="19.4"/>
		<rect x="175.9" y="222.6" fill="#D1D3D4" width="135.7" height="2.4"/>
		<rect x="175.9" y="217.8" fill="#D1D3D4" width="135.7" height="2.4"/>
		<rect x="175.9" y="227.5" fill="#D1D3D4" width="135.7" height="2.4"/>
		<path fill="#D1D3D4" d="M303.1,205.7H184.4v-79.9h118.7V205.7z M186.8,203.2h113.9v-75.1H186.8V203.2z"/>
		<rect x="201" y="126.9" fill="#D1D3D4" width="2.4" height="77.5"/>
		<rect x="217.6" y="126.9" fill="#D1D3D4" width="2.4" height="77.5"/>
		<rect x="234.2" y="126.9" fill="#D1D3D4" width="2.4" height="77.5"/>
		<rect x="250.8" y="126.9" fill="#D1D3D4" width="2.4" height="77.5"/>
		<rect x="267.4" y="126.9" fill="#D1D3D4" width="2.4" height="77.5"/>
		<rect x="284" y="126.9" fill="#D1D3D4" width="2.4" height="77.5"/>
		<rect x="185.6" y="145.1" fill="#D1D3D4" width="116.3" height="2.4"/>
		<rect x="185.6" y="164.5" fill="#D1D3D4" width="116.3" height="2.4"/>
		<rect x="185.6" y="183.9" fill="#D1D3D4" width="116.3" height="2.4"/>
		<circle fill="#6E77B0" cx="202.5" cy="105.1" r="4.8"/>
		<circle fill="#FFE171" cx="200.1" cy="102.7" r="4.8"/>
		<circle fill="#6E77B0" cx="289.7" cy="105.1" r="4.8"/>
		<circle fill="#FFE171" cx="287.3" cy="102.7" r="4.8"/>
	</g>
	<path fill="#AC956E" d="M229.2,238.4c0,5.3-4.4,9.7-9.7,9.7h-155c-5.3,0-9.7-4.4-9.7-9.7V25.2c0-5.3,4.4-9.7,9.7-9.7h155
		c5.3,0,9.7,4.4,9.7,9.7V238.4z"/>
	<rect x="108" y="20.3" fill="#808285" width="67.8" height="19.4"/>
	<polygon fill="#967F5C" points="64.4,228.7 74.1,238.4 229.2,238.4 229.2,44.6 219.5,34.9 	"/>
	<rect x="64.4" y="34.9" fill="#FFFFFF" width="155" height="193.8"/>
	<g>
		<path fill="#D1D3D4" d="M142,0.9c-8,0-14.5,6.5-14.5,14.5S133.9,30,142,30s14.5-6.5,14.5-14.5S150,0.9,142,0.9z M142,20.3
			c-2.7,0-4.8-2.2-4.8-4.8s2.2-4.8,4.8-4.8s4.8,2.2,4.8,4.8S144.6,20.3,142,20.3z"/>
		<rect x="88.7" y="35.1" fill="#BCBEC0" width="106.6" height="4.8"/>
		<path fill="#D1D3D4" d="M195.3,35.1c0,0,0.6-4-3.6-5.2c-4.2-1.2-43-7.1-43-7.1l-6.7,4.8v7.5H195.3z"/>
		<path fill="#D1D3D4" d="M88.7,35.1c0,0-0.6-4,3.6-5.2c4.2-1.2,43-7.1,43-7.1l6.7,4.8v7.5H88.7z"/>
		<rect x="122.6" y="20.3" fill="#D1D3D4" width="38.8" height="9.7"/>
	</g>
	<rect x="74.1" y="54.2" fill="#E6E7E8" width="135.7" height="58.1"/>
	<rect x="74.1" y="122.1" fill="#E6E7E8" width="63" height="9.7"/>
	<rect x="74.1" y="139" fill="#E6E7E8" width="135.7" height="4.8"/>
	<rect x="74.1" y="148.7" fill="#E6E7E8" width="135.7" height="4.8"/>
	<rect x="74.1" y="158.4" fill="#E6E7E8" width="135.7" height="4.8"/>
	<rect x="74.1" y="168.1" fill="#E6E7E8" width="92.1" height="4.8"/>
	<g>
		<polygon fill="#B24626" points="200.1,83.3 200.1,151.1 224.3,141.5 248.6,151.1 248.6,83.3 		"/>
		<polygon fill="#DB613A" points="224.3,141.5 234,145.3 234,83.3 214.6,83.3 214.6,145.3 		"/>
		<path fill="#86341D" d="M200.1,95.9c5.9,9.9,16.7,16.4,29.1,16.4c7.2,0,13.9-2.3,19.4-6.1v-23h-48.5V95.9z"/>
		<path fill="#B24626" d="M229.2,112.4c1.6,0,3.3-0.1,4.8-0.4V83.3h-19.4v25.8C219,111.2,224,112.4,229.2,112.4z"/>
		<circle fill="#F2C342" cx="224.3" cy="73.6" r="33.9"/>
		<circle fill="#D7A628" cx="224.3" cy="73.6" r="29.1"/>
		<path fill="#BF912C" d="M200.1,78.5c0-16.1,13-29.1,29.1-29.1c6.8,0,13,2.3,18,6.2c-5.3-6.7-13.6-11.1-22.8-11.1
			c-16.1,0-29.1,13-29.1,29.1c0,9.3,4.3,17.5,11.1,22.8C202.4,91.5,200.1,85.3,200.1,78.5z"/>
		<polygon fill="#FFE171" points="224.3,59.9 227.4,69.4 237.4,69.4 229.3,75.2 232.4,84.7 224.3,78.9 216.3,84.7 219.4,75.2 
			211.3,69.4 221.3,69.4 		"/>
	</g>
	<g>
		<g>
			<rect x="30.5" y="238.4" fill="#F2C342" width="38.8" height="9.7"/>
			<rect x="69.3" y="238.4" fill="#D7A628" width="29.1" height="9.7"/>
			<rect x="30.5" y="235.9" fill="#D7A628" width="67.8" height="2.4"/>
			<rect x="69.3" y="235.9" fill="#BF912C" width="29.1" height="2.4"/>
			<rect x="45.1" y="238.4" fill="#FFE171" width="9.7" height="9.7"/>
			<rect x="30.5" y="226.2" fill="#F2C342" width="38.8" height="9.7"/>
			<rect x="69.3" y="226.2" fill="#D7A628" width="29.1" height="9.7"/>
			<rect x="30.5" y="223.8" fill="#D7A628" width="67.8" height="2.4"/>
			<rect x="45.1" y="226.2" fill="#FFE171" width="9.7" height="9.7"/>
			<rect x="69.3" y="223.8" fill="#BF912C" width="29.1" height="2.4"/>
			<rect x="30.5" y="214.1" fill="#F2C342" width="38.8" height="9.7"/>
			<rect x="69.3" y="214.1" fill="#D7A628" width="29.1" height="9.7"/>
			<rect x="30.5" y="211.7" fill="#D7A628" width="67.8" height="2.4"/>
			<rect x="45.1" y="214.1" fill="#FFE171" width="9.7" height="9.7"/>
			<rect x="69.3" y="211.7" fill="#BF912C" width="29.1" height="2.4"/>
			<rect x="30.5" y="202" fill="#F2C342" width="38.8" height="9.7"/>
			<rect x="69.3" y="202" fill="#D7A628" width="29.1" height="9.7"/>
			<rect x="30.5" y="199.6" fill="#D7A628" width="67.8" height="2.4"/>
			<rect x="45.1" y="202" fill="#FFE171" width="9.7" height="9.7"/>
			<rect x="69.3" y="199.6" fill="#BF912C" width="29.1" height="2.4"/>
			<rect x="30.5" y="189.9" fill="#F2C342" width="38.8" height="9.7"/>
			<rect x="69.3" y="189.9" fill="#D7A628" width="29.1" height="9.7"/>
			<rect x="45.1" y="189.9" fill="#FFE171" width="9.7" height="9.7"/>
			<rect x="69.3" y="189.9" fill="#BF912C" width="29.1" height="0"/>
			<rect x="30.5" y="180.2" fill="#F2C342" width="38.8" height="9.7"/>
			<rect x="69.3" y="180.2" fill="#D7A628" width="29.1" height="9.7"/>
			<rect x="45.1" y="180.2" fill="#FFE171" width="9.7" height="9.7"/>
			<rect x="30.5" y="177.8" fill="#D7A628" width="67.8" height="2.4"/>
			<rect x="69.3" y="177.8" fill="#BF912C" width="29.1" height="2.4"/>
			<rect x="30.5" y="168.1" fill="#F2C342" width="38.8" height="9.7"/>
			<rect x="69.3" y="168.1" fill="#D7A628" width="29.1" height="9.7"/>
			<rect x="45.1" y="168.1" fill="#FFE171" width="9.7" height="9.7"/>
			<rect x="30.5" y="165.7" fill="#D7A628" width="67.8" height="2.4"/>
			<rect x="69.3" y="165.7" fill="#BF912C" width="29.1" height="2.4"/>
			<rect x="30.5" y="156" fill="#F2C342" width="38.8" height="9.7"/>
			<rect x="69.3" y="156" fill="#D7A628" width="29.1" height="9.7"/>
			<rect x="45.1" y="156" fill="#FFE171" width="9.7" height="9.7"/>
		</g>
		<g>
			<rect x="-8.2" y="238.4" fill="#F2C342" width="38.8" height="9.7"/>
			<rect x="30.5" y="238.4" fill="#D7A628" width="29.1" height="9.7"/>
			<rect x="-8.2" y="235.9" fill="#D7A628" width="67.8" height="2.4"/>
			<rect x="30.5" y="235.9" fill="#BF912C" width="29.1" height="2.4"/>
			<rect x="6.3" y="238.4" fill="#FFE171" width="9.7" height="9.7"/>
			<rect x="-8.2" y="226.2" fill="#F2C342" width="38.8" height="9.7"/>
			<rect x="30.5" y="226.2" fill="#D7A628" width="29.1" height="9.7"/>
			<rect x="-8.2" y="223.8" fill="#D7A628" width="67.8" height="2.4"/>
			<rect x="6.3" y="226.2" fill="#FFE171" width="9.7" height="9.7"/>
			<rect x="30.5" y="223.8" fill="#BF912C" width="29.1" height="2.4"/>
			<rect x="-8.2" y="214.1" fill="#F2C342" width="38.8" height="9.7"/>
			<rect x="30.5" y="214.1" fill="#D7A628" width="29.1" height="9.7"/>
			<rect x="-8.2" y="211.7" fill="#D7A628" width="67.8" height="2.4"/>
			<rect x="6.3" y="214.1" fill="#FFE171" width="9.7" height="9.7"/>
			<rect x="30.5" y="211.7" fill="#BF912C" width="29.1" height="2.4"/>
			<rect x="-8.2" y="202" fill="#F2C342" width="38.8" height="9.7"/>
			<rect x="30.5" y="202" fill="#D7A628" width="29.1" height="9.7"/>
			<rect x="-8.2" y="199.6" fill="#D7A628" width="67.8" height="2.4"/>
			<rect x="6.3" y="202" fill="#FFE171" width="9.7" height="9.7"/>
			<rect x="30.5" y="199.6" fill="#BF912C" width="29.1" height="2.4"/>
			<rect x="-8.2" y="189.9" fill="#F2C342" width="38.8" height="9.7"/>
			<rect x="30.5" y="189.9" fill="#D7A628" width="29.1" height="9.7"/>
			<rect x="6.3" y="189.9" fill="#FFE171" width="9.7" height="9.7"/>
		</g>
		<circle fill="#F2C342" cx="79" cy="209.3" r="38.8"/>
		<circle fill="#D7A628" cx="79" cy="209.3" r="29.1"/>
		<path fill="#BF912C" d="M54.8,214.1c0-16.1,13-29.1,29.1-29.1c6.8,0,13,2.3,18,6.2c-5.3-6.7-13.6-11.1-22.8-11.1
			c-16.1,0-29.1,13-29.1,29.1c0,9.3,4.3,17.5,11.1,22.8C57.1,227.2,54.8,220.9,54.8,214.1z"/>
		<path fill="#FFFFFF" d="M69.7,163.9c-0.2-0.9-0.6-0.9-0.8,0l-0.8,3.4c-0.2,0.9-1.1,1.8-2,2l-3.4,0.8c-0.9,0.2-0.9,0.6,0,0.8
			l3.4,0.8c0.9,0.2,1.8,1.1,2,2l0.8,3.4c0.2,0.9,0.6,0.9,0.8,0l0.8-3.4c0.2-0.9,1.1-1.8,2-2l3.4-0.8c0.9-0.2,0.9-0.6,0-0.8l-3.4-0.8
			c-0.9-0.2-1.8-1.1-2-2L69.7,163.9z"/>
		<path fill="#FFFFFF" d="M40.5,136.7c-0.1-0.6-0.4-0.6-0.5,0l-0.6,2.3c-0.1,0.6-0.7,1.2-1.3,1.3l-2.3,0.6c-0.6,0.1-0.6,0.4,0,0.5
			l2.3,0.6c0.6,0.1,1.2,0.7,1.3,1.3l0.6,2.3c0.1,0.6,0.4,0.6,0.5,0l0.6-2.3c0.1-0.6,0.7-1.2,1.3-1.3l2.3-0.6c0.6-0.1,0.6-0.4,0-0.5
			l-2.3-0.6c-0.6-0.1-1.2-0.7-1.3-1.3L40.5,136.7z"/>
		<path fill="#FFFFFF" d="M30.8,185.5c-0.1-0.6-0.4-0.6-0.5,0l-0.6,2.3c-0.1,0.6-0.7,1.2-1.3,1.3l-2.3,0.6c-0.6,0.1-0.6,0.4,0,0.5
			l2.3,0.6c0.6,0.1,1.2,0.7,1.3,1.3l0.6,2.3c0.1,0.6,0.4,0.6,0.5,0l0.6-2.3c0.1-0.6,0.7-1.2,1.3-1.3l2.3-0.6c0.6-0.1,0.6-0.4,0-0.5
			l-2.3-0.6c-0.6-0.1-1.2-0.7-1.3-1.3L30.8,185.5z"/>
	</g>
</g>
</svg>
