<?xml version="1.0" encoding="utf-8"?>
<!-- Generator: Adobe Illustrator 18.0.0, SVG Export Plug-In . SVG Version: 6.00 Build 0)  -->
<!DOCTYPE svg PUBLIC "-//W3C//DTD SVG 1.1//EN" "http://www.w3.org/Graphics/SVG/1.1/DTD/svg11.dtd">
<svg version="1.1" id="Layer_1" xmlns="http://www.w3.org/2000/svg" xmlns:xlink="http://www.w3.org/1999/xlink" x="0px" y="0px"
	 width="352.8px" height="249px" viewBox="-19.4 0 352.8 249" enable-background="new -19.4 0 352.8 249" xml:space="preserve">
<g>
	<g>
		<g>
			<path fill="#F59830" d="M-19.4,53.4v191.9c0,2.9,2.3,5.2,5.2,5.2h280.1c2.9,0,5.2-2.3,5.2-5.2V53.4H-19.4z"/>
			<path fill="#D1D3D4" d="M271.1,53.4V27.4c0-2.9-2.3-5.2-5.2-5.2H-14.2c-2.9,0-5.2,2.3-5.2,5.2v25.9H271.1z"/>
			<rect x="42.9" y="32.6" fill="#FFFFFF" width="217.9" height="10.4"/>
			<circle fill="#E6E7E8" cx="-3.8" cy="37.8" r="5.2"/>
			<circle fill="#E6E7E8" cx="11.8" cy="37.8" r="5.2"/>
			<circle fill="#E6E7E8" cx="27.3" cy="37.8" r="5.2"/>
			<path fill="#414042" d="M84.4,53.4v197.1h181.6c2.9,0,5.2-2.3,5.2-5.2V53.4H84.4z"/>
			<g>
				<path fill="#292B2F" d="M260.8,217.4c0,1.1-0.9,2-2,2h-162c-1.1,0-2-0.9-2-2V65.8c0-1.1,0.9-2,2-2h162c1.1,0,2,0.9,2,2V217.4z"
					/>
			</g>
			<g>
				<path fill="#71C297" d="M198.5,241.7c0,0.6,0.4,1,1,1h60.2c0.5,0,1-0.4,1-1v-13.6c0-0.6-0.5-1-1-1h-60.2c-0.6,0-1,0.4-1,1V241.7
					z"/>
			</g>
			<g>
				<path fill="#D67428" d="M-9,109.4c0,0.5,0.4,1,1,1h36.9c0.5,0,1-0.5,1-1v-8.4c0-0.6-0.5-1-1-1H-8c-0.6,0-1,0.4-1,1V109.4z"/>
			</g>
			<g>
				<path fill="#228063" d="M35.1,109.4c0,0.5,0.5,1,1,1H73c0.6,0,1-0.5,1-1v-8.4c0-0.6-0.4-1-1-1H36.1c-0.5,0-1,0.4-1,1V109.4z"/>
			</g>
			<rect x="-9" y="63.8" fill="#BA6028" width="51.9" height="5.2"/>
			<rect x="-9" y="83.2" fill="#D67428" width="83" height="2.6"/>
			<rect x="-9" y="76.7" fill="#D67428" width="83" height="2.6"/>
			<rect x="-9" y="89.7" fill="#D67428" width="83" height="2.6"/>
			<g>
				<g>
					<path fill="#FAB154" d="M74,151.2c0,1.1-0.9,2-2,2H-7c-1.1,0-2-0.9-2-2V128c0-1.1,0.9-2,2-2h79c1.1,0,2,0.9,2,2V151.2z"/>
				</g>
				<rect x="1.4" y="135.1" fill="#D67428" width="62.2" height="2.6"/>
				<rect x="1.4" y="141.6" fill="#D67428" width="41.5" height="2.6"/>
			</g>
			<g>
				<g>
					<path fill="#FAB154" d="M74,182.4c0,1.1-0.9,2-2,2H-7c-1.1,0-2-0.9-2-2v-23.2c0-1.1,0.9-2,2-2h79c1.1,0,2,0.9,2,2V182.4z"/>
				</g>
				<rect x="1.4" y="166.2" fill="#D67428" width="62.2" height="2.6"/>
				<rect x="1.4" y="172.7" fill="#D67428" width="41.5" height="2.6"/>
			</g>
			<rect x="105.1" y="71.5" fill="#228063" width="72.6" height="5.2"/>
			<rect x="105.1" y="81.9" fill="#228063" width="114.1" height="5.2"/>
			<rect x="115.5" y="92.3" fill="#228063" width="72.6" height="5.2"/>
			<rect x="125.9" y="102.7" fill="#228063" width="83" height="5.2"/>
			<rect x="125.9" y="113" fill="#228063" width="41.5" height="5.2"/>
			<rect x="125.9" y="123.4" fill="#228063" width="51.9" height="5.2"/>
			<rect x="115.5" y="133.5" fill="#228063" width="72.6" height="5.2"/>
		</g>
	</g>
	<path fill="#D67428" d="M265.9,22.2H11.8v23.3v191.9c0,2.9,2.3,5.2,5.2,5.2h254.2V53.4V27.4C271.1,24.6,268.8,22.2,265.9,22.2z"/>
	<rect x="84.4" y="53.4" fill="#292B2F" width="186.8" height="189.3"/>
	<g>
		<g>
			<path fill="#71C297" d="M1.4,32.6v191.9c0,2.9,2.3,5.2,5.2,5.2h98.6l29.4-13l152.2,13c2.9,0,5.2-2.3,5.2-5.2V32.6H1.4z"/>
			<path fill="#D1D3D4" d="M291.9,32.6V6.7c0-2.9-2.3-5.2-5.2-5.2H6.6c-2.9,0-5.2,2.3-5.2,5.2v25.9H291.9z"/>
			<rect x="63.6" y="11.9" fill="#FFFFFF" width="217.9" height="10.4"/>
			<circle fill="#E6E7E8" cx="16.9" cy="17.1" r="5.2"/>
			<circle fill="#E6E7E8" cx="32.5" cy="17.1" r="5.2"/>
			<circle fill="#E6E7E8" cx="48.1" cy="17.1" r="5.2"/>
			<path fill="#414042" d="M105.1,32.6v197.1h181.6c2.9,0,5.2-2.3,5.2-5.2V32.6H105.1z"/>
			<g>
				<path fill="#292B2F" d="M281.5,196.6c0,1.1-0.9,2-2,2h-162c-1.1,0-2-0.9-2-2V45c0-1.1,0.9-2,2-2h162c1.1,0,2,0.9,2,2V196.6z"/>
			</g>
			<g>
				<path fill="#30A480" d="M11.8,88.7c0,0.5,0.4,1,1,1h36.9c0.5,0,1-0.5,1-1v-8.4c0-0.6-0.5-1-1-1H12.8c-0.6,0-1,0.4-1,1V88.7z"/>
			</g>
			<g>
				<path fill="#228063" d="M55.8,88.7c0,0.5,0.5,1,1,1h36.9c0.6,0,1-0.5,1-1v-8.4c0-0.6-0.4-1-1-1H56.8c-0.5,0-1,0.4-1,1V88.7z"/>
			</g>
			<rect x="11.8" y="43" fill="#228063" width="51.9" height="5.2"/>
			<rect x="11.8" y="62.5" fill="#30A480" width="83" height="2.6"/>
			<rect x="11.8" y="56" fill="#30A480" width="83" height="2.6"/>
			<rect x="11.8" y="68.9" fill="#30A480" width="83" height="2.6"/>
			<g>
				<g>
					<path fill="#9DD3AD" d="M94.8,130.5c0,1.1-0.9,2-2,2h-79c-1.1,0-2-0.9-2-2v-23.2c0-1.1,0.9-2,2-2h79c1.1,0,2,0.9,2,2V130.5z"/>
				</g>
				<rect x="22.1" y="114.3" fill="#30A480" width="62.2" height="2.6"/>
				<rect x="22.1" y="120.8" fill="#30A480" width="41.5" height="2.6"/>
			</g>
			<g>
				<g>
					<path fill="#9DD3AD" d="M94.8,161.6c0,1.1-0.9,2-2,2h-79c-1.1,0-2-0.9-2-2v-23.2c0-1.1,0.9-2,2-2h79c1.1,0,2,0.9,2,2V161.6z"/>
				</g>
				<rect x="22.1" y="145.5" fill="#30A480" width="62.2" height="2.6"/>
				<rect x="22.1" y="151.9" fill="#30A480" width="41.5" height="2.6"/>
			</g>
			<rect x="125.9" y="50.8" fill="#228063" width="72.6" height="5.2"/>
			<rect x="125.9" y="61.2" fill="#228063" width="114.1" height="5.2"/>
			<rect x="136.2" y="71.5" fill="#228063" width="72.6" height="5.2"/>
			<rect x="146.6" y="81.9" fill="#228063" width="72.6" height="5.2"/>
			<rect x="146.6" y="92.3" fill="#228063" width="31.1" height="5.2"/>
		</g>
	</g>
	<g>
		<path fill="#E6E7E8" d="M229.6,146.8v51.9c0,28.6,23.2,51.9,51.9,51.9s51.9-23.2,51.9-51.9v-51.9H229.6z"/>
		<path fill="#BCBEC0" d="M240,157.1v41.5c0,22.9,18.6,41.5,41.5,41.5s41.5-18.6,41.5-41.5v-41.5H240z"/>
		<rect x="240" y="157.1" fill="#A7A9AC" width="83" height="5.2"/>
		<circle fill="#A7A9AC" cx="284.1" cy="201.2" r="23.3"/>
		<circle fill="#E6E7E8" cx="281.5" cy="198.6" r="23.3"/>
		<circle fill="#A7A9AC" cx="310" cy="172.7" r="5.2"/>
		<circle fill="#D1D3D4" cx="307.4" cy="170.1" r="5.2"/>
		<circle fill="#A7A9AC" cx="258.2" cy="172.7" r="5.2"/>
		<circle fill="#D1D3D4" cx="255.6" cy="170.1" r="5.2"/>
		<g>
			<circle fill="#414042" cx="281.5" cy="193.4" r="7.8"/>
			<rect x="277.6" y="190.8" fill="#414042" width="7.8" height="23.3"/>
		</g>
		<path fill="#D1D3D4" d="M281.5,63.7c-22.9,0-41.5,18.6-41.5,41.5v41.5h7.8v-41.5c0-18.6,15.1-33.7,33.7-33.7s33.7,15.1,33.7,33.7
			v31.1h7.8v-31.1C323,82.3,304.4,63.7,281.5,63.7z"/>
		<path fill="#BCBEC0" d="M281.5,71.5c-18.6,0-33.7,15.1-33.7,33.7v41.5h7.8v-41.5c0-14.3,11.6-25.9,25.9-25.9s25.9,11.6,25.9,25.9
			v15.6l5.2,5.2h-5.2v10.4h7.8v-31.1C315.2,86.6,300.1,71.5,281.5,71.5z"/>
	</g>
	<g>
		<polygon fill="#F2C342" points="152.4,191.5 167.1,206.2 174.5,198.8 174.5,213.5 179.2,218.2 186.5,210.9 186.5,225.6 
			191.3,230.3 198.6,223 198.6,237.7 211.4,250.5 229.8,250.5 242.6,237.7 174.5,169.5 		"/>
		<g>
			<polygon fill="#D7A628" points="239,241.3 233.5,246.8 179.2,192.6 190.2,192.6 			"/>
			<polygon fill="#BF912C" points="237.1,243.2 239,241.3 190.2,192.6 186.5,192.6 			"/>
		</g>
		<path fill="#FFE171" d="M112.1,129.1c-16.2,16.2-16.2,42.5,0,58.7s42.5,16.2,58.7,0s16.2-42.5,0-58.7S128.3,112.9,112.1,129.1z
			 M141.4,158.5c-4.1,4.1-10.6,4.1-14.7,0c-4.1-4.1-4.1-10.6,0-14.7c4.1-4.1,10.6-4.1,14.7,0C145.5,147.9,145.5,154.4,141.4,158.5z"
			/>
		<path fill="#F2C342" d="M119.4,136.5c-12.2,12.2-12.2,31.9,0,44c12.2,12.2,31.9,12.2,44,0c12.2-12.2,12.2-31.9,0-44
			C151.3,124.3,131.6,124.3,119.4,136.5z M141.4,158.5c-4.1,4.1-10.6,4.1-14.7,0c-4.1-4.1-4.1-10.6,0-14.7c4.1-4.1,10.6-4.1,14.7,0
			C145.5,147.9,145.5,154.4,141.4,158.5z"/>
		<path fill="#D7A628" d="M123.1,140.1c11.5-11.5,29.9-12.1,42.1-1.8c-0.6-0.7-1.1-1.3-1.8-1.9c-12.2-12.2-31.9-12.2-44,0
			c-12.2,12.2-12.2,31.9,0,44c0.6,0.6,1.3,1.2,1.9,1.8C111,170,111.6,151.7,123.1,140.1z"/>
	</g>
</g>
</svg>
