<?xml version="1.0" encoding="iso-8859-1"?>
<!-- Generator: Adobe Illustrator 17.0.2, SVG Export Plug-In . SVG Version: 6.00 Build 0)  -->
<!DOCTYPE svg PUBLIC "-//W3C//DTD SVG 1.1//EN" "http://www.w3.org/Graphics/SVG/1.1/DTD/svg11.dtd">
<svg version="1.1" id="Layer_1" xmlns="http://www.w3.org/2000/svg" xmlns:xlink="http://www.w3.org/1999/xlink" x="0px" y="0px"
	 width="90px" height="90px" viewBox="0 0 90 90" style="enable-background:new 0 0 90 90;" xml:space="preserve">
<path d="M81.64,37.6c-1.3,4.17-4.99,4.94-7.87,6.93c-5.92,4.1-12.6,6.96-18.36,11.31c-2.89,1.76-5.71,3.64-8.52,5.52
	c-1.02,0.68-2.03,1.45-3.37,1.31c-2.28-1.49-4.94-1.61-7.5-2.1c-1.84-0.38-3.65-0.86-5.48-1.3c-2.08-0.49-2.6-1.82-1.93-3.78
	c1.4-4.12,6.16-5.85,9.94-3.6c0.18,0.11,0.35,0.23,0.5,0.36c0.4,0.35,0.65,0.79,0.58,1.38c-0.12,0.94-0.78,1.44-1.69,1.59
	c-1.32,0.23-2.66-0.42-4.34,0.12c1.67,1.09,3.3,1.01,4.87,1.15c2.12,0.62,3.98,0.22,5.96-0.84c7.73-4.12,15.35-8.4,22.49-13.5
	c4.18-2.69,8.76-4.96,10.69-10.43c-4.77,0.04-8.85,1.86-12.88,3.78c-4.65,2.23-9.28,4.12-14.68,3.29c-2.66-0.41-5.4,0.42-8.11,0.61
	c-2.98,0.2-5.93,0.82-8.96,0.29c3.99,2.1,8.35,2.8,12.58,3.95c1.27,0.34,2.85,0.34,3.1,2.12c0.22,1.61-0.89,2.47-2.05,3.25
	C45.14,50,43.64,50.98,42,51.67c-0.93,0.4-1.86,0.4-2.16-0.17c-0.17-0.3-0.15-0.77,0.15-1.42c1.02-2.28-0.36-2.8-1.84-3.41
	c-2.43-0.98-4.75-2.2-7.18-3.17c-2.41-0.95-3.35-2.58-2.81-5.19c0.51-2.51,1.72-4,4.43-3.86c7.13,0.37,14.21-0.66,21.32-0.68
	c3.21,0.21,6.36-0.15,9.47-0.9c4.65-1.77,9.3-3.57,14.27-4.32c3.27-0.5,5.11,1.23,5.02,4.78C83.22,35.02,82.08,36.19,81.64,37.6z"/>
<path d="M28.052,68.048C17.521,67.084,8.9,50.97,11.016,41.836c1.898-8.19,3.812-16.584,11.758-21.329
	c6.811-4.067,13.966-7.394,22.219-4.015c4.227-0.083,7.782,2.049,8.551,5.197c0.378,1.548,0.387,2.902-1.899,2.027
	c-7.44-5.826-19.647-6.18-27.212-0.56c-2.954,2.195-5.298,5.128-6.296,8.75c-2.534,9.195-3.404,18.282,2.782,26.59
	c3.649,4.24,5.822,4.769,11.258,2.654c0.932-0.363,1.796-0.346,2.698,0c2.163,0.624,5.131,0.416,4.3,4.145
	c-0.945,1.656-2.713,2.128-4.239,2.955C32.608,69.303,30.333,68.549,28.052,68.048z"/>
<path style="fill:#B8B9CD;" d="M20.471,59.219c-3.341-4.351-5.34-9.187-5.015-14.755c0.266-4.556,0.313-9.062,2.125-13.5
	c3.716-9.104,11.017-12.041,19.912-12.463c5.366-0.254,10.717,0.008,14.436,4.862c1.443,2.14,2.126-0.034,3.102-0.547
	c1.992,2.849,4.072,5.642,5.926,8.578c0.645,1.022,1.295,1.506,2.424,1.477c-2.93,1.983-6.216,2.003-9.555,1.733
	c0.343-2.123,2.112-0.41,2.982-1.108c0.251-0.249,0.58-0.422,0.838-0.844c-0.382,0.436-0.692,0.765-1.097,0.992
	c-1.623,0.015-2.331-1.277-3.173-2.298c-3.241-3.934-6.98-6.851-12.42-6.871c-5.899-0.022-11.66,0.832-16.267,4.659
	c-5.161,4.287-6.512,10.282-5.701,16.772c0.362,2.9,0.792,5.794,2.068,8.509C21.82,56.041,22.35,57.828,20.471,59.219z"/>
<path style="fill:#B6B7CA;" d="M54.949,55.263c5.986-4.551,12.9-7.592,19.124-11.76c1.546-1.035,3.251-1.832,4.884-2.737
	c0.271-0.15,0.804-0.353,0.786-0.427c-0.748-3.069,3.47-4.056,2.927-7.011c0.695,0.769,1.393,1.535,2.083,2.308
	c2.108,2.357,1.708,5.011-1.088,6.357c-3.84,1.849-7.717,3.628-11.632,5.312c-1.982,0.853-3.061,1.887-3.266,4.316
	c-0.503,5.981-4.118,10.244-8.663,13.813c-1.358,0.171-2.641-0.123-3.891-0.63c-0.128-1.607,1.179-2.338,2.07-3.285
	c1.924-2.047,3.754-4.166,5.227-6.561c0.417-0.678,1.039-1.646,0.266-2.267c-0.909-0.73-1.422,0.333-1.926,0.936
	c-0.461,0.552-0.791,1.241-1.622,1.338C58.409,54.003,56.796,56.751,54.949,55.263z"/>
<path style="fill:#C7C8DB;" d="M56.281,64.791c1.386-0.451,2.643-0.134,3.822,0.644c-6.416,4.723-13.471,8.134-21.466,8.613
	c-3.479,0.209-7.76,0.235-8.894-4.809c-0.112-0.499-1.107-0.799-1.692-1.191c2.357,0.111,4.711,0.192,6.988-0.609
	c6.968-0.148,12.949-2.929,18.475-6.923c0.758-0.548,1.449-1.242,2.514-1.013c1.072,1.332-0.175,2.068-0.858,2.773
	c-2.366,2.445-4.624,5.014-7.934,7.236C51.199,68.92,52.863,65.198,56.281,64.791z"/>
<path style="fill:#9997A5;" d="M55.031,22.818c0.224,1.312-0.498,2.033-1.65,2.173c-1.041,0.126-1.393-0.699-1.452-1.626
	c1.233,0.697,1.51,0.124,1.214-0.982c-0.837-3.119-3.392-4.332-6.092-5.326c-0.66-0.243-1.486,0.059-2.056-0.564
	c3.899-1.447,7.349,0.02,8.842,3.851C54.173,21.211,54.36,22.122,55.031,22.818z"/>
<path style="fill:#FFFFFF;" d="M57.037,33.327c-0.781,1.152-2.35,0.328-3.212,1.28c-7.317,0.265-14.638,0.787-21.95,0.679
	c-3.29-0.049-2.741,2.328-3.227,3.834c-0.489,1.515,0.263,2.866,2.185,3.516c4.053,1.37,7.871,3.322,11.658,5.375
	c-0.496,1.449-2.568,1.597-2.588,3.853c2.976-1.203,5.516-2.733,7.702-4.667c1.5-1.327,0.778-2.196-1.152-2.578
	c-5.414-1.07-10.799-2.302-15.829-4.704c1.279-2.592,3.203-0.525,4.789-0.715c3.838-0.46,7.696-0.769,11.552-1.062
	c1.556-0.118,3.157-0.232,4.687-0.007c3.934,0.58,7.409-0.938,10.743-2.481c5.424-2.509,10.776-5.008,17.09-5.017
	c-2.364,6.037-7,9.52-12.405,12.227c-4.982,2.817-10.244,5.095-15.22,7.926c-0.816,0.464-1.723,0.744-2.697,0.617
	c-0.765,0.243-1.356-1.786-2.222-0.159c-0.197,0.527-0.431,1.021-1.029,1.199c-1.148-0.291-1.789,0.09-1.773,1.343
	c-1.05,2.318-3.544,2.411-5.391,3.502c-2.528,0.066-4.925-0.455-7.273-1.536c0.713-1.84,2.013-1.737,3.571-1.608
	c1.341,0.111,3.58,1.725,3.924-0.477c0.3-1.918-2.195-1.23-3.48-1.447c-3.651-0.615-4.96,0.402-6.325,3.749
	c-0.824,2.021,0.133,2.517,1.646,2.64c1.874,0.152,3.636,0.616,5.372,1.269c0.819,2.05-0.032,2.408-1.83,1.805
	c-0.499-0.075-1.108-0.375-1.48-0.193c-5.917,2.908-7.732,2.593-12.405-2.27c0.766-1.866,0.208-3.488-0.465-5.337
	c-3.379-9.281-3.251-17.949,3.328-24.75c2.918-3.017,6.933-4.223,10.932-5.059c4.329-0.904,8.787-0.701,12.925,0.675
	c3.43,1.141,5.24,4.625,7.69,7.143c0.652,0.67,0.98,1.624,2.156,1.433L57.037,33.327z"/>
<path style="fill:#FAFBFC;" d="M56.199,59.75c-2.437,1.546-4.809,3.209-7.327,4.611c-4.282,2.384-8.682,4.487-13.832,3.078
	c1.24-0.663,2.479-1.327,3.719-1.99c1.295-1.654,3.031-2.594,5.031-3.108c3.72-2.359,7.44-4.719,11.16-7.078
	c1.446,0.207,2.451-0.83,3.64-1.327c0.84-0.35,1.351-0.383,1.458,0.672C59.899,57.171,58.659,58.917,56.199,59.75z"/>
<path style="fill:#C1C2D4;" d="M45.717,52.223c0.189-0.408,0.379-0.816,0.568-1.224c0.81-0.497,1.626-0.283,2.441-0.017
	c3.667-0.892,6.654-3.241,10.06-4.701c2.751-1.179,5.339-2.743,8.295-3.422c-6.848,5.171-14.411,9.155-21.915,13.243
	c-2.04,1.111-4.012,2.219-6.416,1.184c1.122-1.954,3.772-1.852,4.974-3.697C44.208,52.87,44.775,52.274,45.717,52.223z"/>
<path style="fill:#B1B3C5;" d="M43.789,62.341c-1.39,1.5-3.155,2.393-5.031,3.108c0.335-1.948-0.376-3-2.462-2.981
	c-0.719,0.006-1.468-0.097-1.941-0.785c1.326,0.124,2.095-0.317,1.83-1.805C38.869,60.237,41.758,59.965,43.789,62.341z"/>
<path d="M58.037,29.015c-0.171,0.841-0.715,1.237-1.533,1.136c-0.799-0.099-1.348-0.625-1.329-1.433
	c0.018-0.777,0.494-1.45,1.337-1.369C57.4,27.435,57.932,28.081,58.037,29.015z"/>
<path d="M57.036,33.325c-0.062-1.047-0.271-2.232,1.271-2.33c0.712-0.045,1.162,0.558,1.114,1.24
	c-0.123,1.725-1.46,0.998-2.383,1.092L57.036,33.325z"/>
<path d="M56.199,59.75c1.619-1.462,2.894-3.182,3.848-5.142c1.299-0.391,0.77-2.17,1.958-2.609c0.824-0.304,1.57-1.325,2.539-0.635
	c1.056,0.752,0.744,1.768,0.253,2.786c-1.375,2.846-3.441,5.175-5.514,7.498c-0.964,1.08-1.999,2.097-3.002,3.142
	c-2.568,1.935-4.961,4.131-7.918,5.489c-0.828,0.38-2.111,0.848-2.573-0.052c-0.655-1.276,0.907-1.306,1.609-1.744
	C50.997,66.237,53.538,62.936,56.199,59.75z"/>
<path style="fill:#2CAEBF;" d="M38.333,52"/>
<path style="fill:#2CAEBF;" d="M30.417,40.788c0,0,0.094-2.538,1.797-2.371c1.703,0.167,2.449,0.576,2.826,0.679
	c0.377,0.104,13.441-1.471,14.993-1.346c1.551,0.125,2.755,0.442,4.916,0.208c2.162-0.234,8.298-2.727,9.928-3.446
	c1.63-0.72,10.707-4.179,11.874-2.97c1.167,1.208-13.25,13.263-24.708,19.486s-12.125,6.056-14.958,5.723
	c-2.833-0.333-5.167-1.333-5.167-1.333s0.071-1.7,2.708-1.7c2.625,0,4.126-0.105,4.126-0.105l8.877-8.036L30.417,40.788z"/>
<path d="M50.556,49.284c-0.858-0.153-1.46-0.541-1.519-1.355c-0.062-0.861,0.498-1.356,1.315-1.325
	c0.757,0.029,1.415,0.454,1.422,1.298C51.781,48.685,51.327,49.218,50.556,49.284z"/>
<path d="M66.405,36.164c0.786,0.062,1.354,0.458,1.433,1.289c0.067,0.708-0.328,1.212-1.062,1.208
	c-0.8-0.005-1.414-0.479-1.512-1.267C65.177,36.701,65.69,36.294,66.405,36.164z"/>
<path d="M70.764,35.446c-0.064,0.737-0.439,1.177-1.168,1.077c-0.784-0.107-1.303-0.63-1.285-1.433
	c0.012-0.556,0.506-0.896,1.039-0.9C70.159,34.183,70.655,34.636,70.764,35.446z"/>
<path d="M45.717,52.223c-0.278,1.018-0.923,1.501-1.992,1.366c-0.462-0.814-1.123-1.706,0.08-2.38
	C44.819,50.642,45.269,51.519,45.717,52.223z"/>
<path d="M48.727,50.982c-0.807,0.946-1.622,0.886-2.442,0.017c-0.207-0.752-0.244-1.547,0.675-1.737
	C48.257,48.994,48.217,50.318,48.727,50.982z"/>
<path d="M62.758,38.612c0.727,0.021,1.15,0.428,1.263,1.111c0.126,0.764-0.318,1.204-1.025,1.239
	c-0.561,0.027-0.992-0.376-1.095-0.926C61.774,39.363,61.993,38.804,62.758,38.612z"/>
</svg>
