<?xml version="1.0" encoding="iso-8859-1"?>
<!-- Generator: Adobe Illustrator 17.0.2, SVG Export Plug-In . SVG Version: 6.00 Build 0)  -->
<!DOCTYPE svg PUBLIC "-//W3C//DTD SVG 1.1//EN" "http://www.w3.org/Graphics/SVG/1.1/DTD/svg11.dtd">
<svg version="1.1" id="Layer_1" xmlns="http://www.w3.org/2000/svg" xmlns:xlink="http://www.w3.org/1999/xlink" x="0px" y="0px"
	 width="90px" height="90px" viewBox="0 0 90 90" style="enable-background:new 0 0 90 90;" xml:space="preserve">
<path style="fill:#2CAEBF;" d="M36.16,36.219c0,1.902-1.465,3.444-3.272,3.444H21.272c-1.807,0-3.272-1.542-3.272-3.444l0,0
	c0-1.902,1.465-3.444,3.272-3.444h11.615C34.695,32.774,36.16,34.316,36.16,36.219L36.16,36.219z"/>
<path style="fill:#2CAEBF;" d="M56.263,35.079c0,1.273-1.032,2.305-2.305,2.305h-2.487c-1.273,0-2.305-1.032-2.305-2.305l0,0
	c0-1.273,1.032-2.305,2.305-2.305h2.487C55.231,32.774,56.263,33.806,56.263,35.079L56.263,35.079z"/>
<path style="fill:#2CAEBF;" d="M69.764,19.215c0,1.535-1.572,2.779-3.511,2.779h-12.46c-1.939,0-3.511-1.244-3.511-2.779l0,0
	c0-1.535,1.572-2.779,3.511-2.779h12.46C68.193,16.436,69.764,17.681,69.764,19.215L69.764,19.215z"/>
<path d="M73.557,66.659c-2.842,0.851-3.155-1.359-3.813-3.152c-1.509-6.737-2.659-13.528-3.154-20.09
	c-0.189,0.854,0.524,2.652-1.485,2.832c-1.597,0.143-1.959-1.294-2.324-2.489c-0.328-1.075-0.772-1.956-2.086-1.911
	c-0.738,0.025-1.213,0.397-1.106,1.165c0.164,1.173,0.524,2.253,1.894,2.562c1.575,0.356,4.099,0.381,3.905,2.214
	c-0.239,2.261-2.868,1.181-4.471,1.529c-0.972,0.139-2.42-0.159-2.343,1.312c0.054,1.039,1.337,0.627,2.116,0.729
	c1.149-0.007,2.265-0.13,3.391-0.414c2.416-0.609,3.239,0.111,3.811,2.631c0.527,2.317,0.434,4.72,1.16,7.005
	c0.342,1.078,0.331,2.084-1.335,2c-0.629-0.032-1.632-0.41-1.801,0.627c-0.138,0.841,0.777,1.122,1.332,1.558
	c1.061,0.611,1.978,1.364,2.482,2.523c0.613,1.255,2.087,1.665,2.789,2.818c0.607,0.997,1.052,1.994-0.896,1.619l-0.021-0.009
	c-2.076-1.046-4.269-1.82-6.11-3.371c-1.524-1.285-3.487-0.818-5.311-0.57c-1.484,1.164-0.07,2.641-0.41,3.949
	c-0.18,0.692,0.012,1.573-0.835,1.851c-1.039,0.341-1.1-0.604-1.379-1.249c-0.369-0.851-0.9-1.646-1.158-2.526
	c-0.342-1.166-0.053-2.246-1.763-3.054c-1.434-0.677-1.002-3.209-1.164-4.946c-0.418-4.461-0.304-8.972-1.301-13.378
	c-1.109-1.287-0.818-2.624-0.319-4.004c-2.309,5.495-4.839,10.928-10.505,13.955c-0.9,0.237-1.787,0.574-2.702,0.689
	c-1.902,0.239-2.329,1.043-1.68,2.89c0.388,1.105,0.298,2.471,0.096,3.665c-0.237,1.401-1.168,1.906-2.51,1.046
	c-2.046-1.604-1.392-4.191-2.176-6.262c-0.607-1.604-1.291-2.463-2.948-2.535c-1.551-0.212-3.099-0.676-4.639-0.077
	c0.566,0.269,1.081-0.056,1.607-0.082c4.611-0.232,6.364,1.267,6.746,5.818c0.186,2.22-1.238,2.815-3.048,3.02
	c-1.63,0.156-3.341-0.271-4.842,0.801c-0.847,0.605-1.627,0.066-2.256-0.466c-0.665-0.562-1.036-1.255-0.463-2.188
	c0.739-1.202,0.675-1.863-0.773-2.919c-1.946-1.421-0.832-4.314-1.71-6.407c-1.309-1.736-1.273-3.842-1.446-6.259
	c-2.527,3.582-4.804,6.815-7.869,9.399c-2.1,1.77-4.409,2.308-7.01,1.564c-0.929-0.266-1.881-0.86-1.793-1.9
	c0.087-1.03,1.216-1.042,2.014-1.063c4.131-0.112,6.285-3.382,9.095-5.603c3.574-4.282,6.857-8.694,6.476-14.714
	c-0.116-1.841,0.546-2.578,2.549-2.436c2.684,0.189,5.404,0.129,8.069-0.453c1.313-0.79,2.746-0.866,4.204-0.651
	c1.846,0.273,2.669,1.205,2.334,3.217c-0.873,5.231,1.897,7.549,6.961,5.93c0.787-0.251,1.603-0.413,2.351-0.782
	c3.543-2.326,5.177-5.634,4.693-9.815c-0.506-4.379,1.09-8.604,0.754-12.979c-0.063-0.824,0.28-4.39,2.441-0.844
	c0.146,0.239,0.756,0.309,1.135,0.276c4.561-0.391,9.123-0.719,13.706-0.677c0.349,0.003,0.701-0.377,1.051-0.579
	c2.431-0.555,2.187,1.322,2.169,2.62c-0.058,4.058,0.099,8.12-0.078,12.171c-0.161,3.67,0.694,7.014,2.554,10.128
	c2.182,3.653,4.556,7.19,6.696,10.87c2.356,3.309,5.129,6.228,8.261,8.81c-0.409,1.546-1.634,1.23-2.388,0.697
	c-6.227-4.399-10.71-10.342-14.616-16.079c0.524,4.722,1.089,10.169,1.77,15.603C74.342,63.497,74.548,65.139,73.557,66.659z"/>
<path style="fill:#AEAFC5;" d="M81.105,52.786c-5.111-6.291-10.35-12.483-10.2-21.335c0.069-4.052-0.169-8.115,0.353-12.147
	c0.172-1.324-0.395-1.927-1.493-2.307c1.848-2.427,4.066-2.3,6.341-0.773c2.366,1.588,1.97,3.57,1.182,6.06
	c-1.977,6.249-2.15,12.602,0.104,18.921C78.752,45.023,79.875,48.924,81.105,52.786z"/>
<path style="fill:#B2B4C8;" d="M73.557,66.659c0.032-5.547-1.141-10.982-1.525-16.49c-0.127-1.819-0.259-3.638-0.12-5.563
	c3.091,4.269,6.274,8.355,9.888,12.075c1.597,1.644,3.286,3.214,5.058,4.665c0.63,0.516,1.524,1.835,2.507,0.25
	c-0.13,1.891-1.205,2.788-3.008,2.443c-2.003-0.384-4.073-0.758-5.405-2.638c-0.491-0.693-1.629-1.368-1.594,0.032
	c0.079,3.178-1.911,3.736-4.272,4.233C74.532,65.783,74.065,66.317,73.557,66.659z"/>
<path style="fill:#BCBDCF;" d="M13.04,51.506c-2.721,3.609-5.429,7.238-11.607,6.132c2.478,2.997,4.749,2.576,6.89,1.49
	c3.352-1.701,5.455-4.76,7.635-7.685c0.927-1.244,1.793-2.534,3.149-4.459c0.364,3.24,0.653,5.813,0.942,8.385
	c-3.111,1.839-6.01,4.059-9.563,5.091c-2.473,0.719-4.912,0.99-7.321-0.099C1.943,59.81,1.181,58.897,1.28,57.41
	c0.1-1.5,1.2-1.76,2.314-2.131C6.816,54.207,10.29,53.76,13.04,51.506z"/>
<path style="fill:#F3F5F6;" d="M60.378,48.501c1.693-0.09,3.385-0.18,5.078-0.27c-1.336-1.624-2.983-1.548-4.573-1.633
	c-3.445-0.183-1.634-3.301-2.611-4.888c-0.65-1.056,0.908-1.027,1.644-0.889c1.536,0.288,4.145-1.05,3.784,2.365
	c-0.063,0.592,0.106,1.258,0.338,1.819c0.25,0.605,0.804,1.044,1.508,0.762c0.596-0.239,0.444-0.845,0.4-1.361
	c-0.127-1.487-0.756-3.018,0.92-4.483c0.959,7.861,1.918,15.722,2.878,23.583c-0.482-0.188-0.953-0.486-1.449-0.536
	c-0.585-0.059-1.191,0.097-1.788,0.16c0.247,0.546,0.494,1.091,0.741,1.637c-1.196-0.006-2.502-0.841-2.254-1.669
	c0.486-1.622,2.372-0.357,3.811-1.129c-1.037-2.517-0.879-5.322-1.409-8.011c-0.298-1.514-0.533-3.957-3.383-1.958
	c-0.85,0.596-2.429,0.153-3.674,0.186C58.656,50.941,58.556,49.711,60.378,48.501z"/>
<path style="fill:#ACACBE;" d="M45.984,41.617c-3.279,2.798-5.196,3.032-8.365,1.039c-2.245-1.412-3.247-3.383-1.891-5.791
	c1.399-2.485,0.224-2.843-1.858-2.857c-1.246-0.008-2.491-0.068-3.737-0.105c0.98-2.945,3.267-2.952,5.565-2.183
	c2.467,0.825,3.128,2.702,2.426,5.246c-1.013,3.67-0.904,3.701,2.93,4.03C42.704,41.136,44.342,41.406,45.984,41.617z"/>
<path style="fill:#BDBFCD;" d="M41.347,58.376c4.45-4.074,8.003-8.791,10.562-14.424c0.087,1.491,0.175,2.982,0.262,4.473
	c-1.404,0.04-1.427,1.274-1.897,2.151C48.281,54.292,45.914,57.598,41.347,58.376z"/>
<path style="fill:#9DA0AA;" d="M29.458,57.315c2.605,0.265,3.425,2.133,3.911,4.325c0.372,1.68,0.787,3.351,1.182,5.026
	c-1.465-0.823-2.986,0.47-4.458-0.117c2.046-0.589,2.913-1.785,2.139-3.938c-0.701-1.952-0.183-4.94-3.893-4.123
	c-1.188,0.261-2.497-0.259-3.685,0.279c-0.606,0.274-1.178,1.144-1.768,0.093c-0.231-0.411-0.406-1.104-0.214-1.454
	c0.498-0.91,1.265,0.004,1.917-0.083C26.212,57.059,27.836,57.539,29.458,57.315z"/>
<path style="fill:#BDBFCD;" d="M60.182,67.778c2.579-1.1,4.956-1.507,7.193,0.944c1.138,1.247,2.802,2.014,4.228,2.998
	c-2.838-0.478-5.681-1.029-7.961-2.921C62.569,67.908,61.364,68.006,60.182,67.778z"/>
<path style="fill:#BBBFCE;" d="M71.624,71.728c0.443-0.166,1.906,0.301,0.676-0.939c-1.041-1.05-2.688-1.608-2.569-3.497
	c1.255,0.697,2.563,1.316,3.742,2.124c0.606,0.415,1.416,1.016,0.621,2.019C73.345,72.379,72.601,72.916,71.624,71.728z"/>
<path style="fill:#B3B5C8;" d="M50.283,41.722c-2.423,5.352-4.879,10.458-9.795,13.781c-3.292,2.226-4.886,1.342-5.213-2.557
	c-0.191-2.283-0.391-4.566-0.53-6.853c-0.059-0.964,0.03-2.284,1.447-1.363c5.563,3.612,9.591,0.992,13.351-3.045
	C49.587,41.638,49.735,41.69,50.283,41.722z"/>
<path style="fill:#F1F2F3;" d="M64.633,33.304c-0.545-2.503-2.676-1.239-4.034-1.545c-2.172-0.49-4.227-3.828-3.184-5.718
	c0.459-0.831,1.246-0.597,1.939-0.657c0.833-0.072,1.67-0.121,2.506-0.138c0.8-0.016,1.491-0.291,2.184-0.974
	c0.763,2.918,0.218,5.842,1.293,8.502C65.417,33.37,65.172,33.533,64.633,33.304z"/>
<path style="fill:#2CAEBF;" d="M64.633,33.304c0.235-0.177,0.469-0.353,0.704-0.53c2.11,0.416,1.252,2.226,1.193,3.249
	c-0.089,1.557-1.467,0.545-2.223,0.448c-2.861-0.368-5.733,0.922-8.579-0.114c-0.673-0.245-1.858,0.154-1.413-1.314
	c0.302-0.999,0.389-1.58,1.956-1.415C59.016,33.916,61.841,33.453,64.633,33.304z"/>
<path style="fill:#E5E8EA;" d="M65.859,58.683c0.559,1.498,0.602,1.948-0.77,2.044c-3.126,0.22-4.117-2.095-4.53-4.176
	c-0.51-2.571,2.398-2.242,3.527-2.173C67.457,54.584,64.698,57.854,65.859,58.683z"/>
<path style="fill:#2CAEBF;" d="M60.259,21.816c-1.175-0.479-3.857,1.106-3.992-0.749c-0.132-1.817,2.689-0.943,4.167-1.308
	c1.478-0.365,3.082-0.236,4.632-0.281c0.571-0.016,1.322-0.179,1.396,0.736c0.074,0.921-0.442,1.065-1.305,1.245
	C63.62,21.778,62.101,21.85,60.259,21.816z"/>
<path style="fill:#DCDFE7;" d="M55.498,60.303c0.997,2.464,3.076,2.256,4.979,2.374c0.939,0.058,1.73,0.361,1.882,1.3
	c0.199,1.226-1.019,1.089-1.674,1.308C56.13,66.808,55.428,66.145,55.498,60.303z"/>
<path style="fill:#2CAEBF;" d="M27.085,47.562c-1.361,0.452-2.791-0.639-4.389-0.456c-0.836,0.096-0.788-0.893-0.631-1.436
	c0.318-1.1,0.699-0.036,1.019,0.069c1.777,0.578,3.493-0.191,5.234-0.175c1.008,0.009,2.721-0.715,2.749,1.007
	c0.025,1.533-1.694,0.422-2.524,0.883C28.216,47.636,27.726,47.526,27.085,47.562z"/>
<path style="fill:#EFF0F2;" d="M28.821,38.831c-0.406,1.943,1.216,3.688-0.674,4.947c-0.506,0.337-1.802,0.356-2.18-0.611
	C25.126,41.008,26.52,39.955,28.821,38.831z"/>
<path style="fill:#ECECEE;" d="M29.98,62.586c0.594,2.121-0.08,2.26-1.071,2.271c-1.379,0.015-2.131-0.394-2.067-1.951
	c0.049-1.209,0.465-2.186,1.666-2.195C30.336,60.697,29.92,62.389,29.98,62.586z"/>
<path style="fill:#2CAEBF;" d="M30.655,36.663c-2.719,1.892-5.486,0.64-8.039,1.051c-0.118,0.019-0.45-0.449-0.431-0.669
	c0.018-0.214,0.363-0.577,0.558-0.573C25.266,36.521,27.83,35.588,30.655,36.663z"/>
<path style="fill:#989AA6;" d="M60.378,48.501c-1.071,1.218-0.91,2.449-0.039,3.687c-1.467,0.231-2.967-0.049-3.069-1.674
	C57.146,48.518,59.101,48.835,60.378,48.501z"/>
<path style="fill:#DEDFE3;" d="M29.438,53.397c-1.721-0.634-2.882-1.185-2.599-2.755c0.143-0.795,1.025-1.252,1.705-0.992
	C30.407,50.362,29.243,51.864,29.438,53.397z"/>
<path style="fill:#E5E7EA;" d="M29.458,57.315c-1.622,0.953-3.245,0.975-4.869,0.007C26.21,55.831,27.834,56.622,29.458,57.315z"/>
<path style="fill:#F4F7FA;" d="M46.614,46.208c-2.135,2.283-4.468,4.149-7.202,5.459c-0.747,0.358-1.602,0.91-2.345,0.29
	c-1.029-0.859-0.55-2.134-0.486-3.235c0.058-0.987,0.795-1.515,1.72-1.451C41.13,47.466,43.863,47.072,46.614,46.208z"/>
<path style="fill:#2CAEBF;" d="M67.134,47.811c0.181-0.25,0.362-0.5,0.543-0.75c1.629,0.588,0.966,3.15,0.921,4.598
	c-0.069,2.204-1.133,0.771-1.716,0.634c-2.209-0.52-4.426,1.304-6.623-0.161c-0.519-0.347-1.434,0.218-1.091-1.86
	c0.233-1.413,0.3-2.236,1.51-2.003C62.797,48.677,64.978,48.021,67.134,47.811z"/>
</svg>
