<?xml version="1.0" encoding="iso-8859-1"?>
<!-- Generator: Adobe Illustrator 17.0.2, SVG Export Plug-In . SVG Version: 6.00 Build 0)  -->
<!DOCTYPE svg PUBLIC "-//W3C//DTD SVG 1.1//EN" "http://www.w3.org/Graphics/SVG/1.1/DTD/svg11.dtd">
<svg version="1.1" id="Layer_1" xmlns="http://www.w3.org/2000/svg" xmlns:xlink="http://www.w3.org/1999/xlink" x="0px" y="0px"
	 width="90px" height="90px" viewBox="0 0 90 90" style="enable-background:new 0 0 90 90;" xml:space="preserve">
<ellipse transform="matrix(0.9935 -0.1136 0.1136 0.9935 -2.5314 4.8348)" style="fill:#2CAEBF;" cx="41.166" cy="24.634" rx="28.291" ry="7.509"/>
<path style="fill:#B4B4C8;" d="M13.744,56.772c0.527,1.581,1.685,3.556-1.708,2.58c-0.707-0.203-1.533-0.199-1.779,0.75
	c-0.203,0.785,0.188,1.443,0.798,1.904c1.652,1.247,3.634,1.496,5.602,1.702c4.762,0.498,9.97-0.094,14.183,1.686
	c5.228,2.208,7.546-1.475,10.889-3.241c1.448-0.765,1.758-2.076,1.136-3.963c-0.808-2.45,0.88-4.345,3.85-4.235
	c1.586,0.059,4.903-1.925,4.564,2.339c-0.709,0.161-1.418,0.46-2.127,0.458c-2.677-0.007-3.08,1.185-2.48,3.624
	c1.412,5.734-0.694,7.831-6.533,7.416c-6.324-0.449-12.66-0.186-18.999,0.225c-3.914,0.254-7.883,0.165-11.123-2.924
	c-1.379-1.314-1.62-2.583-1.196-4.166c0.424-1.584,1.572-2.729,3.191-2.403C13.868,58.898,13.46,57.627,13.744,56.772z"/>
<path style="fill:#B1B1C7;" d="M80.299,57.534c-0.198-0.926-0.703-1.057-1.604-0.847c-1.058,0.247-2.023,1.131-3.569,0.504
	c1.825-1.521,1.253-3.348,1.11-5.24c-0.643-8.486-1.872-16.986,0.148-25.466c0.439-1.842-1.961-4.958-4.303-5.767
	c-0.865-0.299-1.912-0.004-2.623-0.802c0.887-0.264,1.809-0.024,2.73-0.454c4.355-2.034,8.02,0.236,8.011,5.038
	C80.194,27.5,79.832,30.5,79.623,33.5c-0.466,6.683,0.895,13.246,1.26,19.874C80.958,54.75,81.472,56.291,80.299,57.534z"/>
<path style="fill:#B4B4C9;" d="M51.161,61.249c0.491,4.53,1.386,5.347,5.909,5.112c1.229-0.064,2.533-0.241,3.646-0.726
	c4.79-2.086,9.875-3.253,14.813-4.869c1.948-0.637,3.539-1.592,4.762-3.203c0.032,0.516-0.103,1.123,0.121,1.535
	c2.605,4.781,0.576,6.332-3.62,7.436c-6.284,1.653-12.644,3.554-19.339,2.939c-2.242-0.206-4.451-0.61-6.006-2.212
	C49.742,65.503,50.114,63.313,51.161,61.249z"/>
<path d="M31.796,24.831c-0.802-1.044-1.572-2.139-3.143-1.934c12.761-4.879,25.789-6.498,39.218-3.21
	c-1.058,0.795-1.109,2.048-1.442,3.172c-3.195,0.622-6.036-1.329-9.157-1.253c-3.373,0.082-6.744-1.516-10.116-0.003
	C41.915,22.094,36.877,23.566,31.796,24.831z"/>
<path d="M16.894,30.056c-0.277-0.684-0.752-1.177-1.425-1.481c4.156-2.475,8.6-4.282,13.214-5.693
	c-1.396,1.716,0.947,1.75,1.221,2.715c-2.214,1.044-4.655,1.527-6.822,2.782c0.857,0.196,1.764,0.187,2.534,0.57
	c0.684,0.34,2.033,0.06,1.69,1.548c-1.325,0.135-2.572-0.184-3.835-0.555c-1.128-0.332-1.462,0.233-1.097,1.287
	C20.262,32.174,18.658,30.74,16.894,30.056z"/>
<path d="M51.161,61.249c0.04-1.652,0.079-3.303,0.119-4.955c-1.368-2.066-3.331-1.911-5.323-1.325
	c-2.185,0.643-2.317,2.425-2.18,4.307c0.054,0.74-0.086,1.447-0.436,2.121c-1.673,3.223-8.576,5.909-12.119,5.004
	c-4.461-1.139-9.08-1.362-13.656-1.75c-1.998-0.169-3.961-0.422-5.775-1.3c-1.182-0.572-2.192-1.472-2.023-2.892
	c0.187-1.572,1.54-1.44,2.694-1.388c1.995,0.089,1.497-1.175,1.281-2.298c-1.62-8.078-2.017-16.255-1.978-24.466
	c0.011-2.432,0.498-4.444,3.703-3.731c0.942-0.355,1.371,0.343,1.87,0.902c1.481,2.293,4.403,1.706,6.297,3.18
	c-0.577-0.543-1.501-0.639-1.812-1.501c-0.527-1.744,0.641-1.936,1.841-1.865c1.108,0.066,2.205,0.353,3.302,0.547
	c1.113,0.36,2.225,0.459,3.33-0.046c1.508-0.69,2.62-0.127,3.518,1.325c0.005-1.391-0.939-1.864-1.698-2.471
	c-1.099-0.737-1.963-1.727-2.886-2.655c-1.011-0.889-2.352-1.726-0.547-3.109l-0.03,0.015c1.666-0.774,2.691,0.171,3.635,1.342
	c0.886,1.027,2.058,1.748,2.957,2.776c3.067,3.509,7.047,3.237,9.703-0.6c1.184-1.711,2.166-3.565,3.597-5.103
	c2.561-0.787,3.437-0.216,3.091,2.119c-0.119,0.805-0.399,1.422,0.082,2.324c1.37,2.57,0.992,3.071-2.22,3.55
	c2.117,0.823,4.025,0.418,5.865-0.762c2.55-1.635,5.438-2.616,8.066-4.106c1.801-1.021,3.189-0.775,3.851,1.402
	c-0.913,2.105-3.243,2.142-4.77,3.357c1.614-1.208,3.943-1.285,5.055-3.287c0.029-1.414-1.443-2.146-1.585-3.487
	c0.209-1.204-0.063-2.741,1.891-2.734c0.529,0.076,1.058,0.152,1.586,0.228c1.369,0.485,2.888-0.029,4.244,0.844
	c2.704,1.74,3.916,3.869,3.229,7.162c-1.878,8.996,0.104,17.915,0.304,26.867c0.024,1.058,0.512,1.171,1.381,1.125
	c1.07-0.057,2.304-0.14,1.683,1.621l-0.008,0.029c-0.625,2.264-2.334,3.312-4.41,3.987c-5.163,1.679-10.435,3.021-15.489,5.042
	c-1.171,0.468-2.438,0.557-3.7,0.577C51.986,67.246,50.815,65.996,51.161,61.249z M18.021,37.802
	c1.766,0.133,1.043,1.733,1.129,2.756c0.186,2.221,2.085,1.828,3.322,2.005c1.559,0.223,0.899-1.254,1.001-2.05
	c0.147-1.139-0.544-2.877,1.518-2.704c1.813,0.152,1.109,1.734,0.98,2.739c-0.226,1.775-0.196,2.896,2.164,3.092
	c8.683,0.722,17.325,0.871,25.95-0.615c1.783-0.307,3.323-0.587,2.868-3.026c-0.155-0.832-0.33-2.119,1.114-2.085
	c1.257,0.03,1.227,1.182,1.344,2.116c0.091,0.727-0.263,2.061,1.128,1.541c1.561-0.584,3.922,0.011,4.242-2.774
	c0.148-1.289,1.124-1.059,2.13-0.45c2.048,1.241,3.792,0.256,3.848-2.086c0.044-1.845,0.009-3.692,0.009-5.931
	c-18.824,7.493-37.602,9.503-57.08,3.592c0.122,2.361-0.981,5.15,2.633,6.572C17.099,39.594,16.254,37.669,18.021,37.802z"/>
<path style="fill:#F7F8FA;" d="M53.231,45.598c2.943-0.698,4.289,0.337,4.148,3.482c-0.121,2.71,0.129,5.433,0.735,8.096
	c0.252,1.107,0.494,2.595,2.044,2.165c1.233-0.342,0.306-1.589,0.349-2.433c0.051-1.012-1.207-2.635,0.534-2.852
	c1.447-0.18,3.52-1.787,4.613,0.807c0.265,0.629,0.774,1.029,1.472,0.898c0.88-0.165,0.771-0.92,0.602-1.485
	c-0.622-2.072,1.955-2.211,2.318-3.863c-1.129-0.293-2.665,0.727-2.922-1.589c-0.708-6.396-0.46-7.416,3.686-8.892
	c0.273,5.47,0.536,10.867,0.818,16.262c0.067,1.282-0.657,1.868-1.751,2.249c-3.859,1.345-7.749,2.545-11.87,2.745
	c-4.098,0.2-5.544-0.873-4.409-4.646c1.007-3.348-0.008-6.38,0.17-9.541C53.613,46.524,52.823,46.291,53.231,45.598z"/>
<path style="fill:#2CAEBF;" d="M46.76,20.976c6.748-1.375,13.274-0.429,19.669,1.884c0.749,0.958,2.877,1.148,1.751,3.148
	c-0.363,0.437-0.753,0.448-1.167,0.074c-0.703-1.361-1.394-2.073-3.125-1.037c-3.213,1.922-6.767,3.21-9.992,5.172
	c-2.138,1.301-4.4-0.256-6.612-0.447c-0.091-0.008-0.249-0.54-0.185-0.777c0.144-0.535,0.518-0.913,1.137-0.823
	c0.716,0.105,1.42,0.313,2.139,0.378c0.633,0.058,1.292-0.034,1.518-0.787c0.239-0.799,0.024-1.667-0.776-1.783
	c-2.093-0.304-1.565-1.068-0.52-2.064c0.524-0.499,1.241-0.998,0.737-1.834c-0.652-1.081-1.572-0.731-2.453-0.27
	C48.092,21.74,47.252,21.802,46.76,20.976z"/>
<path style="fill:#2CAEBF;" d="M46.76,20.976c0.773,0.11,1.644-0.03,2.121,0.834c-0.888,1.404-2.041,2.708-2.612,4.231
	c-1.465,3.91-4.712,4.045-8.052,4.28c-1.156,0.081-1.683-0.625-2.326-1.283c-1.368-1.4-2.73-2.805-4.095-4.207
	c0.698-1.668,2.388-1.476,3.698-1.848C39.174,21.937,42.874,20.905,46.76,20.976z"/>
<path style="fill:#EEEDEE;" d="M31.895,47.53c-0.996,3.346-0.979,6.763-0.727,10.2c0.099,1.345,0.409,2.889-1.657,2.997
	c-1.863,0.097-3.223-0.435-3.287-2.706c-0.079-2.804-0.421-5.601-0.489-8.405c-0.107-4.413-0.051-4.414,4.226-3.465
	C30.334,46.991,32.113,45.86,31.895,47.53z"/>
<path style="fill:#F6F8F9;" d="M64.831,47.431c-0.606,1.106,1.64,3.253-1.274,3.875c-3.086,0.659-3.776,0.021-4.062-3.121
	c-0.253-2.787-0.01-4.829,3.42-5.266c1.526-0.194,1.837,0.15,1.778,1.5C64.651,45.354,64.772,46.295,64.831,47.431z"/>
<path style="fill:#E8E7E9;" d="M17.95,58.724c-1.661-0.618-2.743-1.334-2.927-2.854c-0.453-3.736-0.884-7.477-1.223-11.224
	c-0.065-0.718-0.581-1.952,0.529-2.139c0.995-0.168,2.366,0.519,2.447,1.524c0.166,2.051,1.6,4.226-0.3,6.225
	c-1.033,1.087-0.996,2.439,0.091,3.347C18.254,55.01,17.745,56.737,17.95,58.724z"/>
<path style="fill:#EAEBEC;" d="M23.661,49.672c0,0.519,0.07,1.05-0.016,1.555c-0.147,0.869,0.667,2.438-1.089,2.27
	c-1.201-0.115-2.886-0.13-3.092-1.987c-0.137-1.237-0.308-2.51-0.152-3.727c0.142-1.1-1.27-3.042,0.976-3.164
	c1.83-0.099,3.876,0.371,3.316,3.186c-0.119,0.6-0.017,1.243-0.017,1.867C23.612,49.672,23.636,49.672,23.661,49.672z"/>
<path style="fill:#2CAEBF;" d="M27.307,30.498c-1.687-1.261-3.967-0.936-6.447-2.306c3.501-0.814,5.743-3.283,9.045-2.594
	c0.62,1.026,1.485,1.794,2.511,2.393c0.953,2.213-1.78,1.256-2.067,2.403C29.37,31.459,28.349,31.267,27.307,30.498z"/>
<path style="fill:#EBEBED;" d="M19.882,57.514c-0.242-1.542,0.183-2.054,1.798-2.132c3.164-0.153,2.327,2.332,2.816,3.875
	c0.386,1.218-0.51,1.32-1.479,1.215C21.135,60.269,19.288,60.085,19.882,57.514z"/>
<path style="fill:#EEEDEE;" d="M46.937,48.072l-0.233,0.119l-0.258-0.048c-3.45,0.401-6.901,0.388-10.352,0.006
	c-0.666,0.009-1.408,0.247-1.792-0.593c0.164-1.804,1.558-0.936,2.392-1c3.196-0.249,6.424,0.308,9.612-0.333
	c0.754-0.043,1.507-0.086,2.261-0.129c0.736-0.056,1.791-0.71,2.052,0.376c0.241,1.002-0.776,1.217-1.626,1.286
	C48.3,47.814,47.561,47.576,46.937,48.072z"/>
<path style="fill:#A2A5AB;" d="M16.894,30.056c2.03-0.557,3.563,1.211,5.481,1.173c1.014,1.001,3.063-0.158,3.665,1.739
	C23.85,33.685,18.568,31.996,16.894,30.056z"/>
<path style="fill:#B1B1B8;" d="M67.013,26.082c0.389-0.025,0.778-0.049,1.167-0.074c-1.288,2.824-4.256,3.048-6.603,4.218
	c-0.27,0.134-0.939-0.012-1.079-0.239c-0.347-0.565,0.116-0.93,0.611-1.162C63.075,27.906,65.045,26.996,67.013,26.082z"/>
<path style="fill:#DBDCDE;" d="M46.305,46.223c-2.76,1.282-5.687,0.308-8.517,0.636c-1.18,0.137-2.515-0.486-3.487,0.697
	c-0.794-0.773-1.598-0.598-2.407-0.026c-0.645-0.46-1.289-0.92-1.934-1.379C35.409,46.175,40.857,46.199,46.305,46.223z"/>
<path style="fill:#A3A3B1;" d="M36.216,55.047c1.449,0.21,1.219,1.429,1.384,2.37c0.263,1.497,0.153,3.337-1.425,3.59
	c-1.714,0.275-1.409-1.743-1.766-2.89C35.734,57.52,35.238,55.85,36.216,55.047z"/>
<path style="fill:#2CAEBF;" d="M30.349,30.394c-0.262-1.619,2.507-0.631,2.067-2.403c0.776,0.646,1.581,1.261,2.319,1.949
	c0.66,0.616,1.112,1.318-0.051,1.912c-0.85,0.434-1.923,0.941-2.133-0.495C32.292,29.592,31.298,30.204,30.349,30.394z"/>
<path style="fill:#EAEAF0;" d="M36.216,55.047c-0.493,1.088,1.485,3.63-1.807,3.07c-0.088-0.814-0.209-1.627-0.254-2.444
	c-0.042-0.759-0.652-1.826,0.43-2.151C35.613,53.215,35.577,54.614,36.216,55.047z"/>
<path style="fill:#DBDCDE;" d="M46.937,48.072c0.784-1.174,2.4-0.141,3.312-1.307c-0.288-0.853-1.153-0.412-1.682-0.67
	c1.505-0.631,3.061-0.785,4.664-0.497c0.18,0.468,0.359,0.935,0.539,1.403C51.285,46.036,49.404,48.922,46.937,48.072z"/>
<path style="fill:#DBDCDE;" d="M36.094,48.15c3.45-0.002,6.901-0.004,10.352-0.006C42.996,49.183,39.545,48.829,36.094,48.15z"/>
<path style="fill:#2CAEBF;" d="M58.168,30.81c-0.506,0.862-1.415,1.085-2.278,1.31c-0.514,0.134-0.791-0.382-0.632-0.74
	c0.412-0.926,1.381-1.117,2.249-1.336C58.027,29.913,58.152,30.359,58.168,30.81z"/>
<path style="fill:#2CAEBF;" d="M29.843,32.483c0.572,0.072,1.046,0.399,1.099,0.935c0.066,0.661-0.489,0.813-1.055,0.803
	c-0.586-0.011-1.058-0.268-1.07-0.876C28.806,32.743,29.21,32.425,29.843,32.483z"/>
<path d="M42.05,27.337c-0.239,1.39-1.409,1.247-2.405,1.326c-0.736,0.059-1.591,0.046-1.544-1.011
	c0.06-1.342,1.055-1.646,2.184-1.686C41.217,25.933,41.917,26.223,42.05,27.337z"/>
</svg>
