<?xml version="1.0" encoding="iso-8859-1"?>
<!-- Generator: Adobe Illustrator 17.0.2, SVG Export Plug-In . SVG Version: 6.00 Build 0)  -->
<!DOCTYPE svg PUBLIC "-//W3C//DTD SVG 1.1//EN" "http://www.w3.org/Graphics/SVG/1.1/DTD/svg11.dtd">
<svg version="1.1" id="Layer_1" xmlns="http://www.w3.org/2000/svg" xmlns:xlink="http://www.w3.org/1999/xlink" x="0px" y="0px"
	 width="90px" height="90px" viewBox="0 0 90 90" style="enable-background:new 0 0 90 90;" xml:space="preserve">
<path style="fill:#2CAEBF;" d="M29.091,57.842c1.464-0.154-4.07-0.185-2.606-0.34c7.351,0.281,14.628-0.117,21.808-1.932
	c8.919-1.466,17.902-3.366,25.884-9.628c3.951,0.475,9.559,3.257,6.838,4.859c-5.254,3.092-10.653,5.908-16.526,7.709
	c-1.312,0.402-3.966-0.101-3.435,2.151c0.525,2.226,2.754,1.74,4.55,0.986c0.504-0.212,1.078-0.256,1.62-0.376
	c0.49,0.406,0.979,0.812,1.469,1.218c-1.162,1.422-2.837,1.31-4.375,1.323c-13.886,0.112-27.683-1.148-41.444-2.899
	c-0.218-0.028-0.422-0.156-0.631-0.246c-1.115-1.043-1.36-1.841,0.547-2.101C24.887,58.28,27.049,58.586,29.091,57.842z"/>
<path d="M52.78,37.555c0.87,0.39,1.739,0.78,2.609,1.17c0.359,0.523,0.952,0.265,1.417,0.428c3.919,1.367,4.608,4.054,1.847,7.111
	c-1.831,2.027-4.041,3.595-6.202,5.227c-0.912,0.688-1.812,1.399-2.624,2.545c1.148,0.972,2.389,0.902,3.692,0.521
	c4.749-0.562,9.443-1.38,13.94-3.075c0.871-0.328,1.988-0.516,2.516-1.159c3.248-3.954,6.518-2.252,9.841-0.232
	c0.255,0.182,0.549,0.303,0.811,0.468c1.572,0.996,3.507,1.84,3.482,4.038c-0.027,2.345-2.269,2.73-3.843,3.629
	c-4.081,2.332-8.519,3.758-13.005,5.055c-1.468,0.417-2.936,0.835-4.405,1.252c-0.563,0.674-1.313,1.042-2.154,1.159
	c-1.65,0.231-3.379,0.1-3.8-1.792c-0.422-1.899,1.217-2.441,2.7-2.733c5.368-1.058,10.315-3.292,15.226-5.562
	c1.302-0.602,3.925-1.392,1.322-3.685c-1.032-0.498-2.057-0.427-3.012,0.135c-6.414,3.776-13.714,4.319-20.784,5.657
	c-3.8,0.719-7.678,0.955-11.524,1.398c-2.722,0.081-5.452-0.214-8.166,0.204c-0.329,0.122-0.666,0.204-1.011,0.262
	c-1.403,0.192-2.813,0.201-4.225,0.189c-1.756-0.055-3.515,0.058-5.265-0.089c-0.8-0.067-1.92-0.111-1.953-1.074
	c-0.034-0.999,1.117-1.009,1.895-1.197c0.402-0.097,0.806-0.175,1.181-0.357c0.469-0.261,0.954-0.482,1.469-0.631
	c2.906-0.364,5.828-0.607,8.738-0.926c1.557,0.047,3.119,0.078,4.681,0.054c4.92-0.074,6.778-1.849,7.457-7.13
	c-0.246-0.184-0.491-0.348-0.765-0.482c-0.923-0.205-1.884-0.105-2.778-0.401c-1.355-0.448-2.726-1.112-2.107-2.819
	c0.65-1.794,2.098-1.723,3.582-0.89c0.362,0.203,0.732,0.388,1.028,0.688c1.654,0.212,3.308,0.425,4.962,0.637
	c2.614,0.028,4.698-2.027,4.443-4.381c-2.272-1.565-4.994-1.982-7.518-2.889c-1.11-0.399-2.267-0.622-2.607-1.907
	c-0.374-1.415,1.145-1.449,1.68-2.166c2.163-2.902,5.716-3.364,8.474-5.18c0.592-0.197,0.992-0.686,1.626-1.073
	c-1.013-0.366-1.921-0.681-2.895-0.139c-7.49,0.759-14.957,3.471-22.465,1.758c-5.221-1.191-10.222-3.638-14.639-8.1
	c1.13,6.501,6.496,9.596,9.139,14.668c-7.123-3.265-11.739-11.644-10.792-19.181c0.586-0.346,1.059-0.043,1.299,0.413
	c2.263,4.287,6.327,6.203,10.462,8.049c1.341,0.598,2.573,1.278,2.629-1.159c0.018-0.783,0.433-1.803,1.535-1.546
	c1.264,0.295,0.658,1.217,0.47,2.015c-0.451,1.92,0.794,2.674,2.339,3.024c2.056,0.465,4.142,0.567,6.215,0.02
	c2.123-1.654,4.507-3.048,5.485-5.802c0.351-0.988,0.831-1.929,0.258-2.982c-3.366-2.977-7.324-3.359-11.543-1.172
	c-2.405,1.246-4.328,3.116-6.477,5.176c-0.709-2.111,0.283-3.231,1.415-4.314c5.128-4.903,11.178-5.632,17.805-2.138
	c2.803,1.17,3.044,3.608,2.549,6.013c-0.46,2.236,0.276,2.885,2.331,2.966c1.134,0.045,2.253,0.293,3.37-0.085
	c2.361-0.397,4.75-0.695,6.891-1.892c1.452-1.004,2.832-2.204,4.711-2.256c0.878-0.024,1.971-0.4,2.491,0.753
	c0.429,0.95,0.194,1.898-0.429,2.654c-1.865,2.262-3.853,4.4-6.363,5.99c-2.657,1.683-5.453,3.105-8.288,4.446
	C51.449,35.54,51.624,36.444,52.78,37.555z"/>
<path style="fill:#2CAEBF;" d="M27.887,58.947c1.361-0.047,2.722-0.095,4.084-0.142c6.765,0.728,13.506,0.83,20.249-0.373
	c8.435-1.505,16.882-2.911,24.507-7.165c2.183,1.86,2.145,3.262-0.47,4.555c-5.048,2.497-10.212,4.731-15.747,6.006
	c-1.236,0.285-3.653-0.347-3.308,1.751c0.341,2.073,2.429,1.771,4.135,1.195c0.479-0.162,1.012-0.165,1.52-0.241
	c0.426,0.403,0.851,0.807,1.277,1.21c-1.164,1.229-2.702,1.019-4.122,0.932c-12.821-0.787-25.471-2.826-38.057-5.312
	c-0.199-0.039-0.379-0.17-0.566-0.266c-0.962-1.027-1.136-1.774,0.641-1.891C23.979,59.079,25.955,59.498,27.887,58.947z"/>
<path d="M21.588,60.694c6.11,0.08,11.899,2.149,17.902,2.89c3.939,0.486,7.946,1.709,11.793,1.322
	c4.432-0.446,8.514,1.762,12.849,0.839c2.542,1.29,4.862-0.137,7.261-0.592c1.48-0.281,3.235-1.21,3.108,1.681
	c-0.061,1.374,1.312,1.129,2.135,1.267c2.056,0.346,4.139,0.526,6.206,0.812c1.259,0.174,2.088,0.89,2.405,2.149
	c0.116,0.459-0.025,0.862-0.446,1.031c-0.239,0.096-0.755,0.061-0.833-0.084c-1.293-2.396-3.596-1.667-5.587-1.821
	c-2.458-0.19-5.087,0.267-6.835-2.182c-0.335-0.47-0.931-0.353-1.453-0.246c-8.375,1.719-16.604-0.53-24.882-1.055
	c-8.646-0.548-17.11-2.59-25.616-4.236c-5.271-1.02-10.565-0.48-15.668,1.316c-0.642,0.226-1.273,0.468-1.696-0.101
	c-0.572-0.771,0.021-1.402,0.614-1.826c1.236-0.883,2.713-1.003,4.173-1.172c1.433-0.166,2.942,0.244,4.293-0.549
	C14.79,59.356,18.243,59.021,21.588,60.694z"/>
<path d="M21.588,60.694c-3.425-0.186-6.85-0.372-10.275-0.558c0.19-0.886,1.604-0.644,1.503-2.058
	c-0.262-3.675,1.411-6.871,3.173-9.957c0.517-0.905,0.954-2.67,2.301-2.002c1.639,0.813-0.055,2.117-0.189,3.218
	c-0.404,0.957-0.484,2.038-1.233,3.02c2.006-1.193,3.419-2.853,5.088-4.202c4.214-1.41,8.474-2.723,12.015-5.583
	c0.493-0.514,1.239-0.159,1.756-0.481c1.485-0.925,2.652-0.542,3.346,0.935c0.715,1.52-0.172,2.632-1.381,3.423
	c-2.46,1.61-5.249,2.58-7.932,3.704c-4.003,1.677-7.608,3.886-10.832,6.821c0.799,0.194,1.572-0.209,2.369-0.134
	c0.927,0.087,1.902-0.032,2.595,0.798c-0.755,1.15-2.217,0.14-3.489,1.308c2.772,0,5.126,0,7.483,0
	c-1.596,0.777-3.29,0.294-4.936,0.423C22.35,59.416,20.609,58.819,21.588,60.694z"/>
<path style="fill:#BBBBCD;" d="M23.892,57.639c-2.399-0.182-4.744,0.374-7.683,0.729c3.729-3.634,7.3-6.497,11.634-8.329
	c2.787-1.178,5.583-2.343,8.326-3.617c1.269-0.589,3.048-1.105,2.517-3.022c-0.525-1.896-2.214-0.991-3.476-0.979
	c-0.413,0.004-0.826,0.099-1.238,0.152c5.26-3.225,7.743-2.771,10.62,1.941c-1.467,0.148-3.886-1.785-4.173,0.582
	c-0.249,2.053,2.379,1.914,4.135,1.924c0.478,0.003,0.955,0.305,1.432,0.471c-1.679,1.362-3.83,1.574-5.765,2.266
	c-6.002,2.148-12.001,4.29-17.998,6.918c-0.242,0.037,0.039,0.592-0.061,0.185c-0.021-0.087,0.082-0.094,0.239-0.171
	c0.849-0.411,1.606-0.395,2.229,0.403C24.384,57.274,24.138,57.457,23.892,57.639z"/>
<path style="fill:#B4B5C6;" d="M52.78,37.555c-1.119-0.249-2.163-0.645-3.205-1.666c3.551-1.927,6.942-3.873,10.43-5.628
	c2.896-1.457,4.715-4.074,7.044-6.136c0.678-0.6,1.378-1.541,0.554-2.46c-0.692-0.771-1.776-0.725-2.621-0.228
	c-1.256,0.738-2.391,1.69-3.949,1.709c1.445-3.244,4.215-3.1,6.918-2.429c2.628,0.652,3.421,3.96,1.61,6.053
	c-1.677,1.939-4.046,2.9-6.198,4.14c-3.152,1.817-6.371,3.519-9.588,5.221C53.147,36.465,52.794,36.857,52.78,37.555z"/>
<path style="fill:#BBB9C9;" d="M53.519,54.557c-1.729,1-3.56,0.66-5.726,0.585c2.603-3.61,6.233-5.57,9.129-8.32
	c4.253-4.039,4.223-4.364-0.846-7.498c-0.255-0.158-0.46-0.397-0.688-0.598c0.727,0.022,1.464-0.024,2.179,0.077
	c2.173,0.308,4.452,0.657,5.186,3.154c0.752,2.562-0.918,3.942-2.82,5.306c-2.93,2.1-5.688,4.44-8.844,6.935
	C52.059,54.341,52.789,54.449,53.519,54.557z"/>
<path style="fill:#B9B8C9;" d="M67.26,63.281c4.852-1.813,9.464-4.146,14.104-6.425c3.003-1.475,3.138-2.277,0.603-4.532
	c-0.77-0.685-1.437-1.486-2.151-2.233c0.9-0.214,1.833-0.696,2.693-0.59c2.226,0.275,4.082,1.656,4.629,3.68
	c0.559,2.07-1.258,3.235-3.018,4.153C78.778,60.119,73.313,62.522,67.26,63.281z"/>
<path style="fill:#ACACBE;" d="M54.142,25.039c-2.321,1.121-4.832,0.416-7.607,1.062c1.486-3.68,2.498-7.037-0.644-9.956
	c2.062-0.113,4.344-0.687,5.528,1.723c1.102,2.244,2.49,4.603-0.714,6.912C52.302,24.9,53.222,24.969,54.142,25.039z"/>
<path style="fill:#B3B4C2;" d="M44.692,18.593c1.149,4.342-0.618,7.045-5.743,8.784c0.74-2.046,1.953-3.824,3.167-5.601
	c-0.382-0.844-0.014-1.421,0.669-1.887c0.371,0.302,0.908,0.937,1.083,0.849C44.711,20.316,44.394,19.315,44.692,18.593z"/>
<path d="M19.431,45.377c1.074-3.094,3.412-5.305,5.831-7.439c0.434-0.383,1.023-0.165,1.398,0.239
	c0.412,0.445,0.327,0.989-0.069,1.392c-2.127,2.169-4.278,4.314-6.42,6.468C19.924,45.817,19.677,45.597,19.431,45.377z"/>
<path style="fill:#B8BAC6;" d="M53.996,40.77c1.152,0.51,1.766,1.18,0.651,2.318c-0.949,0.969-1.984,1.862-2.859,2.892
	c-1.604,1.889-1.85,0.408-2.235-0.829C51.115,43.772,53.355,43.082,53.996,40.77z"/>
<path style="fill:#A9AEB9;" d="M21.956,48.156c-1.921,2.069-3.842,4.137-6.246,6.726c0.359-2.599,1.049-4.213,2.391-5.544
	c0.207,0.502,0.168,1.357,1.123,0.644C20.101,49.327,20.649,48.167,21.956,48.156z"/>
<path style="fill:#B5B7C5;" d="M52.756,27.416c1.498-0.757,3.127-0.724,5.286-1.076c-1.387,1.504-2.534,2.188-4.017,2.289
	C54.73,27.044,53.123,27.879,52.756,27.416z"/>
<path d="M87.181,74.511c-0.099,0.771-0.511,1.356-1.343,1.383c-0.733,0.024-1.082-0.542-1.107-1.216
	c-0.027-0.712,0.352-1.174,1.098-1.208C86.529,73.438,87.006,73.759,87.181,74.511z"/>
<path d="M40.237,22.261c-0.086,0.725-0.558,1.172-1.171,1.205c-0.876,0.048-1.186-0.714-1.271-1.414
	c-0.081-0.673,0.339-1.201,1.059-1.174C39.684,20.91,39.925,21.659,40.237,22.261z"/>
<path d="M42.785,19.89c-0.223,0.629-0.446,1.258-0.669,1.887c-1.057-0.181-2.347-0.438-1.795-1.832
	C40.859,18.586,41.933,19.098,42.785,19.89z"/>
<path style="fill:#2CAEBF;" d="M76.727,51.267c0.625,1.239-0.408,1.241-1.119,1.608c-7.641,3.937-16.024,5.103-24.318,6.666
	c-5.519,1.04-11.052,0.427-16.578,0.55c-1.07,0.024-2.049-0.387-2.741-1.286l0.026,0.001c2.923-0.695,5.947,0.277,8.863-0.53
	c8.214-0.937,16.406-2.006,24.447-4c2.65-0.657,5.317-1.348,7.43-3.188C74.211,49.804,75.423,50.714,76.727,51.267z"/>
<path style="fill:#FBFCFE;" d="M24.63,57.092c-0.922-0.085-1.845-0.17-2.767-0.254c7.629-4.228,15.593-7.522,24.122-9.348
	c0.186-0.031,0.363-0.003,0.53,0.084c0.496,0.646,0.238,1.192-0.295,1.612c-2.065,1.629-4.073,3.272-4.894,5.947
	c-0.305,0.993-1.268,0.876-2.115,0.925c-1.756,0.101-3.539-0.325-5.269,0.265C30.838,56.579,27.734,56.835,24.63,57.092z"/>
<path style="fill:#BBBBCD;" d="M33.942,56.322c3.924-0.19,7.419-0.978,8.882-5.37c0.56-1.683,3.046-1.594,3.692-3.379
	c0.103,0.016,0.29,0.014,0.298,0.05c0.532,2.43-2.758,7.962-5.081,8.435C39.16,56.582,36.551,56.587,33.942,56.322z"/>
<path style="fill:#C5C9D9;" d="M40.86,58.276c-2.899,1.104-5.895,0.578-8.863,0.53C34.917,58.057,37.885,58.11,40.86,58.276z"/>
</svg>
