<?xml version="1.0" encoding="utf-8"?>
<!-- Generator: Adobe Illustrator 17.0.2, SVG Export Plug-In . SVG Version: 6.00 Build 0)  -->
<!DOCTYPE svg PUBLIC "-//W3C//DTD SVG 1.1//EN" "http://www.w3.org/Graphics/SVG/1.1/DTD/svg11.dtd">
<svg version="1.1" id="Layer_1" xmlns="http://www.w3.org/2000/svg" xmlns:xlink="http://www.w3.org/1999/xlink" x="0px" y="0px"
	 width="970px" height="315px" viewBox="0 0 970 315" enable-background="new 0 0 970 315" xml:space="preserve">
<path fill="#2DAEBF" d="M638.443,201.603c0,0,52.957-32.388,57.053-33.405c4.096-1.017,8.605-5.626,15.252-1.108
	c6.647,4.518,10.205,80.761,7.953,85.501c-2.252,4.741-55.482,20.731-59.659,20.573
	C654.865,273.005,638.785,196.903,638.443,201.603z"/>
<g>
	<path fill="#2DAEBF" d="M861.492,178.777c3.862,5.201-59.121-26.206-67.474-22.134c-16.242,7.918,7.392,105.618,10.697,103.754
		s61.049-6.846,67.129-10.724C877.923,245.795,857.289,173.118,861.492,178.777z"/>
	<path d="M892.217,293.193c0.142,1.133,0.708,2.548-1.133,2.69c-1.557,0.142-1.982-1.133-1.982-2.265
		c0-2.124-0.991-3.115-2.548-4.247c-2.124-1.557-2.973-4.106-4.106-6.371c-3.681-7.22-5.663-14.865-8.777-22.368
		c-0.708-0.425-1.133-0.991-1.416-1.84c-2.124-4.53-2.124-4.389-6.937-2.69c-7.928,2.69-16.281,3.822-24.633,4.672
		c-4.53,0.425-8.919,1.274-13.449,0.708c8.636,1.274,17.272,0.991,25.907,0.991c4.106,0,8.211,0.283,12.317-0.991
		c1.982-0.566,4.247-0.566,3.681,2.831c-4.247,2.124-8.777,1.274-13.166,1.416c-1.557,0.142-3.115,0.142-4.53,0.283
		c-8.07,0.708-16.281,1.416-24.209,0c-9.485-1.557-19.112-0.425-28.456-2.407c-1.416-1.557-1.699-3.256-0.425-4.813
		c1.557-1.699,0.142-3.115-0.566-3.398c-2.407-0.849-2.548-2.831-3.115-4.53c-4.672-15.573-8.353-31.287-12.317-47.143
		c-2.407-9.627-4.672-19.254-7.079-28.88c-0.283-0.849-0.425-1.84-0.991-2.548c-0.849-1.133-1.699-2.265-0.991-3.539
		c1.133-1.699,2.265,0.425,3.256,0.283c1.699-0.142,3.964,0,3.822-2.973c-0.142-6.371-0.142-6.512,5.946-8.211
		c3.256-0.849,6.371-1.274,9.202-3.539c2.69-2.124,6.229-0.991,9.344-1.274c0.425,0.708-0.142,1.416-0.708,1.416
		c-2.548,0-2.265,1.416-1.84,2.973c-3.539,2.124-7.645,1.699-11.467,2.69c-6.512,1.416-7.362,2.831-6.371,10.335
		c1.133,9.202,2.69,18.404,4.389,27.465c3.256,17.838,6.229,35.817,11.467,53.372c1.699,5.804,1.699,5.946,8.07,5.946
		c11.75-0.142,23.359-2.407,34.968-4.389c5.804-0.991,11.75-1.699,17.413-3.398c1.274-0.425,2.548-0.142,3.822,0
		c2.973,0.425,3.964-0.708,3.681-3.822c-0.142-1.133-0.566-2.265-0.849-3.398c-3.681-13.166-7.22-26.332-9.627-39.923
		c-0.566-3.256-0.566-6.371-1.133-9.627c-0.142-0.566-0.142-1.274,0-1.982c0.425-2.124,0.708-4.955,3.539-4.672
		c2.973,0.425,2.831,2.973,2.265,5.521c-0.849,3.398,0,6.937,0.566,10.335c3.681,20.811,9.344,41.056,15.997,61.017
		c2.124,6.229,4.247,12.458,7.362,18.263c-0.283-6.512,0.425-13.025,0.708-19.678c0.283-10.901,0-21.943,0.708-32.844
		c0-0.991,0.283-1.982,0.566-2.973c0.566-1.84,1.416-3.539,3.681-3.115c2.124,0.283,3.539,1.557,3.681,3.822
		c0.283,3.681,0.425,7.503-0.141,11.184c-0.849,5.097-0.425,9.768,2.69,14.016c0.849,1.133,1.133,2.548,1.416,3.964
		c1.699,9.485,5.663,18.121,10.052,26.615c2.407-5.097,2.69-10.618,3.115-16.139c0.849-9.768,2.548-19.395,3.681-29.022
		c0.283-1.982,0.283-4.106,0.566-6.088c1.133-6.229,2.407-12.317,2.265-18.687c0-1.274-0.142-2.831,0.708-3.681
		c3.256-2.69,1.274-4.672-0.566-6.937c-1.133-1.416-2.265-2.831-2.831-4.672c-0.708-1.982-0.142-3.681,1.699-4.53
		c1.699-0.849,2.973,0.283,3.822,1.557c7.079,10.476,16.422,18.263,26.898,24.916c1.982,1.133,4.106,1.699,6.512,1.699
		c2.831,0,4.389,1.274,3.398,4.389c-2.548,1.274-5.096,1.84-7.503,0.283c-5.804-3.822-12.317-6.371-17.979-10.476
		c-2.973-0.283-5.096-2.265-7.503-4.247c-2.124,4.247-1.699,8.777-2.265,12.883c-1.416,13.449-3.964,26.757-5.238,40.206
		c-0.425,4.672-1.133,9.202-1.274,13.874c-0.142,2.973-0.283,5.946-3.115,7.928c-0.283,0.991-0.425,1.982-0.991,2.831
		c-0.849,1.699-1.699,2.124-3.256,0.283c-4.813-5.238-7.22-11.609-9.768-17.979c-0.566-1.274-1.133-2.548-1.557-3.822
		c-2.407-1.699-2.548-4.672-4.106-7.22c-0.991,7.362-1.557,14.44-1.699,21.519C892.641,285.548,891.509,289.229,892.217,293.193z"/>
	<path d="M650.555,239.679c1.982,8.777,5.097,17.272,7.928,25.766c1.133,3.256,2.548,4.389,6.371,3.115
		c10.476-3.398,21.094-6.371,31.429-10.335c6.512-1.557,13.025-3.256,19.395-5.521c1.416-0.566,2.831-0.991,4.389-1.274
		c5.521-1.416,5.804-1.416,5.238-7.362c-0.991-11.75-2.407-23.642-3.398-35.393c-1.133-12.6-1.84-25.2-0.566-37.799
		c0.283-2.407-1.274-3.115-2.548-4.247c-6.937-0.708-14.016-0.849-20.952,0.142c-0.991,0.425-1.84,0.991-2.973,0.849
		c-5.097-0.708-8.636,2.265-12.458,5.097c-9.768,6.937-19.961,13.166-30.155,19.395c-0.425,0.283-0.991,0.425-1.274,0.708
		c-4.106,3.539-8.494,4.955-13.591,2.548c-1.133-1.699-0.142-2.124,1.274-2.69c19.112-7.928,36.101-18.97,51.249-32.986
		c0.849-1.416,2.124-2.548,3.539-3.398c3.256,0.425,5.804,2.265,8.07,4.389c0.708,2.548,2.407,3.256,5.097,3.256
		c4.672,0,9.202,0.283,13.874,0.425c1.416,0,3.115,0.708,3.822-1.557c0.283-0.849,1.274-0.708,1.982-0.283
		c1.416,0.708,1.982,2.124,1.84,3.539c-0.142,1.133-0.708,2.265-0.849,3.398c-0.142,0.849-0.708,2.124,0.708,2.69
		c1.274,0.425,1.699-0.708,2.407-1.416c0.283-0.142,0.708-0.425,0.991-0.283c1.84,1.274,3.539,7.362,2.69,9.202
		c-3.964,8.353-4.389,17.413-3.964,26.474c0.425,7.928,0.708,15.856,1.133,23.925c0.283,5.38,1.416,10.476,2.548,15.573
		c0.708,2.831,3.822,1.557,5.804,1.982c1.133,0.142,2.548,0.566,2.407,1.84c-0.283,1.557-2.124,0.849-3.256,1.274
		c-6.088,3.115-6.229,3.256-5.521,10.335c0.142,1.133,0.283,2.265,0,3.398c-0.708,2.407-1.982,3.822-4.53,2.265
		c-2.124-1.133-4.106-1.133-6.371-0.849c-15.29,1.982-30.579,4.247-45.869,6.229c-1.699,0.283-3.115,0.991-4.672,1.84
		c-0.991,0.566-2.124,1.274-2.973-0.283c0-1.416,0.283-2.973-2.124-1.84c-2.124,0.991-4.389,1.557-6.512,2.407
		c-1.557,0.566-3.115,0.425-4.389-0.566c-1.274-1.133-0.142-1.982,0.425-2.973c0.283-0.425,0.142-0.991,0-1.416
		c-2.548-7.645-5.238-15.29-8.07-23.642c-2.407,13.591-4.53,26.332-6.654,38.932c-0.425,2.124-1.133,4.247-1.133,6.512
		c-0.142,3.398-1.416,3.964-4.106,2.124c-0.849-0.991-1.133-2.124-0.849-3.256c2.973-13.591,3.256-27.606,6.088-41.197
		c0.849-3.398,1.557-6.795,2.831-9.91c0.425-0.991,0.708-1.982,0.283-2.973c-1.274-2.973-1.274-6.088-1.416-9.344
		c-1.416-6.795-2.973-13.591-4.389-20.386c-0.425-1.699-0.566-3.539,0-5.38c0.283-0.991,0.991-1.557,1.982-1.133
		c0.849,0.283,1.699,0.849,1.274,1.982c-1.416,3.398,0.566,6.512,0.991,9.627c0.991,0.849,0.991,1.84,0.566,2.973
		c0.566,4.813,1.699,9.485,3.115,14.015c2.548,1.982,2.831,4.955,2.973,7.786C650.414,237.272,649.989,238.546,650.555,239.679z"/>
	<path d="M668.393,149.781c4.53,1.699,9.485,2.265,13.874,4.53c-0.142,0.283-0.142,0.708-0.283,0.991
		c-5.238-1.133-10.618-2.265-15.856-3.256c-2.548-0.566-5.238,0-7.928-0.849c-1.982-0.708-3.681,0.849-5.238,1.84
		c-8.07,5.238-16.705,9.344-26.615,9.91c-3.681,0.283-7.503,0.849-11.184,0.708c-1.416,0-4.247,0.425-3.398-2.973
		c0.283-1.274-1.416-1.133-2.124-1.416c-17.413-5.804-27.606-23.076-23.501-40.914c2.973-12.883,11.609-21.236,23.784-25.907
		c1.557-0.566,3.398-1.274,5.097,0.849c-8.636,1.982-15.148,7.079-20.528,13.732c-5.521,6.654-7.503,14.44-6.654,23.076
		c1.416,14.299,11.892,25.624,26.191,28.173c4.955,0,9.91-0.142,14.723-1.274c3.256-0.708,6.371-1.84,9.485-2.69
		c14.016-4.813,24.209-13.166,27.465-28.597c1.133-5.097-0.708-9.91-0.425-14.865c-3.822-10.052-9.91-18.263-19.961-23.218
		c-0.991-0.425-1.84-0.849-2.69-1.557c-0.708-0.849-1.699-1.982-0.708-3.115c0.849-0.991,2.407-0.849,3.681-0.566
		c1.699,0.283,3.256,1.557,4.955,1.982c1.274,0.566,2.548,0.991,3.822,1.557c7.503,3.681,11.184,10.476,13.874,17.838
		c2.831,7.22,4.813,14.865,2.548,22.651c-1.699,5.804-3.681,11.467-7.362,16.422c-2.265,2.973-2.124,3.256,1.274,4.53
		C666.128,148.083,667.402,148.649,668.393,149.781z"/>
	<path d="M908.497,81.403c0-0.142,0.142-0.283,0.142-0.566c4.672-2.265,8.777,0.283,12.741,1.982
		c6.654,2.831,13.025,6.371,18.263,11.609c0.566,0.566,0.991,1.133,1.274,1.84c1.274,1.982,2.69,4.106,3.964,6.088
		c2.69,4.389,3.681,9.202,2.973,14.44c-0.566,4.389-1.416,8.494-2.69,12.741c-2.973,9.627-8.777,16.847-16.564,22.793
		c-1.982,1.416-2.831,2.69-0.991,4.955c1.557,1.982,2.407,4.53,3.539,6.795c-0.425,2.831-2.124,2.548-3.681,1.274
		c-1.274-1.133-2.407-2.69-4.106-3.398c-0.425-0.142-0.708-0.425-0.991-0.708c-2.124-3.256-4.672-3.539-8.353-2.69
		c-12.317,3.256-24.492,3.398-36.384-1.84c-4.389-1.84-8.353-4.53-12.458-7.079c-1.982-1.274-3.964-2.973-4.672-5.521
		c-0.142-1.133,0-2.124,1.133-2.69c3.964,0.425,6.512,3.539,9.768,5.238c15.29,8.353,31.004,10.052,47.285,3.398
		c9.627-3.964,16.847-10.476,20.103-20.669c1.699-6.937,4.955-13.591,2.548-21.094c-1.699-5.097-4.389-9.485-8.919-12.741
		c-5.521-3.964-11.043-7.503-17.838-8.919c-2.124-0.425-4.247-0.991-5.946-2.548C908.214,83.385,907.789,82.535,908.497,81.403z"/>
	<path fill="#B3B4C9" d="M669.243,273.656c0.142,0,0.283,0.142,0.283,0.142c6.937-4.247,15.006-3.539,22.651-4.813
		c10.476-1.699,21.094-2.973,31.712-4.247c1.982-0.283,4.247-1.274,5.804,1.416c0.566,0.991,1.982,0.425,2.407-0.708
		c0.425-1.274,1.133-2.69,0.425-4.106c-0.566-1.133-0.566-2.265-0.566-3.398c-0.142-6.088,0.849-7.079,7.078-7.22
		c0.425,1.982,1.274,3.964,1.274,5.946c0,2.548,0.849,4.53,2.407,6.229c1.699,1.84,2.124,3.681,0.991,5.946
		c-1.133,2.407-3.256,2.69-5.521,2.69c-6.512-0.142-13.166-0.283-19.678-0.142c-12.175,0.283-23.784,3.964-35.393,6.937
		c-3.539,0.849-6.795,2.124-10.476,2.69c-3.822,0.566-4.813-0.283-3.964-3.822C668.959,275.921,669.243,274.788,669.243,273.656z"/>
	<path d="M697.274,137.04c4.389-0.566,8.777-0.991,13.166-0.566c-0.283,2.265-1.982,1.557-2.973,1.84
		c-3.964,0.991-8.07,1.84-12.034,2.831c-2.407,0.566-3.539-0.425-3.398-2.69c0-1.982,0.425-3.822,0.566-5.804
		c0.142-1.133,0-2.69,1.557-2.548c1.416,0.142,1.557,1.557,1.416,2.69c0,0.283,0.142,0.708,0.142,1.416
		c6.795-5.38,13.449-10.335,20.528-14.865c11.326-7.362,23.218-13.449,37.092-14.157c8.353-0.425,16.422,1.133,24.492,3.398
		c13.874,3.822,27.606,8.636,40.631,14.865c3.115,1.416,5.663,3.539,8.211,5.804c0.708,0.708,1.416,1.416,0.566,2.265
		c-0.708,0.708-1.416-0.142-1.982-0.425c-17.13-11.326-36.667-16.847-56.345-21.377c-11.75-2.69-23.359-1.416-34.402,3.398
		C720.774,119.061,709.024,127.98,697.274,137.04z"/>
	<path fill="#B7B8CD" d="M931.007,164.646c-2.69-3.115-3.256-7.503-7.079-9.768c17.838-10.901,27.748-33.552,21.094-52.381
		c4.813,3.822,4.955,9.627,6.088,14.865c2.973,15.148-3.256,26.898-14.44,36.525c-1.274,1.133-1.982,2.265-1.416,3.964
		c1.699,4.813,3.115,9.768,4.955,14.582c1.982,4.955,2.973,10.335,4.672,15.29c-1.274,0.142-1.84-0.708-2.407-1.699
		c-3.539-6.229-6.795-12.6-10.618-18.687C931.432,166.628,931.29,165.637,931.007,164.646z"/>
	<path fill="#C6C8DB" d="M739.886,247.465c-2.265,0.425-4.955,1.84-6.654,0.991c-1.84-0.708-0.425-3.822-0.849-5.804
		c-3.256-18.263-4.389-36.667-1.982-55.213c0.425-2.973,0.849-6.088,3.115-8.494c0.283-0.283,0.425-0.708,0.566-0.991
		c-2.69-1.699-0.849-5.663-3.681-7.22c2.124-1.416,4.53-2.548,6.795-0.991c2.265,1.699,1.416,4.389,0.991,6.795
		c-2.265,12.741-2.548,25.483-2.407,38.366c0.142,10.193,1.416,20.245,2.407,30.296
		C738.329,246.474,738.612,247.182,739.886,247.465z"/>
	<path fill="#B5B7CC" d="M668.393,149.781c-2.831-0.566-6.371-0.991-7.645-3.115c-1.416-2.548,2.407-4.247,3.681-6.371
		c7.078-12.317,8.353-24.775,2.265-37.941c-2.973-6.371-6.654-11.892-12.175-16.139c6.795,2.265,11.467,7.362,15.431,12.883
		c4.955,6.795,8.07,14.723,9.202,22.934c1.133,9.627-2.548,18.121-9.202,25.2C669.101,147.799,668.252,148.507,668.393,149.781z"/>
	<path d="M802.461,157.426c-0.708-1.557-3.822,0.142-3.539-1.982c0.283-2.124,2.831-0.849,4.247-1.133
		c0.708-0.142,1.274-0.283,1.557-0.991c9.344-4.53,19.537-5.946,29.73-7.362c6.654-0.849,13.308-1.274,19.961-1.84
		c1.557-0.991,2.831-0.566,3.256,1.133c0.425,1.699-1.133,1.982-2.407,2.124c-1.699,0.283-3.256,0-4.955,0.425
		c-9.91,0.849-19.678,1.699-29.447,3.964c-1.274,0.283-2.548,0.425-3.964,1.416c2.265,2.265,5.096,3.256,7.362,4.813
		c11.892,6.088,23.925,11.892,37.092,14.723c1.557,0.425,3.256,0.566,4.672,1.133c1.557,0.991,2.548,2.407,1.557,4.247
		c-1.133,2.124-3.256,1.982-5.097,1.557c-7.645-1.416-15.006-4.106-22.085-6.937c-11.609-4.813-22.651-11.326-35.11-13.732
		C804.301,158.984,803.169,158.559,802.461,157.426z"/>
	<path fill="#B8BBCF" d="M849.604,147.233c1.557-0.849,3.256-0.283,4.813-0.566c0.991-0.142,2.69,0.708,2.69-0.991
		c0-1.557-1.699-0.991-2.69-1.274c-0.142-2.548-0.283-5.097,1.699-7.079c3.256,1.274,4.53,3.964,5.238,7.22
		c8.777,9.061,19.395,14.299,31.853,15.431c7.786,0.708,15.431,0.142,22.793-2.69c4.389-1.557,5.521,1.557,7.362,4.247
		c-2.69,3.115-6.512,3.681-10.051,4.389c-13.732,2.831-27.04,1.557-39.64-5.097c-5.804-3.115-11.609-6.088-16.281-10.759
		c-1.133-0.991-2.407-1.416-3.822-1.557C852.01,148.366,850.595,148.649,849.604,147.233z"/>
	<path d="M598.74,256.526c-3.115-5.238-2.265-10.335-4.106-15.431c-3.539,7.645-5.238,15.431-6.654,23.076
		c-0.849,4.955-2.124,9.91-0.708,14.865c0.283,0.991,0.283,2.548-1.557,2.548c-1.416,0-1.699-1.274-1.84-2.548
		c-0.708-8.07,0.849-15.997,2.69-23.784c1.133-5.097,1.699-10.901,4.672-15.007c3.964-5.521,2.69-11.184,2.407-16.847
		c-0.708-18.546-1.274-37.092,1.982-55.496c0.566-2.973,1.416-5.804,2.265-8.636c0.283-0.991,0.849-2.124,2.124-1.699
		c1.416,0.425,1.133,1.557,0.849,2.548c-8.07,31.287-4.672,62.716-2.265,94.145C598.882,254.685,598.882,254.969,598.74,256.526z"/>
	<path fill="#C3C4D8" d="M642.91,248.173c-1.557,12.317-3.256,24.633-4.813,37.092c-0.283,2.69-2.265,4.955-1.416,7.786
		c-0.849,0.142-1.84-0.142-2.407,0.849c-3.822-2.407-3.539-6.371-4.389-10.052c2.973-11.184,5.663-22.368,6.937-33.977
		c-3.822,4.955-8.777,8.777-12.6,13.874c-2.69-2.407-3.822-10.193-1.557-12.741c2.124-2.407,4.247-4.813,6.937-6.654
		c3.539-1.416,7.079-1.416,10.618-0.566C642.91,244.351,643.901,245.625,642.91,248.173z"/>
	<path d="M931.007,164.646c4.53,6.229,7.645,13.166,11.609,19.678c0.708,1.133,1.133,2.548,2.265,3.539
		c5.804,11.326,11.609,22.51,17.413,33.835c1.133,2.124,1.557,3.539-1.84,2.548c-1.84-1.416-3.256-3.115-5.663-3.822
		c-1.557-0.425-2.265-2.265-2.973-3.822c-6.795-14.016-14.44-27.465-21.802-41.197c-0.849-1.416-1.699-2.831-2.831-4.106
		c-0.991-3.256-3.681-5.946-3.256-9.768c1.699,0.425,2.831,1.416,3.681,2.831C928.459,165.637,929.733,166.77,931.007,164.646z"/>
	<path fill="#C4C6DA" d="M914.302,286.114c1.416-1.84,1.699-4.106,1.84-6.229c1.133-16.564,3.681-32.986,5.946-49.408
		c0.991-7.079,1.133-14.44,2.973-21.66c2.973,2.265,5.663,4.389,8.494,6.512c-2.69,1.274-2.265,4.106-2.831,6.371
		c-2.831,11.75-5.804,23.359-8.353,35.251c-1.699,7.928-3.115,15.856-2.407,23.925C920.248,284.557,917.699,286.256,914.302,286.114
		z"/>
	<path fill="#B6B8CC" d="M637.389,195.509c8.919,2.265,14.44-4.389,20.811-8.211c10.052-5.946,19.961-12.034,29.164-19.254
		c3.115-2.407,6.937-0.849,10.476-1.133c-8.07,8.777-17.555,15.573-28.314,20.811c-6.371,3.115-12.175,6.937-18.687,9.768
		c-3.681,1.699-7.079,2.407-10.193-0.425C639.654,196.075,638.097,196.924,637.389,195.509z"/>
	<path d="M629.886,245.059c-0.566,0.566-0.991,1.133-1.699,1.557c-6.371,4.53-6.654,10.476-4.106,17.13
		c1.133,0.708,1.416,1.84,1.699,2.831c1.416,4.672,2.69,9.344,4.389,13.874c0.425,1.133,0.425,2.265,0.142,3.398
		c1.274,3.398,1.557,7.079,3.822,10.193c0.283,2.407-1.133,1.699-1.982,0.849c-1.274-1.416-2.407-2.831-2.973-4.813
		c-2.548-8.353-5.38-16.564-8.07-24.916c-0.425-0.283-0.708-0.708-0.991-1.133c-2.124-4.955-2.124-4.955-5.804-1.274
		c-4.106,4.106-7.645,8.777-11.892,12.741c-2.124,1.982-4.247,3.681-7.079,4.53c-0.991,0.425-1.982,1.133-3.115,1.416
		s-2.548,0-2.831-1.274c-0.425-1.699,1.133-1.274,1.982-1.557c2.124-0.849,3.398-2.831,4.955-4.106
		c11.184-9.061,20.103-20.245,30.013-30.721c3.822-3.964,7.22-8.353,11.609-11.75c1.416-0.708,2.407-0.566,3.115,0.991
		c0.708,1.416-0.142,2.548-1.133,3.398C636.823,239.254,633.425,242.227,629.886,245.059z"/>
	<path fill="#CECFDF" d="M731.675,173.565c3.398-0.283,4.389,0.425,3.539,4.389c-1.699,7.786-1.133,15.714-0.425,23.642
		c1.416,16.139,2.973,32.278,4.672,48.417c0.283,2.124-0.283,2.69-2.124,3.115c-2.831,0.566-5.521,1.982-8.494,1.982
		c0.283-0.708,0.849-0.708,1.416-0.991c6.371-2.265,6.654-2.265,5.804-8.919c-1.274-9.768-2.831-19.537-3.398-29.305
		c-0.425-7.22-0.142-14.582-0.566-21.802C731.675,187.156,731.958,180.361,731.675,173.565z"/>
	<path d="M861.354,144.402c-1.274-2.69-3.539-4.813-5.238-7.22c-7.503-11.609-9.344-23.784-2.124-36.101
		c8.07-13.449,19.82-21.236,36.101-21.236c6.229,0,12.317,1.133,18.404,1.557c0.283,0.849,0.566,1.699,0.708,2.548
		c-0.849,0.849-1.84,0.849-2.973,0.849c-7.503-1.982-15.148-0.991-22.51-0.283c-14.016,1.274-33.128,17.413-30.721,36.667
		c0.708,5.946,3.256,11.043,6.512,15.856c0.991,1.557,2.69,2.831,2.69,4.955C861.213,142.42,861.496,143.411,861.354,144.402z"/>
	<path fill="#D3D5E4" d="M927.892,170.734c3.115,3.115,4.53,7.362,6.654,11.184c6.512,11.75,13.025,23.642,18.829,35.817
		c0.708,1.416,1.274,2.831,3.539,2.831c1.699,0,2.265,2.407,3.398,3.681c-0.425,0.566-0.991,0.991-1.416,1.557
		c-0.142-2.548-0.708-4.106-3.964-3.256c-2.124,0.566-4.389-0.849-6.371-2.124c-0.991-3.115-3.681-4.955-5.096-7.645
		c-4.672-8.636-8.636-17.555-12.034-26.757c-1.133-3.256-2.831-6.371-3.822-9.768C927.185,174.273,926.477,172.433,927.892,170.734z
		"/>
	<path fill="#ACADC3" d="M868.999,264.312c-0.142-2.973-2.124-2.69-3.822-1.84c-1.84,0.991-3.681,0.991-5.663,0.991
		c-10.052,0.142-20.103,0.425-30.155-0.708c-1.84-0.142-3.681-0.566-5.663-1.133c4.672-1.557,9.344-1.133,14.157-1.699
		c8.353-0.991,16.564-1.982,24.775-4.247c2.407-0.708,4.813-1.274,6.512-3.115c1.557-1.557,2.124-0.708,2.548,0.849
		c0.566,2.407,1.274,4.672,1.84,7.079C872.114,261.764,870.132,262.613,868.999,264.312z"/>
	<path fill="#C3C6D9" d="M595.626,279.885c8.07-5.663,13.732-13.732,20.811-20.386c0.849-0.708,1.274-2.265,2.548-1.982
		c1.133,0.283,0.708,1.84,0.991,2.69c0.566,1.557,1.416,2.973,1.274,4.813c-4.813,3.398-8.777,7.786-13.166,11.609
		C604.403,280.168,600.722,282.292,595.626,279.885z"/>
	<path d="M693.168,156.718c-0.849,1.274-1.699,2.548-3.256,2.973c0.142-3.256-2.265-1.416-3.256-1.274
		c-6.088,0.991-12.175,2.124-18.121,3.398c-11.042,2.265-22.368,3.539-33.552,5.38c-0.849,0.142-1.699,0-2.831,0
		c0.991-3.256,4.247-2.124,5.946-3.681c3.115-2.548,6.937-0.425,10.193-1.416c11.467-1.274,22.651-3.681,33.977-5.946
		c3.398-0.708,6.795-1.699,10.052,0.283C692.743,156.294,693.026,156.435,693.168,156.718z"/>
	<path fill="#B7B8CC" d="M648.432,162.24c-3.398,0.849-6.795,1.416-10.193,1.416c-3.822-1.699-7.786-0.142-11.75-0.849
		c10.193-2.407,19.961-5.804,28.314-12.458c0.849-0.708,1.84-0.849,2.973-0.566c2.831,0.708,5.663,1.416,8.494,2.124
		c-3.256-0.283-4.672,2.831-7.079,3.964c-4.53,2.124-9.627,3.256-14.299,5.946C646.167,162.098,647.299,162.098,648.432,162.24z"/>
	<path fill="#B8BACE" d="M892.217,293.193c-1.133-4.247-0.566-8.636-0.425-13.025c0.142-7.079,0.991-14.015,1.416-21.094
		c0-0.708,0.142-1.557,1.133-2.265c1.416,3.539,2.831,7.079,4.106,10.618c-1.84,4.389-0.566,9.061-1.416,13.449
		c-0.425,1.84-0.142,3.822-0.142,5.804c0,0.991,0,2.407-1.416,2.265C892.217,288.804,892.217,290.927,892.217,293.193z"/>
	<path fill="#B7B8CD" d="M643.618,86.216c10.052,3.681,16.281,11.043,20.669,20.386c0.708,1.416,1.274,2.831,0.991,4.389
		c-6.371-7.079-12.458-14.299-21.094-18.687c-3.256-1.699-5.804-3.539-6.088-7.503C640.645,82.818,641.919,85.367,643.618,86.216z"
		/>
	<path d="M765.228,201.313c-7.362-0.142-13.874,1.416-20.528,2.124c-1.84,0.142-3.539,0.425-5.38,0.708
		c-1.133,0.142-2.265,0-2.407-1.274c-0.142-1.416,1.133-1.557,2.124-1.557c5.946-0.708,11.75-1.274,17.696-1.84
		c1.557-0.142,2.973-0.425,4.53-0.708c0.142-0.425,0.283-0.708,0.142-0.849c-0.566-0.991-2.69-1.557-1.557-2.973
		c0.991-1.274,2.265,0.283,3.398,0.708c1.699,0.708,3.256,1.557,4.955,2.265c2.265,0.991,2.407,2.407,0.708,4.106
		c-2.265,2.265-4.389,4.672-6.654,6.937c-0.566,0.708-1.133,1.699-2.124,0.991c-0.991-0.849-0.566-1.982,0-2.69
		C761.547,205.419,763.104,203.72,765.228,201.313z"/>
	<path fill="#AEAFC5" d="M629.886,245.059c2.69-3.539,6.088-6.512,9.485-9.344c0.708-0.566,1.699-1.274,1.416-2.548
		c-0.283-1.416-1.416-1.699-2.69-1.557c0.566-1.416,1.982-1.274,3.115-1.84c1.416-0.708,2.548-1.557,2.407-3.398
		c3.539,7.362,2.265,14.582-0.708,21.802c0-1.699-0.142-2.831-2.548-3.398C636.823,244.068,633.284,244.209,629.886,245.059z"/>
	<path fill="#C2C3D5" d="M798.638,263.746c11.75-0.849,23.359,0.425,34.968,1.84c5.946,0.708,11.892,0,17.696,0.425
		c-4.106,1.274-8.353,1.274-12.458,1.416c-9.061,0.283-18.263,0.142-27.465,0.142c-2.831,0-5.663,0.283-7.786-2.265
		C802.319,263.887,800.054,265.02,798.638,263.746z"/>
	<path d="M643.618,86.216c-1.84-0.283-3.398-1.84-5.521-1.416c-9.202,0.708-18.687-0.142-27.748,6.088
		c2.124-4.106,3.681-5.238,7.362-6.371c4.672-1.416,9.627-1.557,14.44-2.124c3.115-0.283,6.371-0.142,9.627-0.566
		c3.256-0.425,6.371,0.566,8.919,2.831c-1.982,0.425-3.398-1.133-5.097-1.416c-0.991-0.142-2.265-0.566-2.973,0.283
		C641.778,84.659,643.477,85.225,643.618,86.216z"/>
	<path d="M689.77,199.756c-0.991,2.831-2.69,4.53-5.521,4.247c-1.982-0.142-2.69-1.982-2.831-3.681
		c-0.283-2.69,0.991-4.672,3.256-5.946c0.991-0.566,2.407-0.849,3.115,0.425c0.849,1.557-0.283,1.84-1.557,2.265
		c-1.699,0.425-2.548,1.557-2.407,3.398c0.142,0.849,0.566,1.416,1.557,1.416c0.708,0,0.849-0.566,0.991-1.416
		c0.283-2.69,4.389-4.813,6.795-3.681c1.557,0.708,3.822,4.247,4.247-0.991c0.142-0.991,1.274-0.708,1.557,0.142
		c0.566,1.133,1.133,2.407,0.425,3.681c-0.708,1.416-1.982,0.566-3.115,0.566c-0.849,0-1.982-1.274-2.69,0.283
		C691.752,205.56,691.044,201.738,689.77,199.756z"/>
	<path d="M663.58,227.928h-0.283l-0.283,0.283c-1.274,0-2.265-0.425-2.407-1.982c-0.142-1.274,0.849-1.557,1.699-1.699
		c10.335-2.124,20.811-3.539,31.429-3.964c0.283,0,0.849,0,0.708,1.133C684.249,223.54,673.631,224.672,663.58,227.928z"/>
	<path d="M652.962,206.127c-0.283-0.991-0.566-1.982-0.849-2.831c-0.425-3.681,2.548-2.973,4.389-3.256
		c1.982-0.283,3.822-0.142,5.804-1.699c1.699-1.274,4.813-2.973,6.795,0.425v-0.142c-1.84,0.566-3.681,1.133-5.521,1.699
		c-0.142,1.84,3.964,0.142,2.548,2.973c-0.425,0.708,2.265,0.283,1.133,1.699c-0.849,0.991-2.548,1.133-3.256,0.425
		c-3.115-3.256-4.813-0.283-6.795,1.274C655.51,208.109,653.953,209.241,652.962,206.127z"/>
	<path fill="#C0C1D5" d="M638.239,154.453c-7.645,4.247-15.573,6.088-24.209,3.964c1.84-0.283,4.106,0.283,4.389-2.831
		c0.142-1.416,2.124-1.133,3.256-1.133C627.196,154.312,632.717,154.453,638.239,154.453z"/>
	<path fill="#B3B4C1" d="M941.059,96.409c-4.813-4.106-9.768-7.928-15.431-10.759c-5.238-2.69-10.759-4.813-16.847-4.672
		c3.681-3.115,7.22-2.69,11.184-0.142c4.672,2.973,9.627,5.238,14.299,8.211C937.095,90.746,939.926,92.87,941.059,96.409z"/>
	<path d="M683.824,212.356c-0.425-1.133-0.849-2.124-0.991-3.256c-0.142-0.425,0.142-0.991,0.425-1.274
		c0.566-0.566,1.416-0.425,1.699,0.142c1.133,2.124,1.982,1.416,3.256,0.142c0.708-0.708,2.265,0,2.124,0.708
		c-0.849,3.681,1.982,2.69,3.681,2.973c0.566,0.142,0.991,0.142,1.274,1.557c-3.681,0.425-7.22,0.708-10.759,1.133
		C684.532,213.63,683.258,213.347,683.824,212.356z"/>
	<path d="M659.191,215.329c1.133-3.539,2.69-2.265,4.106,0c0.566-0.283,0.849-0.283,0.849-0.425c0.566-0.849-0.708-2.69,1.274-2.548
		c1.133,0.142,1.274,1.557,1.274,2.548c0,1.416-0.425,2.831-1.982,2.69c-1.699-0.142-2.831-0.425-3.681,1.416
		c-0.425,0.849-1.416,0.425-1.982,0c-0.849-0.708-1.699-1.274-2.265-2.124c-0.849-1.274-3.115-2.973-1.557-4.106
		C657.351,211.365,657.209,214.904,659.191,215.329z"/>
	<path d="M683.824,212.356c0.283,0.708,0.425,1.416,0.708,2.124c-2.124-0.142-4.106,1.416-6.229-0.142
		c-0.425-0.283-0.991,0-1.133,0.566c-0.283,1.557-0.708,3.256-2.548,1.416c-1.416-1.416-1.699-3.822-0.283-5.097
		c1.133-1.133,3.539-5.38,5.097,0.283C680.002,213.488,682.267,212.639,683.824,212.356z"/>
	<path d="M669.101,198.765c0.708-0.708,1.416-1.416,2.407-1.982c1.133-0.708,2.69-0.991,3.539,0.142
		c1.416,1.84-1.274,1.699-1.699,2.69c0.849,1.274,3.681,0.142,3.398,2.548c-0.142,1.557-1.699,2.124-3.115,2.407
		c-0.425,0.142-0.991-0.142-1.416-0.283C673.207,201.313,669.243,201.03,669.101,198.765
		C669.243,198.623,669.101,198.765,669.101,198.765z"/>
	<path d="M667.685,213.63c0-1.699,0.283-2.831,2.124-2.69c2.265,0.142,3.256,1.557,3.256,3.539c0,1.557-0.708,2.973-2.407,2.831
		C668.252,217.169,668.11,215.046,667.685,213.63z"/>
	<path fill="#ADADBF" d="M650.555,239.679c-1.416-3.822-1.274-7.928-3.256-11.467c3.681,0.708,5.097,3.115,4.672,6.795
		C650.555,236.281,650.838,238.122,650.555,239.679z"/>
	<path fill="#ACAAB9" d="M693.168,156.718c-0.283,0-0.566,0-0.849,0c3.964-2.973,8.494-0.991,9.202,4.106
		C698.406,160.258,696.283,157.426,693.168,156.718z"/>
	<path d="M680.144,204.286c-2.69-1.84-2.831-4.106-2.548-6.371c0-0.566,0.991-0.566,1.274-0.283
		C680.851,199.331,680.285,201.596,680.144,204.286z"/>
	<path d="M648.29,121.892c-0.142,1.133-0.849,1.557-1.84,1.416c-1.133-0.142-1.982-0.708-1.982-1.982s0.991-1.274,1.84-1.274
		C647.441,120.052,648.29,120.618,648.29,121.892z"/>
	<path d="M636.54,125.007c-0.142,0.991-0.708,1.699-1.699,1.557c-0.991-0.142-1.982-0.566-2.124-1.84
		c-0.142-1.133,0.708-1.416,1.699-1.416C635.832,123.308,636.398,123.732,636.54,125.007z"/>
	<path fill="#C1C3D5" d="M865.884,173.698c3.115,0.708,4.106,3.256,4.672,5.804c0.566,2.831-1.982,4.672-4.955,4.389
		c-5.804-0.566-10.476-3.822-15.714-6.088c-10.193-4.53-20.103-9.768-30.862-12.741c-9.344-2.548-18.546-3.946-28.314-4.371
		c3.964-0.708,7.786-3.416,11.75-4.265c13.024,2.124,24.633,8.211,36.384,13.591c7.786,3.539,16.139,5.946,24.492,8.07
		c1.416,0.425,2.831,0.708,3.822-0.849C868.15,175.538,866.734,174.689,865.884,173.698z"/>
	<path fill="#CED3E1" d="M909.347,285.406c1.416-1.557-0.142-3.115,0-4.672c0.142-6.229,1.133-12.175,1.982-18.263
		c1.557-10.193,4.672-19.961,5.946-30.013c0-0.425,0.566-0.849,0.708-1.274c-1.133,9.627-2.265,19.395-3.539,29.022
		c-0.991,7.786-1.133,15.573-3.398,23.218c-0.283,0.991,0.283,2.548-1.416,2.548c-0.142,0-0.142-0.142-0.283-0.283
		C909.347,285.548,909.347,285.548,909.347,285.406z"/>
	<path fill="#F2F1F3" d="M787.879,216.461c-1.699-6.654-3.681-13.308-5.238-19.962c-1.699-7.079-3.115-14.299-4.813-21.519
		c-0.425-1.699-0.425-3.256,1.557-3.539c2.265-0.425,1.699,1.699,1.84,2.69c1.84,13.449,4.672,26.615,7.079,40.065
		c0.142,0.708,0,1.557,0,2.265C788.162,216.461,788.021,216.461,787.879,216.461z"/>
	<path fill="#AEAFC4" d="M701.379,261.198c7.645-2.69,15.29-5.38,23.218-6.795c0.991-0.142,2.69-0.991,2.69,0.991
		c-0.142,1.557,0.849,3.964-1.84,4.389C717.377,260.914,709.449,261.339,701.379,261.198z"/>
	<path fill="#AFB3C3" d="M726.012,192.253c-0.708-5.946-0.425-10.901,0.283-15.997c0.142-1.133,0.283-2.69,1.84-2.265
		c1.416,0.425,0.566,1.699,0.425,2.69C727.853,181.635,727.003,186.448,726.012,192.253z"/>
	<path fill="#8D8FA1" d="M699.114,163.655c-2.124,0-3.822,0-5.38,0c-0.708,0-2.124,0.283-1.84-1.133
		c0.142-0.849,0.991-1.557,1.982-1.274C695.575,161.532,697.415,161.956,699.114,163.655z"/>
	<path fill="#FFFFFF" d="M862.345,141.853c-5.521-6.229-9.627-13.308-10.476-21.802c-1.557-14.582,10.618-28.314,22.227-33.694
		c6.229-2.831,12.6-3.539,19.537-3.256c4.247,0.142,8.494-0.142,12.741,0.849c0.708,0.849,1.84,0,2.407,0.849
		c2.973,4.389,7.928,5.521,12.317,7.786c4.53,2.265,8.494,5.38,11.326,9.202c6.088,8.211,10.476,17.272,7.362,28.031
		c-3.681,12.458-12.883,19.254-24.492,23.076c-17.838,5.804-34.26,2.124-49.55-8.353
		C864.469,143.694,863.478,142.703,862.345,141.853z"/>
	<path fill="#BCBDD2" d="M939.643,129.678c-0.142-4.53,0.566-9.061-0.849-13.449c-3.256-9.485-8.211-17.838-17.696-22.51
		c-3.115-1.557-6.088-3.115-9.344-4.53c-2.69-1.133-2.831-4.53-5.38-5.521c0.991,0,1.982,0.142,2.973,0.142
		c2.69,0.849,5.238,2.124,7.928,2.548c7.645,1.416,13.449,6.229,19.112,11.184c5.096,4.53,7.362,10.901,6.937,17.696
		C942.899,120.335,941.483,125.148,939.643,129.678z"/>
	<path fill="#FDFEFF" d="M630.452,283.707c-2.69-6.512-4.53-13.166-6.229-20.103c0.283-0.991,0.142-2.407,0.708-2.831
		c4.672-3.822,8.07-8.919,12.741-13.308c1.274,3.115,0,5.804-0.425,8.353c-1.557,8.636-3.681,17.272-5.521,25.907
		C631.585,282.575,630.877,283.141,630.452,283.707z"/>
	<path fill="#2DAEBF" d="M659.191,201.738c-0.849,1.84-1.84,3.398-3.681,3.539c-0.849,0-1.274-1.416-0.991-2.265
		C655.369,200.605,657.492,201.738,659.191,201.738z"/>
	<path d="M837.712,209.949c-9.485,0.708-18.971,1.416-28.456,3.115c-0.991,0.142-2.407,1.133-2.831-0.708
		c-0.425-1.982,0.991-2.407,2.548-2.548c6.937-0.566,13.874-1.274,20.811-1.84c4.955-0.283,9.768-0.425,14.723-0.566
		c1.133,0,3.115-0.425,3.256,1.274c0,1.982-1.84,1.133-2.973,1.133C842.384,209.949,839.977,209.949,837.712,209.949z"/>
	<path d="M820.723,193.668c0.425,0.142,1.416,0.142,1.84,0.566c1.557,1.982,2.973,0.991,4.672,0.142
		c1.274-0.708,3.115-2.124,3.681,0.283c0.425,2.124,4.813,3.398,1.416,6.371c-2.124,1.84-4.106,0.991-5.521-0.142
		c-1.416-1.274-1.699-1.557-2.973,0c-1.982,2.265-3.256,1.699-4.106-1.274c-0.283-0.849,0.283-2.124-1.133-2.69
		c-1.274-0.566-0.991-1.699-0.566-2.548C818.6,193.527,819.591,193.527,820.723,193.668z"/>
	<path d="M845.074,199.897c-1.274,1.416-2.548,0.708-4.106,0.425c-1.557-0.283-3.256-3.256-5.096-0.283
		c-0.283,0.425-0.991,0.142-1.274-0.425c-0.849-1.982-0.991-4.106,0.283-5.663c1.133-1.274,2.973-0.991,3.822,0.566
		c1.133,2.124,1.699,0.283,2.407-0.283c0.991-0.849,2.124-1.416,2.973-0.142c0.991,1.274-0.142,1.699-1.133,2.548
		c-2.124,1.84,0.142,1.557,1.133,1.982C845.498,198.34,845.64,198.906,845.074,199.897z"/>
	<path d="M813.645,199.756c1.133,0.283,2.124,0.283,2.548,0.708c0.566,0.566-0.141,1.133-0.708,1.416
		c-0.991,0.708-1.982,1.416-3.115,0.708c-1.84-1.133-2.265-2.973-2.265-4.955c0-1.982,1.274-3.115,2.973-3.539
		c1.133-0.283,2.831-0.849,3.398,1.133C817.184,198.482,817.184,198.482,813.645,199.756z"/>
	<path d="M845.074,199.897c0-0.708-0.283-1.133-0.849-1.557c0.991-0.566,2.548-0.425,2.407-2.407
		c-0.141-1.133-0.425-3.256,0.991-3.256s2.69,1.699,3.964,2.69c0.142,0.142,0.142,0.566,0.142,0.708
		c-0.566,1.982,3.964,2.407,1.982,3.822c-1.274,0.849-4.672,1.416-6.795-0.566C846.065,198.906,845.64,199.756,845.074,199.897z"/>
	<path d="M809.539,195.65c-0.142,0.283-0.142,0.566-0.283,0.708c-3.256,0.566-1.982,2.548-1.557,4.389
		c0.283,1.557-1.133,1.982-3.256,1.274c-1.274-0.425-2.265-1.133-2.548-2.69c-0.142-1.274,0-2.407,1.133-2.973
		c1.557-0.849,3.398-1.416,5.096-1.84C808.831,194.235,809.681,194.659,809.539,195.65z"/>
	<path d="M801.187,196.075c-1.982,1.699-4.53,0.849-5.238,3.256c1.416,1.133,3.822-0.566,4.955,1.416
		c-0.566,1.84-4.389,0-3.681,3.256c0.142,0.425-0.849,0.283-1.133-0.142c-1.557-1.982-2.973-4.247-1.699-6.654
		C795.807,195.084,798.214,194.942,801.187,196.075z"/>
	<path d="M881.174,127.555c-0.283,0.991-0.566,1.84-1.699,1.84c-1.274,0-2.265-0.425-2.548-1.699
		c-0.283-1.133,0.283-2.124,1.557-1.982C879.758,125.856,880.749,126.422,881.174,127.555z"/>
	<path d="M891.792,128.829c1.133,0.142,2.265,0.566,2.265,1.982c0,1.133-0.708,1.982-1.982,1.84s-1.982-0.991-2.124-2.265
		C889.952,128.971,890.659,128.687,891.792,128.829z"/>
</g>
<path fill="#2DAEBF" d="M466.796,28c0,0-14.796,48.691-13.13,51.845c1.667,3.155,5.593,10.264,13.13,11.043
	c7.537,0.779,7.804-4.07,7.804-4.07L466.796,28z"/>
<ellipse fill="#2DAEBF" cx="347.192" cy="237.405" rx="26.446" ry="14.596"/>
<ellipse fill="#2DAEBF" cx="196.446" cy="232.775" rx="26.446" ry="13.275"/>
<path fill="#2DAEBF" d="M34.298,83.951l68.914-3.398V40.898c0,0-20.039-4.472-23.241,0s-1.078,10.104-1.078,10.104
	s-18.23,0.742-21.404,4.21C54.314,58.68,56.1,67.254,56.1,67.254s-15.535-8.078-18.739-0.999
	c-3.204,7.079-4.761,15.714-4.761,15.714"/>
<g>
	<path d="M554.712,132.651c1.416-0.708,2.69-2.124,4.389-0.708c1.274,1.274,1.133,2.548-0.142,3.822
		c-1.84,1.982-3.964,3.539-6.371,4.813c-11.609,6.371-24.209,10.335-37.092,13.025c-1.133,0.283-2.407,0.425-3.681,0.425
		c-5.804-0.142-6.229,0.142-6.795,6.229c-0.849,5.804-1.699,11.609-2.831,17.413c-1.699,13.166-2.973,26.332-6.088,39.357
		c-4.247,17.838-8.353,35.817-13.166,53.655c-0.425,1.84-0.708,3.822-2.548,5.097c-1.133,1.982-2.548,3.681-2.548,6.088
		c0,0.991,0.566,2.407-0.991,2.69c-1.416,0.283-1.699-0.991-2.124-1.982c-1.416-2.407-1.699-5.097-1.84-7.079
		c-0.425,2.548-2.124,4.955-5.946,4.813c-2.265-0.283-2.407-1.699-1.699-3.398c0.425-1.133,1.274-2.265,1.416-3.539
		c3.681-9.485,2.831-19.112,1.699-28.88c-0.283-2.973,0.708-6.088-0.142-9.061c0-9.768-1.133-19.678-0.425-29.447
		c0.283-4.672,0.566-9.202,2.548-13.449c3.398-0.991,4.955,0.566,4.106,4.53c-0.849,4.247-0.425,8.494-0.425,12.741
		c0,14.016,1.982,28.031,1.557,42.047c-0.142,6.937-0.283,13.874,0.283,20.811c0,1.133-0.142,2.124,0.708,3.115
		c0.283-0.142,0.566-0.142,0.566-0.283c0.708-11.892,6.088-22.651,8.494-34.119c4.389-20.386,7.928-41.056,11.467-61.583
		c1.274-7.22,2.831-14.299,2.973-21.66c-0.849-1.557-1.699-3.115-2.831-4.672c0.283-3.398,3.115-3.398,5.38-3.539
		c15.007-0.991,29.164-4.813,42.754-11.184c1.133-0.566,2.69-0.849,2.407-2.69c0-1.274,2.265-0.283,1.84-1.982
		C551.031,131.094,553.155,133.218,554.712,132.651z"/>
	<path fill="#C9CBDD" d="M480.387,275.638c5.238-17.696,9.202-35.534,13.449-53.514c2.831-12.034,5.521-24.209,6.088-36.667
		c0.142-2.548,1.416-5.238,1.416-7.928c0.849,0,0.991,0.425,0.849,1.133c0.283-0.425,0-0.708,0-1.133
		c0.566-2.407,0.991-4.955,1.557-7.362c0.283-0.991,0.425-2.265,1.84-2.265c2.124,3.256,2.265,6.512,0.708,10.052
		c-0.142,0.425-0.425,0.849-0.708,1.274c-0.425,1.133-0.991,2.69,0.283,3.256c1.557,0.849,1.84-1.133,2.265-2.124
		c2.407-4.813,4.672-9.485,5.097-15.007c0.283-2.548,2.265-4.813,3.398-7.22c0.425-0.849,1.274-1.133,2.124-0.425
		c-2.69,11.326-5.38,22.651-8.211,33.977c-3.115,12.034-6.512,23.925-9.627,35.817c-2.407,9.627-5.521,19.112-7.503,28.88
		c-1.133,5.946-3.681,11.467-5.521,17.272c-0.425,1.557-1.416,2.124-2.973,2.124C483.502,275.779,481.945,275.638,480.387,275.638z"
		/>
	<path fill="#B9BACE" d="M518.753,157.709c-3.115,1.699-4.53,5.521-4.672,7.928c-0.142,6.229-3.681,11.043-5.663,16.422
		c-0.425,0.991-0.849,3.398-2.973,2.124c-1.982-1.133-2.124-3.681-1.133-4.813c3.115-3.681,1.557-7.645,1.133-11.467
		c-1.274-1.416-0.425-2.973-0.142-4.389c0.142-1.416,0.708-2.831-1.133-3.539c0-0.425,0-0.991,0.142-1.416
		c1.133-5.663,1.133-5.38,7.362-5.521c6.795,0,13.166-2.407,19.537-4.389c7.645-2.407,15.148-5.38,22.227-9.344
		c2.124-1.274,3.681-3.256,5.663-4.53c1.274-0.849,0.142-1.699,0-2.69c1.699,0.708,3.539,0.991,4.955,2.265
		c3.398,2.973,3.115,6.229-0.991,8.211c-8.07,3.822-16.564,6.088-25.058,8.636c-5.238,1.557-10.476,2.973-15.714,4.53
		C521.018,156.011,519.885,157.002,518.753,157.709z"/>
	<path d="M482.228,137.323c9.344-1.982,17.13-7.079,19.395-16.281c3.539-14.299-1.274-26.191-15.148-33.694
		c2.831-1.699,4.955,1.274,7.362,0.708c4.53,0.708,7.503,3.539,9.627,7.079c5.238,8.211,6.937,17.13,3.822,26.615
		c-0.425,0.991-0.708,2.124-0.991,3.398c1.84,0.142,3.822,0,4.813,1.84c0.425,1.416,0,2.407-1.699,2.407
		c-1.274,0-2.265,0.708-3.398,1.133c-3.681,0.849-6.654,3.115-9.344,5.521c-6.937,6.371-15.573,7.079-24.209,7.503
		c-0.425,0-0.991-0.283-1.274-0.566c-8.211-0.566-15.573-3.681-22.935-6.937c-1.416-0.566-1.84-2.124-2.69-3.256
		c-0.283-1.133,0.283-1.557,1.274-1.416c5.097,2.69,10.335,5.097,16.139,5.946c4.955-1.133,9.768,0.566,14.723,0.283
		C479.113,137.465,480.67,137.748,482.228,137.323z"/>
	<path fill="#C6C8DA" d="M475.999,272.24c-1.84-7.928-1.557-15.856-1.557-23.925c-0.142-13.449-0.991-27.04-1.557-40.489
		c-0.142-3.822-0.425-7.786,0.708-11.609c0.566-2.265,0.283-4.672-3.256-3.964c0.991-3.115,2.831-4.813,6.088-3.681
		c2.831,0.991,3.964,3.256,4.106,6.229c0.142,15.007-0.708,29.871-1.982,44.736C477.556,250.58,476.14,261.339,475.999,272.24z"/>
	<path d="M467.221,274.081c0.283,1.274-0.708,1.982-1.274,2.831c-0.708,1.133-0.991,2.265,0.849,2.69
		c-1.133,3.256-1.84,3.398-4.672,1.416c-4.53-4.389-6.512-10.335-8.494-15.997c-9.627-28.314-16.564-57.195-19.82-86.924
		c-0.425-3.256-0.425-6.654,0.142-9.91c0.283-1.274,0.142-3.398,2.407-2.69c1.84,0.566,2.265,2.973,1.557,3.964
		c-2.265,2.973-1.416,6.229-1.133,9.061c3.398,31.429,10.476,62.15,21.66,91.738c0.849,2.265,2.124,4.389,3.256,6.512
		c0.425,0.708,0.708,1.699,1.84,0.991C464.531,276.346,464.814,274.222,467.221,274.081z"/>
	<path d="M446.693,131.236c-0.425,0.425-0.849,0.991-1.274,1.416c-1.982-3.256-5.097-1.133-7.645-1.416
		c-10.618-1.133-21.236-0.991-31.853-0.566c-6.371,0.283-12.741,0.849-18.97,1.133c-1.274,0.142-2.69,0.142-3.964,0.142
		c-0.991,0-2.265,0-2.407-1.133c-0.142-1.274,1.274-1.274,2.124-1.416c5.946-1.416,12.175-1.416,18.263-1.84
		c11.892-0.708,23.642-0.849,35.534,0.283c1.133,0.142,2.407,0,3.964,0c-2.69-5.097-4.955-10.193-5.521-15.856
		c-0.566-5.663-0.425-11.184,1.982-16.422c1.133,0.425,0.708,1.133,0.566,1.557C434.943,110.142,436.925,121.75,446.693,131.236z"/>
	<path fill="#C8C9DB" d="M471.61,93.719c2.69-0.425,4.53-2.548,6.937-3.681c0.991-0.566,1.416-1.416,0.991-2.407
		c-2.973-9.061-2.831-18.829-5.097-28.031c-1.274-5.097-2.265-10.193-2.69-15.431c-0.708-2.548-0.425-5.238-0.425-7.928
		c0-2.265,1.416-4.247,4.106-4.672c1.274,15.431,2.69,30.862,5.804,46.011c0.425,2.265-0.425,4.672,0.991,6.795
		c0.142,1.274,0.849,2.124,1.416,3.115c-0.425,5.663-2.265,7.079-8.353,6.654C474.017,93.861,472.884,93.861,471.61,93.719z"/>
	<path fill="#BBBCCF" d="M510.683,126.989c-1.557-1.274-4.672,0.708-5.238-1.699c-0.425-1.557,0.849-3.681,1.416-5.521
		c2.973-9.627,0-25.058-13.025-31.712c1.84-3.256,7.22-3.681,9.627,0c4.53,6.654,9.485,13.308,9.485,21.943
		c0,4.955,0.425,10.052-1.557,14.723c-0.849,1.84,1.274,1.274,1.557,2.124C512.099,127.555,511.391,127.413,510.683,126.989z"/>
	<path d="M434.943,156.577c0.142,1.84-0.708,2.831-2.407,1.982c-11.042-5.097-23.076-7.928-33.977-13.308
		c-2.69-1.274-5.238-2.69-8.07-3.398c-2.973-0.708-3.681-3.256-5.097-5.238c-0.566-0.708-0.566-1.699,0.425-2.265
		c0.708-0.425,1.416-0.283,1.84,0.566c1.416,2.973,4.53,3.681,7.079,4.813c11.184,5.097,22.51,9.91,34.402,13.308
		c1.133,0.283,2.407,0.566,3.539,0.708C434.377,153.887,434.943,155.02,434.943,156.577z"/>
	<path fill="#C2C3D7" d="M471.044,142.986c3.964-0.566,7.928-0.991,11.892-1.557c5.663-0.849,10.618-3.256,14.723-7.362
		c2.124-2.124,4.672-3.822,7.928-4.247c0.991-0.425,1.982-0.566,2.973,0c-5.097,7.362-11.609,13.166-20.528,15.431
		C482.228,146.667,476.14,147.375,471.044,142.986z"/>
	<path fill="#CCCDDF" d="M467.221,274.081c-1.133,1.274-2.407,2.548-3.539,3.822c0.142-6.229,2.124-12.317,2.407-18.687
		c0.283-7.928,1.416-15.856,2.124-23.784c1.274,11.043,3.964,22.085,0.849,33.269C468.637,270.541,467.787,272.24,467.221,274.081z"
		/>
	<path d="M508.418,129.82c-0.991,0-1.982,0-2.973,0c0.849-0.991,1.982-0.708,2.973-0.708c1.557,0,2.265-0.566,2.124-2.124
		c0.708,0,1.557-0.142,2.265-0.142c13.024,2.124,25.907,4.106,39.073,5.097c0.991,0.142,1.84,0.566,2.831,0.849
		c-1.133,1.416-3.539-1.133-4.389,1.416c-0.708,0.849-1.557,0.566-2.407,0.283C534.75,132.651,521.726,130.811,508.418,129.82z"/>
	<path fill="#ABABBF" d="M475.432,31.428c-4.672,3.256-3.398,8.07-3.681,12.6c-1.133-5.804-1.84-11.75-1.982-17.696
		c0-1.274,0.283-2.69-0.849-3.822c4.247-1.274,7.786,1.699,7.22,5.946C475.999,29.588,475.574,30.579,475.432,31.428z"/>
	<path fill="#BABDD0" d="M462.125,281.018c2.124,1.274,3.681,0.566,4.672-1.416c3.822-1.416,3.822-1.416,5.946-7.22
		c0.425,2.265,0.849,3.822,1.133,5.38c0.283,1.557,0.425,3.115,0.708,4.672c-2.548,1.557-4.955,2.973-8.211,2.973
		C463.116,285.406,461.7,284.274,462.125,281.018z"/>
	<path fill="#BFBFD2" d="M482.228,137.323c-6.512,1.699-12.883,1.133-19.395,0c1.133-0.849,0.708-2.265,0.849-3.398
		c0.142-0.849-0.283-2.124,0.991-2.407c1.133-0.283,2.265-0.283,2.973,0.708C471.61,136.474,476.706,137.323,482.228,137.323z"/>
	<path d="M441.455,94.852c-1.274-0.283-1.133-1.274-0.849-2.265c0.566-1.982,7.503-6.795,9.627-6.654
		c0.849,0,1.416,0.283,1.699,1.133c0.142,0.566,0,0.991-0.566,1.133c-3.539,1.416-6.512,3.681-9.202,6.371
		C442.022,94.71,441.738,94.71,441.455,94.852z"/>
	<path d="M472.318,102.072c1.416,0,2.124,0.566,2.265,1.699c0.142,1.133-0.566,1.84-1.699,1.84c-1.274,0-2.265-0.566-2.265-1.84
		C470.477,102.78,471.61,102.355,472.318,102.072z"/>
	<path d="M465.098,106.885c-0.991-0.425-2.265-0.425-2.124-1.982c0-1.133,0.849-1.982,1.84-1.84
		c1.133,0.142,1.982,0.849,1.982,2.265C466.655,106.178,466.089,106.744,465.098,106.885z"/>
	<path d="M483.502,87.349c-2.265-0.142-3.539-0.849-1.416-3.115C483.926,84.517,485.201,85.225,483.502,87.349z"/>
	<path fill="#F4F7FA" d="M504.171,159.833c2.124-1.274,3.256-1.274,2.407,1.699c-0.566,2.124-0.708,4.247-1.133,6.229
		c-0.991,3.822-2.124,7.786-3.115,11.75c-0.991-0.283-0.142-1.699-0.991-2.124C502.189,171.583,503.18,165.779,504.171,159.833z"/>
	<path d="M471.61,93.719c-0.849,0-1.699,0.142-2.548,0c-10.052-0.991-13.308-4.389-11.467-14.865
		c2.548-14.723,4.955-29.588,6.512-44.453c0.142-1.84-0.425-3.822-0.708-5.804c-0.283-2.124-0.849-4.247-0.142-7.786
		c1.557,5.946,3.681,1.699,5.521,1.84c1.982,0.991,1.699,2.831,1.84,4.389c0.425,5.521,1.133,11.043,1.84,16.705
		c1.982,12.6,5.238,25.058,6.371,37.941c0,0.425,0.142,0.708,0.283,1.133C480.953,90.463,479.538,92.728,471.61,93.719z
		 M467.646,80.553c-1.84,0.849-3.681,1.133-5.663,0.283c-0.708-0.283-1.274-0.849-1.84,0.142c-1.274,2.124,0.708,7.22,3.115,7.928
		c2.407,0.708,4.813,0.566,7.22-0.283c1.84-0.566,3.256-1.699,2.69-3.822C473.167,80.129,471.468,78.854,467.646,80.553z
		 M464.956,68.945c-1.274,0.708-3.539-0.283-3.681,2.407c0,1.84-0.425,3.539-0.566,5.38c0,0.708,0.566,0.991,1.133,1.274
		c2.831,1.557,9.061-1.699,9.061-4.955c0-2.265-0.283-4.672-0.566-7.362C468.354,66.963,466.796,67.954,464.956,68.945z
		 M469.486,55.778c-0.142-0.849,0-2.407-1.416-1.84c-1.416,0.425-3.822-1.133-4.247,1.416c-0.566,3.681-0.991,7.22-1.416,10.901
		C467.929,65.122,470.477,61.3,469.486,55.778z M465.664,40.772c-0.425,2.548-0.708,5.097-0.991,7.645
		c0,0.991-0.708,1.982,0.425,2.69c0.708,0.425,1.416,0,1.982-0.425c0.849-0.566,1.84-1.133,1.416-2.548
		c-0.849-2.407-1.557-4.955-2.265-7.362C465.947,40.772,465.805,40.772,465.664,40.772z"/>
</g>
<g>
	<path d="M124.903,49.832c6.229,0,12.6-0.566,18.829,0.708c3.256,0.708,6.371,1.699,8.353,4.672c3.115,1.699,2.831,4.53,2.265,7.362
		c-0.566,2.973-2.265,5.521-4.247,7.786c1.416,1.416,3.681,1.133,4.53,2.973c1.416,0.849,2.831,1.699,4.389,2.548
		c3.398,1.982,5.38,6.795,4.247,9.627c-1.557,3.539-8.211,6.654-11.609,5.521c-1.274-0.425-1.84-1.274-2.265-2.407
		c0.142-3.256,2.69-3.964,5.238-4.53c2.831-1.416,2.69-3.681,1.699-6.088c-1.416-2.265-4.106-1.84-6.088-2.973
		c-2.973-0.991-6.229,0-9.202-1.557c-0.991-1.557-0.566-2.548,1.133-3.681c3.256-2.124,5.804-4.955,7.079-8.777
		c1.557-4.53,0.566-6.371-4.106-7.503c-6.795-1.699-13.732-1.557-20.528,0.142c-3.681,0.991-6.512,0.425-9.485-1.557
		c-1.133-3.256,0.991-5.946,1.274-9.061c-0.142-6.795,1.133-13.732,0-20.528c-0.142-0.708-0.283-1.84,0.142-2.265
		c4.106-4.106,2.124-8.211-0.566-11.467c-2.831-3.681-6.937-5.238-11.892-4.389c-11.75,2.124-22.368,6.937-32.278,13.449
		c-6.371,4.247-12.034,9.485-16.988,15.29c-0.991,1.133-2.265,2.124-0.991,4.247c1.133,1.84-0.849,3.398-1.982,4.247
		c-1.416,1.133-1.416-0.991-2.124-1.84c-1.133-1.416-2.69-2.265-4.247-3.256c-3.115-1.84-7.079-1.84-9.91-4.53
		c-0.991-0.991-2.973-0.283-4.53,0C19.574,34.401,12.354,41.48,9.24,52.522C6.833,61.3,6.691,70.502,8.532,79.421
		c1.133,5.38,2.265,11.184,9.061,12.883c1.982,0.425-0.142,3.539,2.407,3.539c1.84,1.84,3.822,2.265,6.229,1.133
		c-2.124-0.566-4.389,0.566-6.229-1.133c2.124-1.84,4.672-0.849,6.937-0.991c8.494-1.133,17.13-1.133,25.766-0.849
		c-0.425,2.407-2.407,1.699-3.964,1.84c-3.822,0.142-7.786-0.142-12.034,0.283c1.274,1.274,3.256,0.566,3.822,2.124
		c-0.566,0.991-1.557,1.416-2.548,1.416c-5.38,0-10.759,1.274-16.139,0.849c-1.982-0.142-3.822-0.425-5.238-1.84
		c1.416-3.539-1.84-3.964-3.681-5.38c-2.69-2.124-4.53-4.955-5.521-8.07c-4.106-13.449-4.53-26.898,1.416-39.923
		c6.512-14.157,24.067-20.386,36.242-13.166c1.416,0.849,2.69,1.84,3.964,2.69C63.178,16.846,81.299,5.662,103.809,1.698
		c4.813-0.849,9.061,0.142,13.025,2.831c2.407,0.566,3.539,2.407,4.53,4.247c4.53,8.211,5.38,17.13,3.681,26.191
		c-0.708,3.681-1.699,7.503-2.265,11.184C122.638,47.992,122.921,49.266,124.903,49.832z"/>
	<path d="M78.043,287.671c-12.317-17.696-19.82-37.516-23.642-58.752c-0.283-1.274-0.566-2.548-0.708-3.822
		c0-1.274-1.133-3.115,1.133-3.398c1.699-0.283,1.699,1.557,1.982,2.69c0.425,2.69,0.849,5.238,1.274,7.928
		c2.973,18.263,10.052,34.968,19.82,50.541c0.566,0.849,0.991,2.548,2.407,1.982c1.274-0.425,0.849-1.982,0.991-3.115
		c1.133-11.467,2.265-23.076,3.539-34.543c0.425-4.53,1.699-5.238,6.229-3.964c1.557,1.557,1.133,3.539,1.133,5.38
		c-0.142,4.247,0.425,8.353,2.124,12.175c1.274,3.256,1.274,6.654,2.124,9.91c2.831,7.503,5.663,15.007,10.618,21.519
		c1.557,0.566,2.407,2.265,4.672,2.69c-0.849-15.007,0.849-30.013,0.708-44.878c0.283-9.91,1.133-19.82,0-29.871
		c-1.699-2.548-1.699-2.548-1.274-5.663c-4.53-0.849-9.061-1.133-13.591-1.84c-1.133-0.142-3.398,0.283-2.124-2.265
		c4.247-1.416,8.494,0.142,12.883,0.283c5.38,0.283,10.759,1.557,16.281,1.557c0.849,0,1.699,0.283,2.407,0.849
		c-0.566,2.69-2.831,1.84-4.53,1.982c-1.557,0.142-2.973,0.142-3.115,2.407c-0.991,15.431-0.425,30.862-0.283,46.435
		c0,0.425,0.283,0.991,0.425,1.416c0.425,6.654,0.991,13.449,0.283,20.103c-0.142,1.416-0.283,2.973,0.142,4.53
		c0.142,0.849,0.142,1.557-0.566,2.265c-1.416,0.991-1.982,2.265-2.548,3.964c-0.849,2.265-1.416,5.38-4.389,5.38
		s-4.813-2.265-5.946-5.097c-4.672-6.229-7.928-13.308-11.043-20.386c-2.831-2.265-3.115-5.804-4.672-8.777
		c-1.416,6.229-0.425,12.883-4.247,18.404c-0.566,0.708-0.425,1.699-0.283,2.548c0.142,1.557-0.142,2.831-1.699,3.398
		c-1.416,0.566-2.69,0-3.822-0.991C79.459,289.936,78.609,288.945,78.043,287.671z"/>
	<path fill="#BCBDD1" d="M144.581,96.268c0.566,2.265,2.124,0.708,3.115,0.708c4.672,0,8.07,2.548,8.777,6.795
		c0.425,2.548-0.708,4.247-3.256,4.813c-2.265,0.425-4.53,0.708-6.795,0.708c-13.874,0.142-27.606,0-41.48,0.142
		c-5.238,0-10.335,0.991-15.573,0.708c-3.256-0.142-6.229-1.133-7.503-4.672c0.991-1.133,2.407-1.982,3.256-3.256
		c1.557-2.265,3.539-2.831,6.371-2.973c5.521-0.425,11.043-0.849,16.705-0.991c8.919-0.283,17.696,0.991,26.615,1.84
		c3.398,0.283,6.229,0.425,8.07-2.973C143.166,96.551,143.873,96.126,144.581,96.268z"/>
	<path fill="#C3C5D7" d="M113.153,118.494c5.521-0.849,8.919,1.557,12.6,5.663c8.211,9.202,12.6,19.678,12.6,31.712
		c0,11.184-4.106,20.811-14.016,27.182c-1.133,0.708-2.124,1.416-2.69,2.548c-1.84,0.142-1.982-1.699-2.831-2.548
		c-1.274-1.557-1.274-1.557-3.539-2.831c-0.566,1.84,0.991,2.548,1.84,3.681c0.708,1.133,2.548,1.982,1.274,3.822
		c-6.512,2.69-13.025,5.521-20.386,3.539c-1.699-0.425-3.256-0.283-4.53,0.849c-1.557,0.425-2.973,0-4.53,0.142
		c-1.274,0.142-2.69,0.425-3.398-0.849c-0.708-1.416,0-2.69,0.708-3.822c0.283-0.566,0.849-0.991,1.274-1.274
		c3.964-1.84,8.494-2.548,12.458-4.389c7.503-2.407,15.007-4.813,21.377-9.91c7.645-6.229,12.175-13.732,11.609-24.067
		c-0.425-6.654-3.822-11.75-7.362-16.847c-2.973-4.247-6.512-7.786-10.901-10.618C113.86,120.052,113.011,119.768,113.153,118.494z"
		/>
	<path d="M113.153,118.494c9.627,5.238,15.997,13.449,19.537,23.501c4.672,13.025-1.699,26.049-15.148,33.835
		c-5.38,3.115-11.326,5.238-17.272,6.937c-1.557,0.849-3.398,0.566-5.097,0.708c-1.84,0.283-3.115-0.991-3.115-2.973
		c0-2.265,1.699-1.557,3.115-1.557c2.548,0,4.955-0.425,7.503,0c2.407-3.115,6.371-2.973,9.344-4.672
		c7.22-4.106,13.732-9.202,15.714-18.263c2.124-13.166-3.539-22.934-13.166-31.004c-1.133-0.991-2.265-1.982-2.973-3.256
		c-18.404-9.344-36.808-10.476-54.788,0.708c-11.326,7.079-14.582,21.943-8.636,35.676c0.142,0.849-0.142,1.133-0.991,0.991
		c-7.645-12.317-3.681-31.146,8.494-39.074c12.741-8.353,26.757-9.91,41.339-6.229C102.535,115.097,108.056,116.088,113.153,118.494
		z"/>
	<path d="M144.581,96.268c-1.84,5.097-5.38,5.521-10.476,4.813c-13.874-1.982-27.748-2.831-41.905-0.849
		c-3.822,0.566-5.663,1.274-7.22,4.389c-0.708,1.274-1.982,0.849-3.115,0.849c-2.124-0.425-1.699-2.831-2.973-3.822
		c-3.539-2.973-7.362-4.247-12.175-3.822c-7.362,0.708-14.723,1.133-22.085,1.133c-1.416,0-2.831,0.142-3.964-0.991
		c-1.274,0-2.548,0-3.822-0.142c-1.133,0-2.548,0.142-2.407-1.557s1.557-1.416,2.548-1.416c4.106,0,8.07,0,12.175,0
		c1.274,0,2.548,0.425,3.539-0.849c5.946-0.566,11.892-1.133,17.838-1.557c2.548-0.142,5.097-0.425,6.512,2.973
		c0.849,1.982,3.256,3.398,5.238,5.238c0.991-1.84,4.106-2.407,1.982-5.804c-1.133-1.84,1.416-1.699,2.69-1.557
		c10.618,1.274,21.094,2.69,31.853,3.115c5.663,0.283,11.467,0.566,17.13,0.708c2.407,0,4.813,0.283,6.795-1.84
		C143.873,94.003,144.44,94.994,144.581,96.268z"/>
	<path fill="#C0C1D3" d="M94.607,211.223c6.229,1.557,12.6,1.557,19.961,2.831c-4.247,1.699-3.398,3.964-2.407,6.371
		c-4.53-2.265-9.627-1.982-14.299-3.681c-6.229-2.265-12.741-3.539-18.546-6.795c-1.84-0.991-3.256-1.133-5.097,0.425
		c-2.69,2.407-5.804,4.672-8.777,6.654c-2.831,1.84-5.946,2.831-9.202,0.566c-3.398-2.265-3.964-6.088-0.283-7.645
		c5.804-2.407,10.052-7.22,15.856-9.485c0.425,2.407-1.416,3.681-2.973,4.955c-3.256,2.831-6.512,5.521-10.476,8.211
		c2.265,1.274,3.398,0,4.53-0.708c5.38-3.964,10.476-8.494,14.723-13.732c3.822-4.813,7.786-5.946,12.6-3.964
		c-0.283,1.699-1.699,2.407-2.69,3.539c-1.557,1.982-1.133,3.115,0.991,4.106c3.822,1.699,7.928,2.548,11.892,3.539
		c0.991,0.283,2.831-0.142,2.548,1.982c-4.955,1.84-9.485,0.142-13.874-1.557c-2.265-0.849-4.672-1.84-7.645-2.124
		c1.557,2.69,3.681,3.398,5.946,4.106C89.935,209.524,92.625,209.241,94.607,211.223z"/>
	<path fill="#C3C5D8" d="M119.948,290.078c-1.274-8.07-1.274-16.281-1.557-24.492c-0.566-12.741-0.142-25.624-0.283-38.366
		c0-1.133,0.283-2.124,1.274-2.548c2.548-0.991,4.672-2.973,7.362-3.681c0.283,15.856-1.416,31.57-4.247,47.285
		C121.364,275.496,119.948,282.716,119.948,290.078z"/>
	<path d="M90.218,195.084c-5.097-0.566-9.202,0.849-12.458,5.38c-3.681,5.097-8.777,9.202-13.732,13.166
		c-0.142,0.142-0.425,0.425-0.566,0.425c-1.84,0.849-4.106,3.256-5.663,0.708c-1.274-2.124,1.699-2.973,3.115-3.964
		c4.106-2.973,8.353-5.804,11.043-10.193l0,0c1.274-2.548,3.822-3.964,5.38-6.229c5.946-5.946,10.759-16.139,10.335-22.368
		c-8.353,3.398-16.281,7.22-23.076,13.025c-0.849,0.708-1.699,2.548-2.973,0.849c-1.416-1.84,0.566-2.407,1.557-3.115
		c7.22-5.38,14.723-10.476,23.925-12.034c1.557-0.283,2.407-4.106,4.672-0.849c1.416,1.133,1.982,2.69,1.557,4.389
		c-0.991,4.389-1.982,8.919-5.238,12.458c-0.142,0.142-0.425,0.283-0.566,0.566c-0.708,1.274-2.407,2.548-1.699,3.822
		c0.708,1.416,2.548,0.142,3.822,0.283c1.274,0.142,2.407,0.283,3.681,0.566c1.557-0.425,2.973-0.283,3.256,1.416
		c0.283,1.699-1.557,1.982-2.831,2.407C92.483,196.075,91.209,196.075,90.218,195.084z"/>
	<path fill="#C1C3D6" d="M40.668,97.967c9.344-0.425,18.829-0.425,28.031-1.557c5.097-0.566,7.786,1.557,10.193,5.097
		c-0.849-0.283-1.84-1.133-2.407-0.849c-7.928,3.398-16.139,2.265-24.35,2.548c-9.061,0.283-17.979,0.849-26.898,2.548
		c-4.672,0.849-8.353-2.124-8.636-6.937C24.812,100.09,32.74,98.674,40.668,97.967z"/>
	<path d="M34.156,73.333c0.283,2.69,0.566,5.38,0.849,7.928c0.142,0.991,0.566,2.265-0.708,2.69
		c-1.557,0.425-1.699-0.991-1.699-1.982c-0.566-5.38-1.133-10.901-1.416-16.281c-0.142-1.274,0.849-2.265,2.407-2.407
		c5.097-0.283,10.052-1.84,15.148-0.991c2.124,0.425,2.973-0.283,2.831-2.548c-0.142-2.407,0.283-4.813,0.425-7.22
		c0.142-1.557,1.133-1.982,2.548-2.265c5.238-0.849,10.476-1.982,15.856-1.699c2.407,0.142,3.681,0,3.398-3.115
		c-0.566-7.079,0.425-8.211,7.503-9.202c6.795-0.991,13.732-1.274,20.528-1.84c0.991-0.142,2.407-0.142,2.548,1.133
		c0.142,1.557-1.274,1.699-2.407,1.84c-4.813,0.425-9.627,0.849-14.44,1.274c-1.274,0.142-2.548,0.283-3.822,0.566
		c-7.645,1.416-7.645,1.416-6.512,9.344c0.283,2.124,0.142,2.69-2.69,2.69c-6.088,0.142-12.175,1.416-18.121,2.265
		c-1.416,0.142-1.84,1.274-1.982,2.407c0,1.84-0.283,3.822,0.142,5.663c0.708,4.389,0.849,4.389-3.115,3.115
		c-0.708-0.142-1.557,0-2.265,0c-2.831,0.283-5.521,0.566-8.353,0.991C34.015,66.679,34.015,66.679,34.156,73.333z"/>
	<path d="M94.607,211.223c-3.681-0.566-7.22-1.416-10.618-2.69c-1.557-0.566-2.548-1.557-3.539-2.831
		c-0.566-0.708-0.708-1.699,0-2.407c0.708-0.708,1.416-0.425,2.407,0c6.512,2.548,12.883,5.804,20.245,4.955
		c2.69-1.557,5.38-0.142,8.07,0c2.265,0.142,4.53,0.425,6.795,0.425c4.247-0.283,5.804-2.265,5.238-6.512
		c-0.566-3.822-2.265-7.22-3.822-10.618c-0.566-1.274-1.557-2.407-1.133-3.964c-0.849-1.84-2.407-2.973-3.539-4.389
		c-0.849-0.991-2.265-2.124-0.708-3.539c1.557-1.416,2.831-0.142,3.822,1.133c1.274,1.699,2.548,3.539,3.822,5.238
		c3.822,6.512,7.645,13.025,7.079,21.094c0,0.708,0.849,0.849,1.274,1.133c0.849,4.389,0.566,4.955-2.831,5.38
		c-9.485,0.283-18.829-1.84-28.173-2.407C97.438,211.082,96.023,211.223,94.607,211.223z"/>
	<path fill="#C0C1D5" d="M124.903,49.832c-2.548,0.991-4.106,1.84-3.256-2.548c1.557-8.07,4.389-15.997,3.115-24.492
		c-0.991-6.795-2.548-13.308-7.786-18.263c2.69-2.265,5.38-1.416,7.928,0.425c3.256,2.407,5.097,5.946,5.946,9.91
		c2.69,12.034,0.566,23.218-5.521,33.835C125.045,48.983,124.903,49.408,124.903,49.832z"/>
	<path fill="#BFBFD2" d="M78.043,287.671c1.274,0.991,2.831,1.416,3.822,2.973c0.566,0.991,1.699,1.133,2.69,0.566
		s0.849-1.416,0.708-2.265c-0.425-1.982-0.708-3.822,1.557-5.238c1.133-0.708,0.991-2.69,1.274-4.247
		c0.566-5.097,1.274-10.193,2.548-15.29c1.557,4.106,3.256,8.07,4.813,12.175c-2.265,0.849-1.699,3.115-2.407,4.813
		c-1.982,4.672-3.539,9.485-4.389,14.582c-0.283,2.124-1.133,3.964-3.681,4.389c-3.115,0.425-6.371,0.566-8.636-1.84
		c-1.557-1.699-0.708-3.964,0.425-6.088C77.477,290.644,78.185,289.229,78.043,287.671z"/>
	<path fill="#B6B7CB" d="M96.306,270.824c-3.398-8.777-6.512-17.696-5.38-27.465c0.991-1.982,2.407-3.115,4.53-1.982
		c2.265,1.133,4.813,1.84,4.813,5.238c0,5.946-2.265,11.467-3.115,17.13C96.872,266.153,96.023,268.418,96.306,270.824z"/>
	<path fill="#A5A7BC" d="M127.027,213.488c3.256-0.566,2.831-2.973,2.831-5.38c4.53,5.663,0.566,9.202-2.973,12.883
		c-1.274,1.982-2.831,3.539-5.38,3.964c-2.407,0.425-3.115,1.84-3.115,4.247c0.142,12.175,0,24.209-0.142,36.384
		c-0.849-3.964-0.425-7.928-0.425-11.75c0.142-12.034-0.849-24.209,0.566-36.242c0.142-1.274-0.708-2.124-0.849-3.256
		C120.797,213.488,124.054,215.046,127.027,213.488z"/>
	<path fill="#B0B1C6" d="M87.953,186.59c1.133-3.115,2.407-6.371,3.539-9.485c0.849-2.407,1.133-4.813,0.142-7.362
		c2.831-0.708,5.38-2.69,8.494-0.142c2.831,2.265,4.106,4.389,2.124,7.645c-0.425,0.708-0.283,1.133,0.142,1.699
		c-2.548,0.991-5.097,1.133-7.786,1.133c-0.708,0-1.84-1.84-2.124,0.283c-0.142,1.274,0.708,2.265,1.982,2.407
		c1.84,0.142,3.822,0,5.663-0.142C96.306,184.749,92.2,185.882,87.953,186.59z"/>
	<path d="M51.286,218.726c-7.928-9.344-10.901-19.961-8.07-32.137c0.991-4.53,2.548-9.061,5.38-13.025
		c0.849-1.133,1.699-3.115,3.539-1.699c1.699,1.416-0.283,2.265-0.991,3.398c-7.645,12.034-8.777,24.492-1.84,37.233
		c0.991,1.84,1.982,3.681,2.973,5.663C51.852,218.302,51.569,218.585,51.286,218.726z"/>
	<path fill="#BABBCE" d="M106.357,296.732c0.283,0.425,0.708,0.708,0.991,1.133c1.557,1.557,2.831,3.822,5.238,3.256
		c2.548-0.566,3.115-3.681,3.256-5.521c0.283-2.69,1.416-2.973,3.398-3.115c-1.557,3.822-1.557,7.928-2.407,11.892
		c-0.849,4.247-2.407,5.38-6.512,4.813c-6.512-0.991-6.512-1.133-4.672-7.503C106.216,299.988,106.216,298.289,106.357,296.732z"/>
	<path fill="#C3C4D4" d="M111.595,121.75c7.079,4.53,12.458,10.618,15.714,18.404c2.124,5.238,2.265,10.476,0.425,15.856
		c-0.283-10.052-3.681-18.687-11.75-25.2C113.011,128.546,111.312,125.714,111.595,121.75z"/>
	<path fill="#BABBCE" d="M154.633,73.192c-2.124-0.708-4.247-1.557-6.512-2.265c4.672-4.813,7.786-10.618,3.964-15.714
		c5.946,0.708,8.777,5.663,6.654,11.326C157.747,68.945,156.332,71.21,154.633,73.192z"/>
	<path fill="#C7CAD7" d="M112.303,250.155c0.142,12.6,0.142,25.058,0.283,37.658c0,2.548,0.283,5.097,0.425,7.645
		c0,0.849,0.142,1.557-0.849,1.84c-0.708,0.283-1.133-0.283-1.699-0.708c-1.416-1.274-2.973-2.407-3.681-4.247
		c2.407-4.672,2.124-10.052,3.256-15.007c1.699-8.07,1.557-16.139,1.557-24.35C111.595,251.996,111.454,251.005,112.303,250.155z"/>
	<path fill="#C1C3D4" d="M149.253,88.481c3.681,2.831,12.458,0.283,13.166-3.964c0.566-3.256-1.274-6.229-3.539-8.777
		c4.813,0.566,6.937,2.973,7.079,7.928c0.142,4.247-3.681,9.061-7.645,9.485c-2.124,0.283-4.247,0.283-6.371-0.425
		C149.961,92.021,148.687,90.888,149.253,88.481z"/>
	<path d="M71.248,61.158c-0.849,1.416-2.124,3.115,0.708,4.247c-0.283,0.425-0.425,0.991-0.849,1.133
		c-1.274,0.566-2.831,1.133-3.964,0.283c-1.699-1.416-1.274-3.822-1.557-5.663c-0.283-1.274,2.407-1.982,3.964-2.124
		C70.681,58.751,71.248,59.601,71.248,61.158z"/>
	<path d="M91.492,47.709c0.991,0.283,3.115-0.142,2.973,1.274c-0.142,2.124,1.699,4.389,0,6.371
		c-0.849,0.991-2.831,1.699-3.398,0.708c-1.133-2.265-0.708-4.955-2.548-7.22c-0.566-0.708,1.274-0.991,2.265-1.133
		C91.068,47.709,91.209,47.709,91.492,47.709z"/>
	<path fill="#68696B" d="M47.322,159.125c0.283-0.283,0.566-0.708,0.991-0.991c2.265,3.398,4.813,6.512,7.786,9.485
		C51.569,166.345,49.163,163.089,47.322,159.125z"/>
	<path d="M47.181,77.722c0,0.991,0.142,2.548-0.849,2.265c-2.407-0.566-1.557-2.973-1.982-4.672
		c-0.283-0.849,0.142-2.124,1.133-1.84C47.605,74.183,46.756,76.306,47.181,77.722z"/>
	<path fill="#C8C6D3" d="M116.126,42.754c0.142,3.115-0.142,6.088-1.274,9.061c-2.124-1.557-2.124-3.539-0.991-5.521
		C114.71,45.019,115.418,43.886,116.126,42.754z"/>
	<path fill="#B2B5C0" d="M149.819,74.749c3.115,3.115,2.831,4.247-1.557,5.804C148.97,78.713,148.545,76.448,149.819,74.749z"/>
	<path d="M81.158,137.04c-1.416-0.142-1.982-0.991-2.124-2.265c0-0.991,0.566-1.416,1.416-1.133
		c0.991,0.142,1.982,0.425,2.124,1.699C82.715,136.191,82.149,136.898,81.158,137.04z"/>
	<path d="M90.501,135.624c-1.699,0-1.982-0.849-2.265-1.982c-0.142-0.991,0.425-1.274,1.274-1.416c1.133,0,1.982,0.425,2.124,1.699
		C91.917,135.058,91.209,135.483,90.501,135.624z"/>
	<path fill="#B5B6C2" d="M140.759,73.192c3.115,0.566,6.371-0.283,9.202,1.557C146.846,74.607,143.449,76.165,140.759,73.192z"/>
	<path fill="#C0C1D3" d="M77.335,194.376c-0.991,2.69-3.115,4.53-5.38,6.088C72.097,197.066,75.212,196.217,77.335,194.376z"/>
	<path d="M19.857,95.56c2.831,0,5.804,0,9.061,0C25.237,99.665,21.556,99.382,19.857,95.56L19.857,95.56z"/>
	<path fill="#FFFFFF" d="M118.249,187.439c3.539,4.672,5.238,10.052,6.371,15.714c0.849,3.681-1.416,6.229-5.238,6.371
		c-5.521,0.142-10.901-0.425-16.281-1.416c-4.389-1.699-9.344-2.124-13.732-3.964c-5.38-2.265-5.38-2.407-1.84-7.079
		c0.708-0.991,1.982-1.133,2.548-2.124c1.982-0.283,4.106,0,6.088-1.133c-0.425-1.699-2.124-1.133-2.973-1.982
		c0.142-1.416,0.849-2.69,2.407-2.124C103.667,193.244,110.887,189.28,118.249,187.439z"/>
</g>
<g>
	<path d="M292.806,160.116c-7.786,0.849-15.714-0.283-23.501-0.566c-1.982,0-4.106-0.425-5.804-1.699
		c-0.425-1.274-4.106-1.416-1.274-3.822c6.512,1.416,13.025,1.416,19.537,1.133c12.741-0.283,23.076-5.38,31.287-15.148
		c6.088-7.362,9.061-15.856,7.928-25.483c-1.133-9.344-6.088-15.998-14.157-20.811c-4.672-2.831-9.768-3.822-14.723-5.663
		c-0.849-0.991-1.699-1.982,0-2.973c9.485-0.566,16.847,4.247,24.35,9.202c0.708,0.425,1.133,0.849,1.982,0.849
		c1.557,0.142,2.407,1.416,3.398,2.407c13.025,13.732,8.211,38.366-1.84,48.417c-0.708,0.708-4.106,1.557-1.557,3.964
		c11.326,1.84,22.51,3.681,33.977,4.813c1.274,0.142,2.548,0.283,2.407,1.84c-0.142,1.84-1.699,1.274-2.69,1.133
		c-10.618-1.274-21.236-2.69-31.712-4.106c-2.69-0.283-5.38-0.849-8.07-0.566C305.972,156.294,299.884,159.55,292.806,160.116z"/>
	<path fill="#C5C7D9" d="M316.731,280.876c-2.69-9.485-3.681-19.395-5.38-29.164c-3.115-17.979-5.238-36.101-6.229-54.363
		c0-0.991,0-2.124,0-3.115c-0.425-4.106,1.982-6.512,7.645-8.353c0.425,0,0.849,0.142,1.133,0.566
		c-0.425,12.883,0.708,25.624,1.982,38.366c1.274,14.157,4.106,28.173,5.804,42.188c0.142,1.699,0.991,3.398,1.416,5.238
		C324.801,279.46,323.952,280.593,316.731,280.876z"/>
	<path d="M244.955,185.74c-2.831,8.636-2.973,17.555-3.256,26.332c-0.849,18.829,0.566,37.516,2.69,56.204
		c0.142,0.566,0.283,1.274,0.425,2.265c4.955-5.38,8.211-11.326,11.467-17.272c4.53-8.211,9.344-16.281,13.308-24.775
		c0.849-1.982,1.84-5.38,5.521-3.539c0.425,4.955,0.991,9.91,1.274,14.865c1.84,7.22,5.804,13.449,9.485,19.678
		c5.663,9.485,11.75,18.687,19.254,27.04c2.407,2.69,4.53,5.663,8.636,6.371c-2.548,1.557-4.672,0.425-6.654-1.416
		c-5.521-5.097-10.052-11.043-14.299-17.13c-6.371-9.061-12.175-18.546-17.13-28.314c-1.274-1.416-2.548-2.831-3.539-4.955
		c-4.389,5.521-7.503,11.609-11.467,17.13c-3.681,4.955-6.088,10.759-9.91,15.573c-2.831,3.681-6.088,7.079-11.467,6.371
		c-2.124-2.265,0.283-3.539,1.416-4.672c1.699-1.699,2.124-3.398,1.84-5.804c-2.124-14.44-3.256-29.022-3.539-43.745
		c-0.283-13.025,0.142-25.907,2.831-38.649c0.566-0.849,0-2.124,0.849-2.831c0.425-0.425,0.991-0.849,1.699-0.566
		C245.38,184.183,245.38,184.891,244.955,185.74z"/>
	<path fill="#B7B7CA" d="M321.545,243.643c5.521,4.813,12.741,5.238,19.395,6.654c7.362,1.557,15.148,0.991,22.651-0.708
		c4.955-1.133,8.777-4.106,10.476-9.202c2.265-3.539-0.283-6.229-1.416-9.202c1.982,0.566,3.539,1.982,5.521,2.69
		c2.407,0.849,3.256,2.831,2.69,5.663c-0.991,4.247-3.964,6.937-7.22,9.202c-8.211,5.663-17.13,9.91-27.323,10.052
		c-8.494,0.142-16.139-2.69-22.651-8.07C321.403,249.023,321.545,246.191,321.545,243.643z"/>
	<path fill="#B8BACF" d="M174.453,241.519c9.485,4.813,19.395,7.079,30.155,5.38c5.097-0.849,9.485-3.256,14.016-5.097
		c4.247-1.699,4.955-7.079,1.982-10.335c-0.425-0.566-0.708-0.849-0.849-1.557c-0.142-2.548-1.84-3.822-4.247-4.106
		c-0.142-0.283-0.142-0.425-0.142-0.708c1.557-0.283,3.115-1.133,4.955-0.708c5.804,1.133,7.503,4.53,5.804,11.75
		c-1.699,7.362-6.795,11.75-13.308,14.865c-7.503,3.539-15.29,4.247-23.501,3.398c-6.371-0.708-12.883-4.955-14.723-9.91
		C174.17,243.501,174.311,242.51,174.453,241.519z"/>
	<path fill="#B7B7CA" d="M244.955,185.74c-0.142-0.566,0-1.416-0.849-1.416c-2.124,0-1.274,2.124-2.265,3.115
		c-0.142-1.557-0.566-2.548-2.265-3.115c-13.449-4.389-26.474-9.627-39.215-16.139c-0.283-0.142-0.708-0.142-1.133-0.142
		c0-1.133,0.425-2.265-0.283-3.539c13.591,5.521,28.031,7.22,41.622,12.175c2.265,0.849,3.539,0.283,3.115-2.407
		C249.061,177.671,249.344,180.644,244.955,185.74z"/>
	<path fill="#C4C6D8" d="M239.434,280.168c9.344-1.699,12.458-9.91,16.847-16.705c5.238-8.07,10.476-16.139,15.997-24.492
		c1.557,2.548,2.831,4.672,3.539,7.079c-2.407-0.991-2.407,1.416-2.973,2.407c-5.663,9.91-11.75,19.395-18.546,28.597
		c-1.982,2.548-4.389,4.389-6.937,5.946C244.389,284.982,240.425,283.424,239.434,280.168z"/>
	<path d="M292.098,85.225c-0.566,0.708-0.425,1.557,0,2.265c-0.849,0.849-1.84,0.708-2.831,0.566
		c-13.308-1.274-25.624,1.982-37.092,8.211c-7.928,4.247-13.449,10.901-15.997,19.537c-2.831,10.052,2.407,22.793,12.034,29.73
		c3.539,2.548,7.22,5.097,11.326,6.654c1.133,0.425,2.548,0.849,2.69,2.407c-1.133,1.699,1.416,1.982,1.274,3.256
		c-6.371-4.106-13.591-6.654-19.112-11.892c-9.344-9.061-15.007-19.395-11.184-32.703c2.548-8.777,8.07-15.714,15.997-19.961
		c12.175-6.512,24.916-10.901,39.074-8.777C289.55,84.659,290.824,84.942,292.098,85.225z"/>
	<path fill="#C0C1D1" d="M318.43,150.065c-0.708-0.142-1.84,0-2.124-0.425c-0.566-0.849,0.425-1.274,0.991-1.84
		c9.485-9.485,12.458-21.377,11.184-34.26c-0.566-6.088-3.681-11.184-7.786-15.573c-0.708-0.849-1.416-1.699-2.265-2.69
		c2.407-2.124,4.106-0.142,5.521,1.274c5.238,5.38,9.061,11.184,9.627,18.97c0.283,3.964-0.425,7.645-1.699,11.184
		c-2.831,7.786-5.946,15.573-12.6,21.094C318.43,148.507,317.722,149.074,318.43,150.065z"/>
	<path fill="#C0C2D5" d="M313.9,186.448c-0.283,0-0.566,0-0.849,0c-0.991-3.256,0.991-5.097,2.973-7.079
		c8.777-2.548,17.555-5.097,26.757-7.645c0,3.115-1.557,5.38-2.69,7.928C331.313,181.918,322.677,184.183,313.9,186.448z"/>
	<path d="M193.14,155.444c-0.283-2.973,2.124-3.115,4.106-3.681c6.371-1.699,12.883-2.265,19.395-2.973
		c7.928-0.849,15.856-1.133,23.925-1.699c1.133-0.142,2.548-0.425,2.69,1.274c0.283,1.84-1.133,2.124-2.407,2.265
		c-6.512,0.425-13.166,0.566-19.678,0.991c-6.229,0.566-12.458,1.416-18.687,2.265c-0.991,0.142-2.69,0.283-2.548,2.124
		C197.529,157.709,195.122,158.134,193.14,155.444z"/>
	<path d="M193.14,155.444c2.124,1.84,4.53,1.133,6.795,0.708c3.681,3.822,8.777,5.238,13.166,7.928
		c1.274,0.849,2.973,0.849,3.964,2.265c-6.229-1.133-12.034-3.681-17.838-5.804c-3.256-1.133-6.512-2.124-9.061,1.274
		C188.327,158.276,191.441,157.285,193.14,155.444z"/>
	<path fill="#B5B5C6" d="M317.722,174.981c-2.407,1.557-5.38,1.557-8.07,1.982c-3.822,0.566-7.079,2.548-10.335,4.106
		c-2.548,1.133-1.133,3.539-1.133,5.521c-1.557-1.416-3.681-2.69-2.69-5.38c0.991-2.407,3.115-3.539,5.663-3.964
		c0.425,0,0.991,0.142,1.133-0.142C306.68,171.583,312.484,174.981,317.722,174.981z"/>
	<path fill="#A7A5B6" d="M360.052,173.424c-1.133-3.398-0.425-6.795-0.142-10.193c0.142-1.557,0.142-3.115,0.142-4.53
		c5.38,4.53,5.521,5.663,0.849,10.759C359.769,170.734,360.618,172.15,360.052,173.424z"/>
	<path fill="#B4B5C8" d="M276.525,239.962c-1.84-4.813-2.548-9.768-1.274-14.865c0.991,1.133,1.133,2.69,2.124,3.822
		c1.84,2.124,2.124,4.955,0.425,7.503C277.092,237.414,276.667,238.688,276.525,239.962z"/>
	<path fill="#CACCD8" d="M292.806,160.116c5.804-1.84,11.75-3.256,16.847-6.795c0.708-0.566,1.699-0.566,2.548-0.142
		C306.538,157.851,300.168,160.541,292.806,160.116z"/>
	<path d="M360.052,173.424c2.124,17.413,4.247,34.826,10.052,51.532c0.708,2.124,1.699,4.247,2.69,6.371
		c2.69,2.69,4.389,5.663,2.124,9.485c-2.548-0.283-0.708-3.964-3.398-4.389c-0.991,1.416,0.283,4.106-2.407,4.53
		c-2.407-0.283-4.389,0.849-6.512,1.699c-6.512,1.84-13.308,2.265-20.103,2.407c-3.398-0.425-7.079,0.849-10.052-1.84
		c1.133-3.115,3.256-3.256,5.946-2.265c2.69,0.991,5.238,2.124,7.645-0.566c2.69-0.991,5.521,0,8.211-0.849
		c3.398-0.708,6.795-1.416,10.052-2.831c0.849-0.425,1.84-0.849,1.699-1.84c-0.142-1.416-1.416-1.274-2.407-1.133
		c-3.964,1.133-7.928-0.425-11.892-0.566c-0.283-3.539,2.548-2.407,4.247-2.548c2.265-0.283,4.53,0.142,5.663-2.548
		c2.548-0.566,4.672,0.283,6.229,1.557c-7.645-18.263-9.202-38.366-12.6-58.186c-1.416,2.265-2.265,4.813-2.973,7.503
		s-1.274,5.238-1.699,7.928c-0.425,2.831-0.991,5.521-1.274,8.353c-0.708,7.362-1.133,14.582-0.849,21.943
		c0,1.274,0,2.548,0.283,3.822c0.566,4.389,0.849,4.672,5.238,4.813c1.982,0,3.822,0,5.663,1.133
		c0.708,0.425,1.274,0.849,0.849,1.84c-2.124,1.557-4.53,1.84-6.937,0.708c-2.831-1.274-6.229,0.425-8.777-1.982
		c0.566-2.69-0.283-5.38-0.283-8.07c-0.708-15.29,0.849-30.296,4.106-45.161c0.142-0.708,0.283-1.557,0.566-3.256
		c-9.061,15.573-13.308,31.712-15.573,48.417c-0.283,1.982-0.425,4.106-0.708,6.088c-0.142,0.849-0.142,1.699-1.133,1.699
		s-1.699-0.708-1.84-1.699c-0.142-0.566,0-1.274,0-1.84c1.133-12.883,4.106-25.341,8.353-37.516
		c0.708-2.124,1.557-4.247,2.265-6.371c-0.142-1.982,0.708-3.681,1.274-6.229c-8.777,2.265-17.13,4.247-25.341,6.937
		c-2.69,0.991-5.521,1.699-8.353,2.548c-1.84,0.566-2.973,1.699-2.548,3.681c0.566,2.69,0.142,5.521,0.991,8.353
		c1.416,27.606,5.521,54.788,10.618,81.828c0.283,1.416,0.425,2.831,0,4.247c1.133,2.69-1.982,4.106-1.84,6.654
		c0,0.566-1.416,1.133-2.265,0.566c-0.849-0.425-1.557-1.133-1.274-2.124c1.416-4.389,0.425-8.636-0.283-12.883
		c-3.539-22.651-7.22-45.161-10.759-67.812c-0.991-6.229-1.416-12.458-2.124-18.829c-1.84-3.822-1.416-4.389,1.84-6.795
		c5.38-3.964,11.75-3.822,17.838-4.813c8.211-1.982,16.422-3.822,24.209-7.362c3.681-1.699,6.795-4.672,10.193-7.079
		c1.557-1.133,3.256-1.982,4.813-3.115c1.557-0.991,2.548-0.708,3.256,1.133c2.124,3.256,0.425,6.654,0,9.91
		C359.91,170.168,359.486,171.725,360.052,173.424z"/>
	<path fill="#A1A0B5" d="M316.024,179.37c-0.991,2.407-1.982,4.672-2.973,7.079c-2.973,2.265-7.503,2.973-7.786,7.928
		c-1.133-3.115-0.708-6.371-1.274-9.485c-0.283-1.982,1.133-2.407,2.548-2.831C309.653,181.21,312.767,180.219,316.024,179.37z"/>
	<path d="M345.47,240.528c0.566,1.274,0.283,2.265-1.274,2.407c-1.416,0.142-2.831,0-4.106-0.566c-2.69-1.274-5.238-1.557-7.928,0
		c-2.831,0.849-3.115,0.849-7.22-0.708c4.672,2.548,10.193,2.265,15.148,3.822c6.229,0.708,12.317,0.849,18.404-0.708
		c3.822,0,6.512-2.973,10.052-3.964c1.274-0.425,2.124-1.557,1.557-2.69c-1.133-2.265,0.708-2.69,1.84-2.973
		c2.124-0.566,1.416,1.557,1.982,2.548c0.425,0.849,0.142,1.982,0.283,2.973c0.425,2.265-0.708,3.964-2.265,5.521
		c-2.831,2.69-6.229,4.53-10.193,5.238c-12.317,1.982-24.35,0.566-36.101-3.539c-1.84-0.708-3.256-1.982-4.106-3.822
		c-2.69-5.097-1.699-6.795,3.256-9.485c6.229-3.398,12.458-6.654,19.678-6.795c5.38-0.708,10.476,2.265,15.856,0.849l0.425-0.142
		l0.283,0.283c1.416,1.133,1.699,2.265-0.425,2.69c-1.982,0.283-3.964,0.283-5.946,0.283c-1.274,0-2.69-0.283-2.831,1.557
		c0.142,2.265-0.849,4.106-1.699,5.946c-0.283,0.283-0.425,0.425-0.849,0.566C347.877,239.82,346.461,238.971,345.47,240.528z"/>
	<path fill="#CED2D9" d="M342.356,243.784c-0.708,1.133-2.69,0.708-3.115,2.265c-4.53-1.699-9.627-0.708-14.157-3.115
		c-1.274-0.708-2.831-1.274-2.69-3.681c3.256,1.274,6.371,2.831,9.627,2.973C335.277,244.209,338.816,243.784,342.356,243.784z"/>
	<path fill="#A3A5B5" d="M359.344,245.2c0.849-1.699,4.106-0.991,3.822-3.822c1.699-0.566,3.256-2.548,5.38-0.849
		C365.998,243.077,363.167,245.059,359.344,245.2z"/>
	<path d="M217.066,166.345c7.22,1.982,14.299,3.964,21.519,5.946c1.84,0.566,3.539,1.274,5.38,1.982
		c0.708,2.973-0.425,4.106-3.398,3.256c-4.247-1.274-8.494-2.69-12.883-3.681c-8.777-2.124-17.696-4.106-26.191-7.645
		c-2.69-1.133-0.849,1.84-1.982,1.84c0.566,9.202,2.831,17.979,5.238,26.757c2.973,10.335,5.663,20.811,10.759,30.438
		c0.142,0.142,0.283,0.425,0.283,0.566s-0.142,0.283-0.142,0.283c-1.699,0.991-3.822,0.283-5.804,0.991
		c-0.142,0.991,1.699,2.124,0.142,3.115c-0.991,0.566-2.124,0.566-3.256,0.566c-0.425,0-0.849,0-1.133,0
		c-1.274,0.283-3.822-0.849-3.539,1.416c0.142,1.84,2.548,0.849,3.964,0.708c0.283,0,0.566-0.142,0.708-0.142
		c1.416-0.142,2.831-0.142,4.247,0.425c0.991,0.849,2.548,0.991,2.548,2.69c-4.53,2.973-9.344,2.265-14.299,1.557
		c-2.69-3.539-0.425-6.512,0.849-9.91c-2.124-1.84-5.521,0.425-7.645-1.84c0.708-2.124,0.566-4.247,0.283-6.371
		c-1.982-12.741-3.964-25.624-4.389-39.074c-3.398,14.157-7.362,27.748-7.079,42.188c0.142,4.389,0.142,4.389,4.389,3.398
		c2.124-0.566,4.247-1.274,6.371-0.283c2.124,2.265,0,2.973-1.557,3.398c-2.831,0.991-5.663,1.274-8.353,2.407
		c-2.548,0.991-2.548-2.407-4.389-2.831c-1.982-7.503-0.566-15.007,0.425-22.51c1.982-15.29,6.795-29.73,12.034-44.029
		c0.991-3.398,3.539-3.681,6.512-2.973c6.229,1.416,12.034,4.247,17.979,6.512C215.367,165.637,216.216,165.92,217.066,166.345z
		 M192.291,171.866c-0.283,14.299,1.274,28.314,3.539,42.33c0.566,3.539,0.142,7.928,2.548,10.193
		c2.265,2.124,6.654,0.283,10.052,0.849c2.831,0.425,3.398-0.283,2.265-2.973c-7.22-18.687-13.025-37.658-15.573-57.902
		C192.149,166.345,192.432,169.177,192.291,171.866z"/>
	<path d="M177.567,228.353c0.425-2.265,1.133-0.425,1.416,0c1.133,1.982,1.982,2.973,4.53,1.133
		c1.557-1.133,4.106-0.849,6.229-1.274c1.274-0.283,2.548-0.566,2.548-2.265l0,0c2.548,0.142,4.955-0.566,7.503,0
		c0.991,0.283,2.124,0.283,2.407,1.557c0.283,1.274-0.849,1.133-1.557,1.699c-2.548,1.982-0.991,5.238-2.124,7.645
		c-1.274,1.982-3.256,1.699-5.238,1.84c-5.663,0.283-11.184-0.849-16.847-1.416c1.699,3.115,4.672,2.69,7.22,3.115
		c7.503,1.416,14.865,2.69,22.51,0.849c3.398-0.708,6.229-2.124,7.22-5.804c-1.133-0.142-2.407,0-2.548-1.699
		c0-1.557,1.557-1.274,2.407-1.84c-1.133-0.566-2.407-0.708-3.115-1.982c0.142-1.982-3.398-1.274-2.548-3.115
		c0.708-1.557,3.115-0.425,4.672-0.849c0.991-0.283,2.265,0,3.398,0.142c0.708-0.425,1.557-0.566,2.124-0.142
		c3.115,2.124,4.955,5.663,5.804,8.919c0.708,3.115-1.416,6.512-4.672,8.211c-13.449,6.937-27.182,7.786-41.056,1.274
		c-1.274-0.566-2.407-1.416-3.256-2.548c-0.849-1.416-1.84-2.69-2.69-4.106c-1.274-2.124,0.142-4.247,0.849-5.946
		c0.849-1.982,1.982,0.849,3.256,0.991c0.708,0.142,1.416,0.566,1.982-0.142C178.983,230.901,177.426,229.627,177.567,228.353z"/>
	<path fill="#FFFFFF" d="M262.085,154.595c-4.53-2.265-9.061-4.106-13.166-7.22c-9.344-7.079-15.998-15.856-14.582-28.031
		c1.416-12.741,9.768-20.811,20.952-26.049c8.919-4.247,18.546-6.088,28.314-6.795c2.831-0.142,5.663,0.566,8.353,0.991
		c6.654,1.133,12.458,4.247,18.263,7.645c10.759,6.229,13.308,22.793,10.618,32.278c-4.247,15.997-22.651,28.739-37.941,28.739
		C275.959,156.152,268.88,157.285,262.085,154.595z"/>
	<path d="M277.799,128.404c1.699,0,2.548,0.566,2.548,1.982c0,0.991-0.425,1.699-1.557,1.84c-1.274,0-2.265-0.425-2.548-1.84
		C276.242,129.254,277.092,128.687,277.799,128.404z"/>
	<path d="M289.833,130.245c0,0.991-0.425,1.84-1.557,1.84c-1.274,0-2.265-0.708-2.265-1.982c-0.142-1.274,0.708-1.84,1.982-1.699
		C289.267,128.404,289.691,129.112,289.833,130.245z"/>
</g>
</svg>
