<?xml version="1.0" encoding="utf-8"?>
<!-- Generator: Adobe Illustrator 17.0.2, SVG Export Plug-In . SVG Version: 6.00 Build 0)  -->
<!DOCTYPE svg PUBLIC "-//W3C//DTD SVG 1.1 Tiny//EN" "http://www.w3.org/Graphics/SVG/1.1/DTD/svg11-tiny.dtd">
<svg version="1.1" baseProfile="tiny" id="Layer_1" xmlns="http://www.w3.org/2000/svg" xmlns:xlink="http://www.w3.org/1999/xlink"
	 x="0px" y="0px" width="425.043px" height="364.712px" viewBox="0 0 425.043 364.712" xml:space="preserve">
<path fill="#FDFDFD" d="M126.691,286.38c-4.146,0.549-8.363-0.46-12.291,2.716c-2.569,2.077-6.375-0.536-9.672-0.603
	c-4.622-0.094-4.331-3.936-4.771-6.879c-1.294-8.657-1.343-17.239-0.518-26.073c0.629-6.731,1.741-14.066-1.178-20.866
	c-0.748-1.743-2.134-2.841-3.795-2.638c-1.697,0.207-2.353,2.202-1.951,3.533c2.927,9.706-2.01,19.318-0.222,29.001
	c0.218,1.178-0.384,2.604-0.883,3.8c-1.355,3.245-1.462,6.175,0.401,9.45c4.027,7.08,0.474,16.43-7.437,18.714
	c-1.966-3.511-0.838-7.283-0.248-10.704c2.875-16.658,2.831-33.443,2.899-50.235c0.022-1.705,0.549-3.297,1.128-4.872
	c4.609-7.847,10.334-14.944,15.359-22.521c4.306-6.492,7.991-13.341,12.049-19.973c0.755-1.235,1.051-2.866,2.835-3.186
	c1.806,0.142,2.586,1.444,3.263,2.867c0.648,2.998,5.097,4.607,3.155,8.558c-3.454,1.239-7.492,1.743-8.187,7.32
	c4.528-3.732,9.926-4.982,14.202-8.371c5.55-2.081,11.211-3.378,17.184-2.51c2.224,4.334,1.529,6.556-2.582,8.047
	c-1.185,0.43-2.977,0.126-3.009,1.963c-0.033,1.905,1.724,1.645,2.963,1.906c0.325,0.068,0.753,0.002,0.967,0.201
	c7.383,6.832,15.53,1.309,23.322,1.485c3.002,0.068,6.633-2.334,8.677,1.992c-2.35,1.345-3.308,3.381-3.434,6.063
	c-0.819,17.43-2.368,34.84-1.53,48.769c-0.702-13.527,0.548-30.541,1.55-47.567c0.226-3.847,2.147-5.746,5.78-6.243
	c5.149-0.705,10.29-0.654,15.427,0.148c2.314,0.362,4.644,0.621,6.906-0.249c0.772-0.297,1.567-0.771,1.579-1.722
	c0.015-1.171-0.833-1.808-1.84-2.063c-2.61-0.66-4.916,0.466-7.2,1.458c-5.407,2.349-10.929,2.565-16.571,1.071
	c-2.473-2.095-1.242-4.499-0.511-6.825c1.587-5.046,0.645-6.565-3.624-9.853c-3.274-2.522-5.888-5.892-10.066-7.15
	c-1.459-3.905-1.782-7.984-1.881-12.092c-0.366-2.659,0.145-5.318,0.056-7.975c-0.08-2.395,0.412-4.568-2.003-6.841
	c-2.19-2.061-0.746-6.045-0.978-9.181c0.066-1.319,0.204-2.616,1.09-3.684c2.097-0.624,1.927,1.691,3.498,3.149
	c0.498-12.328,0.793-23.872,0.414-35.432c0.392-2.545-1.269-4.608-1.638-6.973c0.578-0.854,1.331-1.77,2.351-1.657
	c7.923,0.883,15.779-2.146,23.725-0.309c3.028,0.7,5.374-0.369,5.873-3.699c0.395-2.635,1.995-3.283,4.221-3.089
	c3.455,0.301,6.916,0.622,10.342,1.147c1.737,0.266,2.001,1.998,2.513,3.398c2.207,6.039,7.269,3.229,11.143,3.254
	c3.157,0.02,5.101-1.912,4.193-5.714c-0.425-1.78,1.434-2.82,2.598-3.967c1.263-0.62,1.895,0.335,2.363,1.137
	c4.026,6.902,10.254,11.723,15.87,17.154c3.556,3.439,6.249,7.677,9.828,11.191c2.565,2.518,1.586,10.235-0.902,13.378
	c-1.997-0.092-2.985-1.125-3.113-3.133c-0.259-4.052-2.569-5.884-6.528-5.881c-1.17,0.001-2.617-0.004-2.766-1.451
	c-0.119-1.163,1.214-1.318,2.154-1.652c1.215-0.432,2.853-0.69,2.874-2.317c0.026-1.99-1.901-1.385-3.025-1.781
	c-2.534-0.892-3.469-2.791-3.823-5.308c-0.263-1.876-1.05-3.551-3.469-3.455c-2.688,0.107-3.267,2.065-3.364,4.115
	c-0.458,9.63-0.782,19.225,0.619,28.867c0.71,4.888,0.509,10.098-0.343,14.977c-1.156,6.616,1.371,13.097-0.048,19.627
	c-0.531,2.445,0.941,3.349,3.101,3.37c3.298,0.032,4.407,2.333,4.452,4.913c0.045,2.565-0.955,4.844-4.23,5.137
	c-4.156,0.372-2.598,3.005-1.076,4.315c2.475,2.131,5.465,3.148,9.065,3.063c5.881-0.14,11.998-0.3,17.602,1.149
	c4.134,1.069,7.828,1.137,11.792,0.443c0.555,0.575,0.621,1.246,0.392,1.976c-0.239,0.411-0.541,0.772-0.9,1.083
	c-4.09,3.11-8.745,2.614-13.215,1.558c-4.4-1.04-6.038-0.162-6.691,4.746c0.071,0.746-0.089,1.417-0.618,1.972
	c-2.32,0.717-1.642,2.27-1.326,3.987c1.053,5.73,1.165,11.496,0.027,17.246c-3.272,0.759-4.912-0.356-4.315-3.744
	c0.593-3.367-0.05-6.552-0.196-9.983c-1.919-0.022-4.011,2.23-5.791-0.226c-0.757-1.675-0.743-3.363-0.103-5.06
	c1.024-2.005,3.945-1.468,5.104-4.251c-1.603,0.944-2.927,1.767-4.393,0.996c-0.365-0.346-0.661-0.76-0.745-1.248
	c-1.289-7.489-1.561-7.603-8.456-3.477c-7.652,1.206-15.41,1.566-23.053,2.81c6.379-1.075,12.852-1.419,19.266-2.22
	c3.586-0.448,5.763,1.601,5.183,5.539c-1.365,9.265-0.005,18.618-1.409,27.864c-0.699,4.607-0.482,9.276,0.1,13.924
	c1.121,8.946,0.457,17.933,0.431,26.903c-0.005,1.821-0.291,3.799-2.583,4.311c-2.207,0.493-3.496-0.855-4.245-2.646
	c-1.407-3.364-3.167-3.013-5.655-1.037c-4.916,3.904-10.506,5.062-16.838,4.58c-10.451-0.795-20.492-3.864-30.587-4.461
	c2.062,1.687,5.682,1.769,7.703,4.443c0.82,1.733-1.563,1.861-1.641,3.151c8.59,3.923,17.842,3.939,26.919,4.909
	c1.944,0.208,4.053-0.306,5.646,1.356c-1.195,3.77-3.374,6.011-7.693,5.044c-4.668-1.046-10.047,0.516-13.662-4.426
	c-1.114-1.523-4.112-1.168-5.726-0.485c-6.088,2.576-9.02-1.474-12.269-5.16c-4.662-5.288-6.849-5.072-10.643,1.033
	c-4.09,6.58-13.494,6.851-18.223,0.705c-1.888-2.454-2.862-6.055-6.785-6.421c1.749-2.28,4.259-1.925,6.329-1.184
	c4.595,1.644,9.384,1.567,14.082,2.212c3.726-0.25,5.207-2.422,5.214-5.96c0.006-2.666-0.099-5.333,0.061-8.005
	c0.749-5.616,1.428-11.176-0.248-16.807c-0.926-3.111,1.151-6.11,1.106-9.314c-0.093-6.648-0.112-13.273-0.894-19.904
	c-0.463-3.93-0.463-7.976,0.585-11.889c-0.181-3.67-2.972-2.329-4.778-2.282c-8.025,0.208-16.045,0.683-24.054-0.249
	c-1.874-0.676-2.848-1.888-3.144-3.995c-0.617-4.387-4.593-6.569-7.482-3.577c-4.87,5.044-11.194,4.331-16.919,6.22
	c7.008-1.649,14.053-2.152,21.179-1.019c1.462,0.233,3.025-0.081,3.994,1.44c1.206,1.884,3.129,1.523,4.905,1.555
	c4.447,0.081,8.894,0.026,13.342,0.047c3.255,0.015,5.057,0.872,5.069,4.798c0.012,4.337-0.504,8.525-1.309,12.733
	c-0.957,2.752-0.626,5.607-0.637,8.424c-0.039,10.826,0.073,21.654-0.052,32.479c-0.073,6.291-1.988,7.728-8.054,6.422
	c-9.975-2.148-20.136-2.407-30.266-2.901c-1.905-0.093-4.419-0.786-4.195,3.006c0.11,1.859-2.609,1.588-3.996,2.38
	c-0.825,0.317-1.679,0.328-2.541,0.259c-0.976-0.567-1.177-1.534-1.305-2.541c-2.406-18.924-5.009-37.834-3.873-56.998
	c0.039-0.664,0.259-1.301,0.188-1.95c-0.372,8.903-0.768,17.844-0.111,26.714c0.733,9.901,2.309,19.741,3.381,29.625
	c0.211,1.942-0.458,4.529,2.318,5.5c2.713,1.369,5.503,1.512,8.553,1.333C120.151,284.198,124.051,282.62,126.691,286.38z"/>
<path fill="#02030B" d="M257.493,137.534c0.221-3.628,0.459-7.256,0.648-10.886c0.033-0.641,0.081-1.7-0.249-1.878
	c-4.444-2.397-6.304-7.268-9.792-10.34c-6.739-5.935-13.311-11.841-17.766-19.757c-6.753-17.922-0.732-33.258,10.288-47.11
	c14.177-17.822,32.871-27.671,55.606-30.302c23.105-2.674,45.258-0.107,66.382,9.961c1.475,0.703,3.15,0.986,4.732,1.464
	c9.353,2.931,16.264,8.612,20.053,17.808c2.722,3.653,4.363,7.841,5.962,12.05c2.77,9.668,0.598,18.337-5.229,26.313
	c-2.16,2.956-4.176,6.018-6.362,8.953c-2.462,2.867-5.019,5.653-7.735,8.291c-1.805,1.753-3.295,3.686-3.418,6.354
	c-0.701,3.703-1.817,7.307-3.36,10.706c-1.459,3.212-3.53,6.032-7.876,4.373l0.006-0.006c-1.088-4.283-3.238-4.659-7.016-2.577
	c-7.559,4.165-15.662,7.086-24.088,9.058c-3.521,1.203-8.025,0.686-9.495,5.461c-1.594,14.501-2.131,29.033-1.918,43.602
	c0.05,3.443-0.258,6.795-4.788,7.302c-5.655,1.276-11.451,3.869-17.025,2.894c-4.937-0.863-9.857-0.939-14.743-1.642
	c-8.361-1.202-16.956,0.151-25.175-2.402c-1.189-0.369-2.803-0.158-2.963-2.043c-0.137-1.605,1.32-1.501,2.12-2.185
	c2.422-2.07,2.498-5.261,2.938-8.123C259.037,161.117,258.102,149.32,257.493,137.534z"/>
<path fill="#FCFDFD" d="M262.687,286.384c-2.735,1.093-5.449,2.241-8.211,3.261c-2.268,0.837-1.984,2.719-2.135,4.522
	c-0.197,2.334-0.867,4.151-3.669,2.204c-2.326-1.616-3.995-0.321-4.779,1.586c-0.852,2.073-1.12,4.285-4.16,3.457
	c-3.26-0.888-2.107-3.624-2.358-5.766c0.921-2.624,3.523-2.688,5.549-3.565c3.172-1.375,4.199-3.311,3.543-6.972
	c-0.934-5.217-3.181-9.379-7.135-12.768c-0.935-13.002-0.708-26-0.156-38.998c0.438-1.763,0.804-3.539,1.035-5.353
	c0.12-0.948,0.336-2.14,1.52-2.301c1.432-0.194,1.909,1.073,2.364,2.1c0.89,2.006,0.457,4.275,1.165,6.32
	c0.887,5.6,0.326,11.25,0.461,16.881c0.103,4.293-0.319,8.628,2.078,12.579c1.153,1.901,0.003,3.867-0.38,5.789
	c-0.167,0.839-0.099,1.766,0.797,2.129c1.261,0.511,1.771-0.507,2.191-1.411c0.641-1.379,0.462-2.951,0.911-4.365
	c0.352-1.109,0.408-2.868,2.459-1.933c1.111,3.08,0.527,6.19,0.397,9.302c0.269-13.292,2.223-26.502,1.829-39.834
	c-0.138-4.656,0.15-9.272,0.921-13.888c1.294-7.738,3.555-9.812,11.497-10.246c3.125-0.171,6.318,0.612,9.369-0.628
	c3.231,0.18,6.501,0.065,9.637,1.103l-0.111-0.116c2.904,2.319,6.424,2.354,9.859,2.57c11.937,0.75,13.252,1.939,12.639,13.696
	c-0.82,15.73-2.264,31.424-3.072,47.158c-0.094,1.835-0.529,3.613-1.406,5.255c-0.765,1.314-1.906,2.092-3.396,2.355
	c-8.851-0.831-17.807,1.34-26.653-1.041c-3.63-0.977-7.495-0.748-10.923-2.925c-2.383-1.513-3.165-0.927-3.133,1.867
	c0.031,2.741-2.01,1.984-3.403,2.404c-0.958,0.151-2.386-0.225-2.716,0.777c-0.54,1.638,1.225,1.552,2.142,2.047
	C259.042,284.598,261.781,283.677,262.687,286.384z"/>
<path fill="#020207" d="M415.692,244.141c3.307-14.045,1.932-27.686-3.497-40.991c-1.683-4.125-3.542-8.104-7.336-10.779
	c-2.014-0.905-3.449,0.175-4.682,1.516c-1.231,1.339-2.754,2.099-4.393,2.724c-1.467,1.243-3.02,1.153-4.495,0.116
	c-1.378-0.968-2.226-1.766-0.203-3.367c12.794-10.129,16.3-23.904,14.458-39.337c-1.328-11.126-11.854-19.639-23.034-20.07
	c-12.759-0.491-24.309,2.93-35.158,9.379c-13.305,7.909-22.341,31.287-10.342,47.743c1.7,2.332,2.839,3.613,5.109,0.741
	c0.961-1.216,2.59-2.292,3.882-0.709c1.255,1.538-0.81,1.974-1.615,2.675c-2.289,1.993-3.296,3.785,0.198,5.584
	c1.215,0.626,2.275,1.55,3.406,2.338c0.191,0.715,0.102,1.135-0.771,0.736c-0.616-0.29-1.262-0.53-1.843-0.878
	c-5.477-3.281-5.615-3.347-8.228,2.718c-4.55,10.558-6.966,21.505-4.976,33.414c-3.315-1.344-3.074-4.275-3.148-6.39
	c-0.4-11.401,1.971-22.291,7.511-32.306c1.42-2.568,1.451-4.056-0.398-6.51c-13.912-18.467-5.592-46.076,16.178-55.407
	c11.073-4.746,22.487-6.438,34.325-5.708c2.805,0.173,5.529,1.646,8.29,2.522c5.173,0.662,8.535,3.951,11.366,7.938
	c1.51,2.127,2.625,4.491,3.694,6.873c3.734,9.607,1.001,19.034-0.772,28.483c-0.269,0.915-0.629,1.819-1.122,2.63
	c-1.715,2.82-1.453,5.113,1.628,6.753c2.052,2.321,4.429,4.433,5.003,7.712c7.076,12.966,9.341,26.918,8.498,41.505
	c-1.664,2.315-1.006,5.267-2.118,7.739C419.49,245.4,417.823,246.864,415.692,244.141z"/>
<path fill="#020308" d="M374.689,309.479c-0.414,9.876,1.862,19.572,2.587,29.76c1.971-3.973,4.012-7.913,5.901-11.924
	c9.221-19.579,18.137-39.285,22.773-60.577c1.327-6.093,2.392-12.257,3.229-18.436c0.454-3.35,1.854-4.389,4.967-3.403
	c1.873,1.236,1.467,3.045,1.237,4.829c-0.862,6.681-2.207,13.276-3.497,19.878c-1.199,5.987-2.998,11.808-5.236,17.478
	c-4.533,11.482-9.266,22.881-14.787,33.935c-0.498,0.997-0.772,2.079-1.115,3.133c-3.642,6.733-6.896,13.663-10.282,20.529
	c-0.923,1.557-1.455,3.263-1.933,4.989c-1.171,4.229-5.059,5.588-8.271,7.507c-1.261,0.754-3.061,0.254-2.908-2.042
	c2.731-1.03,3.062-3.169,2.878-5.745c-1.459-20.37-1.302-40.759-0.57-61.151c0.394-10.96,1.961-21.813,3.097-32.704
	c0.14-1.341,0.79-2.629,1.204-3.942c3.884-0.865,6.395,1.023,5.388,4.597c-3.46,12.278-2.369,25.098-4.772,37.523
	C373.603,298.756,373.991,304.222,374.689,309.479z"/>
<path fill="#010207" d="M108.386,282.578c0.325-0.377,0.65-0.754,0.974-1.132c9.055-3.296,18.202-1.7,27.398-0.746
	c5.261,0.546,10.541-0.998,15.919-0.315c3.412,0.433,3.206-2.594,3.208-4.946c0.009-12.667-0.014-25.333,0.026-38
	c0.005-1.633-0.428-3.335,0.45-4.899c0.898-4.99,0.488-10.05,0.843-15.065c0.148-2.084-1.137-0.771-1.559-0.788
	c-6.086-0.246-12.198,0.46-18.264-0.524c-1.488-0.241-3.714,0.21-2.809-2.629c1.001-0.791,2.035-0.527,3.074-0.096
	c8.657,0.049,17.312,0.921,25.986-0.492c1.102-0.179,6.702-2.101,4.741,3.603c-3.57,1.905-3.279,5.397-3.562,8.657
	c-0.874,10.053-0.855,20.147-1.412,30.217c-1.179,6.398-0.755,12.818-0.273,19.239c0.199,0.552,0.33,1.115,0.423,1.693
	c0.175,3.249,0.88,6.553-0.972,9.597c-3.276,3.037-7.443,1.804-10.972,1.515c-6.44-0.527-12.897,0.019-19.301-0.772
	c-1.86-0.308-3.706-0.867-5.614-0.317c-4.186-1.076-8.411-0.809-12.64-0.361c-2.305,0.244-4.651,0.614-5.78-2.209
	C107.741,283.347,107.78,282.936,108.386,282.578z"/>
<path fill="#020306" d="M304.325,278.525c1.896-19.99,3.189-40.018,3.937-60.084c0.107-2.861-1.002-3.694-3.669-3.915
	c-4.783-0.396-9.53-1.207-14.304-1.749c-2.069-0.235-3.679-0.672-2.974-3.305c8.194-0.213,16.012,2.469,24.093,3.129
	c5.208-0.778,3.867,3.163,4.245,5.873c-0.966,3.299-0.003,7.064-2.387,10.029c-0.881,14.166-1.764,28.332-2.643,42.498
	c-0.112,1.808-0.207,3.618-0.31,5.427c-1.268,3.101,1.34,5.867,0.753,8.964c-0.257,1.356,0.556,2.914-0.823,4.06
	c-5.694,2.178-11.416,0.435-17.088-0.03c-10.171-0.833-20.314-2.008-30.469-3.04c-2.346-0.585-4.723-1.071-7.028-1.789
	c-1.496-0.466-3.509-0.981-3.112-3.069c0.491-2.582,2.538-2.5,4.59-1.875c11.619,0.651,23.047,3.031,34.648,3.793
	c0.798,0.134,1.561,0.472,2.362,0.581C300.402,284.882,301.443,284.309,304.325,278.525z"/>
<path fill="#020307" d="M381.404,221.832c-0.866-1.174-1.733-2.349-2.599-3.523c-1.61-1.327-1.851-3.269-2.3-5.118
	c-4.136-7.009-8.043-14.128-10.575-21.91c-0.912-2.803-0.282-4.624,3.023-4.737c2.274,2.629,2.723,5.928,3.362,9.157
	c6.868,13.761,13.314,27.775,23.878,39.298c0.988,1.078,0.777,1.259-2.262,1.638c-2.263-0.981-5.101-0.956-6.401-3.632
	c-1.454-1.977-3.236-1.685-5.188-0.856c-1.53,0.65-3.085,1.234-4.528,2.081c-11.177,4.821-22.674,8.602-34.675,10.765
	c-1.759,0.361-3.449-1.068-5.229-0.195c-1.653,0.127-3.304,0.282-4.958,0.369c-1.104,0.058-2.365,0.18-2.524-1.389
	c-0.146-1.451,0.495-2.024,2.079-2.337c7.02-1.39,14.163-2.103,21.084-4.058c8.385-2.369,16.433-5.602,24.428-9
	c1.55-0.659,2.894-1.607,3.613-3.226C381.955,224.022,381.737,222.923,381.404,221.832z"/>
<path fill="#030408" d="M161.376,144.54c-0.05,1.201-0.099,2.403-0.149,3.604c-0.774,9.525,0.931,18.933,1.349,28.399
	c-0.169,5.888-5.645,6.558-9.081,9.245c-4.616,3.009-9.713,4.22-15.186,4.193c-4.329-0.021-8.671-0.235-12.986,0.262
	c-2.028,0.234-3.565-0.481-4.859-1.942c-0.469-1.082-0.455-2.506-2-2.827c-1.044-0.467-1.578-1.215-0.939-2.293
	c0.672-1.134,1.656-1.513,2.87-0.71c6.652,1.05,13.215,0.05,19.79-0.817c3.607-0.475,5.142-3.421,7.046-5.844
	c1.877-2.389,3.279-3.342,4.731,0.303c0.335,0.841,0.209,2.754,2.037,2.125c1.559-0.536,2.112-1.818,2.119-3.549
	c0.053-13.116,0.136-26.232,0.332-39.346c0.112-7.468,0.454-14.933,0.692-22.399c0.043-1.331,0.014-2.686,1.166-3.664
	c4.174-1.2,4.161,1.807,4.5,4.468c0.35,8.578,0.141,17.16,0.106,25.741C162.906,141.291,162.885,143.164,161.376,144.54z"/>
<path fill="#C3C7D9" d="M389.762,324.214c1.969-6.502,5.319-12.411,8.024-18.595c4.811-10.997,9.125-22.177,12.854-33.582
	c0.204-0.623,0.095-1.349,0.132-2.027c2.486-1.407,3.728-3.533,4.109-6.376c0.37-2.757,1.516-5.34,2.377-7.979
	c0.639-1.956,1.807-3.451,4.21-3.197c-2.876,14.186-6.571,28.16-10.686,42.033c-0.663,2.234-1.621,4.296-2.569,6.387
	c-1.932,2.794-4.584,5.225-4.535,9.023c0.003,0.25-0.181,0.564-0.387,0.722c-5.072,3.881-6.238,10.386-10.14,15.034
	c-0.886,1.055-1.463,3.295-3.245,2.524C387.936,327.328,390.622,325.551,389.762,324.214z"/>
<path fill="#CACDDD" d="M240.417,273.517c3.984,0.503,6.381,2.394,5.955,6.778c-0.031,0.321,0.031,0.658,0.094,0.979
	c1.974,10.023,1.974,10.02-7.787,13.673c-0.458,0.171-0.871,0.463-1.304,0.699c-7.333,0.63-14.667,1.259-22,1.888
	c-11.218-0.255-22.395-0.771-33.065-4.827c-1.179-0.448-3.174-0.059-3.189-1.683c-0.017-1.766,1.879-1.408,3.147-1.489
	c0.868-0.055,1.619-0.283,2.113-1.057c1.669-1.593,3.706-1.312,5.656-0.948c7.843,1.467,15.766,2.504,23.647,3.625
	c8.192,1.165,16.545,0.003,24.771-1.174c2.391-0.342,2.352-1.634,1.692-3.564C238.676,282.121,237.867,277.763,240.417,273.517z"/>
<path fill="#D6D9E9" d="M389.762,324.214c1.688,0.958-0.419,2.265,0.451,3.514c3.113-3.65,5.78-7.49,7.117-12.081
	c0.407-1.399,1.374-1.936,2.36-2.691c2.135-1.634,3.828-3.432,3.567-6.561c-0.279-3.335,3.302-3.66,4.956-5.518
	c0.44,2.699-1.312,4.743-2.334,6.895c-3.048,6.416-6.369,12.7-9.779,18.943c-3.438,6.293-6.269,13.032-9.376,19.572
	c-0.425,0.894-0.866,1.727-1.806,2.171c-0.231,0.166-0.48,0.29-0.753,0.33c-6.185,0.907-5.359,0.472-4.327-4.484
	C382.861,337.467,386.019,330.696,389.762,324.214z"/>
<path fill="#040507" d="M343.943,250.792c-1.509,8.127,0.467,15.992,2.026,23.83c4.585,23.051,10.539,45.734,19.067,67.681
	c0.672,1.729,1.482,3.404,1.894,5.262c-3.722-4.279-5.999-9.359-7.942-14.561c-7.896-21.137-12.629-43.139-17.451-65.102
	c-0.975-4.439-1.158-9.069-1.479-13.626c-0.164-2.321-0.171-4.752,1.387-6.787C344.752,246.719,344.485,248.651,343.943,250.792z"/>
<path fill="#DDE0EF" d="M343.12,244.17c12.02-2.604,23.611-6.602,35.128-10.838c3.484,1.43,6.623-0.832,9.964-0.933
	c1.239,2.314,3.84,2.788,5.719,4.236c-1.999,1.463-3.986,2.812-6.492,3.487c-1.801,0.486-3.097,0.369-3.842-1.208
	c-1.242-2.629-2.519-1.845-4.525-0.756c-9.325,5.066-19.584,7.499-29.781,10.041c-1.484,0.37-3.049,0.136-4.436-0.687
	C344.463,246.304,342.943,245.677,343.12,244.17z"/>
<path fill="#00ADBC" d="M132.129,136.235c0.132-0.815,0.265-1.631,0.397-2.446c4.533,3.077,9.394,1.949,14.228,1.106
	c1.079,0.814,2.542-0.451,3.577,0.641c0.003,0.986,0.006,1.971,0.009,2.957c-2.942,3.095,1.244,2.783,1.971,4.124
	c-0.003,5.378-0.006,10.757-0.009,16.135c-3.981,2.228-8.318,0.704-12.467,1.17c-1.717,0.193-3.845-0.312-3.576,2.584
	c-0.202,1.624-0.669,3.115-2.057,4.146c-2.303-0.201-1.739-2.035-1.731-3.335c0.014-2.531-0.656-4.792-2.023-6.883
	C132.519,149.826,129.411,142.788,132.129,136.235z"/>
<path fill="#00ADBC" d="M186.542,74.212c-3.52-1.313-6.85,0.243-10.054,1.104c-2.773,0.745-2.064-0.858-1.692-1.832
	c2.814-7.351,7.562-10.152,15.617-10.769c6.439-0.492,12.862-1.724,19.165-3.176c2.123-0.489,3.728-0.33,6.663,0.278
	c-4.924,3.501-5.5,10.49-12.514,10.13C197.517,69.424,192.24,72.667,186.542,74.212z"/>
<path fill="#00ADBC" d="M205.196,53.019c-0.82,0.881-1.371,2.132-2.863,2.094c-2.231,0.834-4.244,0.495-6.02-1.12
	c-4.897-3.634-9.758-7.318-14.705-10.882c-2.814-2.027-2.99-3.654,0.018-5.765c7.733-5.426,10.576-5.276,19.166,1.732
	c2.114,1.725,3.848,3.954,6.632,4.713c1.339,0.365,2.627,0.737,2.446,2.542c-0.185,1.846-0.199,3.831-2.916,3.665
	c-2.932,0.907-5.092-0.953-7.324-2.215c-3.15-1.781-6.276-3.537-10.482-4.687c1.614,2.904,4.178,3.207,6.196,4.329
	C198.645,49.259,202.967,49.308,205.196,53.019z"/>
<path fill="#00ADBC" d="M206.11,11.858c-2.374-1.397-1.132-4.989-4.011-6.41c-0.725-0.358,1.571-2.227,2.666-2.512
	c2.66-0.692,5.254-1.399,7.762-2.59c2.443-1.16,3.975,0.818,4.514,2.561c1.763,5.708,4.34,10.974,7.23,16.171
	c1.001,1.801,0.833,3.838-1.573,5.496c-8.956,6.17-13.876,3.79-15.451-7.778c-0.044-0.323,0.035-0.663,0.056-0.994
	c3.841,0.593,5.319,4.781,8.859,5.878C216.492,16.254,211.897,11.787,206.11,11.858z"/>
<path fill="#D1D4E4" d="M312.079,186.374c2.64-1.233,3.762-3.002,3.572-6.198c-0.929-15.575,0.037-31.095,2.008-46.559
	c2.226-1.164,2.831,1.755,4.572,1.815c0.381,13.219-0.261,26.358-2.665,39.399c-0.473,2.567-0.393,5.319-0.084,7.928
	c0.473,3.99-2.552,4.537-5.033,5.607C312.602,189.162,313.924,185.81,312.079,186.374z"/>
<path fill="#DCDFEC" d="M374.689,309.479c-1.158-11.787-0.36-23.535,0.833-35.261c0.64-6.293,0.545-12.639,3.175-18.743
	c0.979-2.272-1.649-4.34-4.733-3.883c1.223-2.585,3.074-2.517,5.502-1.68c2.887,0.994,1.17,2.863,1.214,4.424
	c0.073,2.586-0.646,5.112-0.137,7.773c0.431,2.255-0.099,4.458-1.17,6.749c-2.318,4.959-0.806,10.457-1.321,15.696
	c-0.306,3.112,1.735,7.029-2.861,8.89c-0.395,0.16-0.231,1.808-0.252,2.767C374.842,300.632,374.77,305.056,374.689,309.479z"/>
<path fill="#050507" d="M101.27,128.18c0-1.141-0.002-1.307,0-1.474c0.179-15.199,0.178-15.207,15.293-17.191
	c12.171-1.597,24.436-1.615,36.671-2.129c1.203-0.051,3.14-0.683,3.071,1.305c-0.064,1.87-1.988,1.137-3.192,1.22
	c-14.385,0.988-28.892,0.341-43.103,3.679c-4.527,1.064-6.496,2.572-6.171,7.887c0.516,8.421,0.327,16.888,1.552,25.282
	c0.141,0.963,0.793,2.621-1.096,2.675c-1.778,0.051-1.902-1.445-2.002-2.842C101.832,140.135,100.842,133.708,101.27,128.18z"/>
<path fill="#B3B4CA" d="M421.467,252.457c-4.747,2.84-4.477,8.017-5.74,12.453c-0.757,2.657-0.84,5.784-4.956,5.099
	c1.341-7.599,2.67-15.2,4.036-22.794c0.167-0.927-0.263-1.597-0.661-2.318c0.601-0.077,1.245-0.068,1.546-0.757
	c2.008,1.816,3.571,0.807,5.041-0.793c1.065,0.895,1.873,1.974,2.351,3.289C423.656,248.885,421.647,250.417,421.467,252.457z"/>
<path fill="#DEE0ED" d="M407.983,178.161c1.137-8.224,4.055-16.25,2.265-24.811c-0.357-1.708-1.719-3.115-1.344-4.97
	c-0.453-1.561-0.34-2.765,1.727-2.733c4.793,9.406,5.933,19.038,2.069,29.097c-0.604,1.573-1.033,3.419-0.425,5.216
	C410.284,180.697,409.157,179.372,407.983,178.161z"/>
<path fill="#C6C9DB" d="M359.377,123.534c3.812,1.253,5.619-0.899,6.649-4.071c1.282-3.949,2.405-7.949,3.596-11.927
	c2.935-3.064,5.287-7.142,10.59-6.085c-1.582,3.18-2.095,6.793-4.645,9.615c-2.537,2.808,0.069,6.76-1.715,10.08
	c-1.916,3.565-3.842,5.357-7.548,2.467c-1.012-0.789-1.427,0.148-2.072,0.471C362.491,124.955,360.8,125.446,359.377,123.534z"/>
<path fill="#090A0B" d="M370.687,187.398c2.033-0.385,3.858,0.321,5.535,1.284c11.157,6.409,21.371,14.037,30.092,23.562
	c0.549,0.599,1.237,1.154,0.884,2.76c-10.509-8.122-19.85-17.468-31.619-23.43C373.649,190.533,369.182,192.463,370.687,187.398z"/>
<path fill="#D2D3E4" d="M380.45,93.855c1.634-2.432,3.131-4.971,4.927-7.278c6.452-8.288,9.761-17.424,7.98-28.033
	c4.707,11.08,4.794,21.552-4.226,30.712c-2.199,2.233-2.956,5.546-5.701,7.324C382.369,95.745,379.472,96.919,380.45,93.855z"/>
<path fill="#B3B2BB" d="M125.395,167.545c-0.959-0.329-1.917-0.658-2.876-0.987c2.337-6.52,4.92-12.984,6.143-19.823
	c0.577-3.226,1.505-6.863-2.266-9.158c1.408-2.596,3.565-1.99,5.732-1.342c1.518,4.877-1.067,10.04,1.277,15.021
	c0.736,1.564-2.755,2.92-2.958,5.178C128.002,159.791,127.98,164.25,125.395,167.545z"/>
<path fill="#C0C0D3" d="M379.838,344.304c1.114,1.3,0.136,2.766-0.061,4.825c1.976-2.096,3.558-1.52,5.14-0.672
	c-4.299,5.385-9.291,10.264-16.199,11.386c-4.075,0.662-2.082-2.729-1.365-4.71c0.2,0.863,0.601,1.559,1.582,1.645
	c2.017,0.177,8.313-5.224,8.59-7.318C377.782,347.517,378.323,345.689,379.838,344.304z"/>
<path fill="#C1C5D5" d="M328.4,129.652c9.221-4.023,19.081-6.525,27.784-11.798c2.265-1.372,3.868-1.128,3.181,2.233
	c-0.225,1.1-0.001,2.292,0.018,3.442c-4.753-1.909-8.306,1.783-12.428,2.761c-6.178,1.466-12.162,3.749-18.561,4.27
	C327.926,130.253,327.929,129.951,328.4,129.652z"/>
<path fill="#130D05" d="M147.354,135.472c-1.552,0.445-3.1,0.905-4.658,1.331c-4.01,1.096-7.766,1.307-10.172-3.015
	c-0.979-1.142-1.647-2.364-0.995-3.922c4.912-3.355,10.428-2.237,15.795-2.061c1.004,0.033,1.828,0.858,1.943,1.964
	c0.129,1.234-0.906,1.757-1.79,2.078c-2.478,0.901-5.093,0.996-7.483,1.08C142.204,133.981,146.375,130.151,147.354,135.472z"/>
<path fill="#C2C3CF" d="M410.631,145.647c-1.29,0.46-1.525,1.586-1.727,2.733c-2.887-6.536-7.37-11.533-13.975-14.482
	c0.299-2.671,2.658-3.827,4.855-1.869C404.145,135.915,408.465,139.958,410.631,145.647z"/>
<path fill="#DBDDED" d="M313.267,228.504c-0.292-3.399,0.402-6.683,1.163-9.96c2.251-1.724,4.116-0.908,5.833,0.886
	c-0.715,6.995-0.232,14.325-5.673,19.787C313.526,235.887,315.756,231.894,313.267,228.504z"/>
<path fill="#07070B" d="M372.298,216.669c-6.286-1.435-12.362,0.299-18.475,1.292c-1.637,0.266-3.215,0.784-4.957,0.27
	c3.216-3.674,19.425-6.145,26.831-4.185C377.006,218.083,374.278,216.89,372.298,216.669z"/>
<path fill="#0E0907" d="M206.11,11.858c2.949-2.804,5.322-2.348,7.402,1.121c1.519,2.533,3.371,4.865,4.899,7.392
	c0.6,0.992,0.55,2.275-0.539,3.124c-1.198,0.934-2.182,0.214-3.049-0.591c-2.524-2.345-5.013-4.727-7.518-7.098
	C206.697,14.551,205.564,13.459,206.11,11.858z"/>
<path fill="#00ADBC" d="M147.354,135.472c-2.329-3.518-6.107-1.217-9.122-2.331c3.436-1.547,7.426-1.17,11.294-3.415
	c-6.41-2.313-12.204-0.705-17.996,0.139c0.447-1.808,0.938-3.781,3.396-3.265c5.26,1.102,11.142-2.523,15.838,1.646
	c2.331,2.069,2.241,5.003-0.432,7.289C149.345,135.214,148.32,136.736,147.354,135.472z"/>
<path fill="#0F0606" d="M205.196,53.019c-5.049-2.091-10.113-4.149-15.134-6.306c-0.878-0.377-1.728-1.051-2.322-1.8
	c-0.873-1.102-1.158-2.501-0.177-3.676c1.071-1.284,2.049-0.133,3.033,0.374c5.448,2.805,10.904,5.593,16.358,8.387
	C207.232,51.507,207.213,52.844,205.196,53.019z"/>
<path fill="#D3D4E3" d="M414.727,194.287c-1.884-2.377-3.767-4.754-5.65-7.13c0.431-2.467,2.728-3.32,4.217-4.871
	c1.808,2.107,3.203,4.439,4.238,7.035c0.662,1.661,1.665,3.017,0.588,5.018C416.74,196.903,415.849,192.167,414.727,194.287z"/>
<path fill="#00ADBC" d="M152.363,161.378c0.274,6.229-0.561,7.175-6.916,6.971c-3.064-0.098-6.219,0.936-9.198-0.566
	c0.139-0.485,0.664-0.815,0.757-1.216c1.167-5.028,5.163-5.649,9.31-6.088C148.415,160.244,150.541,159.806,152.363,161.378z"/>
<path fill="#07080D" d="M136.452,120.24c-4.25-0.861-8.104-0.748-11.986,0.27c-1.639,0.43-2.945-0.381-3.286-2.188
	c-0.313-1.659,0.194-2.892,1.943-3.478c3.016-1.011,6.206-2.071,9.252-1.485C135.742,114.006,134.95,117.836,136.452,120.24z"/>
<path fill="#0E0A0C" d="M186.542,74.212c4.063-4.538,10.132-4.185,15.241-6.161c1.047-0.405,1.532,0.994,1.946,1.895
	c-4.397,3.966-10.049,5.397-15.395,7.292C185.479,78.25,186.417,75.687,186.542,74.212z"/>
<path fill="#06070C" d="M123.119,127.858c0.448,2.009-5.839,1.247-0.988,4.11c-0.237,0.385-0.398,1.011-0.724,1.114
	c-2.02,0.638-4.074,1.166-6.121,1.715c-3.325,0.892-2.692-2.176-3.838-3.619c-2.426-3.052-1.398-3.818,1.899-3.958
	C116.696,127.078,120.112,125.726,123.119,127.858z"/>
<path fill="#D4D6DD" d="M387.395,46.494c-5.037-7.791-11.878-13.551-20.053-17.808c1.213-2.895,2.761-1.141,4.307-0.352
	c7.779,3.97,13.011,10.658,18.529,17.078C389.397,46.448,387.448,43.914,387.395,46.494z"/>
<path fill="#C9CBDD" d="M310.244,289.454c-1.132-4.348-0.864-8.688,0.07-13.025c0.597,0.879-0.265,2.791,1.333,2.78
	c3.91-0.027,6.201,1.838,5.651,5.564C316.771,288.353,313.651,289.46,310.244,289.454z"/>
<path fill="#AFAFC5" d="M413.293,182.286c-0.855,2.1-1.472,4.406-4.217,4.871c-5.417-2.384-2.618-5.768-1.094-8.997
	c1.898-0.515,2.725,1.528,4.294,1.798C412.615,180.735,412.954,181.51,413.293,182.286z"/>
<path fill="#898A9E" d="M132.305,286.697c8.598,0.382,17.192-1.051,25.783-0.078c1.643,0.186,2.82-0.909,4.295-1.066
	c1.516,2.035,1.166,3.645-1.098,4.819c-7.069-0.043-13.766-3.144-20.913-2.548C137.717,287.211,134.87,287.96,132.305,286.697z"/>
<path fill="#030507" d="M287.427,209.588c-3.256,1.506-6.441,2.434-9.075-1.116c-0.185-0.124-0.37-0.248-0.559-0.37
	c-0.749-1.113-1.696-2.21-0.322-3.517l-0.019,0.062c0.798-2.734,2.143-4.051,4.842-1.874c1.294,1.117-1.969,2.444-0.111,3.058
	c2.226,0.736,0.485-1.543,1.153-2.163c1.146-1.063,2.488-0.592,3.708-0.355c1.308,0.255,1.889,1.477,1.727,2.618
	C288.592,207.189,287.897,208.373,287.427,209.588z"/>
<path fill="#AAACBE" d="M380.45,93.855c0.076,1.911,3.537,0.119,2.98,2.724c-1.072,1.624-2.144,3.249-3.217,4.872
	c-4.358,0.589-6.766,4.568-10.59,6.085C371.121,101.306,376.674,98.284,380.45,93.855z"/>
<path fill="#BABBCD" d="M320.263,219.431c-1.956-0.22-3.781-1.295-5.833-0.886c-0.56-2.208,1.152-5.571-3.021-5.943
	c1.275-0.676,2.557-1.339,3.824-2.031c1.65-0.901,3.241-1.575,4.896,0.07c1.518,1.509,1.425,3.073,0.712,4.938
	C320.389,216.764,320.438,218.14,320.263,219.431z"/>
<path fill="#0C0705" d="M152.363,161.378c-2.255,0.093-4.509,0.187-6.764,0.28c-3.394,0.445-6.815,0.576-10.222,0.86
	c-1.464-2.084-2.529-3.998,1.518-4.024c5.138-0.033,10.286-0.705,15.408,0.257C153.511,159.599,153.358,160.479,152.363,161.378z"/>
<path fill="#B9BACB" d="M395.784,196.61c1.636-1.545,3.451-2.943,4.863-4.67c1.81-2.215,3.004-1.609,4.212,0.43
	c-1.45,1.57-2.944,3.103-4.339,4.72C398.668,199.236,397.033,200.042,395.784,196.61z"/>
<path fill="#CACBD9" d="M423.085,246.636c-1.422-0.64-2.678-1.398-2.351-3.289c0.506-2.625-0.387-5.711,2.491-7.554
	c0.242,2.243-0.575,4.532,1.298,6.669C425.82,243.942,424.443,245.523,423.085,246.636z"/>
<path fill="#B1B2C2" d="M161.435,113.542c-0.299-1.966,0.58-4.797-3.128-4.258c1.22-1.924,0.924-5.781,5.069-3.974
	c2.467,1.36,3.437,3.439,2.98,6.204C165.488,114.065,163.297,113.403,161.435,113.542z"/>
<path fill="#2D2C12" d="M135.377,162.518c3.302-1.54,6.768-1.133,10.222-0.86c-1.578,0.271-3.165,0.501-4.728,0.841
	c-0.413,0.09-1.183-0.289-1.099,0.882c0.229,3.195,0.136,3.202-3.521,4.401c-0.683-0.377-1.365-0.755-2.048-1.132
	C134.042,165.116,133.979,163.61,135.377,162.518z"/>
<path fill="#CED0D9" d="M370.687,187.398c-0.477,1.559-0.116,2.582,1.673,2.87c1.154,0.185,2.444,0.145,3.219,1.307
	c-0.471,0.224-1.37,0.59-1.35,0.652c0.62,1.88-0.64,2.675-1.914,3.473c-2.136-2.679-2.252-6.101-3.362-9.157
	C369.531,186.828,370.109,187.113,370.687,187.398z"/>
<path fill="#A3A5B5" d="M328.4,129.652l-0.008,0.454c0,0,0.001,0.454,0.001,0.454c-2.72,0.783-6.265,0.521-6.162,4.873
	c-2.805,2.62-3.001-1.332-4.573-1.815C320.157,129.363,324.753,130.794,328.4,129.652z"/>
<path fill="#AFB4C0" d="M343.12,244.17c0.753,1.024,2.852,1.349,1.735,3.343c-0.082,1.155,0.23,2.419-0.913,3.278
	c0.149-1.843-0.039-3.432-2.498-3.302c-0.843-1.338-1.901-2.393-3.535-2.69C339.588,244.103,341.355,244.144,343.12,244.17z"/>
<path fill="#D2D4DE" d="M372.298,216.669c1.765-0.056,4.4,1.015,3.399-2.624c0.269-0.285,0.539-0.569,0.808-0.854
	c1.443,1.402,2.215,3.106,2.3,5.118c-0.829,0.121-0.734,3.857-2.352,0.672C375.522,217.145,373.301,218.098,372.298,216.669z"/>
<path fill="#00ADBC" d="M152.312,142.616c-1.783-0.094-3.565-0.188-5.927-0.313c1.158-1.993,1.957-3.473,3.956-3.811
	C150.998,139.867,151.655,141.241,152.312,142.616z"/>
<path fill="#030303" d="M374.079,172.341c1.034,0.152,1.648,0.912,1.674,2.153c0.023,1.075-0.625,1.368-1.567,1.223
	c-1.227-0.189-1.898-0.886-1.924-2.16C372.239,172.431,372.941,172.251,374.079,172.341z"/>
<path fill="#D2D4DE" d="M381.404,221.832c1.775,0.992,2.006,2.09,0.229,3.326c-0.736-0.875-2.452-0.885-2.395-2.4
	C379.295,221.193,381.057,223.059,381.404,221.832z"/>
<path fill="#00ADBC" d="M196.313,53.992c2.007,0.373,4.013,0.746,6.02,1.12C199.721,57.993,197.82,57.053,196.313,53.992z"/>
<path fill="#252525" d="M362.446,172.173c0.996,0.131,1.66,0.703,1.676,1.8c0.012,0.885-0.315,1.591-1.42,1.386
	c-0.994-0.185-1.868-0.718-1.933-1.739C360.711,172.748,361.496,172.298,362.446,172.173z"/>
<path fill="#FCFDFD" d="M282.294,202.774c-2.273-1.078-3.666,0.117-4.842,1.874c-0.028-0.705-0.057-1.41-0.085-2.115
	C279.197,198.778,280.771,200.263,282.294,202.774z"/>
<path fill="#69686A" d="M347.219,202.443c0.257-0.245,0.514-0.491,0.771-0.736c1.588,0.888,3.177,1.776,4.765,2.664
	C350.588,204.411,348.748,203.799,347.219,202.443z"/>
<path fill="#FEFEFE" d="M210.317,185.715c-0.369-0.535-0.756-1.548-1.104-1.535c-5.386,0.204-10.749,0.066-16.133-0.098
	c-3.296-0.1-6.854,0.173-10.285,0.391c-0.587,0.037-1.202-0.383-1.805-0.591c1.813-4.266-3.049-7.57-2.188-10.889
	c0.855-3.297,1.903-7.851,6.827-8.789c1.769-0.337,1.761-2.189,1.746-3.724c1.661-1.373,3.328-1.367,5.001-0.021
	c3.289,5.402,4.098,5.406,9.395,1.894c2.184-1.448,4.951-1.807,6.991,0.88c0.587,0.773,1.229,1.876,2.288,1.596
	c1.349-0.357,1.204-1.745,1.343-2.9c0.254-2.112,0.548-4.226,0.983-6.306c0.287-1.373-2.378-4.088,1.288-3.907
	c2.296,0.114,4.51,1.61,3.863,4.567c-0.78,3.56,0.96,5.25,3.985,6.248c1.701,1.953,1.361,4.357,1.408,6.647
	c0.071,3.483,0.033,6.961,0.53,10.43c0.434,3.026,0.605,6.085-2.799,7.748C218.428,188.932,212.842,188.092,210.317,185.715z"/>
<path fill="#020309" d="M240.417,273.517c0.563,4.822-1.919,9.952,2.298,14.462c1.716,1.836-0.051,3.727-2.603,3.775
	c-11.192,0.209-22.322,2.53-33.6-0.08c-7.236-1.675-14.744-2.171-22.131-3.195c-2.472-0.935-5.058-1.651-7.385-2.863
	c-2.686-1.399-4.734-3.409-2.859-8.14c1.662,6.078,5.368,4.817,9.323,5.199c5.672,0.549,11.312,2.484,17.079,3.245
	c7.585,1.001,15.157,2.334,22.129-2.696c1.968-1.42,2.924-5.082,5.505-4.307c2.263,0.68,2.155,4.194,3.275,6.369
	c0.507,0.985,1.09,1.659,2.297,1.319c1.413-0.398,1.641-1.661,1.68-2.776c0.15-4.325,0.573-8.697,0.147-12.977
	c-1.84-18.486-0.037-36.921,0.437-55.374c0.152-5.932,0.268-5.811-6.013-5.027c-6.102,0.762-12.244,1.199-18.356,1.89
	c-1.622,0.184-3.329,0.382-3.433-1.631c-0.106-2.043,1.833-1.336,3.028-1.46c8.399-0.875,16.8-1.733,25.2-2.597
	c4.79-0.921,6.326,0.138,6.052,4.663c-0.431,7.095-0.994,14.187-2.089,21.221C239.231,246.199,240.357,259.858,240.417,273.517z"/>
<path fill="#FEFEFE" d="M178.513,207.685c-8.292,0.032-16.721-0.634-24.334,3.627c-1.782,0.998-1.779-0.302-2.499-1.059
	c-2.222-2.337-4.169-5.058-8.236-3.988c-2.188,0.576-2.649-1.597-2.938-3.172c-0.345-1.88,0.552-3.743,2.526-3.393
	c5.614,0.993,5.461-2.508,5.333-6.197c0.435-3.05,3.395-2.694,5.243-3.765c1.716-0.995,3.522-1.868,5.261-2.844
	c2.165-0.614,3.4-3.615,6.258-2.467c3.817,0.073,7.741-0.396,8.661,5.079c0.336,1.997,3.888,0.184,4.854,2.591
	c1.287,3.207,4.264,5.992,1.002,9.893c-1.099,1.314-0.823,3.777-1.176,5.715L178.513,207.685z"/>
<path fill="#020309" d="M210.317,185.715c3.233,1.008,6.583,0.475,9.87,0.757c2.576,0.221,3.564-1.394,2.947-3.348
	c-2.165-6.847,0.545-13.768-0.624-20.592c-0.065-14.034-0.974-28.059-0.286-42.104c0.195-3.974,0.421-7.914,1.207-11.814
	c4.918-1.538,5.023,1.924,5.361,5.149c-2.563,22.315,0.425,44.619,0.213,66.933c-0.047,4.903,2.042,6.301,7.349,5.834
	c1.871,1.378,1.55,2.775,0.036,4.182c-6.461,1.776-12.965,2.271-19.667,1.437c-5.741-0.714-11.588,0.37-17.36-0.496
	c-3.671-1.195-7.52-0.863-11.281-1.273c-1.988-0.216-3.897-0.467-5.726-1.374c-1.021-0.506-2.305-0.562-2.205-2.142
	c0.129-2.044,1.788-1.693,2.962-1.677C192.181,185.311,201.249,185.528,210.317,185.715z"/>
<path fill="#E1E6F4" d="M236.352,186.532c-7.25,2.192-8.626,1.479-8.824-5.501c-0.608-21.513-1.777-43.025-0.557-64.554
	c0.056-0.981,0.289-1.953,0.44-2.929c1.351-0.284,1.941,0.824,1.821,1.629c-0.496,3.32,1.427,4.558,4.106,5.307
	c2.408,7.598,0.306,15.306,0.472,22.958c0.165,7.558,0.005,15.116,0.431,22.68c0.332,5.902,0.265,11.845,0.002,17.753
	C234.157,185.839,234.345,186.661,236.352,186.532z"/>
<path fill="#FEFEFE" d="M253.189,263.533c-1.524,1.913-0.518,4.176-0.857,6.254c-0.325,1.99-1.558,3.361-3.283,4.045
	c-1.112,0.441-2.29-0.393-2.969-1.357c-1.046-1.485-1.155-3.249,0.034-4.61c1.677-1.921,1.506-3.396-0.255-5.118
	c-1.959-1.914-1.383-4.569-1.432-6.914c-0.149-7.134-0.075-14.272-0.087-21.408c0.237-4.306-2.937-8.891,1.053-12.891
	c2.756,1.044,4.165-3.56,6.416-1.996c1.852,1.286-1.588,4.153,0.601,6.388c1.233,1.258-0.097,3.092-0.546,4.618
	c-0.704,2.391-0.193,4.161,2.353,4.998c2.071,1.891,1.807,4.331,0.854,6.402c-1.879,4.085-2.569,7.985-0.632,12.272
	c0.724,1.603,0.296,3.589,0.299,5.408C254.667,261.103,254.55,262.566,253.189,263.533z"/>
<path fill="#FEFEFE" d="M195.382,126.519c2.767-5.417,4.965-6.455,13.216-4.622c3.934,0.874,4.875-0.448,4.776-3.838
	c-0.063-2.178-0.384-4.61,2.771-4.816c2.755-0.18,2.585,2.195,3.416,3.964c3.684,7.84,1.117,16.055,1.694,24.063
	c0.215,2.974-2.871,3.513-4.982,3.961c-2.172,0.461-2.389-1.789-2.857-3.335c-0.991-3.275-1.938-6.315-0.486-9.984
	c1.67-4.218-0.736-5.596-5.332-5.15c-3.973,0.386-8.23,2.692-12.209-0.237L195.382,126.519z"/>
<path fill="#FEFEFE" d="M181.451,273.292c0.54-1.755-1.358-4.32,1.44-5.62c2.899-1.347,4.322,0.422,6.164,2.396
	c2.399,2.571,5.298,3.943,9.343,2.49c6.322-2.271,12.52,1.988,18.952,1.224c0.954-0.113,1.755,0.934,1.839,2.048
	c0.103,1.358-0.653,2.401-1.916,2.505c-5.427,0.446-9.64,4.591-15.158,4.835c-1.208,0.054-2.392,0.305-3.275-0.468
	c-3.437-3.01-7.97-2.925-11.785-2.873C181.683,279.903,180.716,277.833,181.451,273.292z"/>
<path fill="#D2D3E5" d="M162.232,255.147c-0.386-11.772,0.984-23.461,1.669-35.183c0.169-2.896,2.122-3.404,4.474-3.413
	c-1.918,4.488-1.417,9.318-0.763,13.767c0.954,6.493,1.509,13.111,0.463,19.33c-1.466,8.712,2.22,17.386-0.736,25.904
	c-0.395,0.325-0.881,0.575-1.347,0.391c-1.221-0.482-2.216-3.116-3.722-0.323l0.016,0.015
	C161.619,268.808,161.69,261.978,162.232,255.147z"/>
<path fill="#040507" d="M178.469,207.703c6.139-0.704,12.549,0.834,18.339-2.94c1.934-1.261,4.748-1.276,7.313-0.797
	c1.736,0.325,2.649,1.18,2.92,2.86c0.303,1.88-0.353,3.233-2.115,4.045c-2.371,1.093-4.877,1.279-7.324,0.632
	c-5.437-1.437-10.915-0.706-16.394-0.699c-3.447,0.005-4.603,1.021-4.883,4.84c-1.337,18.253-2.431,36.5-1.817,55.443
	c-2.026-1.894-2.07-3.734-2.158-5.609c-0.789-16.808,0.222-33.565,1.366-50.319c0.034-0.497,0.303-1.097,0.113-1.472
	c-2.712-5.368,1.376-5.373,4.685-6.003C178.513,207.685,178.469,207.703,178.469,207.703z"/>
<path fill="#FEFEFE" d="M220.232,240.799c0.584-4.278-0.199-8.591,0.639-12.925c0.408-2.109-0.619-4.811-4.172-3.613
	c-1.745,0.588-3.503,0.303-4.084-1.689c-0.676-2.319-0.277-4.633,1.154-6.668c1.293-1.837,2.474-0.714,3.8,0.067
	c1.721,1.013,3.487,0.464,5.289-0.09c3.11-0.957,5.6,0.799,7.652,2.635c1.99,1.78-0.237,3.613-0.823,5.395
	c-1.763,5.363-2.623,10.815-1.494,16.66c-2.387,0.217-4.87,0.2-6.845,1.853c0.094,1.806-0.773,1.798-2.021,1.071l0.083,0.104
	C218.369,242.277,218.86,241.408,220.232,240.799z"/>
<path fill="#0D0807" d="M119.269,229.098c2.689,0.045,6.407-1.265,9.481,1.868c1.335,1.36,1.913,2.38,0.802,4.248
	c-2.207,3.711-2.53,7.699-1.41,11.935c0.471,1.782,1.647,4.445-2.827,2.828c-3.374-1.219-7.536-0.522-11.318-0.262
	c-3.008,0.207-4.356-0.803-4.415-3.787c-0.043-2.153-0.31-4.3-0.383-6.454C108.87,229.719,108.882,229.719,119.269,229.098z"/>
<path fill="#C1C2D4" d="M156.361,232.541c0.247,15.098-0.942,30.211,0.393,45.293c0.243,2.742-0.866,3.406-3.316,3.551
	c-11.108,0.654-22.17,0.894-33.259-0.68c-3.501-0.497-7.207,0.453-10.819,0.741c0.935-1.679,2.719-0.825,4.07-1.368
	c-0.812-0.936-2.995-0.906-2.5-2.593c0.451-1.537,2.187-1.828,3.705-1.897c8.467-0.388,16.846,0.94,25.26,1.492
	c3.383,0.222,6.919,0.396,10.212,1.779c4.105,1.724,5.335-0.267,5.311-4.196c-0.077-12.3-0.026-24.602,0.054-36.902
	C155.484,236.009,154.85,234.069,156.361,232.541z"/>
<path fill="#DDE0F0" d="M159.376,187.601c-2.98,3.253-7.573,3.499-11.009,5.9c-6.088,0.482-12.112,1.339-17.995,3.039
	c-1.991,1.132-3.98,1.841-5.958-0.024c0.94-3.824-3.735-4.946-3.951-8.214c11.184,0.487,22.524,2.35,32.96-3.744
	C158.347,183.36,158.984,183.686,159.376,187.601z"/>
<path fill="#020306" d="M253.189,263.533c0.098-1.202,0.196-2.403,0.294-3.605c0.66-2.789,0.683-5.581-0.123-8.335
	c-0.385-1.317-0.544-2.622-0.143-3.919c2.904-9.402,1.251-19.065,1.674-28.607c0.087-1.955-0.37-4.049,1.473-5.534
	c0.027-0.666,0.054-1.332,0.08-1.998c0.267-3.353,2.778-4.389,5.432-4.523c4.611-0.233,9.244,0.29,13.869-0.272
	c1.269-0.154,2.052,0.902,2.693,1.908l-0.086-0.175c-0.23,2.114-1.41,2.578-3.435,2.42c-2.812-0.22-5.665,0.124-8.483-0.051
	c-5.6-0.348-7.385,2.854-8.071,7.744c-0.838,5.973-0.544,11.965-0.852,17.943c-0.675,13.121-1.413,26.24-2.142,39.358
	c-0.061,1.102,0.22,2.852-1.298,2.742c-1.423-0.103-1.9-1.733-1.681-3.178C252.988,271.498,253.495,267.544,253.189,263.533z"/>
<path fill="#040507" d="M196.272,110.959c-4.332,0.258-8.117,0.515-11.907,0.68c-0.728,0.032-1.768,0.153-1.878-1.034
	c-0.104-1.128,0.832-1.177,1.596-1.446c3.058-1.078,6.253-0.489,9.373-0.803c1.841-0.186,3.166-0.572,4.534-2.263
	c1.08-1.335-0.628-4.335,2.154-4.012c2.722,0.316,6.385,0.604,7.78,2.37c2.048,2.591,4.228,2.007,6.512,2.226
	c1.554,0.149,3.872-0.698,3.802,1.74c-0.065,2.246-2.356,1.191-3.559,1.069c-4.803-0.487-7.724,0.736-7.014,6.342
	c0.348,2.747-1.617,2.51-3.263,1.916c-2.333-0.843-4.572-1.898-7.101-2.121C192.597,115.207,194.164,113.152,196.272,110.959z"/>
<path fill="#020306" d="M180.203,114.118c-1.805,7.926-2.677,15.98-2.631,24.081c0.078,13.746-1.142,27.517,0.643,41.233
	c0.144,1.108,0.209,2.003-1.194,2.12c-1.308,0.109-1.74-0.793-1.833-1.849c-0.305-3.465-0.755-6.934-0.778-10.403
	c-0.07-10.588,0.035-21.176,0.071-31.765c-0.489-0.252-0.466-0.506-0.001-0.76c1.057-7.864,0.914-15.869,2.701-23.64
	c0.285-1.237-0.791-3.575,1.446-3.535c2.413,0.043,1.589,2.414,1.807,3.934C180.731,113.877,180.654,114.071,180.203,114.118z"/>
<path fill="#0C0B05" d="M220.232,240.799c-0.274,0.933-0.548,1.865-0.823,2.798c-4.05-0.122-2.315-3.179-2.385-5.057
	c-0.27-7.224-2.032-8.984-9.111-8.621c-4.697,5.436-14.43,7.888-20.832,5.209c-2.092-0.876-3.757-2.145-3.563-4.766
	c0.227-0.554,0.454-1.108,0.681-1.663c-0.021-4.252,3.308-5.02,6.341-6.095c4.616-1.645,9.239-2.165,13.877-0.085
	c2.349,1.165,4.032,3.526,6.864,3.825C219.768,227.754,219.505,234.583,220.232,240.799z"/>
<path fill="#0C0907" d="M218.987,270.094c-1.331,0-2.666,0.071-3.992-0.011c-9.654-0.599-12.298-4.549-9.474-13.8
	c0.695-2.276,2.425-2.666,4.181-2.792c4.474-0.322,9.052-0.995,13.427-0.38c3.967,0.558,4.933,4.091,4.645,7.955
	c-0.177,2.376-2.413,5.103,2.03,6.887c2.202,0.884-1.036,2.303-1.877,2.389c-2.954,0.303-5.959,0.118-8.944,0.118
	C218.984,270.338,218.985,270.216,218.987,270.094z"/>
<path fill="#DCE0EE" d="M161.435,113.542c1.206-1.73,3.769-0.167,4.921-2.028c0.002,10.206-0.047,20.412,0.047,30.617
	c0.02,2.209-0.566,4.243-1.015,6.333c-0.215,1,0.371,2.723-1.457,2.509c-1.347-0.158-1.472-1.578-1.542-2.781
	c-0.075-1.284,0.298-2.706-1.014-3.652C161.395,134.208,161.415,123.875,161.435,113.542z"/>
<path fill="#060709" d="M191.347,247.544c-0.995-1.498-1.99-2.996-3.333-5.017c-1.394,2.827-2.784,5.156-3.728,7.654
	c-2.361,6.25,0.764,10.867,7.502,11.278c2.997,0.183,5.974,0.063,8.782-1.211c0.98-0.444,2.133-1.61,2.848,0.136
	c0.601,1.469-0.322,2.467-1.602,3.199c-7.591,4.339-18.065,0.357-21.285-8.111c-1.456-1.532-1.561-3.065-0.004-4.599
	c0.661-1.491,1.284-3.001,1.993-4.469c0.799-1.653,2.196-3.09-0.503-4.626c-1.494-0.85,0.433-1.847,0.851-2.767
	c4.048-4.314,5.705-4.4,7.635-0.396c-1.18,3.341,3.755,5.403,1.861,8.894c-0.218,0.236-0.442,0.32-0.671,0.252
	C191.463,247.692,191.347,247.62,191.347,247.544z"/>
<path fill="#030306" d="M108.386,282.578c-0.038,0.411-0.077,0.822-0.115,1.232c-2.064,0.106-3.206-0.352-3.451-2.922
	c-1.797-18.806-4.833-37.527-3.584-56.522c0.152-2.312,0.532-4.611,0.853-6.91c0.135-0.961,0.223-2.222,1.617-1.981
	c1.348,0.234,1.818,1.143,1.338,2.594c-2.408,7.272-1.809,14.817-1.503,22.239C104.126,254.5,105.733,268.608,108.386,282.578z"/>
<path fill="#050608" d="M137.648,213.44c-1.025,0.032-2.049,0.064-3.074,0.096c-8.096-0.527-16.206-1.51-24.183,1.026
	c-0.921,0.293-1.986,0.208-2.98,0.176c-0.767-0.024-1.801,0.162-2.04-0.89c-0.329-1.449,0.929-1.58,1.835-1.759
	c4.391-0.867,8.803-1.633,13.195-2.497c1.089-0.214,2.892,0.355,3.139-0.908c0.902-4.628,4.382-4.092,7.615-4.207
	c4.502-0.161,6.298,1.476,5.007,5.711C135.474,212.44,136.507,212.662,137.648,213.44z"/>
<path fill="#CBCCDD" d="M245.391,221.534c-1.567,4.198-0.878,8.581-1.052,12.892c-2.286-2.167,0.234-5.676-2.362-7.94
	c-1.437,1.8,0.715,4.588-1.578,6.054c0.158-7.243-0.45-14.512,1.13-21.701c0.965-4.394-2.007-4.47-5.092-4.183
	c3.009-1.972,6.029-5.187,9.174-0.261c1.264,1.979-0.83,4.073-0.076,6.136c0.697,1.004,0.686,2.005-0.016,3.002
	C245.476,217.532,245.434,219.533,245.391,221.534z"/>
<path fill="#00ADBC" d="M190.504,238.615c-2.784-4.333-5.075,0.644-7.639,0.4c-0.619-2.949-1.024-5.878,0.652-8.652
	c1.345,3.398,4.165,4.298,7.466,4.498c6.247,0.377,11.818-1.494,16.934-4.942c0.965,6.314-1.03,8.698-7.091,8.611
	C197.387,238.481,193.945,238.582,190.504,238.615z"/>
<path fill="#D1D4E0" d="M199.362,191.654c12.379,1.138,24.658-1.641,37.026-0.941c-6.595,7.745-15.62,5.492-24.013,5.836
	c-1.005,0.777-2.005,0.849-2.999-0.02c-1.066-0.665-2.322-1.608,0.03-1.887c2.669-0.316,5.404-0.073,8.109-0.647
	C211.633,191.388,205.174,194.222,199.362,191.654z"/>
<path fill="#0E0F13" d="M152.31,257.484c-0.838,2.518-2.54,2.223-3.94,2.326c-10.436,0.767-20.871,0.544-31.291-0.29
	c-1.732-0.139-4.088-0.052-3.8-2.783c0.3-2.845,2.623-1.443,3.928-1.275C128.751,256.944,140.325,257.802,152.31,257.484z"/>
<path fill="#101115" d="M115.147,266.434c-0.866-3.534,0.374-4.797,4.076-4.376c7.929,0.901,15.841-0.487,23.768-0.52
	c1.702-0.007,3.684-0.719,5.469,1.659c-9.352,2.531-18.66,2.053-28.545,2.744c2.689,0.58,4.723,1.019,6.757,1.458
	C121.888,269.95,118.631,269.677,115.147,266.434z"/>
<path fill="#05050B" d="M216.651,150.649c-10.074-0.332-19.935,0.627-29.798,1.541c-1.464,0.136-2.77-0.15-3.195-1.646
	c-0.412-1.451,0.656-2.171,1.939-2.195c9.711-0.185,19.432-2.224,29.134,0.11C215.525,148.65,216.387,148.713,216.651,150.649z"/>
<path fill="#09090D" d="M192.375,160.459c-1.669-0.471-3.336-0.416-5.001,0.021c-0.808,0.021-1.617,0.025-2.425,0.067
	c-1.578,0.081-2.606-0.566-2.618-2.218c-0.011-1.433,1.021-2.122,2.288-2.062c7.942,0.379,15.881,0.817,23.817,1.301
	c1.01,0.062,2.059,0.725,2.06,1.791c0.002,1.394-1.32,1.206-2.253,1.204C202.954,160.554,197.664,160.499,192.375,160.459z"/>
<path fill="#C7CADA" d="M233.339,120.484c-1.938-1.314-2.83,0.894-4.408,1.351c-1.563-2.586,0.735-5.897-1.519-8.288
	c-0.253-2.512,0.53-5.86-3.982-4.933c6.494-3.375,9.989-1.442,9.946,5.502C233.363,116.239,233.351,118.362,233.339,120.484z"/>
<path fill="#FCFDFD" d="M256.363,213.533c-1.943,13.622-0.715,27.406-2.108,41.055c-0.182,1.787-0.511,3.559-0.772,5.339
	c0.947-5.29-3.77-10.355-0.944-15.559c1.58-2.91,2.087-5.7,1.678-8.827c-0.466-6.459,1.6-13.005-1.507-19.433
	C251.507,213.62,253.444,212.051,256.363,213.533z"/>
<path fill="#DCE0EE" d="M161.39,177.524c-2.249-9.78-1.223-19.578-0.164-29.378c0.096,1.818-0.052,3.697,0.379,5.433
	c0.258,1.039-2.004,4.11,2.016,3.067c0.698-0.181,0.74,1.974,0.741,3.115c0.002,3.954-0.029,7.907-0.048,11.861
	C162.284,173.066,164.931,176.827,161.39,177.524z"/>
<path fill="#BDC0D3" d="M162.271,275.621c1.63-4.506,3.381,0.053,5.069-0.068c-0.009,2.301-0.343,4.658,0.041,6.892
	c0.862,5.022-1.813,7.02-6.094,7.929c1.143-1.43,1.137-3.121,1.098-4.82C162.346,282.243,162.308,278.932,162.271,275.621z"/>
<path fill="#FEFEFE" d="M124.413,196.517c1.986,0.008,3.972,0.016,5.958,0.024c-3.808,4.213-9.815,4.946-13.915,8.729
	c-0.216,0.199-1.47-0.201-1.628-0.579c-0.282-0.677-0.443-1.886-0.053-2.285C117.475,199.648,118.53,194.055,124.413,196.517z"/>
<path fill="#0A0A0C" d="M193.375,141.604c4.918,0.078,9.927-0.859,15.356,1.691c-7.652,1.475-14.789,2.108-21.936,2.611
	c-1.304,0.092-2.879-0.084-2.51-2.12c0.295-1.626,1.091-2.897,3.032-2.247c1.465,0.49,2.859,0.854,4.331,0.149
	C192.194,141.058,192.764,140.9,193.375,141.604z"/>
<path fill="#B8BACF" d="M161.39,177.524c2.045-1.438-0.133-4.968,2.924-5.904c-0.76,4.335,1.778,8.459,0.816,12.806
	c-2.315,0.342-3.301,3.087-5.755,3.175c-0.749-3.43-3.517-2.91-5.952-3.042C155.821,181.922,160.705,182.1,161.39,177.524z"/>
<path fill="#010103" d="M208.374,132.884c-7.216,0-14.431-0.008-21.647,0.009c-1.024,0.003-2.193,0.05-2.326-1.199
	c-0.146-1.373,0.876-2.147,2.172-2.132c7.309,0.085,14.715-0.864,21.822,1.547C208.388,131.701,208.381,132.293,208.374,132.884z"/>
<path fill="#FEFEFE" d="M191.347,247.544c0.339-0.012,0.679-0.024,1.018-0.036c1.951,3.036,4.309,2.37,6.835,0.815
	c1.304-0.803,3.092-1.583,3.762,0.324c0.714,2.03-1.333,1.823-2.556,1.876c-1.902,0.084-2.93,1.431-4.094,2.586
	c-1.843,1.828-3.852,3.861-6.288,1.269C187.611,251.808,188.014,249.265,191.347,247.544z"/>
<path fill="#FEFEFE" d="M180.203,114.118l-0.053-0.358l0.284-0.225c1.264-0.322,2.513-0.824,3.794-0.923
	c1.919-0.148,4.009-0.516,4.184,2.598c0.178,3.161-0.785,5.041-4.166,5.314c-2.585,0.208-4.166-0.482-3.892-3.462
	C180.442,116.093,180.26,115.099,180.203,114.118z"/>
<path fill="#FCFDFD" d="M278.438,208.648c-6.498-3.151-18.959-1.515-21.994,2.887c-1.343-0.145-2.696-1.469-1.64-2.057
	c2.448-1.363,3.556-2.769,3.185-5.633c-0.114-0.878,1.544-1.454,2.34-0.579c5.337,5.862,11.253,3.239,17.142,1.32
	C277.793,205.939,278.115,207.293,278.438,208.648z"/>
<path fill="#FEFEFE" d="M169.387,160.268c1.124,4.502,2.052,7.94,2.82,11.413c0.398,1.803-0.081,3.517-2.215,3.668
	c-2.227,0.157-1.489-1.634-1.874-3.019C167.045,168.459,166.204,164.819,169.387,160.268z"/>
<path fill="#101014" d="M140.017,241.295c3.001,0.814,7.57-1.182,7.769,1.771c0.177,2.63-4.567,1.795-7.181,2.1
	c-2.551,0.297-6.835,1.887-6.781-2.045C133.875,239.44,138.346,243.004,140.017,241.295z"/>
<path fill="#FEFEFE" d="M209.376,196.529c1,0.007,2,0.013,2.999,0.02c0.129,2.139,2.061,2.333,3.402,3.18
	c1.058,0.668,2.7,0.926,2.392,2.719c-0.244,1.42-1.283,2.393-2.559,2.813c-1.804,0.595-2.704-0.664-3.41-2.101
	c-0.584-1.188-1.138-2.451-2.515-2.939C206.805,199.203,208.771,197.818,209.376,196.529z"/>
<path fill="#FEFEFE" d="M180.528,250.873c0.001,1.533,0.003,3.066,0.004,4.599c-3.576,0.741-5.57-0.885-4.493-4.005
	c0.68-1.969,1.387-3.532-0.202-5.375c-0.682-0.791-0.447-1.967,0.783-2.333c1.224-0.365,2.314-0.106,2.652,1.368
	C179.71,247.037,180.111,248.957,180.528,250.873z"/>
<path fill="#060809" d="M219.327,243.493c0.674-0.357,1.348-0.714,2.021-1.071c1.439-0.2,3.17-0.819,3.732,1.166
	c0.504,1.783-1.689,1.665-2.324,2.605c-3.218,4.76-6.52,3.006-9.903,0.321c-0.751-0.596-1.966-1.165-1.495-2.254
	c0.649-1.5,1.962-0.3,2.99-0.363C216.007,243.796,218.016,247.561,219.327,243.493z"/>
<path fill="#07090B" d="M143.324,235.092c-1.734,0.638-3.077,1.131-4.775,1.756c0.775,1.01,3.185,0.888,2.41,2.603
	c-0.752,1.663-2.569,0.982-3.982,1.092c-1.455,0.113-2.752-0.202-2.836-1.912c-0.142-2.88-0.234-5.867,4.154-5.226
	C139.846,233.632,141.606,233.025,143.324,235.092z"/>
<path fill="#0A0B0F" d="M115.147,266.434c3.709,1.911,7.656,0.979,11.526,0.964c0.966,0.277,2.54-0.574,2.687,1.217
	c0.092,1.119-1.021,1.103-1.782,1.168c-3.753,0.321-7.513,0.836-11.265,0.795C113.399,270.548,113.08,269.06,115.147,266.434z"/>
<path fill="#FEFEFE" d="M193.375,141.604c-0.576,0.028-1.151,0.056-1.727,0.084c-2.207-2.041-1.436-4.647-0.925-6.929
	c0.41-1.831,2.474-1.139,3.868-1.192c2.385-0.091,2.985,0.673,1.521,2.893C195.056,138.061,193.418,139.437,193.375,141.604z"/>
<path fill="#050608" d="M148.688,249.32c-4.805,1.946-8.978,1.292-13.035,1.489c-0.972,0.047-1.382-0.747-1.408-1.674
	c-0.025-0.893,0.209-1.85,1.227-1.779C139.652,247.652,144.092,246.023,148.688,249.32z"/>
<path fill="#00ADBC" d="M190.54,222.604c-2.612,1.512-5.053,3.203-6.342,6.094c-2.666-0.708-1.819-2.867-1.653-4.506
	c0.212-2.098,2.118-1.721,3.531-1.768C187.561,222.375,189.052,222.535,190.54,222.604z"/>
<path fill="#FEFEFE" d="M199.668,195.516c1.849-0.253,3.035,0.949,3.47,2.983c0.254,1.189-0.445,2.184-1.601,1.785
	c-1.872-0.646-4.728-0.263-4.907-3.238C196.534,195.451,198.121,195.618,199.668,195.516z"/>
<path fill="#FEFEFE" d="M245.518,215.532c0.005-1.001,0.009-2.001,0.015-3.002c2.301-0.183,3.686-1.624,4.662-3.792
	C251.932,213.687,250.706,215.343,245.518,215.532z"/>
<path fill="#0D0D0D" d="M195.39,126.527c-0.101,0.297-0.187,0.846-0.306,0.853c-3.349,0.198-6.931,2.295-9.953-0.326
	c-1.432-1.242,2.365-2.43,6.909-1.407c1.122,0.253,2.228,0.58,3.341,0.873L195.39,126.527z"/>
<path fill="#FEFEFE" d="M174.479,136.775l0.209,0.379l-0.207,0.38c-3.855-1.383-1.695-4.064-1.713-7.198
	C175.156,132.66,173.992,134.919,174.479,136.775z"/>
<path fill="#00ADBC" d="M211.281,226.344c-3.538,0.969-4.985-1.816-6.864-3.825C207.926,221.604,209.026,225.01,211.281,226.344z"/>
<path fill="#FEFEFE" d="M229.636,205.584c1.181-1.401,2.301-2.45,4.126-1.541c0.719,0.358,1.32,1.621,0.676,2.007
	C233.043,206.887,231.389,206.918,229.636,205.584z"/>
<path fill="#FEFEFE" d="M136.922,199.634c-1.413,1.418-2.688,0.966-3.834-0.161c-0.526-0.517-0.461-1.452,0.236-1.624
	C134.874,197.464,136.156,198.022,136.922,199.634z"/>
<path fill="#FEFEFE" d="M201.638,242.96c-1.092,1.11-2.174,2.02-3.691,0.987c-0.598-0.408-0.591-1.255-0.113-1.689
	C199.301,240.928,200.417,242.066,201.638,242.96z"/>
<path fill="#FEFEFE" d="M378.148,42.587c13.392,15.584,12.414,33.099-2.881,48.866c-2.028,2.09-3.663,4.695-6.672,5.797
	c-1.462,0.535-1.948,2.047-2.346,3.594c-1.188,4.62-2.574,9.19-4.019,14.254c-1.266-1.416-2.056-2.469-3.016-3.332
	c-1.404-1.262-2.964-3.224-3.984,0.438c-0.163,0.584-1.216,1.046-1.949,1.326c-19.958,7.613-40.056,14.326-61.989,11.792
	c-17.11-1.977-32.909-6.587-46.598-17.91c-19.633-16.24-17.545-35.212-5.417-52.864c15.644-22.769,38.458-32.522,65.214-34.68
	c20.091-1.62,38.936,2.999,57.06,11.25c2.037,0.927,3.885,2.272,5.82,3.423c1.356,0.008,0.609,3.636,3.052,1.773
	c0.96,0.807,1.921,1.613,2.881,2.42C374.197,40.926,375.454,42.66,378.148,42.587z"/>
<path fill="#FCFCFC" d="M288.417,147.774c2.646-0.613,3.169-1.827,2.398-4.662c-2.267-8.34-0.999-9.775,7.734-10.024
	c3.492-0.1,6.991-0.031,10.475-0.245c2.681-0.165,4.056,0.442,3.636,3.543c-0.445,3.289-0.765,6.646-0.62,9.95
	c0.209,4.782-2.244,6.483-6.53,6.7c-9.976,0.504-19.942,0.866-29.89-0.516c-1.445-0.201-3.687-1.475-4.157,0.97
	c-0.449,2.335,1.859,2.284,3.453,2.517c11.115,1.621,22.24,0.919,33.321-0.229c2.685-0.278,3.058,0.197,2.853,2.641
	c-0.347,4.139-0.409,8.305-0.492,12.462c-0.114,5.732-3.982,10.591-9.748,10.99c-12.789,0.885-25.607,0.382-38.413,0.04
	c-2.462-0.066-3.901-1.151-3.339-3.713c3.255-14.845,0.672-29.874,1.489-44.793c0.055-0.996-0.158-2.04,0.069-2.986
	c0.361-1.506-0.42-4.637,1.98-3.891c2.211,0.688,7.341,0.172,5.378,5.522c-2.144,4.747-0.49,9.348,0.51,13.983
	c0.305,1.414,0.967,2.746,2.421,2.777C276.789,148.935,282.741,150.512,288.417,147.774z"/>
<path fill="#00ADBC" d="M288.417,147.774c0.083,2.229-1.24,2.771-3.166,2.748c-4.631-0.054-9.268,0.069-13.894-0.104
	c-3.013-0.113-4.501-1.35-4.256-4.983c0.301-4.461-1.893-9.075,0.914-13.391c-1.032,16.643,2.889,14.133,14.937,15.409
	C284.765,147.646,286.595,147.672,288.417,147.774z"/>
<path fill="#00ADBC" d="M275.001,143.142c4.427-4.578,7.318-0.674,10.41,0.734C282.127,144.838,278.991,143.98,275.001,143.142z"/>
<path fill="#00ADBC" d="M287.243,138.547c-0.029,1.038,0.07,2.4-1.401,2.001c-1.366-0.371-3.337-0.908-3.493-2.381
	c-0.179-1.694,1.8-2.343,3.175-2.468C287.568,135.514,286.957,137.433,287.243,138.547z"/>
<path fill="#D4D5DB" d="M378.148,42.587c-1.488-0.815-1,2.958-2.83,1.239c-1.451-1.363-3.051-2.721-2.014-5.092
	C375.767,38.952,376.748,41.033,378.148,42.587z"/>
<path fill="#00ADBC" d="M273.96,138.498c-0.274,1.23-1.068,2.245-2.222,2.3c-1.756,0.082-1.327-1.516-1.357-2.552
	c-0.025-0.835-0.46-2.238,1.199-1.96C272.729,136.478,273.633,137.239,273.96,138.498z"/>
<path fill="#D4D5DB" d="M370.423,36.314c-0.469,0.893,1.118,2.789-0.398,2.658c-2.14-0.184-2.851-2.28-2.655-4.431
	C368.9,34.251,369.527,35.515,370.423,36.314z"/>
<path fill="#DBDCC6" d="M273.845,133.829c2.19-0.578,4.121-0.459,6.309-0.009C277.966,136.452,276.034,136.154,273.845,133.829z"/>
<path fill="#030406" d="M274.902,235.461c5.144,1.781,10.231-0.356,15.382-0.423c3.705-0.048,8.017,0.306,9.264,4.347
	c1.511,4.899,3.452,10.29-0.156,15.22c-2.638,3.605-6.578,2.774-10.089,1.962c-2.431-0.563-4.167-0.537-6.376,0.956
	c-4.06,2.745-12.286,0.895-16.535-3.199c-3.519-3.391-4.002-8.583-1.284-13.754C267.179,236.631,270.263,234.657,274.902,235.461z"
	/>
<path fill="#D7D9E9" d="M292.071,284.708c-11.761-0.884-23.484-2.024-34.934-5.057c0.977-0.129,1.955-0.259,3.073-0.407
	c0.175-1.328-3.782-0.121-1.742-2.852c1.641-2.197,3.221-3.253,5.689-1.778c8.121,4.853,17.246,4.438,26.141,4.786
	c3.692,0.145,7.443-1.585,11.14,0.238C299.172,282.909,296.748,285.891,292.071,284.708z"/>
<path fill="#0E0F12" d="M289.107,227.532c-3.508,0.868-7.254-2.977-11.504-0.201c-1.119,0.731-1.904-1.804-1.965-3.334
	c-0.051-1.269-0.577-2.531,1.861-2.327c5.22,0.437,9.937,3.268,15.282,2.992c0.434-0.022,1.255,0.813,1.295,1.299
	c0.07,0.848-0.653,1.47-1.541,1.55C291.546,227.6,290.542,227.532,289.107,227.532z"/>
<path fill="#131518" d="M278.32,263.438c-1.44,0.159-2.879,0.317-4.352,0.48c-0.418,2.047,3.494,1.067,2.405,3.234
	c-0.783,1.558-2.687,0.823-4.096,0.991c-1.807,0.215-3.121-0.78-2.781-2.531c0.338-1.743-2.739-3.734-0.206-4.776
	C272.378,259.566,275.609,260.538,278.32,263.438z"/>
<path fill="#B1B3C6" d="M292.071,284.708c3.537-0.924,6.232-3.404,9.367-5.07c0.962-0.37,1.924-0.742,2.886-1.113
	c-0.126,1.616-0.233,3.233-0.382,4.846c-0.155,1.678-0.85,2.736-2.79,2.472C298.13,285.432,295.099,285.083,292.071,284.708z"/>
<path fill="#141516" d="M290.624,265.646c0.51,1.21,1.717,0.582,2.523,0.97c0.954,0.459,2.461,0.598,2.158,2.173
	c-0.248,1.286-1.666,1.202-2.397,1.004c-1.824-0.493-3.167,2.811-5.225,0.376c-2.028-2.399,0.508-3.765,0.865-5.61
	C289.605,264.223,290.232,264.71,290.624,265.646z"/>
<path fill="#141516" d="M290.624,265.646c-0.692-0.363-1.385-0.725-2.077-1.088c0.786-3.32,3.759-3.485,7.778-0.379
	C294.598,265.437,292.492,265.102,290.624,265.646z"/>
<path fill="#BDC0D3" d="M162.232,255.147c0.018,6.829,0.036,13.659,0.054,20.488C161.324,268.809,161.205,261.979,162.232,255.147z"
	/>
<path fill="#9D9EB1" d="M388.212,232.4c-2.438,2.394-5.762,1.912-8.695,2.721c-2.419,0.668,0.857-2.426-1.269-1.788
	c2.067-1.023,4.102-2.118,6.209-3.05C386.548,229.359,387.448,230.823,388.212,232.4z"/>
<path fill="#0C0705" d="M137.459,143.12c2.867,1.183,6.057,0.964,9.205,1.099c1.109,0.048,2.125,0.551,2.162,1.643
	c0.04,1.162-1.095,1.374-2.108,1.608c-3.241,0.749-6.563-0.011-9.869,0.786c-1.632,0.393-2.653-1.681-2.508-3.567
	C134.496,142.675,135.964,142.995,137.459,143.12z"/>
<path fill="#130B05" d="M151.119,152.812c-4.532,2.582-8.799,1.971-12.722,2.867c-1.006,0.23-1.926-0.401-2.155-1.56
	c-0.225-1.141,0.311-2.143,1.36-2.282C141.865,151.27,146.192,150.471,151.119,152.812z"/>
<path fill="#E0E1E9" d="M222.744,287.721c1.371-2.079,2.837-3.395,4.701-3.721c0.913-0.16,1.499,1.67,1.084,2.326
	C227.302,288.265,225.166,287.464,222.744,287.721z"/>
<path fill="#00ADBC" d="M112.5,232.474c1.484,4.095,6.463,8.196-0.313,12.71C111.088,240.756,111.289,236.631,112.5,232.474z"/>
<path fill="#00ADBC" d="M126.221,231.532c-1.306,3.062-3.422,3.621-4.78,5.005c-0.799,0.814-1.694,2.417-3.212,0.978
	c-1.108-1.05-1.739-2.452-1.581-3.984c0.166-1.619,1.704-1.333,2.727-1.474C121.416,231.776,123.489,231.725,126.221,231.532z"/>
<path fill="#00ADBC" d="M121.914,246.336c-1.978,0.17-3.808,0.909-5.126-0.631c-0.503-0.588,0.401-1.578,1.094-1.892
	C120.26,242.733,120.807,244.713,121.914,246.336z"/>
<path fill="#00ADBC" d="M124.406,243.539c-4.279-2.727-2.285-3.834,0.827-5.312C124.928,240.184,124.711,241.58,124.406,243.539z"/>
<path fill="#E3E5E7" d="M199.066,110.905c1.739-0.778,3.186-1.75,4.659-0.185c0.182,0.193,0.009,1.097-0.264,1.281
	C201.735,113.168,200.56,111.96,199.066,110.905z"/>
<path fill="#00ADBC" d="M191.631,232.362c-0.744-0.178-2.24-0.373-3.609-0.899c-2.643-1.016-2.397-2.846-0.315-3.902
	c3.68-1.866,7.488-3.76,11.864-3.164c1.437,0.196,3.754,0.364,3.644,1.764c-0.128,1.634-0.618,3.893-3.062,4.545
	C197.584,231.392,195.078,232.296,191.631,232.362z"/>
<path fill="#00ADBC" d="M215.086,256.741c1.539,0,2.201,0.002,2.862,0c7.457-0.028,7.316-0.047,6.336,7.3
	c-0.342,2.568-1.291,3.441-3.754,3.216c-2.137-0.196-4.304-0.064-6.445-0.235c-6.159-0.492-6.972-1.823-6.004-7.898
	c0.381-2.391,1.167-3.125,3.435-2.716C212.973,256.669,214.473,256.688,215.086,256.741z"/>
<path fill="#020205" d="M282.929,78.467c13.062-0.364,27.121,1.466,41.245,1.921c7.836,0.253,15.611-0.195,23.36-1.312
	c1.537-0.222,3.626-1.283,3.844,1.388c0.21,2.585-2.096,2.007-3.622,2.181c-16.789,1.906-33.521,0.074-50.279-0.679
	c-11.8-0.531-23.621-0.646-35.411,0.615c-1.327,0.142-3.694,1.485-3.846-1.358c-0.138-2.563,2.173-1.896,3.681-2.095
	C268.521,78.255,275.179,78.403,282.929,78.467z"/>
<path fill="#050508" d="M336.89,74.829c-14.27-0.838-28.546-1.583-42.807-2.549c-8.955-0.607-17.887-1.551-26.831-2.329
	c-1.446-0.126-3.591,0.306-3.598-1.662c-0.009-2.381,2.275-1.912,3.833-1.762c10.579,1.014,21.133,2.348,31.729,3.106
	c18.014,1.289,36.083,3.993,54.008-0.934c1.169-0.321,2.792-0.998,3.216,1.006c0.453,2.142-1.213,2.309-2.727,2.662
	C348.18,73.654,342.556,74.153,336.89,74.829z"/>
<path fill="#07070A" d="M280.052,50.812c1.766,1.107,1.451,2.239,1.732,3.136c0.722,2.3,2.343,2.857,3.307,0.714
	c1.526-3.391,3.679-2.737,6.444-2.319c19.121,2.895,38.319,4.084,57.607,1.814c1.688-0.199,3.817-0.764,4.042,1.301
	c0.238,2.184-2.146,2.103-3.74,2.165c-19.296,0.757-38.572,0.822-57.75-1.957c-1.529-0.222-3.062-1.276-4.445,0.708
	c-1.166,1.674-2.727,4.155-5.105,2.65C279.481,57.339,279.218,54.36,280.052,50.812z"/>
<path fill="#08090C" d="M279.929,91.387c11.12-0.155,22.173,3.146,33.313,1.113c1.354-0.247,2.236,0.167,2.377,1.715
	c0.191,2.087-0.916,2.513-2.715,2.441c-10.309-0.414-20.62-0.785-30.93-1.153c-6.155-0.219-12.314-0.349-18.466-0.647
	c-1.518-0.073-4.014,0.454-4.003-1.816c0.011-2.352,2.393-1.641,3.962-1.646C268.955,91.376,274.442,91.387,279.929,91.387z"/>
<path fill="#222223" d="M329.837,89.51c1.702-0.007,2.165,0.992,2.206,1.934c0.073,1.694-0.366,3.419-2.182,4.012
	c-1.388,0.453-1.626-0.696-1.444-1.765C328.677,92.162,328.536,90.425,329.837,89.51z"/>
<path fill="#1A1A1A" d="M264.877,58.961c-2.946-1.933-1.117-3.976-0.111-5.894c0.193-0.368,1.269-0.652,1.688-0.452
	c1.38,0.659,0.274,1.67,0.042,2.439C266.094,56.384,265.441,57.638,264.877,58.961z"/>
<path fill="#080709" d="M325.357,96.722c-0.667-0.552-0.841-0.623-0.873-0.735c-0.601-2.106-0.79-4.201,0.53-6.115
	c0.125-0.181,1.14-0.1,1.249,0.112C327.442,92.291,326.581,94.337,325.357,96.722z"/>
<path fill="#090909" d="M259.092,59.142c-1.535-3.054-1.46-5.775,2.055-7.655C262.383,54.606,258.613,56.276,259.092,59.142z"/>
<path fill="#101014" d="M291.736,159.402c4.797,0,9.595,0.005,14.392-0.003c1.354-0.002,3.224-0.994,3.245,1.587
	c0.019,2.459-2.002,1.758-3.28,1.843c-9.744,0.642-19.495,1.194-29.244,1.766c-1.736,0.102-3.49,0.067-3.648-2.256
	c-0.167-2.452,1.754-1.914,3.128-1.926c5.136-0.043,10.272-0.017,15.408-0.017C291.736,160.065,291.736,159.734,291.736,159.402z"/>
<path fill="#02030A" d="M304.249,169.03c-1.479,2.607-4.119,1.698-6.283,1.933c-7.087,0.77-14.206,1.067-21.337,0.775
	c-2.008-0.082-3.928-0.781-3.344-3.183c0.537-2.207,2.39-0.808,3.725-0.656c7.613,0.864,15.225,0.09,22.831-0.13
	C301.576,167.719,303.118,167.389,304.249,169.03z"/>
<path fill="#070A10" d="M299.226,135.898c2.609,0.985,6.579-0.459,8.09,3.689c-2.269,0.37-3.209,2.887-5.813,3.136
	c-3.669,0.351-4.641-1.789-5.281-4.442C295.701,136.12,297.302,135.877,299.226,135.898z"/>
<g>
	<path fill="#020207" d="M29.278,259.667c-1.511,2.918-2.727,6.046-4.621,8.69c-1.638,2.287,0.473,3.697,0.581,5.532
		c0.969,16.415,5.928,31.927,11.293,47.306c3.708,10.628,7.696,21.159,11.577,31.727c0.708,1.927,1.501,3.824,2.38,6.054
		c-3.251-0.694-3.783-3.361-4.587-5.403c-7.208-18.319-14.172-36.731-19.428-55.732c-1.214-4.389-2.298-8.814-3.442-13.222
		c-1.556-1.686-1.629-3.892-2.104-6.104c-3.746,7.325-7.535,14.494-11.446,21.598c-0.979,1.421-1.955,2.837-1.74,4.706
		c0.076,0.657,0.331,1.582-0.792,1.45c-0.638-0.075-1.754-0.618-1.747-0.93c0.063-2.916-2.65-5.024-1.655-8.443
		c1.456-5.004-0.196-10.243-0.543-15.361c-0.989-14.583-1.689-29.155-0.647-43.757c0.472-6.607,2.004-12.966,4.707-19.045
		c1.463-3.289,3.65-5.742,7.117-6.956c-0.481-2.01-2.41-2.432-3.633-3.54c-11.169-10.125-12.656-22.792-8.242-36.09
		c6.157-18.548,20.851-27.332,38.991-31.654c4.53-1.079,9.53,0.515,13.656-2.543c1.847-0.827,3.367,0.125,4.835,0.992
		c11.643,6.874,17.558,17.274,18.721,30.574c0.025,0.285-0.003,0.574,0.015,0.86c0.146,2.277-0.947,5.172,0.47,6.686
		c1.727,1.845,3.933-1.374,6.186-1.003c9.707-5.545,17.824-13.16,26.345-20.249c1.645-1.368,3.25-2.785,4.862-4.193
		c3.517-3.073,7.012-6.165,8.431-10.866c2.852,1.362,4.07,4.174,3.059,8.436c-1.343,5.663-3.042,11.242-5.318,16.618
		c-5.848,13.496-12.304,26.679-20.421,38.988c-3.455,5.239-6.671,10.636-10.397,15.698c-2.326,3.06-4.813,5.977-8.694,7.048
		c-1.032,0.285-2.664,1.734-3.233-0.709c8.078-11.101,16.054-22.281,23.086-34.079c7.498-12.579,13.299-25.972,18.196-39.758
		c0.268-0.755,0.181-1.636,0.294-2.822c-11.942,10.991-24.06,21.163-37.014,30.306c-5.247,3.915-8.714,8.938-10.749,15.258
		c-1.014,3.148-3.42,5.894-5.893,8.314c-3.648,3.572-7.601,6.682-12.576,8.229c-0.626,0.257-1.252,0.515-1.878,0.772
		c-2.48,2.538-5.901,1.69-8.872,2.464c-8.856,0.884-17.62,1.122-26.408-1.179c-3.224-0.844-5.801,1.788-7.479,4.648
		c-2.951,5.028-4.388,10.628-5.01,16.288c-2.075,18.87-0.436,37.689,1.096,57.134c5.413-6.436,7.795-13.638,10.264-20.714
		c3.778-10.83,9.326-20.815,14.237-31.105c0.42-0.879,1.232-1.592,2.364-1.645c1.265,0.714,3.522,0.937,2.707,3.044
		C33.899,247.884,33.395,254.488,29.278,259.667z"/>
	<path fill="#020306" d="M62.047,331.157c-0.765,10.411-1.517,20.823-2.322,31.23c-0.066,0.849,0.519,2.263-1.079,2.323
		c-1.434,0.054-1.649-1.065-1.983-2.275c-1.576-5.7-0.179-11.376,0.032-17.043c0.917-24.629,1.954-49.254,3.006-73.879
		c0.218-5.104-0.09-10.408,3.912-14.517c3.381-0.483,4.533,0.45,4.011,3.475c-0.352,2.04-1.39,3.962-1.01,6.127
		c0.063,0.774,0.031,1.545-0.032,2.318c-0.97,18.136-0.991,36.317-2.662,54.413C63.673,325.992,63.561,328.763,62.047,331.157z"/>
	<path fill="#020307" d="M73.154,316.502c-1.47,3.982-2.941,7.965-4.411,11.947c-1.212,2.215-2.659,3.894-5.493,2.409
		c-1.322-2.758,0.12-5.363,0.768-7.854c1.644-6.323,3.913-12.476,5.642-18.785c0.277-1.01,1.009-1.694,1.723-2.39
		c6.918-19.805,10.319-40.336,12.556-61.101c0.237-2.197,0.712-4.53-1.92-5.992c-0.727-0.404-0.462-1.558,0.472-2.103
		c1.981-0.718,3.967-1.323,6.034-0.304c1.98,1.254,2.07,3.291,2.156,5.311c0.196,4.614-0.432,9.195-1.36,13.656
		c-3.673,17.658-6.229,35.564-11.559,52.857C76.533,308.382,76.337,313,73.154,316.502z"/>
	<path fill="#BBBFD3" d="M76.668,304.449c3.261-11.671,5.854-23.514,7.931-35.428c1.851-10.614,5.223-21.014,4.971-31.976
		c-0.035-1.508-0.221-2.793-1.037-4.012c-0.49-3.551,0.434-6.554,3.398-8.766c1.099,17.95-0.871,35.71-3.318,53.44
		c-2.557,5.134-1.292,10.885-2.625,16.214c-0.165,0.658-0.529,1.266-0.801,1.897c-2.613,2.666-2.401,6.977-5.622,9.375
		C77.957,306.389,77.17,306.543,76.668,304.449z"/>
	<path fill="#9FA0B5" d="M85.182,176.057c-2.389,1.423-4.778,2.845-7.824,4.659c1.281-19.249-3.704-34.74-22.404-42.766
		c2.451-3.087,5.038-1.34,7.131,0.193c12.286,9,21.631,19.889,22.182,36.13C84.292,175.015,84.436,175.689,85.182,176.057z"/>
	<path fill="#D8DCEC" d="M65.321,268.229c0.03-0.576,0.06-1.152,0.089-1.728c0.591-1.23,0.177-3.262,2.607-2.987
		c1.641,0.186,2.287-1.429,3.394-2.213c1.014,0.877,0.821,2.079,0.822,3.204c0.014,9.036,0.147,18.075-0.062,27.106
		c-0.079,3.425-1.842,6.683-1.644,10.218c-0.618,2.182-1.025,4.42-1.804,6.559c-0.373,1.025-0.927,1.775-2.141,1.684
		c-1.292-0.097-1.385-1.066-1.681-2.077c-1.095-3.748,0.421-7.341,0.59-11.004c0.184-3.983,0.587-7.915,0.089-11.919
		c-0.561-4.509,0.654-9.033,0.205-13.565C65.677,270.41,66.182,269.22,65.321,268.229z"/>
	<path fill="#C6C8D7" d="M119.647,179.432c-1.905-0.006-2.629,0.748-1.664,2.587c-7.269,13.668-16.026,26.374-25.119,38.862
		c-1.108,0.475-1.923,0.465-1.804-1.09c11.789-17.096,22.417-34.846,30.417-54.073c1.229-0.891,1.949-0.297,2.478,0.851
		c-0.145,3.101-1.818,5.676-2.944,8.433C120.422,176.448,119.377,177.729,119.647,179.432z"/>
	<path fill="#D6DAE9" d="M76.668,304.449c0.849,1.08,1.377,1.218,2.305-0.157c1.355-2.007,3.699-3.289,3.279-6.383
		c-0.217-1.6,1.285-2.31,2.934-2.092c0.231,4.109-1.261,7.874-2.606,11.596c-2.457,6.798-2.745,14.281-6.581,20.632
		c-0.661,1.095-0.473,3.413-2.533,2.558c-1.616-0.671-2.256-2.477-1.758-4.378c0.648-2.474,1.288-4.95,1.958-7.418
		c0.238-0.878,0.329-1.685-0.513-2.305C74.325,312.484,75.497,308.467,76.668,304.449z"/>
	<path fill="#CCCFDE" d="M29.278,259.667c1.962-5.649,3.662-11.409,6.001-16.897c1.104-2.59-0.623-2.847-1.806-3.83
		c1.102-0.26,2.191-0.628,3.308-0.759c3.049-0.357,6.045,2.248,5.074,4.559c-3.785,9.007-7.709,17.957-11.677,26.885
		c-0.586,1.318-1.224,3.933-2.752,3.139c-1.902-0.988-1.077-3.554-0.268-5.357C28.275,264.92,30.629,262.818,29.278,259.667z"/>
	<path fill="#ECEEF3" d="M65.321,268.229c1.98,2.344,1.17,5.375,1.07,7.792c-0.215,5.183,0.896,10.227,0.726,15.37
		c-0.198,5.989-2.557,11.876-0.79,18.189c3.41-1.576,1.473-5.988,4.201-7.749c0.285-0.006,0.569-0.006,0.854-0.001
		c-1.442,8.529-5.295,16.359-7.201,24.76c-0.351,1.545-0.728,3.035-0.589,4.62c0.275,0.342,0.207,0.619-0.16,0.84
		c-0.462-0.297-0.924-0.595-1.385-0.892C64.105,310.231,64.048,289.196,65.321,268.229z"/>
	<path fill="#A2A4B8" d="M67.076,203.616c4.113-5.339,7.894-10.883,9.093-17.679c0.403-2.286,2.434-1.55,3.552-2.465
		c1.419-1.161,3.092-2.011,4.656-2.996c-1.349,4.314-1.511,8.943-3.693,13.049c-2.115,3.978-4.821,7.404-8.399,10.141
		C70.539,204.767,68.79,205.987,67.076,203.616z"/>
	<path fill="#E8EAF8" d="M68.757,332.813c-0.063,8.096,0.55,16.212-0.802,24.269c-0.204,1.216,0.148,2.875-1.769,2.689
		c-1.541-0.15-2.548-1.235-2.542-2.934c0.02-5.364-0.42-10.792,0.283-16.067c0.373-2.802-0.938-5.301-0.275-7.949
		C65.356,334.096,67.056,333.234,68.757,332.813z"/>
	<path fill="#D8DAE5" d="M9.481,300.113c1.027-5.443,4.433-9.805,6.704-14.681c1.497-3.213,3.171-6.343,5.21-10.394
		c0.649,3.802,1.143,6.691,1.636,9.581c-3.855,3.133-6.261,7.481-9.372,11.237C12.378,297.405,11.188,299,9.481,300.113z"/>
	<path fill="#C5C9DA" d="M71.411,261.302c0.005,2.037-0.623,3.94-2.997,3.327c-2.087-0.539-2.074,1.179-3.005,1.872
		c-0.136-1.856,0.126-3.679,0.964-5.318c1.604-3.138,0.083-4.064-2.763-4.187c-0.226-1.532,0.516-2.812,1.208-4.042
		c0.527-0.936-0.007-3.037,2.148-2.42c1.543,0.442,3.312,0.37,3.928,2.656C71.63,255.913,71.137,258.611,71.411,261.302z"/>
	<path fill="#9E9FB4" d="M91.061,219.792c0.381,0.728,1.024,1.022,1.804,1.09c-0.311,1.128-0.622,2.257-0.933,3.385
		c-1.133,2.922-2.266,5.844-3.399,8.766c-2.013-0.157-4.069,0.341-6.043-0.4c1.21-2.357,1.976-4.403-2.125-4.132
		c-1.244,0.082-1.259-0.812-0.549-1.672c3.508,0.584,5.868-1.577,8.214-3.582C89.18,222.263,89.562,220.526,91.061,219.792z"/>
	<path fill="#CBCDDB" d="M67.076,203.616c1.73,0.708,3.468,0.489,5.209,0.049c-3.52,5.067-9.786,6.056-14.287,9.644
		c-1.771,1.412-1.66-1.373-2.839-1.033C59.132,209.39,63.104,206.503,67.076,203.616z"/>
	<path fill="#C7CAD8" d="M68.757,332.813c-1.699,1.507-3.395,4.976-5.105,0.009c-0.006-0.277-0.079-0.535-0.219-0.774
		c0.025-0.285,0.079-0.565,0.158-0.839c1.67-1.007,3.9-0.97,5.151-2.76C68.747,329.904,68.752,331.358,68.757,332.813z"/>
	<path fill="#CBCDDB" d="M44.41,215.513c2.957-0.821,5.914-1.643,8.872-2.464c1.353,1.335,1.705,2.501-0.756,2.584
		C49.825,215.725,47.115,215.564,44.41,215.513z"/>
	<path fill="#FEFEFE" d="M72.968,172.185c0.37,20.499-12.633,35.557-31.807,37.981c-6.945,0.878-13.964,2.434-20.899,0.577
		c-13.014-3.484-20.127-16.546-17.404-31.184c2.69-14.46,11.167-24.176,24.165-30.589c6.594-3.253,13.22-5.577,20.594-6.628
		c8.434-1.202,13.523,2.8,18.224,8.643C71.126,157.553,73.232,165.08,72.968,172.185z"/>
	<path fill="#171717" d="M57.712,176.406c0.116-0.973,0.732-1.664,1.566-1.82c1.178-0.22,1.772,0.61,1.931,1.704
		c0.14,0.959-0.102,1.705-1.279,1.662C58.87,177.913,58.028,177.526,57.712,176.406z"/>
	<path fill="#020202" d="M50.727,177.535c-0.003,1.209-0.755,1.471-1.654,1.357c-0.923-0.117-1.97-0.14-1.905-1.599
		c0.048-1.075,0.517-1.508,1.524-1.417C49.76,175.972,50.457,176.547,50.727,177.535z"/>
</g>
<path fill="#F5F5F6" d="M298.403,247.193c0.078,2.501,0.328,5.171-2.423,6.497c-2.722,1.311-5.507,0.425-8.211-0.356
	c-0.409-0.118-1.036-0.612-1.019-0.901c0.251-4.342-0.381-8.479-2.222-12.471c-0.312-0.676,0.903-1.151,1.753-1.347
	C292.792,237.116,298.501,238.076,298.403,247.193z"/>
<path fill="#F4F4F5" d="M281.683,254.631c-5.763,1.744-10.412,0.595-14.339-2.835c-2.698-2.357-1.582-5.46-0.701-8.327
	c1.74-5.665,7.101-3.195,11.182-5.134C271.953,245.696,274.894,250.524,281.683,254.631z"/>
<path fill="#EBECED" d="M284.348,248.344c-0.409,1.287,0.672,3.712-1.874,3.183c-2.656-0.551-5.197-2.326-5.435-5.129
	c-0.198-2.327,2.088-5.282,3.987-4.935C284.156,242.037,283.906,245.698,284.348,248.344z"/>
<path fill="#22150D" d="M194.709,226.515c0.875-0.035,1.803,0.086,1.798,1.146c-0.007,1.466-1.248,1.776-2.397,1.946
	c-0.899,0.133-1.714-0.241-1.747-1.239C192.312,226.811,193.509,226.606,194.709,226.515z"/>
<path fill="#171203" d="M219.783,261.613c-0.858,0.542-1.215,0.956-1.589,0.973c-2.39,0.111-4.923,1.016-7.012-0.929
	c-0.544-0.507-0.485-1.413,0.186-1.667C214.32,258.873,216.899,259.755,219.783,261.613z"/>
<path fill="#151518" d="M295.182,247.176c-2.81,0.773-4.623,2.083-6.664,0.752c-0.597-0.389-0.817-1.698-0.036-2.161
	C290.523,244.555,292.471,245.045,295.182,247.176z"/>
<path fill="#202123" d="M269.797,246.761c1.505,0.114,2.697,0.358,2.542,1.956c-0.135,1.392-1.361,1.228-2.297,1.219
	c-1.107-0.011-2.626,0.163-2.613-1.474C267.441,246.916,269.026,247.12,269.797,246.761z"/>
</svg>
