<?xml version="1.0" encoding="utf-8"?>
<!-- Generator: Adobe Illustrator 17.0.2, SVG Export Plug-In . SVG Version: 6.00 Build 0)  -->
<!DOCTYPE svg PUBLIC "-//W3C//DTD SVG 1.1 Tiny//EN" "http://www.w3.org/Graphics/SVG/1.1/DTD/svg11-tiny.dtd">
<svg version="1.1" baseProfile="tiny" id="Layer_1" xmlns="http://www.w3.org/2000/svg" xmlns:xlink="http://www.w3.org/1999/xlink"
	 x="0px" y="0px" width="466.598px" height="262.374px" viewBox="0 0 466.598 262.374" xml:space="preserve">
<g>
	<path fill="#010204" d="M2.584,122.116c-1.996-4.059-2.576-8.537-2.584-12.869c-0.013-7.479,5.326-11.827,13.907-12.119
		c26.7-0.909,53.416-1.392,80.09-3.025c12.249-0.75,24.511-1.297,36.757-2.098c1.508-0.099,4.907,0.985,3.425-3.009
		c-0.102-0.274,0.642-1.207,0.759-1.166c3.731,1.303,7.434,2.689,11.141,4.063c-2.008,4.504,2.11,7.853,2.257,12.077
		c0.203,5.86,0.947,11.697,0.156,17.56c-0.294,2.178-0.096,3.015,2.749,3.496c7.979,1.349,15.955,1.411,23.946,1.182
		c45.43-1.301,90.853-2.837,136.286-4.018c13.876-0.361,27.781,0.431,41.662,0.154c8.468-0.169,17.073-0.501,24.742-5.128
		c3.679-2.22,6.12-5.466,7.957-9.126c1.542-3.073,0.924-6.269-1.037-9.105c-0.6-0.867-1.665-1.498-2.025-2.427
		c-0.643-1.659-2.856-3.707-0.637-5.14c1.754-1.133,3.172,1.201,4.177,2.501c2.905,3.758,5.767,7.625,5.133,12.835
		c-0.716,12.331-5.836,17.292-20.034,19.224c-5.247,0.714-10.448,1.662-15.653,2.651c-14.666,2.353-29.479,1.481-44.178,1.331
		c-21.006-0.214-41.956,0.583-62.926,1.268c-29.588,0.935-59.17,2.052-88.76,2.614c-33.756,0.488-67.47,3.323-100.807,2.274
		c13.646,1.647,27.817,2.219,42.013,1.691c6.244-0.232,12.403,0.98,18.647,0.579c5.658-0.363,11.241-0.241,16.623-2.933
		c3.648-1.825,8.042-1.395,12.091-0.675c4.626,0.822,6.413,3.298,6.813,8.659c-0.456,2.885-2.55,4.066-5.031,4.853
		c-1.355,0.43-2.736,0.863-4.148,0.88c-20.892,0.243-41.686,2.663-62.579,2.784c-8.325-1.25-16.674-0.734-24.894,0.55
		c-8.421,1.315-16.677,0.437-24.883-0.887c-6.473-1.044-10.934-5.201-12.436-11.688c-0.92-3.975-3.03-6.052-6.807-7.233
		C9.025,130.984,4.745,127.68,2.584,122.116z"/>
	<path fill="#D8DCEC" d="M248.913,129.655c19.462-1.492,38.951-1.76,58.462-1.542c14.142,0.158,28.289,0,42.432-0.119
		c2.266-0.019,4.526-0.578,6.789-0.887c0.996-0.383,2.519-0.892,2.96-0.148c1.69,2.848,4.263,2.298,6.828,2.407
		c3.959,0.168,4.587,1.593,2.451,5.041c-10.376,1.795-20.882,1.552-31.343,2.011c-4.898,0.215-9.819-0.744-14.708,0.385
		c-0.983,0.227-2.73,0.265-3.054-0.265c-2.975-4.871-7.927-2.233-11.146-1.917c-9.082,0.892-18.352-1.735-26.948,0.431
		c-6.025,1.518-11.747,0.497-17.543,1.053c-15.077,1.446-30.301,1.364-45.468,1.856c-8.723,0.283-17.448,0.497-26.173,0.742
		c2.063-4.391,6.179-3.62,9.904-4.056c14.981-1.755,30.06-0.201,45.099-1.638c8.942-0.854,17.967-3.614,27.115-1.209
		c-6.098-1.159-12.189-0.236-18.287-0.103C253.727,131.751,250.552,133.227,248.913,129.655z"/>
	<path fill="#020305" d="M375.172,90.056c-5.548,1.527-10.567,0.897-15.52,0.903c-31.303,0.042-62.611-0.424-93.906,0.022
		c-24.914,0.355-49.809,1.844-74.718,2.679c-11.728,0.393-23.469,0.43-35.203,0.638c-1.069,0.019-2.321,0.199-2.405-1.289
		c-0.084-1.482,1.062-2.294,2.345-2.38c3.194-0.216,6.415-0.436,9.605-0.266c20.671,1.102,41.275-0.777,61.909-1.274
		c22.242-0.536,44.481-1.436,66.725-1.581c24.164-0.158,48.331,0.376,72.498,0.595C369.306,88.126,372.1,88.12,375.172,90.056z"/>
	<path fill="#CBD0E2" d="M248.913,129.655c3.378,1.784,6.951,0.534,10.421,0.575c4.972,0.059,9.948-0.349,14.922-0.347
		c1.418,0.001,4.156-1.276,3.89,1.615c-0.193,2.096-2.721,3.247-4.625,2.453c-6.501-2.713-12.621,0.017-18.951,0.327
		c-12.835,0.627-25.732,1.313-38.658,1.145c-7.649-0.1-16.121-1.023-23.459,3.28c-11.052,0.329-22.105,0.659-33.158,0.989
		c0.645-3.443,4.174-1.436,5.916-3.185c-0.88-3.035-5.616-0.566-6.095-4.102c12.034-0.402,24.083-0.562,36.1-1.262
		C213.105,130.101,231.009,129.96,248.913,129.655z"/>
	<path fill="#B3B7CA" d="M159.116,132.404c1.491,1.745,3.744,0.412,5.47,1.366c1.255,0.694,3.132,0.352,2.723,2.938
		c-0.359,2.274-1.786,1.671-3.056,1.851c-1.684,0.239-3.584-0.466-4.958,1.132c-0.703,0.764-1.405,1.529-2.108,2.293
		c-0.719,1.123-1.393,2.36-3.02,1.203c0.51-4.797-2.088-6.962-6.472-7.191c-5.233-0.273-10.751-1.622-14.963,3.271
		c-0.513,0.595-1.987,0.514-3.012,0.495c-24.342-0.445-48.731,0.77-73.005-2.108c-1.793-0.213-3.321-0.709-5.717-2.415
		c7.828-1.346,14.649-0.641,21.359-0.57c19.171,0.204,38.298-1.325,57.483-1.082c5.718,0.072,11.901-0.106,17.829-2.036
		C151.035,130.456,155.271,132.032,159.116,132.404z"/>
	<path fill="#CDD2E2" d="M152.715,142.032c1.007-0.401,2.014-0.802,3.021-1.203c-2.014,8.581-5.594,11.432-16.689,12.227
		c-11.161,0.8-22.347,0.981-33.521,1.984c-12.005,1.077-24.057,1.653-36.028,3.213c-0.974,0.127-2.04-0.452-3.063-0.703
		c1.889-5.099,6.079-7.825,10.816-6.484c3.546,1.004,6.86,0.548,10.262-0.092c0.667-0.406-0.199-1.234,0.175-0.627
		c0.103,0.167-0.039,0.252-0.33,0.419c-2.119,1.216-4.452,0.875-6.714,0.873c-1.144-0.001-2.99-0.023-2.471-1.757
		c0.406-1.358,2.067-0.759,3.242-0.445c20.252-0.741,40.439-2.825,60.738-2.784C145.949,146.661,150.947,147.508,152.715,142.032z"
		/>
	<path fill="#B0B3C8" d="M82.867,150.593c-0.689,0.156-1.379,0.312-2.068,0.467c-0.017,0.172-0.033,0.344-0.05,0.516
		c3.04-0.094,6.08-0.188,9.843-0.305c-3.047,3.131-6.493,3.381-9.096,2.498c-6.185-2.1-9.795,1.351-13.609,4.937
		c-9.967,0.834-19.732-0.724-29.507-2.376c-8.977-1.517-15.18-6.587-18.708-14.737c-1.191-2.751-2.689-4.16-5.431-5.111
		c-2.813-0.975-5.409-2.628-8.021-4.121c-4.103-2.346-5.295-5.812-3.635-10.246c4.688,4.913,9.586,9.469,16.707,10.557
		c2.558,0.391,2.536,2.586,2.924,4.488c1.985,9.724,5.602,12.561,15.477,13.59c11.23,1.171,22.364-0.226,33.542-0.424
		C75.11,150.259,79.02,149.264,82.867,150.593z"/>
	<path fill="#040407" d="M222.812,110.157c-2.675,0.196-2.089,5.169-4.967,3.48c-2.517-1.478-0.724-4.565-0.34-6.899
		c0.254-1.544,0.898-3.08,1.645-4.472c0.839-1.564,0.826-4.631,3.457-3.82c1.959,0.603,0.125,2.686,0.151,4.088
		c0.049,2.662,3.454,2.98,4.582,3.056c7.821,0.527,15.405,3.574,23.446,2.094c2.446-0.45,4.872-0.314,6.927-2.092
		c1.58-1.368,3.311-2.119,4.928,0.197c1.421,2.036,3.271,0.518,4.887,0.302c3.155-0.422,6.269-1.149,9.423-1.569
		c1.306-0.174,2.434,0.32,2.475,2.036c0.044,1.859-1.147,2.023-2.455,1.822c-5.058-0.778-9.488,2.815-14.628,1.916
		c-3.298-0.577-3.107,4.217-5.91,4.577c-2.706,0.348-1.903-4.16-5.545-3.733c-7.079,0.83-14.275,0.814-21.383-0.443
		c-0.38-0.067-1.023,0.329-1.271,0.694C225.193,115.869,224.053,112.053,222.812,110.157z"/>
	<path fill="#B5B8CC" d="M368.836,134.407c1.106-2.08,1.047-4.47-1.7-3.923c-3.941,0.784-6.828,0.378-9.036-3.119
		c-0.182-0.288-0.987-0.181-1.503-0.257c6.074-1.975,12.495-2,18.716-3.322c9.672-2.055,14.677-7.637,16.133-17.03
		c5.76,6.315,1.884,11.812-1.473,17.353c-0.837,1.106-1.458,2.626-3.027,2.717c-5.183,0.301-8.618,4.126-12.91,6.211
		C372.416,133.927,370.878,135.121,368.836,134.407z"/>
	<path fill="#060709" d="M198.568,119.529c-3.356,0.218-6.725,0.645-9.934-0.91c-2.166-1.049-3.334-2.631-2.851-5.056
		c0.224-1.126,0.309-2.539,2.089-2.576c1.946-0.04,1.87,0.963,1.549,2.408c-0.12,0.538,0.228,1.378,0.645,1.805
		c2.19,2.241,16.447,1.404,18.465-0.981c0.833-0.984,0.913-1.942-0.003-2.785c-0.631-0.581-1.466-0.954-2.241-1.36
		c-3.025-1.589-6.754-3.243-5.023-7.392c1.627-3.9,5.698-5.056,9.768-5.241c2.031-0.092,3.436,1.172,3.793,3.068
		c0.459,2.437,0.516,4.964-0.998,7.156c-0.217,0.314-1.1,0.538-1.405,0.355c-1.114-0.67-0.832-1.831-0.593-2.831
		c0.347-1.451,0.62-3.116-0.69-3.921c-1.469-0.902-3.07,0.115-4.494,0.854c-3.218,1.669-3.475,3.276,0.038,4.946
		c1.109,0.527,2.154,1.251,3.107,2.033c3.716,3.055,3.143,7.265-1.303,9.058c-1.611,0.65-3.395,0.947-5.13,1.186
		C201.782,119.561,200.166,119.479,198.568,119.529z"/>
	<path fill="#D8DCEC" d="M374.035,133.036c0.474-0.844-4.163-1.801,0.053-2.54c0.487-0.085,1.217,0.337,1.503,0.109
		c4.252-3.388,9.393-4.769,14.381-6.497c0.029,3.157-2.822,4.041-4.742,5.04C381.75,130.958,378.09,132.685,374.035,133.036z"/>
	<path fill="#040509" d="M83.127,101.501c-3.424,1.003-5.901-2.764-9.307-1.849c-0.856-0.031-1.326-0.468-1.396-1.326
		c5.02-1.767,10.221-0.916,15.353-1.061c6.633,7.838,11.763,16.674,16.882,25.512c0.623,1.076,0.824,2.343,0.289,3.588
		c-2.417,2.863-4.068,1.167-5.224-1.108c-4.265-8.391-10.183-15.725-14.952-23.78C83.759,99.766,83.662,100.649,83.127,101.501z"/>
	<path fill="#EBEDEE" d="M128.601,125.724c0.451,1.194,0.481,1.982-0.391,2.149c-1.205,0.231-2.504,0.381-3.25-1.049
		c-0.903-1.731-1.846-3.44-2.764-5.164c-3.82-7.172-7.663-14.331-11.427-21.532c-0.573-1.096-2.294-2.557-0.447-3.566
		c1.549-0.846,1.768,1.195,2.352,2.168c4.829,8.044,9.652,16.092,14.455,24.152C127.761,123.943,128.268,125.076,128.601,125.724z"
		/>
	<path fill="#E7E9EA" d="M48.355,99.45c2.454-0.014,4.392-0.974,5.183,0.903c4.253,10.083,12.45,17.474,17.974,26.674
		c0.17,0.284,0.162,0.675,0.234,1.023c-0.682,0.713-2.027,0.986-2.328,0.494C63.288,118.518,54.453,110.418,48.355,99.45z"/>
	<path fill="#E0E2E4" d="M96.653,97.021c1.393-0.206,2.14,0.009,2.334,0.769c2.555,10.009,10.226,17.243,14.293,26.427
		c0.215,0.486,0.495,0.952,0.64,1.457c0.269,0.94,1.104,2.156-0.547,2.551c-1.007,0.241-2.065,0.106-2.471-1.307
		c-2.795-9.737-9.636-17.206-14.498-25.786C95.548,99.621,93.592,97.616,96.653,97.021z"/>
	<path fill="#E0E2E4" d="M83.127,101.501c0.712-1.227-2.522-2.415-0.24-3.422c2.329-1.028,1.796,1.248,2.526,2.452
		c3.807,6.284,8.013,12.323,11.99,18.506c1.125,1.749,1.911,3.713,2.916,5.543c0.851,1.55,1.656,3.335,3.972,1.927
		c0.971-0.417-0.013-2.632,1.958-2.128c0.332,1.509,2.297,3.744-0.804,4.039c-2.064,0.196-4.997,1.918-6.444-1.496
		C95.055,117.612,88.691,109.806,83.127,101.501z"/>
	<path fill="#E8EBED" d="M72.424,98.326c0.748,0.144,1.296,0.499,1.396,1.326c-1.361,2.685,0.795,4.292,1.994,6.09
		c4.315,6.471,8.761,12.853,13.104,19.305c0.548,0.815,1.529,1.723,0.875,2.805c-0.252,0.418-1.232,0.545-1.881,0.545
		c-1.642,0.001-0.907-1.422-1.301-2.211c-3.491-7-8.777-12.8-13.088-19.259c-1.078-1.614-2.042-3.331-3.3-4.793
		C67.166,98.58,70.182,98.716,72.424,98.326z"/>
	<path fill="#DBDDDF" d="M140.911,119.976c-3.792-7.028-7.521-13.877-11.172-20.767c-0.584-1.102-2.126-2.598-0.083-3.534
		c1.536-0.704,1.976,1.115,2.513,2.103c3.045,5.604,6.078,11.218,8.954,16.91C141.853,116.13,143.2,117.815,140.911,119.976z"/>
	<path fill="#E4E5E7" d="M103.276,96.706c2.483,1.088,2.904,3.715,4.12,5.641c4.423,7.004,8.4,14.263,11.886,21.78
		c0.579,1.249,2.607,3.041,0.455,3.872c-2.143,0.828-1.181-1.889-1.778-2.933c-4.72-8.255-9.459-16.5-14.072-24.815
		C103.386,99.349,102.084,98.363,103.276,96.706z"/>
	<path fill="#E5E8EB" d="M81.34,128.751c-5.084-9.713-12.796-17.166-17.455-26.675c-0.847-1.729-2.306-2.884-3.956-0.622
		c-0.54,0.74-0.77,1.733-1.698,0.363c-0.522-0.77-0.974-1.563-0.361-2.411c0.705-0.975,6.73-0.553,7.124,0.545
		c2.98,8.298,9.572,14.198,14.145,21.433C80.469,123.488,82.745,125.262,81.34,128.751z"/>
	<path fill="#D9DBDD" d="M124.1,95.597c5.11,10.312,11.28,19.164,14.932,29.331c0.313,0.872,0.918,1.6-0.01,2.28
		c-0.945,0.692-1.855,0.122-2.13-0.742c-3.231-10.172-9.418-18.993-13.144-28.931C123.645,97.259,123.857,96.865,124.1,95.597z"/>
	<path fill="#B7BABD" d="M106.25,124.38c-0.653,0.709-1.305,1.419-1.958,2.128c0.894-2.755-0.806-4.664-2.135-6.73
		c-4.815-7.49-9.59-15.006-14.38-22.512c0.83,0.17,2.173,0.077,2.413,0.548C94.904,107.059,102.207,114.739,106.25,124.38z"/>
	<path fill="#D5D7D9" d="M127.899,117.073c-3.545-6.111-7.115-12.208-10.608-18.348c-0.466-0.819-1.197-1.995,0.463-2.547
		c0.729-0.242,1.571-0.15,1.768,0.625C121.321,103.88,126.357,109.438,127.899,117.073z"/>
	<path fill="#CDCED0" d="M141.089,108.338c-1.814-3.711-3.667-7.404-5.413-11.148c-0.418-0.896-0.804-2.178,0.703-2.511
		c1.104-0.244,2.01,0.347,2.467,1.494C140.34,99.924,141.495,103.76,141.089,108.338z"/>
	<path fill="#CFD1D4" d="M12.784,101.344c-1.621,1.909-2.377,3.117-3.428,3.959c-1.364,1.093-2.145,3.506-4.63,2.448
		c-0.363-0.155-0.887-0.716-0.826-0.962c0.524-2.103,1.493-4.116,3.537-4.955C8.797,101.275,10.486,101.517,12.784,101.344z"/>
	<path fill="#D3D4D7" d="M45.082,144.25c-5.045-1.616-7.055-6.324-10.131-9.947C40.053,135.862,42.073,140.56,45.082,144.25z"/>
	<path fill="#E2E4E8" d="M44.141,111.185c-2.402-3.032-4.808-6.06-7.204-9.097c-0.668-0.846-1.447-1.858,0.219-2.332
		c0.816-0.232,2.186-0.682,2.289,1.093c0.235,4.052,4.003,6.024,5.528,9.32C45.602,111.249,44.995,111.318,44.141,111.185z"/>
	<path fill="#B2B5BB" d="M44.141,111.185c0.277-0.339,0.555-0.677,0.832-1.016c3.125,3.696,6.38,7.294,8.725,11.578
		c-0.14,0.515-0.437,0.903-0.917,1.146C49.901,118.99,47.021,115.087,44.141,111.185z"/>
	<path fill="#2E323C" d="M10.943,111.796c2.054,2.708,4.109,5.416,6.571,8.661C12.867,118.559,12.324,117.897,10.943,111.796z"/>
	<path fill="#E3E8E9" d="M52.781,122.892c0.306-0.382,0.612-0.764,0.917-1.146c1.172,1.551,2.382,3.076,3.499,4.665
		c0.478,0.681,1.242,1.639,0.404,2.308c-0.586,0.467-1.684,0.358-2.557,0.385c-1.184,0.036-1.566-0.712-1.211-1.715
		C54.457,125.629,53.301,124.349,52.781,122.892z"/>
	<path fill="#B3B6B9" d="M18.956,106.37c-1.394-2.382-3.478-3.851-2.356-5.44c1.121-1.587,3.587-0.54,5.444-0.798
		c0.791-0.11,1.302,0.44,1.216,1.271c-0.094,0.913-0.818,1.145-1.494,0.823C17.435,100.16,18.997,103.562,18.956,106.37z"/>
	<path fill="#A2A6AB" d="M21.448,109.043c3.267,1.698,4.757,4.814,6.511,7.72C24.761,115.01,23.069,112.054,21.448,109.043z"/>
	<path fill="#E6E9EE" d="M28.146,137.247c1.721,1.945,3.442,3.89,5.699,6.441C29.125,143.729,28.393,140.816,28.146,137.247z"/>
	<path fill="#C4C5C6" d="M27.081,101.066c0.19-1.52,1.481-0.961,2.383-1.086c1.206-0.167,2.371,0.507,2.324,1.525
		c-0.062,1.343-1.498,1.844-2.726,1.803C27.875,103.268,27.363,102.254,27.081,101.066z"/>
	<path fill="#9599A1" d="M63.995,128.483c-2.528-1.347-3.596-3.774-5.154-6.821C62.21,123.264,63.084,125.895,63.995,128.483z"/>
	<path fill="#F3F2F3" d="M24.98,126.12c-1.639-0.122-3.436,0.604-4.121-1.18c-0.103-0.269,0.716-1.147,1.261-1.367
		C24.705,122.526,23.781,125.551,24.98,126.12z"/>
</g>
<g>
	<path fill="#010204" d="M32.917,1.631c0.413-0.882,1.112-1.461,2.076-1.383c35.43,2.877,70.851-0.328,106.279-0.246
		c34.027,0.078,68.063-0.215,102.08,0.487c29.929,0.618,59.855,0.591,89.783,0.841c21.27,0.178,42.546-0.458,63.813,0.74
		c3.136,0.177,6.383-0.681,9.521,0.239c1.44,0.422,3.682,0.628,1.268,3.114c-0.94,0.968-0.962,3.244-0.001,4.547
		c1.18,1.599,2.858,0.433,4.4,0.122c2.946-0.596,5.946-0.928,8.923-1.369c7.442-0.73,7.817-0.201,8.678,7.327
		c1.052,9.202-1.175,18.264-0.776,27.435c0.092,2.111-0.215,4.67-2.565,6.04l0.061,0.059c-2.08,3.954-5.709,3.747-9.244,3.175
		c-3.516-0.569-5.797,0.34-6.929,3.909c-1.181,3.72-4.009,5.102-7.783,5.064c-3.354-0.034-6.715-0.1-10.073,0.193
		c-6.422,0.366-12.715-1.197-19.142-1.077c-11.891,0.223-23.876,1.304-35.64,0.765c-22.536-1.032-45.126,0.607-67.596-1.743
		c-9.802-1.025-19.455,1.442-29.216,0.895c-2.354,0.217-4.707,0.098-7.06-0.022c-5.379-0.013-10.758-0.187-16.136,0.13
		c-16.855,0.053-33.708,0.094-50.559,0.024c-12.44-0.151-24.893-0.848-37.308,0.564c-3.422,0.389-6.725-0.654-10.099-0.574
		c-12.419,0.296-24.854-0.106-37.254,0.907c-13.307,0.422-26.551-1.374-39.857-1.143c-2.314,0.04-4.594-0.549-6.752-1.386
		c-4.358-1.69-5.014-3.686-2.835-8.183c1.676-1.602,0.965-3.499,0.922-5.463c-0.302-13.853-3.225-27.559-2.289-41.476
		C31.898,3.226,32.303,2.374,32.917,1.631z"/>
	<path fill="#F0F4FA" d="M240.319,59.038c20.431-0.92,40.856-0.464,61.28,0.28c24.368,0.888,48.742,0.099,73.113,0.221
		c6.195,0.031,12.388,0.576,18.582,0.885c3.291,0.835,6.642,0.175,9.957,0.402c1.166,0.08,2.697-0.433,3.169,1.137
		c0.5,1.666-0.763,2.583-2.02,3.299c-2.76,1.573-5.59,2.956-8.904,2.795c-0.426-0.021-0.86-0.492-1.287-0.001
		c0.53,0.136,0.935,0.45,1.254,0.885c-1.644,1.59-3.708,0.933-5.588,0.935c-43.073,0.029-86.146,0.013-129.219,0.006
		c-5.217-2.055-10.811-2.24-16.083-1.453c-9.795,1.462-19.437-1.449-29.17-0.208c-2.325,0.296-5.173-0.565-5.232-3.351
		c-0.066-3.11,2.962-2.811,5.208-3.096c13.247-1.682,26.49,0.347,39.737,0.053c1.789-0.04,3.511-0.473,5.284-0.428
		c-5.611,0.095-11.226,0.64-16.831-0.09C242.12,61.12,240.151,61.583,240.319,59.038z"/>
	<path fill="#E4E8F7" d="M240.319,59.038c2.211,2.331,5.045,1.091,7.573,1.17c6.144,0.191,12.298,0.062,19.93,0.062
		c-3.405,3.061-6.176,1.999-8.512,2.318c-8.274,1.133-16.644,0.973-24.887,0.026c-7.31-0.84-14.392,1.169-21.614,0.744
		c-0.756-0.045-1.965,0.132-1.935,1.35c0.032,1.279,1.096,1.892,2.164,1.921c3.826,0.105,7.797-0.607,11.457,0.18
		c11.039,2.373,21.99-0.859,32.975,0.016c2.165,0.172,2.385,1.778,3.185,3.058c-12.574-0.473-25.144,0.268-37.756-0.525
		c-6.167-0.388-12.694,0.577-19.044,0.491c-20.798-0.282-41.596-1.214-62.375,0.479c-4.518,0.368-9.035,1.667-13.486-0.33
		c2.555-1.802,5.59-2.933,7.277-5.913c0.836-1.477,2.615-1.705,4.276-1.65c4.237,0.139,8.456-0.297,12.282-0.441
		c-4.753-0.525-10.181,1.949-15.131-1.314c9.924-1.704,19.95-0.16,29.858-1.325c17.102-0.089,34.204-0.179,51.306-0.268
		c5.37,1.062,10.736,1.138,16.099-0.051C236.082,58.577,238.2,58.524,240.319,59.038z"/>
	<path fill="#C8CCDF" d="M166.558,59.357c-4.744,2.126-9.748,0.681-14.62,0.994c-4.729,0.303-9.493,0.066-14.244,0.852
		c6.332,0,12.663,0,18.994,0c-5.303,1.504-10.627,2.432-16.086,2.276c-1.972-0.056-4.371-0.196-4.925,2.129
		c-1.059,4.439-4.202,4.551-7.681,4.39c-13.079,0.242-26.144-0.589-39.253,0.711c-7.476,0.741-15.154-0.553-22.74-0.931
		c-0.499-3.625,1.936-4.587,4.724-4.903c2.437-0.276,4.921-0.797,7.352-0.477c3.388,0.446,4.382-1.043,3.991-4.086
		c11.473-1.168,22.978-0.545,34.471-0.618C133.213,59.587,149.886,59.469,166.558,59.357z"/>
	<path fill="#B5B9CD" d="M82.07,60.312c1.151,1.262,2.777,2.341,1.884,4.449c-0.94,2.22-2.738,0.605-4.105,0.912
		c-4.703,1.055-10.747-2.328-13.847,4.106c-9.344-1.297-19.632,0.696-27.561-5.744c-5.643-4.584-10.863-8.477-18.608-7.093
		c-1.264,0.226-2.825-1.213-4.249-1.882c1.404-1.966,1.839-4.543,3.862-6.131c4.09-1.102,8.158-1.59,12.138,0.372
		c-0.77,2.281,1.745,1.408,2.327,2.403c-3.997,4.234-0.367,5.585,2.76,6.338c5.852,1.409,11.871,1.658,17.907,1.693
		C63.743,59.785,72.906,60.105,82.07,60.312z"/>
	<path fill="#05060A" d="M31.81,50.639c-4.286-1.44-8.57-0.756-12.853,0.016c-3.848,2.31-5.302-0.113-6.4-3.238
		c-0.438-1.475-1.897-2.45-1.651-4.319c1.007-7.632-0.647-15.185-0.908-22.785c-0.263-7.652,1.922-10.279,9.452-9.918
		c4.564,0.219,8.978,1.089,8.531-6.002c-0.2-3.176,3.382-1.609,4.937-2.76c-0.029,0.677-0.058,1.354-0.087,2.032
		c-1.605,2.659-0.76,5.453-0.638,8.276c0.507,11.675,1.65,23.298,2.525,34.942C34.865,48.835,35.624,51.6,31.81,50.639z"/>
	<path fill="#C9CCDD" d="M395.463,68.942c-1.18-0.125-2.36-0.25-3.54-0.374c5.073-1.049,9.744-2.663,14.325-6.057
		c-4.41-2.318-9.118,0.237-12.955-2.086c3.175,0.044,6.383-0.18,9.517,0.203c3.52,0.431,5.98-1.009,5.975-4.226
		c-0.01-6.65,4.381-5.827,8.188-5.048c3.605,0.738,6.548,0.022,9.484-1.773c2.202,4.577-1.942,6.474-4.316,6.481
		c-3.462,0.009-5.615,2.482-8.695,2.838c-1.2,0.139-3.106,1.419-3.241,2.382c-1.231,8.781-8.341,6.516-13.689,7.553
		C396.171,68.901,395.814,68.907,395.463,68.942z"/>
	<path fill="#AEB0C4" d="M383.579,52.732c2.572-4.457,0.532-9.322,1.181-13.986c0.847-6.094,0.963-12.306,1.139-18.474
		c0.2-7.016-0.675-7.837-7.657-8.341c7.77-2.564,8.522-1.819,9.853,6.053c1.425,8.427,2.825,16.751,0.851,25.255
		C388.086,46.942,387.629,50.845,383.579,52.732z"/>
	<path fill="#9899A8" d="M12.556,47.416c1.531,2.269,3.451,3.771,6.4,3.238c-0.812,1.706-0.232,4.478-3.371,4.404
		C11.218,53.842,12.524,50.377,12.556,47.416z"/>
	<path fill="#FEFEFE" d="M223.777,4.185c35.629,0,71.258,0.009,106.887-0.019c2.687-0.002,4.95-0.187,4.344,3.841
		c-1.957,13.007,0.48,25.929,1.164,38.88c0.404,7.655,0.44,7.831-7.15,7.911c-52.553,0.554-105.087-0.655-157.626-1.571
		c-18.881-0.329-37.776-0.096-56.661,0.166c-3.921,0.054-5.171-1.393-5.847-4.952c-2.182-11.48-3.051-22.983-0.948-34.522
		c1.176-6.451,2.603-10.563,11.751-10.428c27.592,0.407,55.186-1.076,82.791-0.414c7.096,0.17,14.199,0.026,21.298,0.026
		C223.778,3.464,223.777,3.824,223.777,4.185z"/>
	<path fill="#FEFEFE" d="M108.21,3.658c-9.375,9.351-5.523,19.484-5.152,29.048c0.226,5.84,1.218,11.674,2.213,17.451
		c0.419,2.432-0.011,3.122-2.47,3.121c-19.236-0.008-38.472,0.05-57.708,0.164c-3.89,0.023-5.805-0.867-6.041-5.559
		c-0.661-13.129-3.156-26.131-3.02-39.345c0.025-2.428,0.133-3.896,3.326-3.852C61.757,4.995,84.156,4.847,108.21,3.658z"/>
	<path fill="#FEFEFE" d="M341.934,53.861c-2.35-15.337-1.864-30.729-0.919-46.132c0.165-2.684,1.43-3.464,4.151-3.428
		c16.977,0.227,33.957,0.235,50.935,0.371c1.657,0.013,4.091-1.141,3.905,2.378c-0.6,11.32,1.506,22.682-0.479,33.987
		c-0.829,3.333-0.068,6.736-0.451,10.088c-0.234,2.045-0.632,3.913-3.373,3.751C377.794,53.818,359.842,55.015,341.934,53.861z"/>
	<path fill="#FAFAFB" d="M407.232,28.639c0-1.772,0.039-3.545-0.006-5.316c-0.241-9.396-0.209-9.214,9.09-11.206
		c3.42-0.733,4.794,0.189,5.664,3.382c2.544,9.339,1.465,18.598-0.238,27.872c-0.221,1.201-1.04,1.769-2.237,1.848
		c-0.353,0.023-0.7,0.117-1.052,0.154c-9.476,0.984-10.533,0.085-10.777-9.295c-0.064-2.478-0.01-4.959-0.01-7.438
		C407.521,28.639,407.377,28.639,407.232,28.639z"/>
	<path fill="#F1F2F5" d="M341.934,53.861c17.022-0.013,34.048-0.233,51.064,0.094c4.71,0.091,5.562-1.866,5.631-5.715
		c0.043-2.403-0.769-4.981,0.898-7.204c0.541,4.577-0.785,9.218,0.974,13.809c1.677-16.389,2.461-32.838,3.011-49.321
		c0.657,15.589,1.327,31.162,0.516,46.757c-0.118,2.275-0.655,3.561-3.391,3.502c-19.188-0.412-38.38-0.683-57.569-1.044
		C342.684,54.731,342.312,54.166,341.934,53.861z"/>
	<path fill="#E3E5E6" d="M31.81,50.639c3.881-0.629,1.986-3.621,1.883-5.412c-0.693-12.05-1.692-24.082-2.507-36.126
		c-0.131-1.941-1.239-4.341,1.645-5.438c0.018,14.699,1.997,29.271,2.799,43.919c0.085,1.561,1.205,3.738-1.718,4.121
		c-0.901-0.7-2.357,0.841-3.036-0.753C31.186,50.846,31.498,50.742,31.81,50.639z"/>
	<path fill="#F0F4FA" d="M233.964,59.037c-5.36,2.039-10.727,1.888-16.099,0.051C223.232,59.464,228.594,57.968,233.964,59.037z"/>
	<path fill="#FEFEFE" d="M313.394,63.469c2.669,0.878,4.998,1.562,7.519,0.456c1.362-0.598,2.632,0.417,2.957,1.578
		c0.499,1.779-1.406,1.979-2.37,2.038c-4.53,0.276-9.066,1.059-13.623,0.202c-0.919-0.173-1.909-0.309-1.771-1.427
		c0.067-0.54,0.805-1.257,1.378-1.428C309.504,64.288,311.724,64.611,313.394,63.469z"/>
	<path fill="#FCFDFD" d="M29.933,34.123c-0.006,1.426,0.172,2.876-0.044,4.266c-0.397,2.557,1.884,6.351-0.488,7.396
		c-3.216,1.418-7.312,1.176-11.009,1.042c-2.326-0.084-3.506-2.038-3.615-4.533c-0.319-7.286-0.861-14.563-1.098-21.85
		c-0.211-6.491,1.272-6.611,7.457-7.53c6.999-1.04,7.766,1.958,7.793,7.384C28.952,24.908,29.579,29.513,29.933,34.123z"/>
	<path fill="#070709" d="M184.57,33.308c0.355-3.749,0.124-6.901,1.025-9.687c2.041-6.311,8.069-4.073,12.496-5.031
		c3.308-0.716,7.537,0.361,7.77,3.66c0.311,4.41-0.612,9.058-1.024,13.593c-0.162,1.782-3.575,1.484-5.481,1.968
		c-2.537,0.644-5.284,0.416-7.92,0.73C185.586,39.239,184.37,38.212,184.57,33.308z"/>
	<path fill="#050608" d="M227.488,33.518c-3.78,1.074-8.458-1.315-11.353,3.545c-1.089,1.829-2.696-0.251-2.69-1.505
		c0.024-4.59,0.288-9.19,0.711-13.763c0.182-1.966,1.908-2.369,3.638-2.192c2.113,0.216,4.223,0.486,6.322,0.809
		c2.537,0.39,6.021-1.374,7.441,1.252c1.757,3.25,0.44,7.237,0.429,10.898c-0.004,1.397-1.375,1.286-2.462,1.023
		c-1.788-1.489-2.218-3.552-2.375-5.711c-0.146-2.004-0.906-3.509-3.148-3.499c-2.03,0.01-4.742-0.636-5.136,2.327
		c-0.35,2.638,2.079,2.738,3.98,3.249C224.82,30.482,228.307,29.28,227.488,33.518z"/>
	<path fill="#070809" d="M258.302,34.384c0.435-3.114,0.976-5.907,1.178-8.726c0.221-3.077,2.709-4.201,4.773-4.858
		c2.809-0.895,5.963-0.671,8.958-1.029c1.548-0.185,2.431,0.384,2.563,1.892c0.129,1.478-1.058,1.617-2.118,1.792
		c-1.228,0.204-2.454,0.454-3.692,0.567c-6.632,0.608-8.184,2.771-7.662,9.781c0.182,2.451,1.045,3.089,3.244,2.794
		c2.988-0.401,5.985-0.746,8.985-1.042c0.828-0.082,1.91-0.197,2.153,0.942c0.283,1.323-0.699,2.057-1.763,2.206
		c-4.214,0.591-8.437,1.252-12.678,1.472C257.721,40.41,258.704,36.763,258.302,34.384z"/>
	<path fill="#040507" d="M181.232,35.096c-5.06,2.448-10.018,2.904-15.039,3.011c-1.5,0.032-2.134-0.86-2.111-2.389
		c0.076-4.923,0.179-9.85,0.062-14.77c-0.061-2.593,1.183-3.503,3.488-3.571c0.709-0.021,1.439-0.116,2.126,0.007
		c2.462,0.442,6.835-1.392,6.957,1.567c0.135,3.278-4.203,1.661-6.586,1.929c-1.758,0.198-2.53,0.662-2.518,2.496
		c0.009,1.4-0.384,2.798-0.505,4.204c-0.515,5.967,0.732,7.046,6.695,6.696C176.021,34.146,178.507,32.308,181.232,35.096z"/>
	<path fill="#FEFEFE" d="M227.488,33.518c-0.259-4.976-4.032-2.153-6.017-2.364c-3.306-0.35-4.806-1.159-4.368-4.81
		c0.305-2.542,1.252-3.319,3.687-3.246c9.913,0.295,8.224-1.203,8.017,7.513c-0.027,1.153,0.31,2.025,0.719,2.974
		C228.845,33.562,228.166,33.54,227.488,33.518z"/>
	<path fill="#08080A" d="M255.526,20.914c0.224,0.043,0.169,1.185-0.069,2.194c-0.418,1.767-1.596,3.115-2.884,4.332
		c-2.849,2.692-5.291,5.641-6.493,9.471c-0.228,0.726-0.047,1.944-1.381,1.839c-1.441-0.113-1.545-1.461-1.635-2.365
		c-0.176-1.763,0.336-3.452,1.496-4.896c2.529-3.149,5.013-6.333,7.552-9.473C252.65,21.349,253.217,20.595,255.526,20.914z"/>
	<path fill="#08090B" d="M234.776,36.414c2.518-4.906,5.684-10.348,9.755-15.216c0.529-0.632,1.265-0.338,1.785,0.267
		c0.778,0.903,0.995,2.099,0.342,2.934c-3.466,4.429-6.358,9.218-9.187,14.058c-0.501,0.857-1.337,1.11-2.248,0.56
		C234.545,38.609,234.36,37.967,234.776,36.414z"/>
	<path fill="#F4F5F6" d="M196.461,22.334c1.375,1.405,5.514-3.041,5.589,2.188c0.147,10.265,0.011,10.379-8.437,10.579
		c-1.948,0.046-5.28,2.157-5.437-2.479C187.884,24.011,188.831,22.691,196.461,22.334z"/>
</g>
<g>
	<path fill="#040203" d="M178.827,188.933c0.621-0.82,1.359-2.698,1.93-2.223c5.446,4.523,9.681-2.35,15.108-1.377
		c5.012,0.899,10.589-0.731,15.816-1.759c36.702-7.213,73.595-13.284,110.596-18.725c3.642-2.319,7.909-1.236,11.81-1.786
		c9.495-1.34,18.933-2.883,28.17-5.344c5.945-1.584,11.916-0.167,17.874-1.277c8.855-1.65,17.283-5.188,26.42-5.643
		c2.312-0.115,4.527-0.245,6.779,0.21c2.684-0.493,5.368-0.987,8.053-1.48c2.833-1.927,5.81,0.002,9.195-0.846
		c-1.131,3.882-3.997,4.529-6.572,5.061c-18.246,3.769-36.608,6.898-55.05,9.55c-4.499-0.579-8.766,0.882-13.117,1.548
		c-8.917,1.364-17.713,3.468-26.699,4.417c-4.256-0.569-8.3,0.709-12.404,1.464c-2.879,0.653-5.866,0.696-8.699,1.603
		c-18.816,1.615-37.259,5.612-55.827,8.768c-6,0.695-11.927,1.852-17.836,3.065c-0.508,0.24-1.021,0.481-1.518,0.746
		c-1.231,0.632-2.447,1.314-3.842,1.549c-1.902,0.18-3.825,0.161-5.703,0.615c-9.666,1.489-19.173,3.939-29.062,4.025
		c-5.853,0.051-6.32,1.167-4.725,6.982c0.568,2.071,1.807,3.886,2.141,6.029c1.251,6.241,2.524,12.468,2.165,18.91
		c-0.125,2.247-0.289,4.83,3.083,5.122c14.464-0.639,28.635-3.31,42.829-5.851c4.9-0.877,9.76-2.094,14.782-2.185
		c4.361,0.661,8.43-1.204,12.683-1.489c27.484-4.94,54.995-9.712,82.503-14.499c2.803-0.488,5.59-1.086,8.431-1.3
		c4.126,0.375,8.139-0.02,11.935-1.852c0.607-0.254,1.233-0.424,1.877-0.544c15.515-1.554,30.976-3.482,46.332-6.205
		c3.842-0.681,7.657-1.573,11.571-1.78c6.55,0.249,12.782-1.918,19.205-2.568c4.848-0.343,5.918-3.562,5.808-7.674
		c0.564-6.91,1.288-13.825-1.529-20.475c-0.914-1.913-1.047-4.092-2.042-5.977c-0.962-1.747-1.507-3.676-2.362-5.471
		c-0.828-2.638,1.047-2.555,2.707-2.69c4.982,1.843,6.162,6.438,7.779,10.724c2.195,10.145,4.384,20.294,0.879,30.604
		c-0.886,2.014-2.026,3.895-3.124,5.804c-1.099,1.341-2.282,2.591-3.806,3.481c-0.551,0.3-1.127,0.514-1.733,0.671
		c-7.614,1.627-15.347,2.585-22.94,4.31c-31.359,4.077-62.682,8.389-93.928,13.253c-1.054,0.164-2.122,0.225-3.192,0.202
		c-9.163-0.133-17.858,3.05-26.86,3.863c-17.906,1.619-35.408,5.813-53.229,8.005c-8.417,1.035-16.561,4.076-25.138,4.527
		c-2.694-0.469-5.31,0.08-7.92,0.663c-7.158,1.601-14.445,2.056-21.727,2.457c-4.391-2.132-8.604,0.599-12.93,0.525
		c-0.678-0.389-1.207-0.917-1.523-1.642c-0.468-2.452,2.639-3.652,2.134-6.122c-0.217-2.175-0.783-4.292-0.944-6.473
		c0.184-4.214-0.62-8.315-1.364-12.425c-1.114-6.12-1.726-12.334-3.577-18.31C178.236,190.73,178.386,189.814,178.827,188.933z"/>
	<path fill="#DBDFEE" d="M225.874,231.676c31.159-6.228,62.656-10.345,94.065-15.009c3.842-0.57,7.707-0.982,11.561-1.467
		c-0.935,1.854-2.785,2.096-4.504,2.449c-8.691,1.787-17.341,3.352-25.833,6.376c-8.638,3.075-18.152,3.332-27.313,4.621
		c-1.686,0.237-3.457-0.052-5.199,0.829c1.491,0.81,2.911,0.306,4.173,0.013c8.962-2.084,17.997-1.949,27.068-1.125
		c1.645,0.149,3.223-0.043,4.646-0.886c4.184-2.48,8.645-2.652,13.408-2.39c5.195,0.285,9.832-2.67,14.852-3.763
		c7.468-1.627,14.802-3.877,22.58-3.154c1.477,0.137,2.828-0.205,4.117-0.872c3.526-1.826,7.158-1.802,10.915-0.8
		c5.484,1.463,10.855,1.489,16.161-1.036c2.915-1.388,6.186-1.776,9.415-1.581c7.222,0.435,14.134-0.755,21.009-2.997
		c9.151-2.984,18.487-5.386,28.221-5.319c2.727,0.019,5.953-0.209,6.539,3.786c-7.951,1.047-15.364,4.156-22.92,6.515
		c-6.556,2.047-13.345,2.899-19.886,3.7c-11.942,1.464-23.672,4.365-35.775,4.889c-10.942,0.474-22.054,0.777-32.68,3.6
		c-13.709,3.642-27.781,4.806-41.675,7.098c-17.303,2.854-34.746,4.889-52.156,7.053c-3.481,0.433-7.077-0.004-10.566,0.781
		c-2.742-2.104-6.037-3.593-7.927-6.657c-1.607-2.606-5.09-0.95-7.034-3.382C222.48,231.408,224.181,231.552,225.874,231.676z"/>
	<path fill="#00ADBC" d="M178.827,188.933c0.192,0.698,0.384,1.397,0.576,2.095c2.154,6.101,1.726,12.779,4.201,18.809
		c0.549,4.255,2.42,8.396,1.098,12.811c-1.543,2.297,0.912,5.083-0.896,7.353c-9.151,5.332-19.15,8.715-28.946,12.56
		c-1.211,0.475-2.102,1.302-3.105,2.04c-0.529,0.359-1.093,0.63-1.693,0.843c-0.504,0.154-1.004,0.303-1.517,0.402
		c-7.882,1.523-8.576,1.065-10.161-6.708c-0.358-5.685-0.506-11.367,0.692-16.981c2.639-0.401,4.282-1.349,1.772-3.973
		c-0.886-0.927-1.719-1.797-1.991-3.068c-0.305-1.425-0.499-2.927,0.729-3.984c1.238-1.065,2.221,0.204,3.355,0.575
		c6.503,2.126,12.544-0.29,18.544-2.289c1.776-0.592,3.403-1.874,5.008-3.253c-5.889,1.167-11.613,0.412-17.31-0.817
		c-1.85-0.399-3.459,0.225-5.132,0.97c-5.027,2.241-5.931,1.814-7.625-3.427c-0.388-1.202-0.727-2.382-1.657-3.3
		c-0.893-1.143-1.445-2.423-1.639-3.856c1.152-4.931,1.946-5.371,5.916-2.575c1.574,1.108,2.979,0.831,4.507,0.576
		c5.238-0.876,10.482-1.715,15.696-2.723c3.83-0.863,7.717-0.545,11.591-0.604c2.239-0.034,4.642,0.415,6.524-1.398
		C177.851,188.986,178.339,188.959,178.827,188.933z"/>
	<path fill="#F0F4FB" d="M451.756,209.349c-3.084-4.234-7.689-2.525-11.346-2.122c-9.284,1.024-18.36,3.3-27.219,6.516
		c-5.132,1.863-10.713,2.084-16.209,1.708c-4.338-0.296-8.313,0.466-12.295,2.441c-4.422,2.193-9.298,1.548-13.912,0.26
		c-4.275-1.193-8.311-2.016-11.911,1.573c-0.438,0.436-1.357,0.769-1.93,0.633c-9.144-2.166-17.424,1.369-26.098,3.223
		c-5.516,1.18-10.645,5.328-17.148,2.825c-2.271-0.874-6.002-0.036-8.277,2.579c-1.136,1.306-2.887,1.583-4.455,1.244
		c-10.798-2.338-21.418-0.267-32.042,1.269c-1.663,0.24-3.541,1.069-4.026-0.903c-0.598-2.431,1.75-2.718,3.486-2.956
		c7.625-1.045,15.308-1.739,22.882-3.064c13.58-2.375,26.481-7.732,40.245-9.377c18.651-2.714,37.282-5.578,55.961-8.092
		c13.751-1.851,27.395-4.541,41.274-5.415c8.16-0.885,16.235-2.247,24.188-4.298c0.125-0.366,0.378-0.51,0.757-0.431
		c2.316-1.34,2.989-0.305,2.474,1.877c-0.475,2.011-0.822,3.854,1.225,5.21C456.946,207.348,454.385,208.385,451.756,209.349z"/>
	<path fill="#C6CCDC" d="M225.874,231.676c-1.149,0.393-2.299,0.786-3.951,1.351c7.945-0.592,10.156,5.917,14.175,9.959
		c-13.529,1.278-27.057,2.557-40.586,3.836c-0.739-2.259-0.536-4.923-3.42-6.156c-1.24-0.53-1.934-2.057-1.184-3.578
		c0.717-1.453,1.633-2.732,3.601-1.865C204.964,234.041,215.419,232.858,225.874,231.676z"/>
	<path fill="#DBDEEC" d="M188.97,245.819c-10.223,1.945-18.457,8.64-28.092,11.836c-6.858,2.275-13.766,5.057-21.275,4.686
		c1.747-3.042,3.656-5.879,7.142-7.262c2.359-0.936,2.815-3.426,3.924-5.377c9.834-4.699,19.973-8.632,30.238-12.247
		C186.534,237.398,186.372,242.938,188.97,245.819z"/>
	<path fill="#00ADBC" d="M448.937,150.267c1.844,1.148,2.885,2.819,3.22,4.949c0.64,1.627,2.059,3.895-1.641,2.459
		c-1.386-0.538-2.412,0.195-3.607,0.314c-2.909,0.305-3.542-2.353-5.054-3.866c-0.265-0.403-0.425-0.85-0.473-1.327
		c0.047-0.497,0.469-1.316,0.256-1.426c-1.024-0.531-0.949,1.005-1.743,1.093c-1.007,0.438-2.023,0.446-3.059,0.158
		c-1.635-0.463-3.154-0.317-4.573,0.701c-2.375,1.705-5.053,2.567-7.957,2.806c-0.886,0.073-1.98,0.091-2.548,0.679
		c-6.858,7.11-15.955,3.729-24.004,5.202c-0.337,0.062-0.865-0.194-1.041-0.014c-5.318,5.421-11.729,1.157-17.541,2.031
		c-7.745,1.165-15.432,2.69-23.153,4.013c-1.753,0.301-3.532,0.76-5.297,0.402c-1.911-0.388-3.651-1.087-1.537-3.407
		c6.561-0.943,12.973-2.769,19.622-3.096c14.384-2.395,28.78-4.721,43.146-7.219c6.101-1.061,12.352-1.699,18.399-5.02
		c-3.274-0.921-6.138-0.067-8.966-0.173c6.878-2.739,14.21-3.486,21.434-4.49c3.131-0.435,2.164,2.923,2.703,4.759
		c0.287,0.978,0.188,2.377,1.443,2.568C448.294,152.567,448.496,151.187,448.937,150.267z"/>
	<path fill="#050508" d="M182.021,238.404c-10.456,4.076-20.913,8.151-31.369,12.227c-4.438,4.425-10.397,5.262-16.069,5.953
		c-3.667,0.447-6.06-2.589-6.817-6.365c-0.395-2.222-1.043-4.353-2.271-6.274c-1.725-1.674-2.511-4.076-0.353-5.249
		c2.758-1.498,3.625,1.504,4.698,3.383c2.506,5.432,3.043,5.689,9.687,4.599c3.802-0.883,7.74-1.147,11.407-2.603
		c0.261,0.17,0.459,0.114,0.592-0.167c2.884-2.111,6.32-3.241,9.6-4.189c5.628-1.625,11.152-3.424,16.515-5.759
		c1.873-0.546,3.674-0.75,4.995,1.134c0.417,0.305,0.834,0.61,1.252,0.915C183.882,237.288,182.756,237.693,182.021,238.404z"/>
	<path fill="#0B0805" d="M121.13,231.874c-5.378-9.189-5.99-18.401-1.414-28.303c1.51-3.267,0.776-7.636,0.79-11.502
		c0.007-2.167-0.067-4.002,2.794-4.008c3.424,4.109,0.378,8.888,1.39,13.24c-0.421,3.31,1.922,3.139,4.09,3.31
		c1.321,0.104,3.125-0.362,3.475,1.576c0.343,1.896-1.006,3.085-2.597,3.498c-4.281,1.112-4.021,3.741-2.612,6.907
		c0.288,0.646,0.491,1.328,0.695,2.007c0.932,3.093,0.642,6.328,1.076,9.447c0.557,3.995,6.16,0.878,7.419,4.497
		c0.465,1.539,0.041,2.828-1.076,3.931C127.981,239.553,124.43,238.387,121.13,231.874z"/>
	<path fill="#C3C4D1" d="M458.142,158.376c-1.393-4.065-3.129-7.924-6.498-10.8c1.182-2.509,2.63-2.744,4.86-0.98
		c3.379,2.673,5.233,6.457,6.361,10.198c3.009,9.975,4.603,20.253,3.242,30.731c-0.526,4.054-2.008,7.855-4.263,11.311
		c-3.682,0.741-4.608-1.711-5.229-4.515c-0.206-2.158,1.587-3.346,2.427-4.996C464.275,178.848,465.464,168.489,458.142,158.376z"/>
	<path fill="#0A0704" d="M177.363,189.012c0.517,3.128-1.7,2.922-3.659,2.97c-4.414,0.107-8.828,0.18-13.243,0.267
		c-10.496,1.341-20.938-0.096-31.402-0.604c-2.206-0.434-4.352-0.931-3.849-3.98c0.376-1.654,1.664-1.75,2.907-1.48
		c13.863,3.016,27.921,1.683,41.907,1.951C172.496,188.184,175.003,188.001,177.363,189.012z"/>
	<path fill="#B5B8C9" d="M127.765,250.219c3.11,5.365,7.062,6.823,12.843,3.614c3.012-1.672,6.675-2.173,10.044-3.203
		c0.535,2.233,0.712,4.201-2.32,4.819c-4.024,0.82-4.714,5.982-8.729,6.89c-4.941-1.921-10.153-3.466-12.17-9.261
		C127.061,252.011,126.729,251.068,127.765,250.219z"/>
	<path fill="#00ADBC" d="M134.969,235.684c-3.473,1.415-6.531,1.325-9.245-0.017c0.096,0.4,0.174,0.946,0.18,0.968
		c0.238,0.778,0.445,1.548,0.607,2.34c1.395,1.187,1.653,2.971,2.53,4.283c1.25,1.227,2.691,0.993,4.155,0.529
		c2.619-1.13,4.042-3.178,4.334-5.949C137.721,236.033,137.347,234.584,134.969,235.684z"/>
	<path fill="#AEB2C1" d="M182.021,238.404c0.622-0.798,1.245-1.596,1.867-2.395c1.242,0.741,2.311,0.456,3.179-0.613
		c2.424-2.987,4.899-2.814,7.442-0.173c-2.972,1.32-4.884,3.129-0.821,5.191c3.324,1.687,2.398,3.949,1.824,6.41
		c-2.195-0.248-4.245-1.436-6.543-1.004C184.924,244.967,185.579,239.711,182.021,238.404z"/>
	<path fill="#DBDFEE" d="M456.614,194.322c2.014,1.192,2.442,4.221,5.23,4.515c-0.362,2.703-3.539,2.995-4.466,5.214
		c-3.805,0.633-4.106-1.254-3.051-4.19c0.38-1.058,2.879-2.682-0.647-2.897C454.658,196.084,455.636,195.203,456.614,194.322z"/>
	<path fill="#00ADBC" d="M125.21,187.665c0.423,2.407,2.284,2.761,4.244,2.975c0.097,0.516-0.006,0.989-0.303,1.42
		c-1.602,1.387-1.85,3.238-1.988,5.228c-0.16,2.307-0.533,4.644-3.546,5.013c-1.616-4.713,1.244-9.526-0.318-14.24
		C123.936,187.93,124.573,187.797,125.21,187.665z"/>
	<path fill="#00ADBC" d="M348.446,165.829c1.2,2.642,3.342,1.393,5.106,1.104c7.548-1.24,15.09-2.523,22.602-3.96
		c3.842-0.735,7.644-1.543,11.363,0.235c2.466,1.179,4.259,0.746,5.546-1.686c0.632-1.195,1.818-2.328,2.959-1.715
		c6.134,3.299,12.477-2.914,18.546,0.543c0.223,0.127,0.905-0.048,0.98-0.237c2.973-7.529,12.119-3.481,16.478-8.739
		c0.878-1.059,3.906-1.883,5.34,0.792c-0.281,1.291-1.219,2.113-2.101,2.987c-5.185,5.136-5.168,5.131-1.353,11.566
		c2.021,3.409,1.461,6.372-1.567,8.957c-3.207,2.738-6.915,4.219-11.061,4.737c-3.498,0.567-7.059,1.509-9.958-1.608
		c-1.209-2.705,0.093-5.038,1.098-7.417c3.377-2.75,7.724-1.926,12.223-2.717c-11.004-6.154-20.909-3.579-30.901,0.782
		c-5.586,2.438-11.818,2.492-17.735,3.741c-4,0.72-8.015,1.356-12.006,2.118c-2.679,0.512-5.607,0.338-6.687,3.995
		c-0.494,1.671-2.515,1.541-4.159,0.889c-7.725-3.063-7.725-3.052-9.611,4.836c-0.123,0.513-0.432,0.964-0.74,1.398
		c-4.105,1.004-6.185-0.333-5.655-5.064c0.607-5.412-1.399-5.29-5.754-4.936c-4.386,0.357-8.562,2.194-13.024,1.643
		c-0.762-0.382-1.104-1.04-1.21-1.85c0.011-1.273,0.304-2.699,1.028-3.518c2.074-2.345-1.614-1.854-1.374-3.174
		c3.94-0.843,7.876-1.717,11.942-1.644c-1.166,1.4-2.655,1.095-4.065,1.332C332.581,167.905,340.476,166.559,348.446,165.829z"/>
	<path fill="#00ADBC" d="M223.952,185.519c1.758-0.673,3.513-1.277,5.207,0.157c2.773,0.599,3.431,3.346,5.129,5.04
		c1.366,3.371-0.365,4.895-3.36,5.795c-2.478,0.745-5.318,0.486-7.588,2.681c10.953-1.471,21.873-0.57,32.438-3.39
		c2.371-0.633,4.936-0.765,7.077,1.056c-0.084,4.193-3.618,3.844-6.214,4.738c-3.661-0.445-6.554,2.755-10.243,2.196
		c-8.151-1.672-12.952,0.525-16.819,7.729c-0.25,0.466-0.414,0.993-0.776,1.381c-1.62,1.734-3.688,2.342-5.789,1.382
		c-3.041-1.39,0.368-3.226-0.023-4.953c-3.797-0.48-6.56,0.928-8.521,4.11c-0.935,1.517-1.985,3.275-3.767,3.577
		c-7.552,1.283-11.481,6.703-15.03,12.648c-2.846-0.243-3.962-1.736-3.584-4.594c0.921-6.956-0.304-13.759-1.659-20.543
		c0.922-1.748,2.913-1.836,4.959-2.991c-2.295-0.967-4.73,0.157-6.187-1.62c-2.83-3.452-1.237-8.238,3.185-8.109
		c8.677,0.254,16.765-4.007,25.507-2.755C220.613,189.446,222.601,187.847,223.952,185.519z"/>
	<path fill="#00ADBC" d="M195.673,229.667c0.961-7.801,5.516-12.087,13.121-13.3c2.154-0.344,3.593-1.455,4.35-3.43
		c1.285-3.349,3.701-4.998,7.257-5.139c1.996-0.079,4.459-1.648,5.626,1.123c1.198,2.844-2.83,1.947-3.278,3.835
		c4.128,0.628,4.128,0.628,5.564-3.149c2.347-6.171,13.385-10.034,18.177-6.362c-1.154,1.912-3.298,2.603-4.674,4.045
		c4.525-1.85,5.418,5.325,9.865,4.252c1.978,0.421,3.463,1.607,4.796,3.045c1.455,1.515,2.953,3.114,2.171,5.402
		c-0.641,1.875-2.377,1.606-3.933,1.428C235.105,224.666,215.659,229.096,195.673,229.667z"/>
	<path fill="#00ADBC" d="M411.562,178.423c3.212,1.867,6.542,1.148,9.871,0.454c3.657,0.534,7.634-0.486,10.767,2.607
		c0.817,0.806,2.364,0.106,3.567-0.079c2.959-0.393,5.891-1.223,8.918-0.647c1.748,0.332,2.622-0.61,3.127-2.109
		c0.977-1.548,0.915-3.344,1.219-5.059c0.162-0.544,0.477-0.969,0.944-1.288c2.307-0.642,2.935,0.959,3.526,2.619
		c0.214,0.799,0.301,1.615,0.304,2.439c-0.581,3.499-0.189,7.201-2.069,10.443c-0.585,0.864-1.38,1.645-1.201,2.843
		c-6.68,1.445-13.262,3.523-20.228,3.102c-1.336-1.171-2.701-0.146-4.003,0.034c-13.636,1.888-27.324,3.373-40.953,5.307
		c-3.854-1.361-4.946-3.735-2.661-7.329c0.578-0.909,1.05-1.853,0.973-2.969c-0.25-3.616,1.908-5.044,5.052-5.586
		c2.103-0.362,4.188-0.767,5.738-2.439c1.296-0.86,2.769-1.221,4.262-1.531c1.486-0.423,3.023-0.564,4.535-0.846
		C406.024,177.893,408.8,176.883,411.562,178.423z"/>
	<path fill="#00ADBC" d="M250.459,180.398c19.072-4.282,38.342-7.369,57.762-9.54c1.57,0.73,4.313-1.75,4.837,1.316
		c0.445,2.607-1.991,3.43-4.048,4.027c-1.393,0.404-2.6,1.025-3.614,2.043c-5.202,4.473-10.661,3.156-16.177,0.724
		c-5.416-1.213-10.465,0.1-15.301,2.381c-1.758,0.829-3.43,1.779-5.377,2.076c-3.151,0.775-6.635,0.376-9.355,2.679
		c-0.488,0.325-1.02,0.522-1.597,0.61c-5.056-0.455-10.052-1.768-15.192-0.959c-1.044,0.164-2.12,0.101-3.117-0.331
		c-0.821-0.356-1.636-0.858-1.65-1.835c-0.018-1.185,1.047-1.236,1.879-1.374C243.159,181.605,246.771,180.77,250.459,180.398z"/>
	<path fill="#00ADBC" d="M254.717,221.416c7.295-1.912,0.442-4.62,0.39-6.945c2.192-2.531,5.206-3.619,8.227-4.706
		c4.404-0.374,8.865,1.257,13.237-0.396c7.922-1.086,15.652-3.412,23.697-3.592c0.884,0.254,1.759,0.732,1.696,1.722
		c-0.163,2.559-6.675,7.039-9.054,6.181c-1.051-0.379-1.986-0.816-2.966-0.13c-6.082,4.26-13.183,4.458-20.17,5.199
		c-0.996,0.106-1.945,0.792-2.936,1.164C262.842,220.77,258.879,221.901,254.717,221.416z"/>
	<path fill="#00ADBC" d="M266.838,219.913c1.453-1.637,2.648-2.276,5.417-2.164c5.456,0.22,11.425-0.4,15.731-4.703
		c2.785-2.783,4.996-4.007,7.241,1.314c0.302-3.503,1.418-5.342,4.484-5.376c1.235-0.014,1.806-0.978,1.66-2.249
		c0.764-1.463,2.072-1.681,3.528-1.55c0.677,0.18,1.224,0.565,1.683,1.106c2.339,2.757,4.314,3.971,4.846-1.129
		c0.053-0.504,0.475-0.898,0.879-1.245c1.269-0.779,2.588-0.912,3.969-0.35c3.067,3.178,6.941,4.76,11.047,3.293
		c7.395-2.643,15.255-1.974,22.714-3.872c2.199-0.559,4.59-0.547,6.395-2.229c2.866-0.944,5.845-1.299,8.823-1.678
		c1.685,1.435,5.069-0.494,5.772,2.898l-0.366,0.019c-3.744,1.42-7.622,2.086-11.623,2.059c-20.409,3.639-40.806,7.34-61.23,10.893
		C287.51,216.743,277.164,218.268,266.838,219.913z"/>
	<path fill="#00ADBC" d="M223.952,185.519c0.013,4.178-3.476,6.664-8.194,5.112c-3.954-1.301-7.176-0.944-10.245,1.746
		c-1.328,1.165-2.849,1.382-4.452,0.627c-3.732-1.758-7.296,0.614-10.976,0.429c-2.188-0.11-1.429,1.598-1.199,2.658
		c0.347,1.594,0.025,3.583,2.734,3.803c2.221,0.18,6.136-3.021,6.346,1.465c0.156,3.316-4.309,1.795-6.505,2.917
		c-0.307,0.157-0.686,0.172-1.032,0.253c-1.068-2.982-2.111-5.975-3.211-8.946c-1.378-3.724,1.452-6.343,3.78-6.144
		C202.325,190.406,212.951,186.537,223.952,185.519z"/>
	<path fill="#00ADBC" d="M371.028,201.98c-1.365-2.137-4.807,1.117-5.717-2.202c6.23-3.666,12.689-4.186,19.387-1.406
		c6.628-1.144,13.29-2.126,19.876-3.474c8.415-1.723,17.149,0.425,25.461-2.263c0.098-0.032,0.376,0.144,0.379,0.23
		c0.01,0.293-0.065,0.588-0.108,0.882C410.682,197.461,390.884,199.933,371.028,201.98z"/>
	<path fill="#00ADBC" d="M250.459,180.398c-3.974,0.939-7.949,1.878-11.923,2.816c6.843,0.674,13.631,0.274,20.117,2.634
		c1.725,3.701-0.696,4.156-3.213,3.559c-3.692-0.875-6.758,0.048-10.198,1.376c-3.74,1.444-7.934,0.581-11.873-0.423
		c-3.144,0.002-2.26-3.613-4.209-4.686c1.009-0.547,1.216-2.422,2.945-1.782c0.689,0.433,1.326,0.932,1.98,1.412
		c-0.575-0.575-1.365-0.887-1.963-1.435C238.121,182.108,244.262,181.106,250.459,180.398z"/>
	<path fill="#00ADBC" d="M458.142,158.376c7.302,3.399,8.687,18.734,3.455,27.685c-0.693,1.186-1.079,2.673-2.556,3.266
		C462.111,178.911,460.419,168.635,458.142,158.376z"/>
	<path fill="#00ADBC" d="M447.019,157.129c1.501-0.263,2.966-4.741,4.66-0.056c0.059,0.162,0.196-1.245,0.477-1.86
		c1.562,1.501,1.576,3.563,1.998,5.477c0.503,3.673,3.842,7.273,0.293,11.054c-2.802,0.705-4.027-0.844-4.649-3.248
		c-0.244-1.848,0.048-3.689-1.871-5.198C446.011,161.79,445.472,159.46,447.019,157.129z"/>
	<path fill="#00ADBC" d="M304.966,177.619c-0.107-2.323,1.708-2.271,3.222-2.658c1.624-0.416,4.123-0.216,3.962-2.57
		c-0.15-2.188-2.897-0.174-3.929-1.532c2.865-0.442,5.73-0.883,8.596-1.325c6.477,1.093,1.832,3.781,0.854,5.943
		C313.796,178.325,309.609,179.324,304.966,177.619z"/>
	<path fill="#00ADBC" d="M348.446,165.829c-3.965,1.821-7.695,3.265-12.509,2.31c-3.556-0.705-7.605,1.08-12.076,1.868
		c1.639-1.93,3.519-1.399,4.898-2.117c13.355-1.952,26.541-5.031,40.049-5.95C362.02,163.236,355.233,164.533,348.446,165.829z"/>
	<path fill="#00ADBC" d="M453.766,171.025c3.651-3.31-0.232-6.904,0.389-10.331c3.324,6.972,2.906,14.294,2.008,21.66
		c-0.455,0.198-0.839,0.105-1.157-0.273c-0.9-1.28-1.388-2.759-1.988-4.184c-0.213-0.755-0.427-1.511-0.641-2.266
		C453.624,174.331,452.431,172.297,453.766,171.025z"/>
	<path fill="#DBDFEE" d="M452.923,197.396c-7.779,3.027-15.858,4.368-24.188,4.298C436.798,200.261,444.861,198.828,452.923,197.396
		z"/>
	<path fill="#00ADBC" d="M183.605,209.837c-3.644-5.77-2.478-12.614-4.202-18.811C181.685,197.101,183.372,203.306,183.605,209.837z
		"/>
	<path fill="#00ADBC" d="M182.636,235.094c-1.489-0.073-2.979-0.146-4.468-0.22c-1.196-4.861,3.117-3.641,5.285-4.789
		c0.843-0.313,1.679-0.429,2.492,0.089C186.496,232.927,182.647,232.72,182.636,235.094z"/>
	<path fill="#00ADBC" d="M185.944,230.175c-0.623,0.116-1.246,0.231-1.868,0.347c-0.593-0.212-0.72-0.583-0.38-1.114
		c0.688-2.2-2.848-5.03,1.007-6.759C185.117,225.157,185.531,227.666,185.944,230.175z"/>
	<path fill="#00ADBC" d="M359.04,204.058c3.873-0.686,7.745-1.371,11.62-2.058C366.969,203.706,363.078,204.3,359.04,204.058z"/>
	<path fill="#00ADBC" d="M135.913,198.951c2.347,0.991,1.709,3.295,2.121,5.07c0.506,2.178,2.117,3.759,3.585,2.151
		c3.814-4.178,8.269-2.767,12.171-1.563c5.488,1.695,10.475-0.453,16.388-0.689c-1.8,5.272-6.633,7.126-10.327,7.688
		c-6.336,0.964-13.014,5.981-19.894,0.052c0.132,2.465-0.953,5.155,2.855,5.547c1.904,0.196,2.862,2.035,1.901,2.783
		c-1.151,0.897-2.222,4.43-4.82,1.603C136.473,214.415,135.116,206.872,135.913,198.951z"/>
	<path fill="#1C1504" d="M135.913,198.951c2.031,7.424,2.761,15.078,3.981,22.644c-0.083,5.571-0.165,11.143-0.248,16.714
		c-0.368,2.118-0.392,4.368-2.255,5.922c-1.983,1.113-4.174,2.848-4.433-1.419c3.946-3.473,4.274-4.635,2.012-7.129
		c0.197-1.024,0.395-2.048,0.592-3.073c0.877-3.507,0.432-7.069,0.434-10.616c-0.461-7.021-1.667-13.904-3.667-20.64
		c-0.795-1.741-1.774-3.352-3.014-4.832c-1.354-1.614-1.561-3.119,0.863-3.986c2.63-0.444,3.095,1.901,4.276,3.324
		C134.713,196.998,134.886,198.176,135.913,198.951z"/>
	<path fill="#00ADBC" d="M183.696,229.408c0.126,0.371,0.253,0.742,0.38,1.114c-2.398,0.868-5.349,0.985-5.907,4.352
		c-8.518,4.082-17.556,6.628-26.642,9.034c2.654-3.963,6.984-5.321,11.156-6.227c4.869-1.057,9.428-2.24,13.081-5.859
		C177.937,229.669,181.083,230.33,183.696,229.408z"/>
	<path fill="#00ADBC" d="M134.452,195.861c-1.272-0.98-2.543-1.961-3.815-2.941c-0.903-0.158-1.75-0.364-1.413-1.61
		c-0.047-0.263,0.027-0.486,0.225-0.669c10.339,0.536,20.673,1.073,31.01,1.609c-6.074,1.094-12.127,2.372-18.243,3.151
		c-1.491,0.19-5.801,3.717-4.655-2.355c0.144-0.765-1.056-0.694-1.718-0.558C133.756,192.919,134.363,194.506,134.452,195.861z"/>
	<path fill="#00ADBC" d="M137.623,242.831c0.674-1.508,1.348-3.016,2.022-4.523c1.572,6.987,1.572,6.987,11.286,5.767
		c-3.707,1.809-7.663,2.833-11.676,3.675C137.426,246.538,137.479,244.699,137.623,242.831z"/>
	<path fill="#00ADBC" d="M453.766,171.025c0.07,1.696,1.237,3.722-1.389,4.605c-0.299-1.506-0.502-3.104-2.682-2.824
		c-1.735-0.977-2.952-2.695-5.454-3.781c2.275,1.836,4.012,3.247,5.613,4.812c0.101,1.672,1.414,3.668-1.233,4.604
		c-2.584-0.205-5.174-0.127-7.757-0.576c-5.186-0.902-5.594-0.399-4.597,4.892c-2.748,0.321-5.436,1.964-7.575-2.003
		c-1.047-1.94-5.023-0.193-7.259-1.877c3.848-0.105,7.004-1.892,10.013-4.074c3.292-2.386,3.447-5.112,0.899-8.102
		c-4.61-5.411-4.465-7.255,1.201-11.795c1.216-0.974,2.053-2.521,3.818-2.741c0.953-0.162,1.906-0.324,2.859-0.486
		c0.991-0.757,1.41-0.22,1.647,0.729c0.034,0.361,0.067,0.723,0.101,1.084c2.574,4.805,3.556,10.646,8.883,13.662
		C451.342,168.807,450.872,171.182,453.766,171.025z"/>
	<path fill="#00ADBC" d="M450.853,167.154c-7.83-1.388-7.931-7.801-8.883-13.661c3.029-0.658,1.866,4.503,5.048,3.636
		c0.659,2.456-0.372,5.604,4.049,6.136C453.305,163.534,449.892,165.725,450.853,167.154z"/>
	<path fill="#392F02" d="M441.87,152.408c-0.549-0.243-1.098-0.485-1.647-0.728c-0.829-1.21-1.512-2.468,0.398-3.266
		c1.059-0.443,2.052,0.015,2.626,0.984C444.188,150.987,443.522,151.949,441.87,152.408z"/>
	<path fill="#00ADBC" d="M137.623,242.831c1.641,1.276,1.412,3.173,1.632,4.92c-7.492,2.11-7.725,2.007-10.213-4.491
		c1.305-0.15,2.61-0.299,3.915-0.447C134.497,247.058,136.063,244.135,137.623,242.831z"/>
	<path fill="#00ADBC" d="M129.225,191.309c0.471,0.537,0.941,1.073,1.412,1.61c-2.207,0.465-3.041,1.327-0.614,2.736
		c1.773,1.03,2.721,2.514,3.13,4.441c1.93,7.565,3.448,15.202,3.982,23.009c-0.14,3.231,2.167,6.868-1.575,9.503
		c-0.19-0.279-0.439-0.829-0.564-0.802c-7.767,1.669-8.047-3.027-8.073-8.79c-0.015-3.275-1.356-6.607-2.451-9.793
		c-0.947-2.756-0.439-3.89,2.613-3.927c2.032-0.024,4.33-0.162,4.942-3.121c-2.801-0.233-5.394-0.398-7.974-0.676
		c-4.312-0.465-1.773-1.929-0.436-3.2c1.688-1.46,2.64-3.049,2.327-5.535C125.641,194.374,125.669,191.632,129.225,191.309z"/>
	<path fill="#00ADBC" d="M122.819,216.61c0.514,2.948,1.062,5.89,1.521,8.846c0.148,0.956,0.783,2.316-0.567,2.735
		c-1.487,0.462-1.927-0.864-2.539-2.008c-1.685-3.149-1.395-6.468-1.207-9.806C120.999,215.95,121.976,215.469,122.819,216.61z"/>
	<path fill="#00ADBC" d="M122.819,216.61c-0.931-0.074-1.863-0.148-2.793-0.227c0.221-1.914-0.555-3.949,0.706-6.308
		C122.539,212.261,122.597,214.464,122.819,216.61z"/>
	<path fill="#00ADBC" d="M398.953,180.596c-1.403,0.278-2.807,0.555-4.21,0.833c-1.983,2.041-4.462,1.946-6.966,1.544
		c-2.636-0.423-3.945,0.376-4.124,3.287c-0.431,7-4.81,11.267-11.582,10.748c-3.476-0.267-6.084,1.67-9.201,2.149
		c-3.383,0.519-5.758,0.041-5.537-4.114c1.662-3.276,5.283-2.227,8.143-3.745c-3.851,0.176-7.557,2.059-10.896-0.639
		c-1.214-1.997-1.387-3.826,0.925-5.374c-3.958,0.654-7.75,1.988-11.766,1.723c-0.513-0.135-0.955-0.388-1.334-0.754
		c0.071-0.88-0.047-1.829,0.249-2.626c0.765-2.063-2.3-5.547,1.725-6.192c2.98-0.478,6.858-3.762,9.086,1.536
		c0.378,0.898,1.568,0.77,2.388,0.361c0.36-0.18,0.817-1.005,0.702-1.17c-3.068-4.419,1.522-3.201,2.871-3.494
		c5.382-1.166,10.849-1.936,16.285-2.852c1.847,1.718,4.031,2.03,6.427,1.611c2.266-0.397,4.529-0.82,6.802-1.174
		C395.974,171.154,398.062,172.9,398.953,180.596z"/>
	<path fill="#00ADBC" d="M304.966,177.619c4.235-0.714,8.47-1.428,12.705-2.142c0.112,0.69,0.225,1.379,0.337,2.069
		c-3.285,3.149-8.44,1.745-11.739,4.836c-3.62,2.166-7.859,1.964-11.764,3.057c-1.266,0.354-3.238,0.495-2.615,2.508
		c0.459,1.481,2.093,0.933,3.282,0.797c1.614-0.185,3.068-0.829,4.409-1.747c2.79-1.909,5.851-2.253,9.152-1.807
		c5.762,0.778,5.771,0.708,5.159-4.78c1.349-1.588,3.384-2.057,4.573-0.635c1.958,2.342,4.016,3.938,6.953,5.01
		c2.118,0.774,0.925,2.551-0.65,3.466c-1.564,0.908-3.339,0.891-5.075,1.007c0.024,0.153,0.005,0.412,0.078,0.442
		c0.325,0.131,0.629,0.284,0.895,0.569c0.416,0.739,0.463,1.48,0.16,2.254c-6.948,3.627-14.673,3.935-22.17,4.784
		c-5.569,0.63-11.283,1.353-16.942,0.062c-3.551-0.81-4.638-2.424-2.13-5.5c7.281-0.21,6.332-6.399,7.823-10.817
		c0.551-1.173,1.291-2.181,2.474-2.795C294.995,180.061,300.039,180.235,304.966,177.619z"/>
	<path fill="#00ADBC" d="M398.953,180.596c-0.393-0.565-0.992-1.079-1.147-1.704c-1.939-7.846-7.506-5.44-12.564-4.503
		c-1.74,0.323-3.513,0.511-5.217,0.964c-3.176,0.845-4.17-0.786-4.314-3.539c3.487-0.647,7.084-0.947,10.438-2.011
		c8.986-2.851,17.898-5.992,27.354-6.795c1.767-0.15,5.602-3.598,5.436,2.379c-0.035,1.254,3.112,0.088,4.775-0.037
		c1.884-0.141,3.425,0.254,3.095,2.406c-0.248,1.621-1.062,3.941-3.226,3.198c-3.887-1.335-7.293,0.535-10.914,0.86
		c-0.703,0.778-1.508,1.567-2.544,1.642c-4.05,0.294-5.933,2.872-7.025,6.371C401.717,180.084,400.335,180.34,398.953,180.596z"/>
	<path fill="#00ADBC" d="M320.286,190.257c-1.948-0.047-3.929,1.292-6.08-1.005c3.776-0.666,7.553-1.332,11.329-1.998
		c0.086-0.483,0.172-0.965,0.259-1.448c-3.76-0.168-7.238-0.4-7.774-5.102c-0.143-1.256-2.483-0.527-3.842-0.276
		c-2.514,2.124-4.944,4.754-8.363,1.376c0.36-3.581,3.463-2.296,5.394-2.909c2.189-0.694,4.526-0.919,6.799-1.348
		c5.418-2.267,11.294-1.935,16.928-2.978c3.513-0.65,6.416-1.135,3.677,4.214c-1.843,3.6,0.261,6.974,3.793,7.472
		c0.331-0.041,0.662-0.071,0.995-0.088c1.437,0.856,2.956,0.929,4.566,0.595c1.073-0.223,2.2-0.131,2.608,1.105
		c0.508,1.539-0.626,2.253-1.776,2.749c-1.79,0.773-3.709,1.023-5.641,1.124c-3.145-0.617-7.025,2.27-9.448-1.924
		c-2.319-0.473-4.417,0.375-6.526,1.078C324.778,191.696,322.468,191.742,320.286,190.257z"/>
	<path fill="#00ADBC" d="M403.099,179.828c-0.855-6.447-0.855-6.447,9.569-8.014c1.151,2.458-0.912,4.377-1.105,6.609
		C408.741,178.892,405.92,179.36,403.099,179.828z"/>
	<path fill="#00ADBC" d="M289.881,178.255c0.203,1.427-0.521,2.16-1.834,2.452c-2.007,1.998-4.591,3.187-7.177,3.84
		c-2.874,0.725-3.035,2.312-2.617,4.571c-0.087,1.403-0.659,2.421-2.152,2.7c-6.253-4.56-6.248-4.558-9.925,3.102
		c-0.604,1.258-1.075,2.742-3.005,2.259c-4.673-0.954-9.111,0.623-13.658,1.169c-5.499,0.66-10.796,2.908-16.671,1.075
		c-2.296-0.716-5.816-0.167-7.976,1.944c-1.886,1.843-3.171,0.43-3.893-0.654c-1.151-1.728,0.609-3.259,1.786-3.754
		c2.244-0.944,4.768-1.373,7.216-1.645c3.238-0.361,4.409-1.828,3.393-4.951c3.183-0.125,6.301-2.386,9.596-0.021
		c0.925,0.664,1.68-0.836,2.526-1.31c3.036-1.703,6.164-3.079,9.716-0.97c2.269,1.347,3.715,0.737,3.446-2.211c0,0,0,0,0,0
		c2.385-2.849,6.763-0.869,9.128-3.766c5.715-2.465,11.499-4.696,17.791-5.171C287.18,176.79,289.13,175.615,289.881,178.255z"/>
	<path fill="#140A03" d="M263.171,197.178c1.874-0.282,1.828-1.829,2.081-3.17c0.618-3.282,1.085-7.11,4.89-7.87
		c3.858-0.77,3.956,3.661,5.837,5.678c0.319,0.464,0.241,0.87-0.175,1.23c-0.48,0.226-0.983,0.277-1.51,0.243
		c-1.311-0.085-2.661-2.213-3.682-0.794c-1.448,2.012,1.578,2.059,2.152,3.315c0.311,0.68,0.348,1.313,0.056,1.984
		c-4.759,1.56-4.979,5.899-5.962,9.773c-0.642,1.904-2.627,2.333-3.893,3.553c-2.547,1.288-4.939,2.939-7.859,3.352
		c-1.208-0.797-2.415-1.593-3.623-2.39c-2.676-2.338-0.748-4.53,0.363-6.588c1.004-1.858,2.405-3.498,4.143-4.784
		C258.861,200.502,260.962,198.729,263.171,197.178z"/>
	<path fill="#00ADBC" d="M255.991,200.71c0.428,2.887-2.492,3.837-3.503,5.937c-0.873,1.813-1.206,3.521-1.004,5.434
		c-1.897,2.865-3.963,0.632-4.604-0.568c-1.939-3.632-4.637-3.584-7.9-2.681c-0.587,0.163-1.443,0.251-1.853-1.168
		c3.502-0.622,5.688-3.93,9.365-4.419C249.913,203.356,252.063,198.702,255.991,200.71z"/>
	<path fill="#00ADBC" d="M357.834,194.21c1.326,4.254,4.734,5.319,8.647,2.307c1.349-1.038,2.232-1.93,4.09-1.523
		c7.52,1.647,12.553-2.48,11.669-9.86c-0.519-4.33,2.35-4.89,4.75-4.018c2.76,1.003,5.159,0.646,7.753,0.313
		c-0.251,3.545-3.284,2.537-5.223,2.99c-2.697,0.629-5.415,0.814-4.308,4.767c0.298,1.063,0.068,2.114-0.878,2.837
		c-3.017,2.306-1.433,4.33,0.363,6.35c-6.489,0.099-13.018-0.36-19.387,1.405c-2.622,1.394-5.379,1.977-8.331,1.39
		c-5.011,0.948-3.71-2.767-3.955-5.345C354.139,193.839,355.301,191.977,357.834,194.21z"/>
	<path fill="#00ADBC" d="M436.268,182.757c-1.251-1.579-3.953-2.839-2.505-5.229c1.16-1.916,4.383-2.34,5.741-1.385
		c2.91,2.047,6.925-1.452,9.117,2.298c0.489,3.347,0.45,5.891-4.179,3.714C441.744,180.887,439.002,182.553,436.268,182.757z"/>
	<path fill="#00ADBC" d="M455.679,181.93c-1.55,2.132-1.567,5.551-5.072,6.043c0.804-3.357,1.607-6.717,2.41-10.076
		C455.164,178.411,455.475,180.135,455.679,181.93z"/>
	<path fill="#00ADBC" d="M449.855,173.837c-0.67-0.147-1.568-0.071-1.972-0.481c-1.768-1.792-5.125-2.044-5.295-5.342
		c-0.017-0.332,0.797-1.041,0.876-0.994c2.478,1.486,5.661,2.25,6.231,5.786C449.741,173.151,449.794,173.494,449.855,173.837z"/>
	<path fill="#00ADBC" d="M267.782,182.082c-1.726,4.445-6.093,2.491-9.128,3.767C260.425,181.512,264.753,183.372,267.782,182.082z"
		/>
	<path fill="#00ADBC" d="M316.3,204.146c-1.46,0.216-2.92,0.433-4.381,0.649c-1.772,1.88-3.819,2.325-6.17,1.183
		c-1.46,0.252-2.919,0.505-4.379,0.758c-8.386,1.379-16.772,2.757-25.158,4.135c-1.665-0.961-4.406-1.25-2.701-4.322
		c3.928-2.496,8.585-1.227,12.869-2.253c3.504-0.839,7.173-1.128,10.623-2.595c2.127-0.904,4.533-1.276,6.828-0.822
		c4.549,0.899,8.841,0.415,12.993-1.632c2.526-1.246,4.869-0.46,7.073,0.887c0.828,0.506,1.228,1.464,0.623,2.293
		c-1.676,2.295-4.191,2.395-6.728,2.272C317.259,204.672,316.777,204.389,316.3,204.146z"/>
	<path fill="#00ADBC" d="M273.373,207.25c0.087,1.881,2.594,1.865,2.84,3.621c-4.379,1.998-8.834,0.011-13.247,0.249
		c1.003-1.241,2.006-2.482,3.01-3.723C268.421,206.328,270.875,205.657,273.373,207.25z"/>
	<path fill="#00ADBC" d="M273.373,207.25c-2.465,0.11-4.906,1.399-7.398,0.148c0.225-1.185,0.68-2.379,0.634-3.553
		c-0.171-4.342,2.016-6.227,6.145-6.288c0.389-0.987,0.711-2.081,2.168-1.354c0.511,3.368,1.148,5.798,5.753,3.807
		c3.314-1.433,7.239-1.384,10.964-1.346c7.4,0.076,14.284-2.677,21.441-3.942c3.696-0.654,7.368-1.384,11.186-0.394
		c-1.399-0.42-2.915-0.512-3.671-1.975c-0.104-0.699-0.207-1.399-0.31-2.097c5.075,1.31,9.487-3.827,14.666-1.508
		c-0.598,3.5,1.089,6.185,3.124,8.747c-0.525,1.928-2.369,1.7-3.588,2.2c3.034-0.71,6.473-0.934,8.5-4.1
		c3.591-0.585,7.08-4.115,10.815-0.379c0.926,2.055-0.766,5.506,3.177,5.95c-0.013,1.169-0.382,2.204-1.666,2.338
		c-6.457,0.674-12.638,2.776-19.335,2.667c-3.375-0.055-7.097,2.664-10.828,2.564c-3.406-0.091-8.183,1.248-8.85-4.591
		c2.461-0.888,5.279-0.502,8.261-2.468c-3.051-0.775-4.706-2.489-8.111-0.557c-3.19,1.81-7.374,2.667-11.715,1.333
		c-3.452-1.061-7.272-0.042-10.392,2.308c-1.94,1.461-3.949,2.346-6.321,0.904c-0.432-0.263-1.267-0.614-1.441-0.443
		C282.647,209.091,277.599,205.527,273.373,207.25z"/>
	<path fill="#00ADBC" d="M305.75,205.977c2.057-0.395,4.113-0.789,6.17-1.183c-0.263,1.998,2.634,5.026-0.582,5.728
		C309.404,210.944,305.36,210.247,305.75,205.977z"/>
	<path fill="#00ADBC" d="M232.123,183.87c0.858-0.084,1.714-0.209,2.574-0.243c1.225-0.049,1.913,0.594,2.069,1.8
		c0.156,1.203-0.321,1.985-1.543,2.246c-1.167,0.25-2.037-0.095-2.418-1.29c-0.262-0.82-0.467-1.659-0.699-2.489
		C232.105,183.893,232.123,183.87,232.123,183.87z"/>
	<path fill="#00ADBC" d="M137.135,223.107c-1.327-7.67-2.655-15.339-3.982-23.009C136.773,207.37,137.284,215.182,137.135,223.107z"
		/>
	<path fill="#100D04" d="M353.803,195.217c-3.727-1.676-6.926,2.061-10.59,1.033c-1.627,2.459-3.49,1.981-5.439,0.438
		c-1.651,0.608-3.39,0.672-3.829-1.322c-0.489-2.221-1.895-4.824,1.01-6.617c1.365,1.201,2.38,4.001,4.718,0.998
		c0.108-0.139,1.411,0.653,2.157,1.011c2.977,1.063,5.777-0.52,8.683-0.647c1.578-0.069,3.078-0.496,4.486,0.521
		c3.728,0.465,7.25-0.72,10.848-1.326c1.041-0.175,2.364-0.22,2.73,0.938c0.469,1.483-0.713,2.236-1.992,2.482
		c-2.903,0.558-5.829,0.997-8.748,1.485C356.215,193.443,355.211,195.139,353.803,195.217z"/>
	<path fill="#00ADBC" d="M354.998,190.631c-4.388,0.207-8.759,2.14-13.168,0.126c2.704-0.477,5.408-0.954,8.113-1.431
		c-2.244-1.824-5.454,0.446-6.541-3.161c5.416-0.955,10.831-1.91,16.247-2.865C358.011,186.308,353.022,185.815,354.998,190.631z"/>
	<path fill="#00ADBC" d="M348.838,180.555c0.267,1.161,0.041,2.143-1.213,2.508c-1.387,0.404-2.433,0.002-2.713-1.572
		c-0.218-1.225,0.266-2.026,1.518-2.292C347.627,178.944,348.496,179.283,348.838,180.555z"/>
	<path fill="#2C1E04" d="M373.01,188.679c1.13-0.154,2.131,0.129,2.592,1.215c0.478,1.127-0.025,2.216-1.081,2.559
		c-1.437,0.467-2.285-0.722-2.743-1.826C371.401,189.72,372.242,189.117,373.01,188.679z"/>
	<path fill="#0C0805" d="M320.596,192.354c1.551,0.795,3.141,0.311,4.704,0.093c1.733-0.241,2.883,0.314,2.798,2.169
		c-0.085,1.849-1.54,1.744-2.76,1.391c-6.878-1.989-13.316,0.32-19.855,1.868c-6.007,1.422-11.995,2.388-18.306,2.183
		c-2.588-0.084-5.957,0.846-8.725,2.095c-1.1,0.496-1.36,2.797-3.28,1.596c-1.743-1.09-1.172-2.79-0.95-4.337
		c0.15-1.047,0.454-2.072,0.688-3.107c-0.634-1.63,0.544-2.677,1.247-3.877c-0.039-0.21-0.099-0.414-0.179-0.612
		c0.604-0.934,1.208-1.869,1.812-2.803c2.944-1.295,3.041,0.502,2.846,2.619c-2.85,3.543,0.795,4.591,2.54,4.661
		c2.645,0.106,5.332,0.3,7.961,0.282C301.114,196.507,310.778,193.816,320.596,192.354z"/>
	<path fill="#00ADBC" d="M305.815,181.803c3.19,1.988,5.45-1.682,8.363-1.376c0.42,1.981,4.222,2.972,2.383,5.235
		c-1.676,2.062-4.801,2.308-7.388,1.317c-3.324-1.274-6.263-0.774-8.801,1.41c-2.395,2.061-5.288,1.781-8.013,2.312
		c-2.224,0.433-2.597-1.21-2.918-2.878c-0.366-1.899,0.179-3.071,2.223-3.43C296.387,183.564,301.098,182.67,305.815,181.803z"/>
	<path fill="#00ADBC" d="M280.637,191.631c-0.737-1.103-0.429-3.343-2.847-2.618c-2.022-3.619-1.367-5.395,2.189-5.777
		c2.867-0.308,4.983-2.961,8.07-2.529c0.825,3.268-0.699,6.406-0.925,9.595C286.93,193.04,283.182,192.6,280.637,191.631z"/>
	<path fill="#00ADBC" d="M264.356,200.069c0.744,6.183-2.827,8.772-7.13,10.793c-0.934,0.439-2.12,0.68-2.878-0.396
		c-0.76-1.079,0.033-1.971,0.602-2.838C257.14,204.288,260.151,201.946,264.356,200.069z"/>
	<path fill="#00ADBC" d="M276.158,192.428c-0.147,1.377-0.28,2.759-1.246,3.875c-0.719,0.419-1.438,0.836-2.157,1.254
		c-0.199-0.48-0.349-1.351-0.603-1.383c-8.481-1.052-1.718-4.513-2.025-7.082C273.264,189.438,272.783,193.992,276.158,192.428z"/>
	<path fill="#00ADBC" d="M337.773,196.688c1.769-0.676,3.785,1.713,5.437-0.438c-0.153,1.153,0.345,2.738-1.311,3.072
		c-4.186,0.843-8.406,1.517-13.748,2.46C330.998,197.266,335.998,200.313,337.773,196.688z"/>
</g>
</svg>
