<?xml version="1.0" encoding="iso-8859-1"?>
<!-- Generator: Adobe Illustrator 17.0.2, SVG Export Plug-In . SVG Version: 6.00 Build 0)  -->
<!DOCTYPE svg PUBLIC "-//W3C//DTD SVG 1.1//EN" "http://www.w3.org/Graphics/SVG/1.1/DTD/svg11.dtd">
<svg version="1.1" id="Layer_1" xmlns="http://www.w3.org/2000/svg" xmlns:xlink="http://www.w3.org/1999/xlink" x="0px" y="0px"
	 width="445px" height="310px" viewBox="0 0 445 310" style="enable-background:new 0 0 445 310;" xml:space="preserve">
<path style="fill:#2BADBE;" d="M167.428,111.694c0,0-4.771-61.654,0-64.59c4.771-2.936,46.607-2.202,49.543,0.367
	s2.202,61.654,2.202,61.654L167.428,111.694z"/>
<path style="fill:#000202;" d="M107.293,289.727c-0.636-18.22-1.297-36.44-1.895-54.662c-0.217-6.615-0.172-13.241-0.489-19.851
	c-0.099-2.077,1.467-3.394,1.616-5.281c0.082-1.042,0.68-2.024,1.939-1.754c1.123,0.241,1.537,1.309,1.493,2.333
	c-0.105,2.448-0.531,4.89-0.523,7.333c0.052,15.862,0.342,31.718,1.358,47.554c0.32,4.984,0.474,9.979,0.679,14.97
	c0.061,1.47-0.056,2.961,0.887,4.692c3.556-4.004,4.866-8.862,6.511-13.362c7.685-21.028,13.339-42.625,17.15-64.696
	c0.796-4.608,0.254-9.195-0.156-13.782c-0.112-1.252-0.471-2.494,0.533-3.541c7.392-7.711,11.013-17.742,16.417-26.675
	c4.342-7.178,7.572-14.891,10.893-22.561c0.832-1.322-1.113-2.504-0.194-3.83c1.422-1.146,2.589-2.391,3.063-4.301
	c0.312-1.261,1.223-2.363,2.858-2.228c2.606,0.141,3.4,1.299,2.555,3.883c-3.342,10.216-7.544,20.011-12.925,29.353
	c-5.159,8.956-10.019,18.087-15.186,27.045c-1.948,3.377-2.261,7.071-1.542,10.857c1.029,1.424,2.605,1.075,4.016,1.261
	c1.304,0.172,2.926,0.024,3.304,1.683c0.444,1.953-1.214,2.384-2.581,2.921c-1.865,0.733-4.72-0.52-5.231,2.924
	c-0.334,2.248,0.136,3.573,2.492,4.11c1.657,0.378,3.551-0.016,4.93,1.372c10.867,0.874,21.715-0.097,32.571-0.328
	c31.85-0.678,63.61-3.707,95.489-3.634c2.114,0.005,4.271-0.12,6.332-0.551c2.175-0.455,3.272,0.645,3.448,2.347
	c0.223,2.146-1.647,2.079-3.167,2.104c-1.873,0.03-3.747,0.047-5.62,0.07c-2.789,2.047-5.918,2.761-9.35,2.597
	c-2.064-0.099-4.168-0.221-6.185,0.511c-14.562,0.307-29.103,1.344-43.682,1.081c-8.214-0.148-16.439-0.222-24.629,0.695
	c-8.195-0.358-16.373-0.104-24.531,0.729c-8.825-0.693-17.597,0.505-26.396,0.795c-1.82,0.06-3.212,0.889-3.402,2.791
	c-0.607,6.072-2.63,11.866-3.396,17.897c-3.979,15.447-9.98,30.152-16.508,44.663c-1.036,2.303-2.634,3.608-5.285,2.979
	c-1.265-0.3-2.423-0.098-3.646,0.274C109.892,290.944,108.362,291.34,107.293,289.727z"/>
<path style="fill:#000202;" d="M169.539,114.215c-1.623-0.007-3.249,0.048-4.867-0.038c-1.564-0.084-2.067-1.32-2.158-2.581
	c-0.109-1.505,1.011-1.382,2.078-1.254c2.541,0.304,2.161-1.466,1.937-2.934c-0.602-3.944-1.328-7.869-1.947-11.81
	c-1.461-9.305-1.465-18.648-0.557-27.999c0.496-5.106,0.453-10.219,0.446-15.336c-0.001-0.86-0.661-2.29,0.83-2.429
	c1.109-0.103,1.589,1.136,1.814,2.09c0.225,0.955,0.254,1.984,0.2,2.972c-0.39,7.103-0.732,14.21-1.262,21.303
	c-0.79,10.576,1.095,20.896,2.74,31.247c0.359,2.256,2.124,2.084,3.73,2.218c9.659,0.805,19.181-0.758,28.739-1.675
	c4.223-0.405,8.433-0.946,12.65-1.411c1.673-0.185,2.802-0.657,2.58-2.778c-0.924-8.839-0.478-17.707-0.392-26.566
	c0.006-0.605-0.12-1.212-0.147-1.458c-11.359,0-22.547,0.001-33.736,0c-3.247,0-6.494,0.035-9.74-0.022
	c-1.918-0.034-3.248-1.238-1.741-2.739c1.379-1.374,0.907-2.278,0.509-3.545c-1.411-4.492-0.61-8.949,0.622-13.271
	c0.509-1.785,1.805-3.251,4.216-3.565c9.494-1.237,18.932-0.49,28.385,0.333c1.488,0.13,2.989,0.207,4.481,0.181
	c3.161-0.056,4.795,1.915,4.517,5.064c-0.435,4.922-1.318,9.864-0.181,14.881c2.305-0.366,2.865-1.756,2.853-3.749
	c-0.04-6.241-0.033-12.484,0.058-18.724c0.029-2.009-0.676-2.902-2.749-3.082c-4.347-0.377-8.668-1.054-13.014-1.44
	c-1.765-0.157-2.818-0.79-3.077-2.568l-0.048,0.085c2.463-1.832,5.004-0.471,7.493-0.13c3.835,0.524,7.59,2.274,11.543,0.527
	c0.93-0.411,1.343,0.314,1.548,1.079c0.266,0.991,0.439,2.031,1.89,1.566c3.241,0.288,3.353,2.637,2.91,4.915
	c-2.199,11.315-1.91,22.756-1.648,34.164c0.136,5.936,0.512,11.893,1.077,17.819c0.766,4.408,1.947,8.772,1.006,13.332
	c-0.378,1.831-0.771,3.457-3.003,3.668c-2.591,0.246-2.783-1.691-2.907-3.433c-0.218-3.081-2.06-3.956-4.786-4.019
	c-7.256-0.17-14.46,0.336-21.689,1.011C183.713,114.767,176.611,115.963,169.539,114.215z"/>
<path style="fill:#000202;" d="M409.463,150.926c0.512-31.109,0.866-62.216-0.501-93.317c-0.494-11.247,0.454-22.477,0.752-33.714
	c0.062-2.321,0.553-4.527,2.214-6.304c1.218-1.213,2.471-0.916,3.639,0.018c1.346,1.076,1.499,2.552,0.887,4.035
	c-2.387,5.783-2.196,11.84-2.011,17.905c-0.612,10.673,0.46,21.348-0.041,32.021c-0.146,12.091,0.225,24.175,0.901,36.236
	c0.704,12.554,1.365,25.112,1.939,37.67c0.358,7.832,0.783,15.668,0.942,23.512c0.439,8.006-0.519,15.937-1.25,23.881
	c-1.73,1.178-2.585,1.237-3.187-1.309c-0.931-3.943-0.048-7.932-1.309-11.826c0,3.746,0.046,7.493-0.016,11.237
	c-0.041,2.462,0.56,3.972,3.525,3.825c2.324-0.115,4.677,0.339,7.017,0.541c2.218,0.52,4.465,0.303,6.69,0.15
	c1.494-0.103,2.479,0.392,2.784,1.819c0.341,1.6-0.759,2.429-2.085,2.502c-3.653,0.2-4.131,2.505-3.945,5.419
	c0.063,0.993,0.009,1.995-0.077,2.991c-0.176,2.034-0.858,3.864-3.193,3.891c-2.596,0.03-3.315-1.781-3.126-4.094
	c0.066-0.617,0.183-1.229,0.243-1.848c0.596-6.095,0.173-6.377-5.903-6.891c-14.727-1.246-29.468-2.262-44.216-3.233
	c-1.391-0.45-2.876-0.417-4.269-0.776c-1.409-0.362-2.916-0.89-1.963-2.935c0.983-0.968,1.929-1.594,3.548-1.453
	c12.647,1.109,25.316,1.984,37.957,3.155c2.359,0.219,3.2-0.407,3.217-2.574c0.039-4.977,0.062-9.955,0.092-14.932
	c-0.848-1.047-0.807-2.071,0.079-3.073c0.041-0.712,0.082-1.423,0.123-2.135c0.596-5.439,0.091-10.896,0.273-16.342
	C409.238,153.625,408.933,152.246,409.463,150.926z"/>
<path style="fill:#000202;" d="M57.799,13.78c25.976-0.386,51.951-0.149,77.928,0.025c22.209,0.149,44.421-0.003,66.63,0.224
	c24.412,0.25,48.83,0.494,73.229,1.266c29.903,0.947,59.794,2.316,89.677,3.769c8.985,0.437,17.946,0.71,26.933,0.476
	c1.11-0.029,2.858-0.565,3.039,1.245c0.211,2.111-1.741,1.815-2.96,1.889c-8.865,0.535-17.736,0.219-26.594-0.167
	c-21.206-0.924-42.403-2.068-63.61-2.966c-53.67-2.273-107.371-2.677-161.081-2.558c-11.73,0.026-23.46-0.172-35.19-0.266
	c-3.431-1.577-7.078-0.73-10.599-0.762c-11.145-0.101-22.285-0.6-33.434-0.464C60.309,15.51,58.42,15.954,57.799,13.78z"/>
<path style="fill:#B1B1C4;" d="M254.278,116.487c15.193,0.723,30.387,1.401,45.576,2.195c4.747,0.248,5.558-0.306,5.589-5.323
	c0.025-4.025-1.226-7.873-2.071-11.76c-2.984-13.718-2.88-27.432-0.482-41.217c0.654-3.759,2.342-7.933-2.125-10.773
	c4.442-1.216,6.789,0.433,6.787,4.819c-0.004,8.703,0.136,17.406,0.138,26.109c0.002,10.574,1.351,21.101,2.533,31.613
	c0.323,2.872,0.539,5.664-0.91,8.39c-1.041,1.958-2.589,3.279-4.63,3.355c-4.824,0.178-9.584,1.392-14.509,0.34
	c-3.245-0.693-6.619,0.574-10.013,0.325c-2.317-0.17-4.676,0.073-7.939-0.873c2.49,2.521,2.224,4.939,2.239,7.327
	c0.025,3.847-0.327,7.737,1.54,11.361c1.3,2.524,0.95,4.58-2.054,5.6c-0.703,0.239-0.834,0.854-0.901,1.493
	c-3.492-0.694-6.032-3.258-9.165-4.66c2.057-3.121,0.856-6.331,0.211-9.504c-0.363-1.784-1.184-3.472-1.136-5.346
	c1.825-2.372,2.866-1.119,3.387,0.894c0.713,2.756,0.994,5.618,1.799,8.359c0.396,1.349,0.638,2.853,2.551,3.364
	c-2.278-3.998-1.208-8.469-2.183-12.64c-0.541-2.317-1.517-4.141-3.699-5.204c0.559-1.037,0.347-1.465-0.923-1.619
	c-1.815-0.221-3.607-0.671-5.39-1.105C255.63,121.31,253.972,119.637,254.278,116.487z"/>
<path style="fill:#D0D2E2;" d="M417.064,168.958c-1.064-22.908-2.145-45.815-3.185-68.723c-0.435-9.586-0.788-19.175-0.589-28.775
	c3.334-1.862,3.695-4.57,3.761-8.332c0.16-9.161,0.188-18.366,1.271-27.498c0.122-1.032,0.111-2.351,1.716-2.418
	c0.383,7.463,0.344,14.955,0.439,22.405c0.158,12.419,0.891,24.812,1.234,37.215c0.401,14.516,0.779,29.047,1.498,43.547
	c0.614,12.377,0.391,24.852,2.738,37.114C423.394,171.181,419.633,171.237,417.064,168.958z"/>
<path style="fill:#000202;" d="M378.995,110.525c-3.571-3.345-1.66-7.727-2.248-11.643c-0.254-1.691,1.049-4.82-0.953-4.778
	c-2.364,0.049-1.124,3.177-1.318,4.982c-0.105,0.979,0.208,2,0.129,2.985c-0.235,2.907-2.52,4.333-5.113,3.283
	c-0.81-0.328-1.682-0.528-2.448-0.932c-6.292-3.316-11.856-2.666-16.578,2.92c-0.397,0.47-0.94,0.818-1.422,1.214
	c-0.708,0.582-1.528,1.154-2.256,0.207c-0.768-1-0.303-1.713,0.728-2.405c2.364-1.586,4.618-3.336,6.839-4.963
	c-0.293-1.567-1.523-1.43-2.358-1.766c-4.164-1.678-8.375-3.24-12.534-4.928c-3.413-1.385-3.812-1.121-3.642,2.562
	c0.05,1.073,1.342,2.835-0.663,3.034c-1.666,0.166-1.936-1.644-1.976-3.052c-0.063-2.228-0.186-4.397-0.61-6.636
	c-0.476-2.511,1.874-2.232,3.651-2.022c9.051,1.068,18.107,2.124,27.23,2.31c3.491,0.071,6.99-0.184,10.478-0.063
	c2.36,0.081,2.893-0.92,2.987-3.099c0.55-12.725,0.003-25.487,1.277-38.181c0.192-1.913-0.581-1.953-2.087-1.904
	c-14.725,0.474-29.446,1.17-44.186,0.99c-0.858-0.01-1.745-0.03-2.564-0.25c-0.622-0.167-0.965-0.825-0.906-1.488
	c0.067-0.756,0.686-0.97,1.345-0.989c0.873-0.026,1.748,0.001,2.622-0.006c12.239-0.097,24.478-0.215,36.718-0.284
	c3.518-0.02,6.965-0.48,10.378-1.281c4.129,0.236,5.803,1.979,5.346,6.154c-1.333,12.169-1.256,24.375-1.119,36.579
	c0.068,6.095,1.053,12.161,0.715,18.28c-0.089,1.619-0.049,3.252-0.643,4.792c-0.646,1.675-1.611,2.855-3.666,2.062
	C379.504,111.825,379.061,111.303,378.995,110.525z"/>
<path style="fill:#000202;" d="M15.08,210.097c2.405-2.199,5.19-1.519,8.09-1.431c12.993,0.392,25.969-0.197,38.925-1.306
	c1.967-0.168,2.566-0.769,2.483-2.698c-0.235-5.493-0.158-10.983,0.721-16.436c0.401-2.485,1.007-4.887,2.242-7.099
	c0.593-1.062,1.311-1.911,2.671-1.177c1.184,0.639,1.508,1.531,0.803,2.787c-3.807,6.782-2.704,14.298-3.194,21.578
	c-0.136,2.015,0.85,2.706,2.721,2.455c0.618-0.083,1.233-0.201,1.853-0.257c6.129-0.549,6.664,0.089,6.624,6.145
	c-0.062,9.329,2.23,18.318,4.677,27.214c3.076,11.186,6.475,22.285,9.875,33.379c0.813,2.652,1.198,5.678,3.879,7.367
	c0.563,0.355,0.712,0.747,0.45,1.16c-0.469,0.738-1.246,0.723-2.003,0.454c-2.683-0.952-3.649-3.323-4.408-5.696
	c-2.356-7.367-4.588-14.774-6.86-22.168c-0.66-2.147-1.377-4.282-1.91-6.461c-0.367-1.501-0.887-2.274-2.533-1.474
	c-0.807,0.393-2.254,0.562-2.32-0.268c-0.343-4.283-5.999-3.095-6.874-7.234c-0.733-3.468-2.149-6.883-3.16-10.355
	c-0.104-0.358-0.261-0.701-0.394-1.051c-2.037-2.104-2.252-4.812-2.411-7.505c-0.094-1.584,0.057-3.184-0.533-4.706
	c-0.478-3.919-3.408-3.352-5.967-3.12c-10.792,0.975-21.595,1.587-32.435,1.374c-1.619-0.032-3.258,0.125-4.852-0.141
	c-2.693-0.45-3.729,0.645-3.375,3.256c-0.415,1.723-1.008,3.339-2.771,4.179c-1.135-1.055-1.562-2.396-1.572-3.904
	c0.011-0.999,0.021-1.999,0.032-2.998C14.356,212.788,14.512,211.362,15.08,210.097z"/>
<path style="fill:#000202;" d="M309.679,183.453c0.291-0.588,0.582-1.176,0.873-1.765c1.594-1.088,3.138-0.136,4.665,0.171
	c7.476,1.501,14.86,2.741,22.542,0.705c12.813-3.396,22.52-19.611,16.3-32.965c-3.07-6.591-6.328-13.042-12.997-16.866
	c-0.463-0.266-0.648-0.722-0.516-1.268c-0.707-0.923-3.041-1.044-1.514-3.069c2.071-1.792,3.617,0.13,5.346,0.755
	c5.458,0.752,8.058,4.973,10.629,9.033c6.984,11.032,10.451,22.601,4.686,35.357c-0.359,0.795-0.567,1.748-1.185,2.316
	c-4.025,3.703-2.527,7.356-0.33,11.333c2.952,5.343,5.67,10.805,9.661,15.487c1.201,1.358,2.373,2.741,3.364,4.266
	c2.912,4.681,5.602,9.487,8.031,14.439c2.125,1.948,3.222,4.609,4.786,6.942c1.016,1.515,0.238,2.861-0.911,3.914
	c-1.114,1.02-2.219,2.595-3.982,0.876c-1.137-1.577,0.616-4.366-2.203-5.24c-3.946-4.977-7.465-10.27-10.767-15.673
	c-5.071-8.296-11.176-15.944-15.464-24.722c-0.726-1.485-1.711-2.106-3.284-1.274c-1.268,0.67-2.653,0.495-4,0.601
	c-10.077,5.128-20.004,2.034-29.93-0.572C311.883,185.816,310.575,184.887,309.679,183.453z"/>
<path style="fill:#000202;" d="M57.799,13.78c1.136,1.167,2.592,0.656,3.909,0.683c13.728,0.275,27.457,0.503,41.185,0.762
	c1.182,0.022,2.637-0.362,2.906,1.493c-25.843-0.073-51.697,0.909-77.523-0.518c-3.519-0.194-3.911,1.403-4.139,3.944
	c-0.916,10.222-0.811,20.465-0.496,30.701c0.829,26.955,1.597,53.914,2.715,80.858c0.553,13.335,1.851,26.639,2.725,39.962
	c0.089,1.35,0.935,3.714-0.662,3.912c-1.845,0.228-1.875-2.145-2.128-3.73c-2.244-14.063-2.596-28.277-3.186-42.456
	c-0.679-16.33-0.74-32.687-1.451-49.016c-0.852-19.573-1.541-39.141-1.132-58.733c0.116-5.537,0.187-5.501-5.088-6.966
	c-1.434-0.398-3.837-0.342-3.093-2.725c0.681-2.181,2.464-1.016,4.06-0.644c8.442,1.97,17.073,2.056,25.682,2.257
	C47.32,13.686,52.56,13.711,57.799,13.78z"/>
<path style="fill:#ADADC0;" d="M130.468,37.067c5.053-1.758,7.505-0.152,7.641,4.961c0.29,10.918,3.955,21.272,5.382,31.995
	c1.083,8.14,2.103,16.273,4.264,24.226c0.34,1.249,0.042,2.751-0.257,4.07c-0.246,1.089-0.16,1.759,0.641,2.638
	c2.594,2.847,1.741,5.595-2.178,6.677c-2.253,0.622-4.653,0.948-6.992,0.977c-5.695,0.069-11.363,0.257-17.091,1.331
	c0.431,2.203,2.227,3.158,3.602,4.193c6.091,4.586,10.464,10.633,14.603,16.852c2.308,3.468,2.765,7.706,3.882,11.649
	c0.272,0.962,0.079,2.061,1.539,2.048c0.399,1.643-1.257,1.941-1.891,2.913c-1.799,1.65-3.615,3.275-6.018,4.027
	c-2.393,0.456-2.739-1.184-2.745-2.878c-0.013-3.227-0.773-6.351-1.136-9.523c-1.951-8.689-6.288-15.951-13.05-21.754
	c-0.862-0.739-1.648-1.526-2.19-2.533c-2.721-2.319-0.097-5.507-1.279-8.204c-0.369-0.843,1.636-1.094,2.708-1.195
	c3.063-0.288,6.188,0.416,9.207-0.573c3.91-1.497,8.145-0.646,12.12-1.673c0.887-0.229,2.354,0.051,2.27-1.29
	c-0.075-1.206-1.439-1.082-2.413-1.189c-1.29-0.142-2.719,0.765-3.86-0.506c0.247-0.645,0.495-1.289,0.742-1.934
	c2.292-1.037,2.975-2.375,2.524-5.201c-1.136-7.12-2.218-14.265-2.854-21.471c-0.492-5.57-1.683-11.07-2.496-16.611
	c-0.578-3.94-1.453-7.869-1.146-11.879C134.298,43.274,134,39.63,130.468,37.067z"/>
<path style="fill:#B7B8CB;" d="M379.343,110.745c3.162,2.509,3.605,0.139,3.695-2.206c0.283-7.366-0.118-14.724-0.426-22.084
	c-0.502-11.992-0.137-23.966,1.151-35.904c0.358-3.323-0.596-5.668-4.248-6.208c0.964-0.52,1.902-1.097,2.897-1.55
	c3.972-1.809,7.796,0.542,7.56,4.891c-0.701,12.873-0.696,25.776-2.081,38.626c-0.756,7.018-0.736,14.154,0.835,21.12
	c0.617,2.735,0.651,5.442,0.572,8.174c-0.159,5.567-3.104,8.329-8.581,7.427c-3.875-0.639-7.715-0.643-11.56-0.536
	c-12.103,0.337-24.164-1.367-36.266-0.657c-3.164,0.185-5.187-1.281-6.499-4.001c1.489-1.255,3.31-1.127,4.984-0.876
	c5.082,0.76,10.108,0.372,15.207,0.076c7.421-0.43,14.89-0.536,22.33-0.24C376.202,117.086,376.196,117.235,379.343,110.745z"/>
<path style="fill:#000202;" d="M138.046,154.67c1.699-1.278,3.398-2.556,5.097-3.834c2.055,0.05,1.378,1.067,0.737,2.073
	c-0.193,0.293-0.379,0.592-0.555,0.897c-1.795,2.305-4.975,3.245-6.101,6.209c-1.792,5.775-3.391,11.607-7.456,16.378
	c-1.489,1.747-2.993,3.245-5.28,3.768c-11.162,6.727-22.959,10.253-35.935,6.403c-10.195-3.025-19.12-8.301-26.283-16.295
	c-2.199-2.454-3.799-5.226-3.789-8.673c-0.426-1.123-0.588-2.303-0.761-3.479c0.095-2.247,0.111-4.536,1.67-6.38
	c1.049-1.242,2.424-1.951,3.964-1.049c1.455,0.852,0.793,2.229,0.312,3.338c-3.089,7.119-1.012,12.809,4.632,17.661
	c6.939,5.965,14.756,10.212,23.687,12.265c3.822,0.879,7.613,0.953,11.307-0.93c2.104-1.073,4.531-1.363,6.838-1.901
	c6.033-1.406,10.692-4.583,13.657-10.141c0.842-1.579,1.69-3.046,1.097-4.923c-0.315-0.997-0.253-2.037,0.539-2.802
	c4.943-4.776,4.36-10.795,3.726-16.771c-1.542-14.534-11.072-22.865-23.003-29.229c-2.3-1.227-4.663-2.39-7.217-3.08
	c-1.232-0.333-2.299-0.975-2.857-2.228c-0.633-1.79-0.166-2.878,1.884-2.956c0.98-0.037,1.962-0.008,2.939-0.061
	c5.871,0.112,10.538,3.162,14.992,6.466c1.208,0.896,2.626,1.832,3.438,3.265c2.473,2.922,5.624,5.167,7.942,8.274
	c3.528,4.729,6.117,9.817,7.087,15.671c0.212,3.677,1.253,7.271,1.065,10.99C135.277,156.386,136.588,155.737,138.046,154.67z"/>
<path style="fill:#D0D2E2;" d="M194.292,219.264c9.299-0.876,18.633-0.671,27.952-0.876c13.678-0.301,27.358-0.504,41.037-0.749
	c3.575,1.128,5.383,4.969,9.104,5.92c0.714,0.182,1.79,0.464,1.354,1.726c-12.115-0.024-24.243-0.414-36.341,0.021
	c-14.681,0.528-29.371,0.859-44.041,1.532c-13.435,0.616-26.851,1.519-40.31,1.372c0.607-2.487,2.743-1.806,4.241-1.757
	c5.849,0.192,11.418-2.16,17.334-1.635c2.127,0.189,4.604-0.992,5.845-2.839c1.521-2.265,3.387-2.435,5.711-2.425
	C188.88,219.564,191.612,219.971,194.292,219.264z"/>
<path style="fill:#B2B3C7;" d="M141.121,201.804c-1.815-8.361,3.511-14.399,6.996-20.953c5.256-9.883,11.229-19.374,16.078-29.487
	c2.808-5.856,4.889-11.957,6.959-18.093c0.759-2.248-0.51-2.481-1.721-3.186c1.753-0.324,3.463-0.17,5.145,0.419
	c3.303,1.157,4.087,3.59,3.066,6.937c-2.964,9.719-7.818,18.672-11.109,28.262c-2.708,7.889-7.036,15.038-11.966,21.714
	c-3.45,4.672-4.583,9.75-4.54,15.314C146.939,203.581,144.02,202.793,141.121,201.804z"/>
<path style="fill:#ADADC3;" d="M378.818,221.394c-2.776-4.714-5.551-9.428-8.327-14.142c1.554-0.913,2.706-2.801,4.954-2.042
	c1.819,4.914,1.821,4.968,7.357,4.712c9.98-0.462,19.9,0.923,29.872,0.916c2.862-0.002,4.583-0.408,4.876-3.466
	c1.33-0.918,2.368-0.347,3.323,0.65c-0.533,1.932-0.004,3.258,2.172,3.334c2.121,0.074,2.281-1.44,2.222-3.065
	c-0.05-1.365-0.012-2.733-0.054-4.099c-0.099-3.215,0.018-6.147,4.665-5.052c0.935,0.22,2.146-0.012,2.09-1.425
	c-0.045-1.162-0.918-1.766-2.015-1.779c-2.348-0.029-4.715,0.275-6.988-0.598c2.997-0.341,5.91-0.351,8.891-1.68
	c4.467-1.991,5.971-0.295,5.836,4.388c-0.149,5.165-1.341,10.31-1.206,15.544c0.059,2.292-1.586,3.552-3.368,3.943
	c-3.845,0.845-7.572,2.314-11.569,2.433c-2.381,0.545-4.355-0.506-6.177-1.766c-2.145-1.484-4.2-2.019-6.544-0.46
	c-1.624,1.08-3.321,0.86-4.919-0.172c-1.955-1.263-4.116-1.335-6.096-0.458c-5.404,2.394-10.987,1.29-16.526,1.15
	c-0.84-0.021-1.698-0.495-2.45,0.252c0.033,0.661,0.066,1.322,0.1,1.983C379.169,220.828,379.117,221.127,378.818,221.394z"/>
<path style="fill:#A9A9BE;" d="M367.559,203.451c-6.096-6.14-9.11-14.147-13.063-21.584c-0.797-1.499,0.152-2.56,1.035-3.676
	c6.699-8.474,7.702-17.873,4.239-27.863c-1.466-4.228-3.13-8.33-5.8-12.095c-2.652-3.739-5.528-6.964-9.592-9.083
	c0.606-0.079,1.364,0.048,1.795-0.269c3.386-2.488,6.422-1.435,9.06,1.073c8.839,8.401,14.414,18.312,13.857,30.958
	c-0.126,2.867-0.024,5.744-0.129,8.612c-0.167,4.583-1.177,8.914-4.486,12.336c-3.256,3.368-2.785,6.849-0.574,10.47
	c0.651,3.851,4.223,1.35,5.997,2.758c-0.4,0.732-1.132,0.883-1.848,0.975c-1.524,0.195-1.732,0.891-1.147,2.247
	C367.603,199.93,368.655,201.575,367.559,203.451z"/>
<path style="fill:#000202;" d="M377.184,227.494c1.628-0.775,2.297-0.05,2.348,1.541c0.039,1.229,0.011,2.46,0.013,3.69
	c-0.629,0.613-1.29,1.135-2.253,0.766c-6.658-1.429-13.314-2.864-19.396-6.119c-1.653-0.086-3.13-0.645-4.507-1.561
	c-1.883-1.252-2.566-0.516-2.79,1.549c-1.823,16.825-4.994,33.463-7.05,50.259c-0.733,4.551-1.505,9.095-2.006,13.676
	c-0.289,2.641-1.437,4.769-3.57,6.304c-1.175,0.845-2.483,1.467-3.294-0.515c1.561-10.7,3.099-21.403,4.687-32.099
	c2.634-17.738,6.438-35.338,6.317-53.399c-0.014-2.11-0.169-4.233-0.451-6.324c-0.223-1.647-0.163-3.179,1.625-3.658
	c1.922-0.515,3.045,0.572,3.33,2.51c-0.256,4.001-0.996,7.999,0.963,11.875c0.763,1.51,1.73,2.679,3.068,3.585
	c1.572,1.064,2.772,2.42,3.59,4.123c3.747,2.921,7.873,4.934,12.687,5.303C372.886,229.211,375.147,228.852,377.184,227.494z"/>
<path style="fill:#000202;" d="M311.341,288.169c-9.104-19.594-18.342-39.145-20.848-60.989c-0.223-1.947-1.189-4.309,2.058-5.461
	c0.93,22.634,10.034,42.574,19.445,63.066c1.359-2.535,0.976-4.808,1.232-6.893c1.665-13.512,5.545-26.62,7.231-40.121
	c0.372-2.975,0.684-5.934,2.259-8.578c3.173-1.297,5.078-0.092,4.773,3.261c-0.337,3.717-1.561,7.284-2.258,10.949
	c-0.673,3.54-1.355,7.083-2.146,10.603c-1.26,5.611-2.351,11.25,0.368,16.788c0.625,1.273-0.096,2.725,0.529,3.999
	c2.089,7.805,5.908,15.103,6.801,23.301c-3.224-3.122-3.438-7.615-5.275-11.348c-3.394-3.912-3.714-9.201-6.262-13.52
	c-0.424,3.979-1.258,7.988-0.887,12.111c0.164,1.825,0.925,4.189-1.205,5.043C314.944,291.268,312.762,290.287,311.341,288.169z"/>
<path style="fill:#000202;" d="M141.121,201.804c2.969,0.309,5.939,0.618,8.908,0.926c6.466,0.588,12.931,1.223,19.439,0.845
	c4.992-0.547,10.002-0.403,15.004-0.411c1.41,0.07,2.758-0.127,3.953-0.965c0.958-0.343,1.915-0.331,2.869,0.01
	c4.56,1.472,9.135,1.644,13.7,0.138c-0.1-1.36-1.166-1.462-2.138-1.669c-1.194-0.254-2.558-0.197-3.035-1.721
	c-0.046-0.561,0.127-1.062,0.396-1.539c1.668-2.239,4.132-1.342,6.225-1.377c6.333-0.107,12.669,0.213,18.996-0.437
	c1.732-0.178,3.428-0.033,4.79-1.496c0.735-0.79,1.608-0.182,2.327,0.354c1.802,0.976,1.619,2.636,1.382,4.245
	c-0.344,2.337,0.659,3.202,2.934,3.722c4.311,0.986,8.635,0.434,12.94,0.722c0.968,0.065,2.576-1.066,2.92,1.009
	c-5.946,2.992-12.448,2.172-18.716,2.461c-23.206,1.071-46.432,0.827-69.654,0.467c-4.95-0.547-9.911-0.242-14.867-0.143
	c-0.883,0.018-1.721,0.218-2.442-0.458c0.358-1.027,2.555-0.588,1.972-2.195c-0.491-1.356-1.963-0.551-2.962-0.84
	C144.396,202.971,142.174,204.115,141.121,201.804z"/>
<path style="fill:#BFC2D4;" d="M342.731,277.567c1.154-13.287,3.735-26.374,5.521-39.572c0.567-4.191,1.035-8.4,1.404-12.613
	c0.168-1.915,0.371-3.023,2.538-1.498c1.818,1.279,3.795,2.332,5.701,3.486c-1.76,3.91-1.585,8.196-2.212,12.299
	c-2.342,15.331-4.61,30.671-7.353,45.938c-0.784,4.362-1.158,8.798-1.72,13.199c-1.009-0.786-0.95-1.946-1.074-3.046
	c-0.542-4.821-0.824-9.67-2.973-14.194C342.043,280.472,342.181,278.885,342.731,277.567z"/>
<path style="fill:#000202;" d="M130.468,37.067c3.652,0.448,4.729,2.299,4.471,6.083c-0.572,8.393,1.501,16.619,2.526,24.906
	c1.023,8.271,2.28,16.514,3.491,24.761c0.301,2.053-0.008,4.21,1.338,6.111c0.673,0.951,0.3,2.122-0.585,3.061
	c-1.175,1.246-2.422,0.971-3.741,0.382c-1.82-1.038-2.015-2.286-1.853-4.525c0.273-3.788-0.505-7.697-1.172-11.498
	c-1.662-9.469-2.46-19.039-3.394-28.585c-0.49-5.002-1.679-9.811-2.74-14.678c-0.483-2.218-1.629-2.684-3.7-2.477
	c-9.669,0.963-19.358,1.734-29.021,2.754c-3.264,0.345-6.474,0.18-9.699-0.093c-1.173-0.099-2.387-0.795-2.285-2.042
	c0.113-1.371,1.499-0.981,2.424-0.891c10.518,1.022,20.903-0.883,31.344-1.472C122.087,38.627,126.474,39.061,130.468,37.067z"/>
<path style="fill:#B3B4C7;" d="M221.156,103.765c-1.277-9.255-1.324-18.572-1.39-27.888c-0.059-8.348,0.171-16.681,1.976-24.869
	c0.468-2.125-0.394-3.315-1.959-4.355c4.367-1.621,6.987-0.443,6.77,3.431c-0.576,10.243,0.848,20.422,0.691,30.65
	c-0.118,7.696-0.961,15.374-0.05,23.11c0.428,3.634,2.038,7.168,1.018,11.028c-0.441,1.669-0.861,3.073-2.354,3.997
	c-2.106-2.647-2.378-5.856-2.638-9.023C223.036,107.613,222.922,105.429,221.156,103.765z"/>
<path style="fill:#AEAFC2;" d="M224.081,107.742c0.19-1.426-0.178-3.97-2.925-3.977c0.699,4.62,1.571,9.231,0.885,13.937
	c-0.183,1.25-0.363,2.516-2.127,2.486c-1.748-0.031-1.465-1.279-1.553-2.371c-0.449-5.587-0.456-5.594-6.106-5.857
	c-10.982-0.511-21.835,1.287-32.751,1.93c-3.328,0.196-6.698-1.077-9.965,0.325c0.474,4.647,1.81,5.937,6.328,5.965
	c0.689,0.005,1.378-0.049,2.068-0.11c0.391-0.219,0.873-0.306,1.432-0.159c0.059,0.016,0.12,0.02,0.179,0.034
	c0.138-0.008,0.275-0.02,0.413-0.025c1.065-0.038,2.26-0.321,3.044,0.3c2.152-0.088,4.338-0.48,6.465-0.309
	c2.482,0.199,4.952,0.507,7.429,0.732c7.503,0.438,15.037-0.419,22.549,0.216c2.179,0.185,4.704,0.035,6.412-1.992
	C225.711,115.107,223.551,111.721,224.081,107.742z"/>
<path style="fill:#B3B4C7;" d="M65.413,215.341c0.675,4.062,1.35,8.123,2.026,12.185c-6.909,1.685-13.941,0.966-20.847,0.475
	c-10.107-0.719-20.194-0.44-30.291-0.564c-1.243-0.015-2.516,0.04-3.721-0.203c-3.81-0.77-5.489-2.757-5.038-6.131
	c0.46-3.438,2.927-4.287,5.979-4.145c1.143,0.993,1.842,2.157,1.445,3.744c0.822,1.87,2.2,2.413,4.215,2.114
	c11.792-1.753,23.641-2.747,35.579-2.41c1.611,0.045,3.238,0.132,4.835-0.139c2.776-0.472,2.903-0.938,1.081-3.503
	C61.702,214.451,63.836,215.822,65.413,215.341z"/>
<path style="fill:#000202;" d="M380.334,172.675c-0.086-2.963-0.17-5.925-0.259-8.888c-0.041-1.347,0.146-2.839-1.073-3.764
	c-3.191-2.423-1.406-3.138,1.174-3.646c4.766,0.146,9.552,0.901,14.25-0.673c1.045-0.35,2.203-0.362,3.14,0.493
	c2.271,0.428,4.713-0.791,6.873,0.711c0.36,4.707,0.834,9.392,1.467,14.081c0.687,5.092-1.991,7.742-7.181,8.097
	c-3.594,0.246-7.025,1.7-10.758,1.05C381.817,179.064,381.201,178.593,380.334,172.675z"/>
<path style="fill:#B3B4C6;" d="M107.293,289.727c0.62,0.441,1.315,0.956,2.061,0.659c2.271-0.903,4.293-2.324,7.036-0.823
	c1.091,0.597,2.28-0.752,2.919-2.23c6.236-14.424,12.155-28.961,16.429-44.114c-0.234-4.538,4.223-5.785,6.236-8.751
	c0.534-0.786,1.888-1.176,2.943-0.197c-3.998,14.394-8.155,28.745-16.202,41.536c-3.098,4.924-6.161,9.853-8.945,14.961
	c-0.876,1.608-2.404,2.553-4.273,2.67C112.128,293.65,109.463,292.213,107.293,289.727z"/>
<path style="fill:#000202;" d="M379.343,110.745c0.422,5.646-1.784,7.626-7.485,7.182c-8.327-0.648-16.693-0.451-24.985,0.256
	c-6.882,0.587-13.661,0.122-20.48-0.348c-0.875-0.685-1.926-1.235-2.581-2.089c-0.879-1.145-0.947-2.615,0.897-2.741
	c3.845-0.262,7.436-1.75,11.555-0.973c10.457,1.973,21.138,1.707,31.738,2.268c4.327,0.229,7.989-0.584,10.993-3.775
	C379.138,110.558,379.254,110.632,379.343,110.745z"/>
<path style="fill:#000202;" d="M191.417,202.755c-0.981-0.019-1.962-0.038-2.942-0.057c-3.249,0.433-6.392,0.518-9.693-0.354
	c-1.537-0.406-3.707,0.418-5.592,0.684c-1.031,0.386-1.613-0.33-2.249-0.912c-4.075-2.393-3.924-6.605-4.47-10.49
	c-0.299-2.129,1.381-2.004,2.713-2.116c5.46-0.459,10.904-1.144,16.407-1.015c1.429,0.034,3.001,0.47,4.292-0.642
	c2.052-0.264,2.196,1.337,2.285,2.618c0.159,2.275,0.681,4.198,2.149,6.131C196.426,199.379,194.806,202.426,191.417,202.755z"/>
<path style="fill:#B9BACC;" d="M377.184,227.494c0.213,1.316,0.37,2.601-1.63,2.411c-1.71-0.162-3.524,0.244-5.058-0.905
	c0.359-0.309,1.518-0.219,0.747-1.128c-7.331-8.642-11.46-18.97-15.532-29.334c-0.408-1.039-1.074-1.977-1.47-3.019
	c-0.959-2.524-2.195-3.773-5.322-2.873c-3.058,0.879-5.179-1.458-4.844-4.619c0.064-0.606-0.285-0.899-0.664-1.218
	c0.089-0.088,0.162-0.219,0.269-0.257c6.559-2.317,6.756-2.414,9.683,3.46c4.804,9.64,11.776,17.876,17.159,27.133
	C372.581,220.687,374.953,224.049,377.184,227.494z"/>
<path style="fill:#BDBFD0;" d="M323.985,274.794c-4.468-7.415-3.402-15.16-1.547-23.034c1.481-6.287,2.626-12.653,3.972-18.973
	c0.69-3.238-0.873-4.027-3.69-3.594c0.819-3.796,3.551-3.456,5.973-2.286c2.366,1.142,4.581,3.026,3.3,6.238
	c-3.227,8.096-3.199,16.808-4.899,25.19C325.983,263.806,325.844,269.462,323.985,274.794z"/>
<path style="fill:#BFC0D2;" d="M420.038,33.212c-1.786,2.849-0.728,6.087-0.986,9.09c-0.667,7.74-1.289,15.546-0.555,23.325
	c0.366,3.878-0.419,5.007-5.208,5.834c-0.188-10.75-0.565-21.5-0.062-32.252c1.031-1.224,1.118-2.741,1.233-4.219
	c0.228-2.941,0.733-5.757,3.446-7.511c1.514-0.979,0.584-3.592,2.813-4.017C421.227,26.762,419.804,29.929,420.038,33.212z"/>
<path style="fill:#000202;" d="M101.406,109.627c-0.975,0.029-1.973,0.203-2.921,0.058c-2.329-0.357-1.806,1.194-1.769,2.458
	c-6.097-0.871-12.081-0.857-18.021,1.265c-13.71,4.896-20.604,13.933-21.343,28.502c-0.265,5.231,0.144,10.433,1.101,15.586
	c0.01,1.367,0.02,2.734,0.029,4.101c-7.033-13.693-5.788-32.421,3.294-42.241c9.022-9.754,20.699-12.286,33.487-11.053
	C97.168,109.406,99.753,107.353,101.406,109.627z"/>
<path style="fill:#000202;" d="M98.714,77.944c0.621,0,1.242,0.012,1.863-0.002c6.71-0.151,6.689-0.152,6.48,6.35
	c-0.035,1.095-0.223,2.597,0.377,3.233c3.403,3.604-0.613,3.18-1.954,3.272c-2.961,0.202-5.913,0.211-8.85,0.846
	c-3.445,0.744-5.236-0.957-5.596-5.011c-0.177-1.993,0.541-4.021-1.388-5.844c-1.1-1.039,0.146-2.237,1.632-2.415
	c1.231-0.148,2.473-0.229,3.712-0.275c1.24-0.046,2.483-0.01,3.725-0.01C98.714,78.04,98.714,77.992,98.714,77.944z"/>
<path style="fill:#BDC0D3;" d="M194.292,219.264c-2.936,1.469-6.08,0.342-9.103,0.73c-1.037,0.133-2.194-0.3-2.83,1.143
	c-1.789,4.058-5.423,4.816-9.322,4.861c-6.74,0.077-13.313,1.607-19.99,2.21c-1.98,0.288-3.959,0.575-5.939,0.863
	c-0.227-0.516-0.163-1.09,0.302-1.312c2.693-1.284,4.575-3.311,5.921-5.949c0.725-1.42,2.143-1.435,3.577-1.491
	c4.212-0.164,8.45,0.531,12.639-0.363C177.784,219.309,186.032,219.073,194.292,219.264z"/>
<path style="fill:#A0A0B4;" d="M169.547,219.957c-3.409,1.552-7.02,0.669-10.523,0.722c-2.7,0.04-4.864,0.358-5.82,3.218
	c-0.77,2.303-2.035,3.948-4.739,4.054c-0.466,0.018-0.906,0.729-1.357,1.12c-1.296,1.495-1.28,3.543-2.192,5.2
	c-2.156,0.504-4.585,0.714-3.992,3.998c0.093,0.513-0.34,1.185-0.8,1.006c-4.148-1.614-2.966,2.603-4.387,3.944
	c0.413-6.822,3.048-13.264,3.429-20.101c0.073-1.316,0.997-2.216,2.522-2.217C150.984,220.896,160.23,219.389,169.547,219.957z"/>
<path style="fill:#000202;" d="M97.596,59.44c1.122,0,2.253-0.088,3.365,0.016c3.438,0.324,4.536,1.818,3.93,5.243
	c-0.151,0.851-0.469,1.688-0.51,2.542c-0.264,5.512-0.245,5.518-5.815,6.175c-0.99,0.117-1.993,0.125-2.98,0.261
	c-6.948,0.955-6.914,0.959-7.391-6.31c-0.096-1.46,0.197-2.858-1.794-3.979c-2.051-1.155-0.447-2.515,1.176-2.902
	C90.861,59.701,94.221,59.442,97.596,59.44z"/>
<path style="fill:#000202;" d="M373.501,150.348c-1.261-0.805-2.404-1.642-0.849-3.196c5.415-1.077,10.666,0.03,15.942,1.088
	c0.852,0.171,3.154,1.632,2.291-1.419c0.046-2.836-1.146-4.135-4.127-3.629c-1.704,0.289-3.294-0.191-4.008-1.996
	c-0.573-1.45-0.657-3.032,0.346-4.29c1.208-1.514,2.917-1.084,4.508-0.662c1.215,0.322,2.357,0.822,3.295,1.68
	c0.625,0.618,1.159,0.768,1.562-0.25c0.59-1.492,1.399-2.791,3.111-3.215c0.752-0.166,1.501-0.175,2.253-0.014
	c2.56,0.921,2.254,2.93,1.776,4.913c-0.318,1.32-1.165,2.446-1.641,3.72c-1.558,4.166-1.134,5.493,2.551,7.922
	c0.121,1.093,0.426,2.227-0.677,3.048c-2.196,1.213-4.384,0.364-6.564-0.045C386.685,152.765,380.149,151.253,373.501,150.348z"/>
<path style="fill:#000202;" d="M137.226,104.305c1.7-0.226,3.399-0.621,5.1-0.627c1.594-0.006,3.02,0.743,2.958,2.626
	c-0.059,1.792-1.512,1.954-2.95,2.1c-4.43,0.451-8.914,0.385-13.287,1.382c-2.061,0.614-4.171,0.186-6.257,0.277
	c-2.554,0.111-5.052-0.124-7.556,1.105c-2.018,0.99-4.398,0.414-6.455-0.615c-1.602-0.801-2.562-1.98-1.524-3.878
	c2.819-1.558,5.876-1.964,8.968-1.402C123.317,106.561,130.281,105.818,137.226,104.305z"/>
<path style="fill:#B1B2C3;" d="M380.334,172.675c2.094,5.796,5.924,7.749,12.191,6.355c2.052-0.457,4.155-0.804,6.25-0.919
	c4.595-0.252,6.563-2.346,6.133-7.034c-0.169-1.84-0.652-3.655-1.04-5.471c-0.632-2.959-0.67-5.868,0.571-8.698
	c1.943,1.03,2.147,2.785,2.098,4.737c-0.102,4.09,0.415,8.082,2.259,11.81c0.351,1.034,0.199,2.055-0.079,3.073
	c-3.141,6.484-9.101,5.179-14.549,5.243c-3.494,0.041-6.99,0.086-10.482-0.01c-4.351-0.12-5.694-2.672-3.651-6.534
	C380.408,174.52,380.248,173.532,380.334,172.675z"/>
<path style="fill:#B1B1C5;" d="M342.731,277.567c-0.184,2.205,0.784,4.053,1.588,6.035c1.969,4.849,2.27,10.022,2.291,15.205
	c-0.418,3.312-3.215,5.367-6.753,4.962c-4.309-0.493-5.41-1.914-5.178-6.685c3.002,0.591,5.295-1.332,5.654-4.896
	C340.828,287.261,341.617,282.389,342.731,277.567z"/>
<path style="fill:#B1B3C4;" d="M124.489,180.161c5.626-4.685,9.595-10.36,10.813-17.752c0.172-1.043,0.872-1.999,1.328-2.996
	c1.947-2.392,4.967-3.6,6.781-6.139l-0.043,0.057c0.141-0.293,0.295-0.398,0.462-0.315c0.173,0.085,0.26,0.174,0.26,0.266
	c-1.228,8.519-4.035,16.356-9.865,22.893C131.625,179.09,128.636,181.038,124.489,180.161z"/>
<path style="fill:#000202;" d="M391.527,147.213c0.948,0.482,1.808,1.135,1.242,2.294c-0.457,0.936-1.291,0.207-1.957,0.076
	c-6.003-1.186-12.053-2.023-18.16-2.431c1.75-0.721,2.83-1.339,2.933-3.912c0.182-4.541,2.845-8.699,3.187-13.363
	c0.082-1.115,1.234-1.795,2.257-1.417c5.304,1.96,11.075,1.372,16.404,3.119c1.285,1.081,0.611,2.325,0.295,3.54
	c-0.778,0.04-1.555,0.08-2.333,0.121c-0.824-0.987-1.948-0.55-2.969-0.613c-0.755,0.001-1.489-0.193-2.229-0.233
	c-2.41-0.132-5.335-2.155-7.086-0.166c-1.973,2.241-2.595,5.577-3.15,8.644c-0.324,1.79,0.62,2.867,2.356,3.183
	C385.363,146.608,388.351,147.669,391.527,147.213z"/>
<path style="fill:#000202;" d="M78.487,59.767c0.314-5.097,0.624-10.195,0.948-15.292c0.059-0.929-0.333-2.304,1.118-2.323
	c1.289-0.016,2,1.166,1.933,2.341c-0.135,2.353-0.465,4.701-0.818,7.035c-1.772,11.696,0.374,23.078,2.698,34.45
	c0.397,1.945,0.81,3.893,1.063,5.859c0.097,0.75,0.48,1.961-0.649,2.198c-1.106,0.232-1.915-0.729-2.125-1.694
	c-0.368-1.693-0.391-3.457-0.665-5.175C80.544,78.075,77.958,69.125,78.487,59.767z"/>
<path style="fill:#A9ABBF;" d="M311.341,288.169c0.428,0.25,0.834,0.556,1.289,0.743c4.914,2.015,5.203,1.77,4.713-3.414
	c-0.473-5.014,0.652-9.87,2.175-14.935c1.997,5.395,3.995,10.789,5.992,16.184c-1.554,3.919-4.422,6.039-8.652,6.001
	C313.884,292.72,311.525,291.686,311.341,288.169z"/>
<path style="fill:#AFAFBF;" d="M50.289,31.7c-2.01,0.764-3.455,1.984-3.839,4.267c-0.139,0.829-0.535,1.687-1.034,2.371
	c-1.94,2.661-3.948,4.912-0.714,8.4c1.644,1.773-0.907,7.803-3.288,9.785c-1.488-1.933-2.086-4.148-2.092-6.555
	c-0.01-3.917-0.012-3.922-4.212-4.033c-0.765-0.02-1.486-0.114-2.041-0.712c1.083-0.668,2.136-1.39,3.255-1.991
	c1.728-0.928-0.723-1.083-0.291-1.748c0.705-0.926,1.845-1.165,2.761-1.757c2.739-1.771,3.739-5.78,2.257-8.792
	c-0.47-0.955-1.532-1.652-1.3-2.921c1.981-0.365,3.86-0.094,5.574,0.946c1.168-1.143-0.347-3.025,1.228-3.982
	C47.978,27.117,47.287,30.435,50.289,31.7z"/>
<path style="fill:#000202;" d="M325.146,74.767c-0.266,8.989-0.166,17.979,0.951,26.918c0.091,0.727,0.359,1.63-0.555,1.924
	c-1.183,0.381-1.554-0.638-1.667-1.48c-0.35-2.593-0.69-5.197-0.831-7.807c-0.749-13.849-1.018-27.703-0.137-41.558
	c0.047-0.747,0.1-1.499,0.236-2.232c0.131-0.705,0.209-1.669,1.24-1.478c0.818,0.151,1.112,0.952,1.079,1.757
	c-0.086,2.12-0.286,4.239-0.302,6.359C325.118,63.035,325.146,68.902,325.146,74.767z"/>
<path style="fill:#ADAEC3;" d="M417.064,168.958c3.172,1.099,7.273,0.379,8.884,4.534c1.793,5.919,1.01,7.667-4.989,9.167
	c-2.612,0.653-3.284,1.694-3.179,4.255c0.079,1.946,1.146,4.234-0.846,5.954c0.517-6.473,0.27-12.95,0.117-19.427
	C417.015,171.948,417.057,170.453,417.064,168.958z"/>
<path style="fill:#ABA9BC;" d="M420.718,23.46c-0.802,2.338-1.056,4.794-3.834,6.195c-1.247,0.629-1.397,3.028-1.351,4.825
	c0.049,1.946-0.389,3.713-2.306,4.728c-0.3-6.186-0.106-12.25,2.37-18.138c1.445-3.436-1.328-3.476-3.67-3.48
	c0.598-3.089,2.402-4.389,5.496-3.578c2.985,0.783,4.823,2.479,4.173,5.865C421.365,21.084,421.015,22.267,420.718,23.46z"/>
<path style="fill:#A8A9BB;" d="M191.417,202.755c3.81-1.607,4.094-4.008,0.757-6.666c-1.451-1.156-0.835-2.734-0.863-4.133
	c-0.03-1.569,0.696-3.298-1.429-4.104c4.603-2.293,8.307,0.21,8.931,5.75c0.139,1.238-1.686,3.565,1.404,3.816
	c0.03,0.512,0.059,1.025,0.089,1.537c-0.292,2.65,1.004,3.706,3.536,3.529c0.844-0.059,1.68,0.016,2.507,0.188
	c0.504,0.539,0.659,1.337-0.149,1.401c-4.831,0.381-9.663,0.072-14.484-0.32C191.59,203.744,191.515,203.102,191.417,202.755z"/>
<path style="fill:#D5D6E4;" d="M378.835,218.509c3.025-1.681,6.324-0.892,9.388-0.57c2.612,0.275,4.713-0.278,7.052-1.134
	c3.161-1.156,6.491-2.755,9.684,0.29c1.145,1.092,2.505,0.688,3.676-0.344c2.239-1.973,4.329-1.693,6.605,0.173
	c1.809,1.483,3.978,2.497,6.307,3.04c-3.686,1.614-7.596,0.878-11.302,0.57c-7.516-0.625-15.036-0.987-22.563-1.244
	C384.71,219.187,381.753,219.138,378.835,218.509z"/>
<path style="fill:#000202;" d="M352.195,85.368c-5.871,0-11.741-0.018-17.612,0.013c-1.453,0.008-3.115,0.028-2.934-1.884
	c0.192-2.027,1.963-1.339,3.271-1.23c10.842,0.902,21.711,1.035,32.58,1.168c1.755,0.021,3.508-0.123,5.135-0.862
	c0.74-0.337,1.495-0.616,1.914,0.273c0.483,1.024-0.206,1.664-1.082,2.02c-1.405,0.57-2.882,0.752-4.404,0.745
	c-5.623-0.025-11.246-0.01-16.869-0.01C352.195,85.523,352.195,85.446,352.195,85.368z"/>
<path style="fill:#000202;" d="M345.657,76.779c7.737,0,15.474-0.006,23.211,0.004c1.852,0.003,3.759,0.433,5.382-0.933
	c0.363-0.305,0.864-0.59,1.318-0.166c0.532,0.497,0.448,1.135,0.145,1.715c-0.814,1.555-2.225,1.844-3.818,1.769
	c-12.349-0.583-24.698-1.332-37.051-0.05c-1.066,0.111-2.161-0.027-2.305-1.296c-0.182-1.606,1.053-1.718,2.25-1.718
	c3.623,0.002,7.246,0.001,10.869,0.001C345.658,76.329,345.658,76.554,345.657,76.779z"/>
<path style="fill:#000202;" d="M39.75,28.013c2.319,2.067,3.988,4.463,2.954,7.725c-1.018,3.211-2.753,5.802-6.672,5.745
	c-3.42-3.281-3.958-10.926-0.887-14.137C36.857,25.556,38.237,27.586,39.75,28.013z"/>
<path style="fill:#000202;" d="M33.068,45.222c0.845-0.09,1.715-0.083,2.532-0.286c3.862-0.955,5.635,0.357,4.761,4.152
	c-0.64,2.778,1.72,4.837,1.053,7.434c-5.941,2.077-7.594,1.201-8.601-4.78C32.45,49.585,31.727,47.343,33.068,45.222z"/>
<path style="fill:#AEAFC1;" d="M273.739,225.285c-4.125-1.674-7.71-4.087-10.457-7.645c4.97-1.005,10.22-0.041,15.036-2.137
	c-1.218,2.615,0.325,5.478-0.84,8.176C276.631,225.637,275.832,226.695,273.739,225.285z"/>
<path style="fill:#000202;" d="M334.677,70.662c11.56,0.27,23.119,0.554,34.679,0.788c1.01,0.02,2.255-0.3,2.281,1.09
	c0.024,1.326-1.234,1.272-2.251,1.261c-11.443-0.116-22.887-0.218-34.33-0.345c-1.833-0.02-3.21-0.493-2.127-2.788
	C333.511,70.239,334.093,70.24,334.677,70.662z"/>
<path style="fill:#000202;" d="M50.289,31.7c-2.828,0.344-4.322-0.601-3.772-3.733c0.17-0.969,0.032-1.992,0.035-2.99
	c2.569-1.489,5.823-0.374,8.307-2.187c1.792-0.878,3.485-0.781,4.451,1.092c1.112,2.156,2.801,4.399,1.724,6.952
	c-0.846,2.006-3.108,1.828-4.92,1.857c-1.461,0.023-2.947-0.326-4.301-1.002C51.304,31.693,50.796,31.696,50.289,31.7z"/>
<path style="fill:#A9AABB;" d="M397.728,135.118c-1.402-1.071,0.384-2.408-0.295-3.54c6.228,0.728,6.945,1.946,4.955,7.792
	c-1.276,3.749-2.416,7.564-1.875,11.626c-4.778-0.393-4.986-0.638-4.335-5.355c0.291-2.109,1.075-4.006,2.201-5.84
	C399.355,138.211,400.043,136.381,397.728,135.118z"/>
<path style="fill:#9E9FB1;" d="M147.053,206.487c5.775,0.047,11.57-0.468,17.309,0.601c-3.986,0.014-7.977,0.156-11.955-0.005
	c-2.465-0.1-3.378,0.691-3.091,3.187c0.197,1.717-0.02,3.482-0.051,5.225c-1.11-0.05-2.242,0.024-3.327-0.17
	c-4.96-0.89-6.199,0.431-5.123-6.109c0.339-2.058,0.838-2.848,2.91-2.599C144.814,206.747,145.943,206.541,147.053,206.487z"/>
<path style="fill:#9190A2;" d="M107.256,106.674c-0.228,3.906,2.881,3.644,5.105,3.589c5.561-0.138,11.107-0.839,16.687-0.478
	c-3.636,1.597-7.523,0.047-11.372,0.944c-0.274,1.605,4.731,3.324,0.072,5.09c-0.396,0.15,1.871,1.388,1.575,2.843
	c-5.635-3.683-10.931-8.036-17.919-9.035c-1.862-1.299-4.312,0.126-6.142-1.324C99.36,108.491,103.338,107.805,107.256,106.674z"/>
<path style="fill:#000202;" d="M66.53,78.617c-2.342-0.762-4.696-1.481-7.012-2.305c-0.92-0.327-1.874-0.747-2.311-1.752
	c-0.295-0.677-0.675-1.424-0.107-2.093c0.702-0.827,1.257-0.184,1.838,0.294c1.891,1.559,4.199,2.028,6.52,2.526
	c2.461,0.528,5.244,1.718,3.754-2.877c-0.209-0.645,0.187-1.277,0.921-1.334c0.835-0.065,1.526,0.527,1.683,1.221
	c0.405,1.794,0.701,3.57,1.822,5.137c0.444,0.622,0.108,1.556-0.675,1.882c-2.096,0.874-3.982,1.994-5.436,3.785
	c-0.434,0.535-1.14,0.686-1.615,0.144c-0.37-0.422-0.744-1.15-0.63-1.625C65.531,80.585,66.091,79.622,66.53,78.617z"/>
<path style="fill:#B9BBCC;" d="M377.291,233.49c0.751-0.255,1.502-0.511,2.253-0.766c3.797-0.337,4.86-2.306,2.925-5.265
	c-1.291-1.974-2.44-4.04-3.652-6.066c0.039-0.3,0.077-0.6,0.116-0.901c3.031,2.36,6.241,4.523,8.582,7.65
	c1.048,1.4,2.484,3.045,1.405,4.698c-1.137,1.742-3.087,2.84-5.409,2.859C381.154,235.718,379.279,234.465,377.291,233.49z"/>
<path style="fill:#000202;" d="M171.946,44.455c2.915-0.322,6.749-0.726,10.576-1.178c1.227-0.145,2.488-0.676,2.882,1.23
	c0.393,1.901-0.86,2.081-2.144,2.193c-4.827,0.42-9.654,0.854-14.489,1.149c-1.068,0.065-2.192-0.34-3.249-0.665
	c-0.765-0.236-1.259-0.887-1.093-1.729c0.18-0.915,0.972-0.999,1.747-0.999C167.79,44.455,169.405,44.455,171.946,44.455z"/>
<path style="fill:#ADB0BE;" d="M373.501,150.348c7.491-0.267,14.721,1.374,21.96,2.975c1.441,0.319,2.916,0.486,4.375,0.723
	c-0.757,0.717-1.513,1.434-2.27,2.151c-5.789,0.823-11.582,1.234-17.39,0.18c3.727,0,7.455,0,11.182,0
	C385.595,153.53,379.308,152.696,373.501,150.348z"/>
<path style="fill:#B6B9CB;" d="M250.512,160.673c4.553-1.977,9.377-2.904,14.243-3.645c2.913-0.444,2.446,2.098,3.105,3.633
	c-4.025,0.741-8.059,1.438-12.073,2.239C253.471,163.362,252.067,161.894,250.512,160.673z"/>
<path style="fill:#000202;" d="M211.61,144.555c-0.599,1.565-1.749,2.258-3.271,2.607c-4.378,1.004-8.808,1.521-13.295,1.68
	c-1.638,0.058-2.784-0.493-2.815-2.178c-0.035-1.931,1.394-1.537,2.676-1.444c4.117,0.299,8.169-0.444,12.241-0.879
	C208.559,144.189,210.016,143.559,211.61,144.555z"/>
<path style="fill:#000202;" d="M202.061,138.912c3.105,0.204,6.211,0.404,9.315,0.617c0.782,0.054,1.536,0.251,1.584,1.207
	c0.061,1.201-0.806,1.446-1.739,1.384c-5.365-0.356-10.692,0.248-16.028,0.604c-1.414,0.094-2.584-0.281-2.566-1.929
	c0.02-1.903,1.437-1.564,2.707-1.525c2.238,0.068,4.479,0.019,6.718,0.019C202.055,139.163,202.058,139.037,202.061,138.912z"/>
<path style="fill:#000202;" d="M144.089,153.283c-0.242-0.002-0.483,0.014-0.722,0.049c0.116-0.848,1.093-1.775-0.224-2.495
	c0.787-0.718,1.574-1.436,2.361-2.154c5.027-3.581,10.048-7.17,15.086-10.736c0.881-0.623,1.646-1.556,2.924-1.333
	c0.472,1.256,1.554,2.482,0.194,3.83c-0.297-2.205-1.32-1.143-2.204-0.469C155.693,144.404,149.893,148.845,144.089,153.283z"/>
<path style="fill:#A8A7B9;" d="M252.732,204.16c-5.315-1.762-10.791-0.487-16.183-0.81c-3.747-0.225-4.65-1.001-3.654-4.707
	c0.418-1.555,0.692-2.855-0.339-4.182c3.926-0.078,5.889,2.338,6.541,5.743c0.411,2.143,1.379,2.49,3.244,2.456
	c3.566-0.066,7.153-0.32,10.687,0.428c0.111,0.023,0.237,0.437,0.187,0.624C253.168,203.892,252.902,204.013,252.732,204.16z"/>
<path style="fill:#000202;" d="M191.143,135.136c0.087-2.719,3.041-4.515,4.872-3.128c2.976,2.254,6.166,1.266,9.291,1.52
	c1.112,0.09,2.865-0.674,2.965,1.14c0.094,1.718-1.764,1.466-2.869,1.631c-2.698,0.403-5.443,0.619-8.139,0.056
	c-1.014-0.212-1.824-0.432-2.767,0.257C191.689,138.661,191.609,136.254,191.143,135.136z"/>
<path style="fill:#000202;" d="M210.692,91.328c-0.824,1.443-2.236,1.021-3.372,1.033c-5.871,0.063-11.704,0.479-17.503,1.419
	c-0.825,0.134-1.745,0.041-2.552-0.188c-0.611-0.174-0.929-0.921-0.77-1.536c0.097-0.374,0.637-0.88,1.002-0.9
	c7.441-0.415,14.862-1.825,22.337-0.516C210.145,90.695,210.398,91.083,210.692,91.328z"/>
<path style="fill:#000202;" d="M334.677,70.662c-0.583,0.002-1.165,0.004-1.748,0.005c0.343-0.885-0.289-1.353-0.776-1.92
	c-0.892-1.038-1.14-2.448-0.61-3.513c0.967-1.942,1.779,0.519,2.506,0.354c6.119-1.394,11.416,2.755,17.35,2.471
	c0.432-0.021,0.909,0.334,0.933,1.438c-4.302,0.461-8.481-0.063-12.625-1.38C337.268,67.342,335.116,67.372,334.677,70.662z"/>
<path style="fill:#B1B0C0;" d="M357.809,223.696c-2.163-1.664-4.331-3.322-6.484-5c-0.382-0.298-0.966-0.657-1.001-1.031
	c-0.422-4.511-1.376-9.025-0.137-13.553c0.019,0.87,0.084,1.741,0.049,2.609c-0.162,4.017-0.056,7.416,5.126,8.811
	C359.352,216.606,358.835,220.392,357.809,223.696z"/>
<path style="fill:#AEADBA;" d="M51.811,31.689c2.229-0.001,4.467,0.119,6.685-0.037c1.99-0.14,3.097-1.02,1.72-3.159
	c-1.438-2.234-0.812-6.392-5.358-5.703c3.847-2.363,6.554-1.703,8.371,2.043c1.458,3.006-0.04,6.561-3.269,8.019
	C56.961,34.206,54.214,34.276,51.811,31.689z"/>
<path style="fill:#000202;" d="M209.602,85.392c-2.652,1.641-5.202,1.115-7.574,1.381c-4.06,0.455-8.15,0.642-12.221,1.019
	c-1.147,0.106-2.049-0.166-2.373-1.246c-0.322-1.074,0.43-1.627,1.43-1.663c6.439-0.229,12.871-0.927,19.322-0.345
	C208.502,84.567,208.791,84.891,209.602,85.392z"/>
<path style="fill:#000202;" d="M199.012,80.224c4.309-0.258,7.288-0.461,10.271-0.598c0.686-0.032,1.675-0.238,1.824,0.766
	c0.189,1.279-0.963,1.296-1.764,1.363c-4.461,0.375-8.929,0.676-13.394,1.013c-1.484,0.112-2.983,0.155-4.443,0.412
	c-1.34,0.237-2.751,0.405-2.873-1.283c-0.132-1.818,1.591-1.614,2.749-1.646C194.367,80.169,197.355,80.224,199.012,80.224z"/>
<path style="fill:#000202;" d="M197.357,43.527c-3.108,3.106-6.163,3.9-8.874,2.27c-1.534-0.922-2.391-2.29-1.77-4.048
	c0.458-1.295,0.965-3.086,3.076-1.782c0.713,0.509,0.635,1.478,1.25,2.141c0.239-0.714-0.575-1.559,0.323-2.093
	c3.868-1.911,4.955,0.765,5.945,3.6C197.309,43.612,197.357,43.527,197.357,43.527z"/>
<path style="fill:#000202;" d="M46.896,72.4c0.633,0,0.89-0.042,1.128,0.007c1.543,0.315,4.052,0.134,4.127,1.738
	c0.095,2.043-2.408,1.413-3.86,1.696c-2.187,0.426-4.509,0.464-6.422,1.715c-1.353,0.885-2.259,0.873-2.976-0.61
	c-0.795-1.643,0.02-2.619,1.477-3.184C42.586,72.902,44.919,72.553,46.896,72.4z"/>
<path style="fill:#000202;" d="M105.681,47.238c2.395,0.132,4.48,0.82,4.568,3.434c0.085,2.506-2.202,2.855-3.982,2.83
	c-2.317-0.032-4.936-0.29-5.062-3.566C101.066,46.309,104.264,48.163,105.681,47.238z"/>
<path style="fill:#000202;" d="M126.4,67.507c-5.048,1.342-9.957,1.014-14.815,1.145c-0.812,0.022-1.382-0.546-1.474-1.395
	c-0.086-0.795,0.162-1.72,1.031-1.651c4.796,0.382,9.671-0.883,14.396,0.689C125.798,66.382,125.937,66.836,126.4,67.507z"/>
<path style="fill:#000202;" d="M43.618,83.473c-0.913-1.202-3.168-1.632-2.605-3.645c0.549-1.966,2.657-1.388,4.1-1.831
	c0.927-0.285,1.945-0.333,2.926-0.372c1.627-0.065,3.253,0.484,3.286,2.227c0.031,1.673-1.781,1.198-2.9,1.431
	c-1.198,0.25-2.391,0.52-3.661,0.797c0.701,1.385,1.773,0.26,2.534,0.651C46.5,85.109,45.06,84.3,43.618,83.473z"/>
<path style="fill:#000202;" d="M127.425,86.83c-4.167,1.216-8.456,0.983-12.717,1.015c-1.003,0.008-1.55-0.673-1.46-1.755
	c0.074-0.882,0.583-1.512,1.398-1.435C118.906,85.057,123.332,84.356,127.425,86.83z"/>
<path style="fill:#000202;" d="M125.872,62.76c-4.978,0.427-9.953,0.885-14.935,1.256c-0.977,0.073-1.598-0.597-1.637-1.624
	c-0.04-1.069,0.575-1.654,1.584-1.636C115.919,60.843,121.006,60.383,125.872,62.76z"/>
<path style="fill:#000202;" d="M122.111,78.685c0.231,0.019,0.992-0.011,1.702,0.165c0.926,0.229,2.266,0.402,2.187,1.579
	c-0.104,1.547-1.554,0.751-2.383,0.803c-2.25,0.14-4.414,0.485-6.455,1.507c-1.188,0.595-2.65,1.586-3.328-0.468
	c-0.614-1.862,1.002-2.219,2.302-2.66C117.908,79.009,119.723,78.662,122.111,78.685z"/>
<path style="fill:#000202;" d="M126.752,90.503c-3.75,2.363-7.076,3.038-10.683,2.484c-0.962-0.148-1.516-0.896-1.43-1.877
	c0.105-1.196,1.009-1.289,1.919-1.054C119.638,90.854,122.84,88.868,126.752,90.503z"/>
<path style="fill:#000202;" d="M351.044,52.835c1.815,0.284,3.054,1.41,3.178,3.342c0.13,2.014-1.45,2.449-2.999,2.319
	c-1.791-0.15-3.504-0.823-3.346-3.07C347.998,53.714,349.22,52.911,351.044,52.835z"/>
<path style="fill:#000202;" d="M183.735,81.192c-3.713,1.911-6.745,1.19-9.601,1.628c-0.788,0.121-1.303-0.633-1.41-1.427
	c-0.123-0.905,0.434-1.425,1.259-1.471C177.018,79.753,179.918,80.385,183.735,81.192z"/>
<path style="fill:#000202;" d="M183.94,86.012c-3.421,1.272-6.422,1.078-9.319,1.469c-1.078,0.146-2.082-0.358-2.036-1.595
	c0.048-1.257,1.218-1.021,2.017-0.999C177.531,84.965,180.643,83.751,183.94,86.012z"/>
<path style="fill:#000202;" d="M182.807,91.033c-2.991,1.948-5.761,1.388-8.414,1.417c-0.946,0.011-1.735-0.566-1.574-1.647
	c0.136-0.916,0.974-1.1,1.744-0.937C177.049,90.391,179.738,89.357,182.807,91.033z"/>
<path style="fill:#000202;" d="M43.618,83.473c1.255-0.103,2.645,0.458,3.679-0.742c1.068-0.212,2.356-0.692,2.731,0.823
	c0.27,1.094-0.788,1.744-1.61,2.226c-1.26,0.738-2.717,1.61-4.12,0.975C42.979,86.159,43.433,84.669,43.618,83.473z"/>
<path style="fill:#B1B2C3;" d="M409.463,150.926c0.184,6.807,0.35,13.614-0.544,20.393
	C408.704,164.511,408.308,157.698,409.463,150.926z"/>
<path style="fill:#A8A9BB;" d="M170.941,202.116c0.786,0.173,1.412,0.992,2.343,0.584c2.984,0.218,5.97,0.146,8.959,0.108
	c1.135-0.014,2.489-0.247,3.088,1.23c-5.296,0.16-10.596,0.425-15.862-0.463C170.188,203.32,171.106,203.265,170.941,202.116z"/>
<path style="fill:#000202;" d="M290.873,211.717c1.301,0.265,2.317,0.869,2.418,2.065c0.145,1.701-1.392,1.836-2.54,2.003
	c-1.208,0.175-1.766-0.695-1.769-1.818C288.978,212.664,289.83,212.048,290.873,211.717z"/>
<path style="fill:#000202;" d="M15.08,210.097c1.067,1.91,0.585,3.208-1.526,3.862C12.335,210.201,12.447,209.916,15.08,210.097z"/>
<path style="fill:#B8BCC3;" d="M191.363,40.015c-0.621,1.701,1.514,1.635,1.798,2.76c-3.253,1.485-3.253,1.485-3.371-2.809
	C190.314,39.983,190.839,39.999,191.363,40.015z"/>
<path style="fill:#FBFBFC;" d="M206.529,56.42c-4.158,1.919-8.32,3.826-12.468,5.768c-0.702,0.329-1.404,0.657-2.143,0.342
	c-4.539-1.935-9.077-3.876-13.203-6.882C188.054,54.378,197.287,54.594,206.529,56.42z"/>
<path style="fill:#FAFAFA;" d="M189.608,64.381c-4.595,2.386-8.536,4.45-12.496,6.478c-1.457,0.746-2.703,0.581-3.234-1.18
	c-1.224-4.061-1.171-8.11,0.342-12.094c0.319-0.839,1.237-1.909,1.759-0.637c1.438,3.502,5.129,3.025,7.562,4.711
	C185.121,62.754,187.092,63.284,189.608,64.381z"/>
<path style="fill:#F9FAFB;" d="M206.615,73.041c-8.641,0-17.045,0-26.547,0c4.417-3.172,8.368-4.843,12.179-6.751
	c0.843-0.422,1.682-0.192,2.53,0.121C199.004,67.972,202.91,70.085,206.615,73.041z"/>
<path style="fill:#F9F9FA;" d="M210.002,72.405c-4.549-2.844-8.443-5.726-13.345-7.963c4.162-2.602,8.193-4.103,12.28-5.471
	c2.097-0.702,1.959,0.823,1.882,2.072C210.597,64.653,210.305,68.259,210.002,72.405z"/>
<path style="fill:#FCFDFD;" d="M367.559,203.451c-0.266-1.075-0.631-2.137-0.774-3.228c-0.221-1.695-2.808-2.998-1.519-4.544
	c0.731-0.876,3.037-0.437,4.634-0.591c16.524,0.521,32.969,2.209,49.451,3.338c1.985,0.136,2.74,0.92,2.334,2.77
	c-0.495,2.254,0.665,4.697-0.814,6.825c-1.017-0.275-2.033-0.55-3.05-0.825c-13.759-0.042-27.445-1.743-41.204-1.789
	c-0.501-0.002-0.982-0.124-1.443-0.317c-1.265,1.362-2.6,2.574-4.684,2.162C369.514,205.985,368.536,204.718,367.559,203.451z"/>
<path style="fill:#FBFBFC;" d="M264.011,144.844c-2.567,2.269-0.27,4.501,0.409,6.418c0.969,2.735,0.087,3.232-2.301,3.432
	c-2.344,0.197-4.731,0.476-6.974,1.142c-3.044,0.904-4.711,0.216-5.934-2.9c-2.166-5.517-3.24-11.218-3.986-17.037
	c-0.279-2.179,0.092-3.251,2.702-2.791c5.494,0.969,10.597-0.411,15.385-3.131c1.856,3.55,2.083,7.524,2.976,11.327
	C266.768,143.343,265.435,144.094,264.011,144.844z"/>
<path style="fill:#F8F9FB;" d="M340.192,91.64c8.704,0.544,17.408,1.089,27.147,1.698c-3.569,2.174-6.249,3.85-8.985,5.43
	c-0.468,0.27-1.252,0.33-1.761,0.141C351.044,96.839,345.375,95.055,340.192,91.64z"/>
<path style="fill:#F0F1F3;" d="M360.734,100.124c3.059-2.073,5.567-3.563,8.405-4.473c1.782-0.571,2.954-0.433,2.701,1.903
	c-0.106,0.982-0.043,1.986-0.023,2.979c0.04,2.093-0.728,2.984-2.924,2.207C366.456,101.879,363.97,101.154,360.734,100.124z"/>
<path style="fill:#FEFEFE;" d="M340.546,131.466c10.658,4.955,18.762,22.453,15.545,33.564
	c-3.929,13.573-16.366,21.447-30.908,19.562c-4.941-0.641-9.839-1.505-14.63-2.903c-2.809-2.037-5.861-3.68-8.535-5.967
	c-5.129-4.389-6.039-9.757-4.425-15.893C302.88,139.721,319.545,128.729,340.546,131.466z"/>
<path style="fill:#FBFBFD;" d="M65.413,215.341c-1.127,2.435-3.302,0.058-4.747,1.033c-0.632,1.318-1.873,1.545-3.119,1.665
	c-12.377,1.199-24.786,0.913-37.192,0.78c-1.121-0.012-2.234-0.226-3.04-1.155c-1.043-1.283-0.766-2.835-0.891-4.311
	c-0.111-1.312,0.329-1.631,1.711-1.512c13.482,1.16,26.94,0.335,40.391-0.662c0.623-0.046,1.274,0.013,1.864-0.149
	C64.228,209.974,65.614,211.72,65.413,215.341z"/>
<path style="fill:#000202;" d="M17.315,217.664c13.265,0.229,26.527,0.33,39.771-0.692c1.218-0.094,2.493,0.252,3.58-0.598
	c0.742,1.441,4.003-0.267,3.425,2.332c-0.482,2.165-2.633,2.661-4.833,2.609c-11.979-0.284-23.903,0.633-35.809,1.811
	c-1.717,0.17-3.394,0.723-5.094,1.082c-2.859,0.604-3.919-0.499-3.387-3.505C16.208,220.043,15.488,217.87,17.315,217.664z"/>
<path style="fill:#FFFFFF;" d="M77.384,236.029c-0.435,1.431,1,3.461-1.377,3.818c-1.952,0.293-1.87-1.681-2.287-2.814
	c-2.897-7.857-6.223-24.438-5.978-32.236c0.245-3.237,0.809-1.941,2.501-1.962c1.375-0.017,6.757,1.336,7.062,3.825
	C73.088,207.887,76.308,228.055,77.384,236.029z"/>
<path style="fill:#000202;" d="M138.046,154.67c-0.4,0.817-0.916,1.527-1.95,1.391c-0.956-0.126-1.117-0.928-1.046-1.674
	c0.378-3.966-1.302-7.804-0.697-11.778c1.049,3.323,1.53,6.748,1.323,10.205C135.55,154.904,136.451,155.081,138.046,154.67z"/>
<path style="fill:#FEFEFE;" d="M58.452,157.496c-2.847-5.047-2.366-10.586-1.963-15.963c1.445-19.315,15.382-31.824,34.277-30.993
	c2.063,0.091,4.283-0.097,5.949,1.602c7.636,2.678,14.551,6.588,21.01,11.498c12.053,9.164,14.607,25.961,11.548,36.452
	c-0.282,0.968-3.093,8.421-3.438,9.163c-3.068,6.59-7.807,11.499-15.186,12.575c-5.09,0.742-9.249,4.562-14.711,3.803
	c-12.772-1.774-23.453-7.503-31.92-17.107c-3.248-3.684-3.754-8.321-1.965-13.031c0.517-1.36,1.086-2.7,1.657-4.112
	C59.654,150.998,59.207,151.545,58.452,157.496z"/>
<path style="fill:#000202;" d="M143.41,153.275c-1.288,3.12-4.252,4.389-6.781,6.138C137.86,156.231,140.89,155.033,143.41,153.275z
	"/>
<path style="fill:#000202;" d="M375.175,205.089c3.967-1.843,8.109-0.744,12.141-0.537c9.088,0.466,18.145,1.542,27.266,1.347
	c1.281-0.027,2.528-0.059,3.239,1.297c1.247,4.582,0.751,4.984-4.086,4.741c-10.288-0.517-20.587-0.83-30.882-1.217
	c-0.619-0.023-1.251-0.026-1.859,0.072C375.526,211.67,374.892,211.056,375.175,205.089z"/>
<path style="fill:#FAFAFC;" d="M216.728,203.932c-1.735,0-3.471-0.026-5.205,0.008c-1.344,0.027-2.165-0.516-2.171-1.915
	c-0.007-1.373,0.414-2.382,2.086-2.455c3.592-0.156,7.184-0.362,10.769-0.638c2.012-0.155,2.124,1.045,2.229,2.553
	c0.115,1.651-0.56,2.249-2.125,2.21c-1.86-0.047-3.721-0.011-5.582-0.011C216.728,203.767,216.728,203.849,216.728,203.932z"/>
<path style="fill:#E1E6E9;" d="M185.33,204.038c-2.806-1.189-5.767-0.233-8.632-0.622c-1.157-0.157-2.47,0.454-3.414-0.716
	c0.071-0.61,0.143-1.219,0.254-2.17c1.596,1.074,3.723,4.675,4.127-2.45c1.785,6.335,5.505,2.357,7.918,3.933
	c0.459,0.3,2.003-0.111,2.891,0.686C188.276,205.138,186.557,204.012,185.33,204.038z"/>
<path style="fill:#FDFDFD;" d="M206.349,202.673c-2.114,1.365-4.492,1.372-6.411,0.133c-0.808-0.521-1.116-2.673,0.368-3.85
	c0.661,1.145,1.751,1.265,2.854,1.034C205.428,199.515,206.284,200.593,206.349,202.673z"/>
<path style="fill:#F4F6F7;" d="M399.217,170.258c-3.921,3.632-8.182,4.64-12.706,4.984c-1.933,0.147-2.583-1.017-2.92-2.658
	c-0.761-3.709-0.266-7.444-0.331-11.168c-0.029-1.674,1.178-1.643,2.304-1.691c2.735-0.116,5.483-0.081,8.205-0.335
	c3.402-0.317,4.289,1.584,4.511,4.452c0.252,3.261-1.847,3.649-4.272,3.739c-0.745,0.028-1.492,0.021-2.237-0.01
	c-1.105-0.047-2.706-0.339-2.762,1.039c-0.069,1.695,1.598,1.893,3.038,1.968C394.242,170.691,396.345,169.409,399.217,170.258z"/>
<path style="fill:#F6F8F9;" d="M182.014,196.045c-2.602,0.157-5.934,0.405-9.27,0.53c-1.048,0.039-2.666,0.276-2.812-1.057
	c-0.139-1.267,0.74-2.836,2.169-3.06c4.894-0.764,9.829-1.394,14.799-0.966c2.049,0.176,1.434,1.983,1.542,3.225
	c0.13,1.499-0.917,1.408-1.979,1.345C185.227,195.99,183.985,196.045,182.014,196.045z"/>
<path style="fill:#C7CED2;" d="M100.921,80.853c-0.764,1.268-1.228,2.939-3.094,2.322c-0.64-0.212-1.39-1.112-1.032-1.73
	C97.757,79.787,99.448,80.973,100.921,80.853z"/>
<path style="fill:#E2E8ED;" d="M104.288,82.09c0.129,2.488,0.978,4.042-0.502,5.008c-0.657,0.429-1.811-0.376-2.102-1.081
	C100.852,83.994,102.968,83.96,104.288,82.09z"/>
<path style="fill:#ECF0F4;" d="M94.346,84.181c0.888,0.115,1.51,0.529,1.649,1.308c0.181,1.019-0.575,1.618-1.38,1.883
	c-0.816,0.268-1.017-0.476-0.973-1.093C93.696,85.53,93.242,84.531,94.346,84.181z"/>
<path style="fill:#E4E6E9;" d="M91.656,62.708c3.46-0.572,6.48-0.96,9.704-0.684C98.202,67.444,95.793,67.663,91.656,62.708z"/>
<path style="fill:#E5E7EB;" d="M91.191,70.958c-0.762-0.588-0.474-1.379-0.534-2.056c-0.061-0.694,0.048-1.403,0.087-2.207
	c1.464,0.171,2.846,0.508,2.829,1.911C93.559,69.805,92.423,70.629,91.191,70.958z"/>
<path style="fill:#D3D6DE;" d="M101.939,70.098c-1.266-0.802-2.669-0.941-2.21-2.436c0.122-0.399,1.137-0.925,1.491-0.78
	C102.592,67.443,102.06,68.669,101.939,70.098z"/>
<path style="fill:#F7F9FA;" d="M391.527,147.213c-0.457,1.867-1.907,1.242-3.028,1.093c-1.726-0.23-3.415-0.715-5.134-1.01
	c-5.31-0.911-5.727-1.597-3.949-6.79c0.957-2.794,1.177-6.713,3.137-8.03c1.742-1.171,5.424,0.554,8.252,0.987
	c0.74,0.113,1.487,0.177,2.231,0.264c0.718,3.093,0.023,4.716-2.245,5.241c-1.123-1.06-2.583-1.444-3.977-1.939
	c-1.054-0.374-2.305-0.854-3.165,0.074c-0.997,1.075-0.769,2.626-0.403,3.882c0.343,1.177,1.586,1.45,2.773,1.421
	c0.248-0.006,0.493-0.085,0.741-0.091C392.145,142.2,392.145,142.201,391.527,147.213z"/>
<path style="fill:#A9AABB;" d="M390.791,138.968c2.593-0.957,1.999-3.279,2.245-5.241c0.814,0.46,2.996-1.213,2.358,1.512
	c-1.755,0.732-1.795,2.481-2.422,3.925C392.208,140.927,391.376,140.65,390.791,138.968z"/>
<path style="fill:#9698A5;" d="M39.063,33.951c-0.368,1.402-0.381,3.302-2.083,3.523c-1.277,0.166-1.01-1.459-0.945-2.337
	c0.107-1.444,0.238-3.294,1.9-3.572C38.978,31.391,38.939,32.984,39.063,33.951z"/>
<path style="fill:#A1A1AD;" d="M52.244,28.802c-0.996-0.304-2.639,0.366-2.256-1.211c0.428-1.763,2.521-1,3.788-1.608
	c0.747-0.358,1.519,0.353,1.443,1.158C55.021,29.215,53.17,28.293,52.244,28.802z"/>
<path style="fill:#000202;" d="M257.556,139.096c1.374,1.309,2.761,0.141,4.148,0.035c0.989-0.075,2.25-0.21,2.545,0.959
	c0.346,1.373-1.002,1.416-1.917,1.708c-2.247,0.716-4.54,1.322-6.72,2.204c-4.79,1.937-4.766,1.996-5.154-2.758
	C252.442,139.269,254.579,137.794,257.556,139.096z"/>
<path style="fill:#000202;" d="M257.556,139.096c-2.619-0.118-4.652,1.698-7.099,2.149c-1.143-0.78-2.268-2.153-0.284-2.578
	c3.862-0.827,7.723-2.196,11.841-1.612C260.656,138.11,259.394,139.241,257.556,139.096z"/>
<path style="fill:#000202;" d="M313.914,154.552c1.907,0.098,2.186,1.321,2.215,2.585c0.024,1.056-0.679,1.523-1.716,1.365
	c-1.293-0.197-2.48-0.694-2.562-2.174C311.767,154.805,313.062,154.739,313.914,154.552z"/>
<path style="fill:#000202;" d="M322.449,159.118c-0.024,1.185-0.796,1.634-1.69,1.483c-1.18-0.199-2.508-0.598-2.586-2.097
	c-0.062-1.195,0.927-1.655,1.968-1.676C321.674,156.798,322.142,157.937,322.449,159.118z"/>
<path style="fill:#000202;" d="M103.884,148.665c1.248,0.163,1.848,1.072,1.891,2.25c0.048,1.329-0.991,1.523-2.039,1.484
	c-1.188-0.045-2.303-0.389-2.2-1.835C101.626,149.301,102.511,148.655,103.884,148.665z"/>
<path style="fill:#000202;" d="M111.443,148.802c1.508,0.337,2.06,1.382,2.091,2.5c0.042,1.506-1.263,1.216-2.206,1.207
	c-1.32-0.012-2.191-0.563-1.902-2.056C109.652,149.279,110.577,148.954,111.443,148.802z"/>
<path style="fill:#000202;" d="M396.351,164.512c-2.874,1.277-5.259,2.166-7.892,2.059c-1.033-0.042-2.025-0.412-2.076-1.663
	c-0.058-1.429,1.092-1.525,2.067-1.46C390.915,163.612,393.558,162.135,396.351,164.512z"/>
<polyline style="fill:#2BADBE;" points="243.027,132.612 251.1,159.035 267.248,156.099 265.78,145.456 270.918,149.86 
	266.881,127.107 241.627,133.229 "/>
<polygon style="fill:#2BADBE;" points="250.366,79.399 292.57,79.766 292.57,97.748 255.137,98.849 "/>
<path style="fill:#000202;" d="M265.707,50.149c-4.526-3.616-10.036-0.579-15.408-0.728c-0.79-0.022-1.89-0.068-1.984-1.245
	c-0.108-1.361,0.935-1.537,1.97-1.693c2.087-0.315,4.166-0.688,6.254-1c1.99-0.297,4.195,0.109,5.262-2.448
	c0.355-0.85,1.72-0.77,2.72-0.903c3.202-0.425,6.412-0.837,9.582-1.446c2.374-0.456,3.596,0.176,4.401,2.622
	c1.032,3.136,0.397,4.54-2.992,5.009C272.456,48.739,269.525,49.952,265.707,50.149z"/>
<path style="fill:#000202;" d="M250.147,108.324c-1.794-1.718-1.981-3.75-2.315-5.607c-3.009-16.742-4.856-33.576-3.663-50.623
	c0.061-0.866-0.503-2.368,1.066-2.25c1.263,0.095,1.652,1.39,1.593,2.594c-0.225,4.607-0.644,9.21-0.706,13.818
	c-0.175,13.026,2.148,25.8,4.124,38.605C250.394,105.82,250.885,106.769,250.147,108.324z"/>
<path style="fill:#000202;" d="M277.161,109.727c5.737,0,11.475-0.011,17.212,0.012c0.889,0.004,2.306-0.565,2.251,1.029
	c-0.042,1.221-1.283,1.363-2.319,1.343c-2.995-0.059-5.99-0.147-8.984-0.226c-8.361-0.219-16.724-0.421-25.083,0.028
	c-1.326,0.071-2.8,0.165-2.914-1.446c-0.151-2.139,1.699-1.69,2.989-1.697c5.615-0.028,11.23-0.012,16.846-0.012
	C277.16,109.08,277.16,109.404,277.161,109.727z"/>
<path style="fill:#000202;" d="M254.278,116.487c-1.093-0.199-2.316-0.159-3.246-0.661c-1.069-0.577-2.044-1.624-1.581-3.073
	c0.504-1.575,1.994-1.681,3.11-1.197c5.011,2.171,10.325,1.717,15.521,1.825c9.495,0.197,18.92,1.677,28.443,1.347
	c2.571-0.089,3.346-0.403,2.876-3.389c-0.651-4.137-2.386-5.249-6.476-5.261c-11.24-0.031-22.478-0.691-33.722-0.106
	c-1.333,0.069-2.744,0.047-2.831-1.59c-0.102-1.944,1.534-1.537,2.727-1.501c11.614,0.357,23.232,0.626,34.838,1.161
	c3.5,0.161,4.613-0.929,3.534-4.265c-9.775,1.78-19.495-0.453-29.254-0.51c-2.938-0.017-5.857-0.734-8.655,1.272
	c-1.644,1.179-5.25-1.544-5.463-3.668c-0.509-5.069-2.417-9.922-2.359-15.09c0.005-0.404-0.396-1.121-0.693-1.169
	c-1.408-0.227-3.415-0.574-1.93-2.198c0.785-0.858,1.983-4.744,4.724-1.683c0.447,0.499,1.26,0.916,1.519,0.225
	c1.183-3.157,2.431-1.881,3.84-0.227c0.752,0.882,1.855,0.605,2.828,0.581c9.489-0.238,18.963-1.125,28.471-0.652
	c0.588,0.029,1.435-0.007,1.738-0.368c0.809-0.965,1.605-1.846,2.703-0.655c1.027,1.114,1.625,2.484,0.902,4.111
	c-2.206,4.968-0.372,10.397-1.717,15.478c-0.266,1.003,0.505,1.206,1.358,1.212c1.372,0.009,2.048-0.49,1.974-1.998
	c-0.376-7.704-0.035-15.408,0.347-23.697c-3.87,3.998-8.954,1.818-12.933,3.887c-2.032-2.532-6.201-1.631-7.795-4.824
	c-0.546-1.094-1.474-1.892-2.152-0.645c-2.034,3.739-5.514,3.038-8.678,3.107c-4.528,0.098-9.062-0.109-13.594-0.121
	c-1.881-0.005-3.176,0.088-2.329-2.68c0.623-2.037,0.123-4.419,0.117-6.647c-0.005-1.682,0.133-2.614,2.509-2.463
	c4.201,0.266,8.467,0.886,12.537,0.866c3.907-0.019,8.101-0.147,12.093-0.941c0.49-0.098,1.16-0.484,1.435-0.291
	c5.78,4.042,13.243-0.922,19.191,4.262c0.19-3.727,0.599-6.79,0.428-9.821c-0.171-3.029-2.967-3.186-5.099-3.262
	c-3.411-0.122-6.677-0.766-9.943-1.619c-1.383-0.361-2.99-0.688-2.384-2.55c0.619-1.899,2.003-0.68,3.095-0.32
	c5.348,1.766,10.96,2.04,16.463,2.932c3.19,1.206,4.4,3.467,3.709,7.762c-0.932,5.791-1.403,11.617-1.988,17.445
	c-0.874,8.7,0.391,17.14,1.873,25.609c0.771,4.407,2.36,8.68,2.037,13.262c-0.343,4.875-1.601,6.408-6.468,6.098
	c-14.294-0.913-28.624-1.1-42.903-2.257C256.006,117.448,255.07,117.162,254.278,116.487z M258.337,80.087
	c-2.564-1.374-4.062-0.111-3.995,2.77c0.076,3.26,0.758,6.417,1.494,9.566c0.956,4.085,3.414,5.108,7.031,2.858
	c3.267-2.032,6.46-4.181,10.146-6.578C267.918,85.682,263.224,82.704,258.337,80.087z M274.642,86.738
	c0.75,0.363,1.385,0.359,2.097-0.043c4.278-2.415,8.566-4.813,12.851-7.217c-8.829-1.327-17.407-0.259-27.096,0.129
	C266.967,82.834,270.76,84.857,274.642,86.738z M280.789,92.129c-5.349-2.415-10.558-0.805-14.551,4.532
	c8.446,0.929,16.738,1.375,26.102,1.649C288.276,95.082,284.43,93.773,280.789,92.129z M291.855,94.964
	c0.774-4.719,0.708-9.046,0.58-14.076c-4.981,2.64-9.226,4.891-14.239,7.548C283.113,90.786,287.307,92.79,291.855,94.964z"/>
<path style="fill:#E2E7EB;" d="M268.066,66.952c0.465-1.342-0.177-3.673,1.365-3.46c1.481,0.205,3.376,1.966,3.403,3.742
	c0.02,1.308-1.718,2.388-3.323,2.345C267.543,69.525,268.227,67.924,268.066,66.952z"/>
<path style="fill:#DEE1E5;" d="M289.562,63.81c1.381,0.239,3.419-0.278,3.185,1.223c-0.242,1.554-2.186,2.854-3.842,2.913
	c-1.267,0.045-2.472-1.6-2.376-2.896C286.694,62.825,288.791,64.544,289.562,63.81z"/>
<path style="fill:#D6DBDE;" d="M253.084,64.022c1.361,1.248,3.912,1.382,3.414,3.667c-0.13,0.598-1.921,1.493-2.438,1.233
	C251.935,67.857,253.311,65.761,253.084,64.022z"/>
<path style="fill:#D4D5DA;" d="M262.584,62.967c-2.448,3.283-3.049,3.275-6.102-0.067C258.624,62.102,260.507,62.463,262.584,62.967
	z"/>
<path style="fill:#E6E9ED;" d="M286.398,69.237c0.214,1.362-0.454,1.654-1.253,1.6c-1.236-0.084-2.652-0.206-2.599-1.906
	c0.03-0.982-0.028-2.869,1.133-2.571C284.834,66.656,285.628,68.359,286.398,69.237z"/>
<path style="fill:#D5D7DE;" d="M294.764,67.252c0.352,1.586,0.696,3.146-0.943,3.891c-0.812,0.369-2.32-0.34-2.285-1.291
	C291.597,68.176,293.235,67.791,294.764,67.252z"/>
<path style="fill:#BDC0C5;" d="M277.259,63.589c-0.57,1.007-1.127,1.801-2.119,1.402c-0.618-0.249-1.56-1.033-1.488-1.414
	c0.251-1.337,1.532-0.847,2.435-0.904C276.78,62.629,277.136,63.101,277.259,63.589z"/>
<path style="fill:#E5EBF0;" d="M258.143,69.788c1.188-1.253,2.345-1.76,3.676-0.76c0.3,0.226,0.515,1.169,0.409,1.239
	C260.776,71.228,259.573,70.247,258.143,69.788z"/>
<path style="fill:#D4D8DF;" d="M274.967,45.017c-2.366,0.58-4.719,1.222-7.105,1.702c-0.738,0.149-1.964,0.47-2.048-0.84
	c-0.062-0.971,0.959-0.93,1.672-1.007c2.449-0.267,4.901-0.514,7.352-0.768C274.88,44.408,274.924,44.712,274.967,45.017z"/>
<path style="fill:#000202;" d="M264.011,144.844c3.943-0.278,6.143,2.85,9.034,4.626c7.86,5.072,13.08,13.166,21.529,19.393
	c-1.299-6.099-2.194-11.571,0.762-15.661c6.098-8.437,11.692-17.563,22.497-21.354c6.937-2.434,13.807-4.282,21.199-3.452
	c0.353,1.174,2.279,1.797,1.214,3.471c-4.933,0.198-9.828-0.359-14.775,1.105c-12.421,3.678-21.611,10.659-25.783,23.311
	c-3.646,11.059-1.819,16.145,7.968,22.451c1.228,0.791,2.806,1.207,3.267,2.881c-0.008,0.888-0.378,1.531-1.244,1.837
	c-5.513-2.168-9.911-5.718-13.126-10.692c-0.746-1.154-1.266-1.766-3.036-1.842c-2.803-0.122-4.569-2.755-6.498-4.678
	c-3.446-3.437-6.726-7.052-10.324-10.319c-2.843-2.582-6.06-4.753-9.45-7.368c-0.277,3.283,1.709,5.388,2.577,7.81
	c4.211,11.747,8.06,23.666,14.507,34.464c1.85,3.098,4.081,5.966,6.112,8.957c0.564,0.831,2.18,1.652,0.912,2.718
	c-1.286,1.08-2.259-0.296-2.998-1.281c-3.518-4.694-6.981-9.402-9.564-14.733c-4.084-8.429-7.224-17.245-10.931-25.826
	c-1.854-2.693-4.335-2.791-7.22-1.969c-3.309,0.943-6.621,2-10.128,1.981c-2.127-0.042-4.001-0.305-2.41-3.152
	c0.469-0.84-0.033-1.388-0.362-2.037c-3.55-7.002-3.944-14.872-6.113-22.255c-0.573-1.95,0.364-2.849,2.193-2.949
	c1.612-0.088,3.237-0.099,4.848,0.001c6.159,0.384,11.503-1.545,16.143-5.548c2.137-0.682,3.434-0.108,4.076,2.227
	c0.565,2.053,0.889,4.094,0.948,6.202c0.079,2.851,0.161,5.672,1.817,8.212c0.664,1.018,1.224,2.514-0.217,3.284
	c-1.694,0.906-2.523-0.739-3.019-1.852c-1.618-3.633-2.211-7.574-2.902-11.459c-0.269-1.51-0.43-2.559-2.2-1.369
	c-3.183,3.844-7.586,4.511-12.124,4.293c-4.842-0.233-5.198,0.008-4.46,4.834c0.681,4.451,1.518,8.833,3.372,12.997
	c1.028,2.308,2.43,3.37,4.952,2.691c0.721-0.194,1.486-0.228,2.202-0.435c1.788-0.517,4.035-0.009,5.355-1.327
	c1.604-1.601-0.305-3.475-0.438-5.257C262.063,146.313,261.988,144.938,264.011,144.844z"/>
</svg>
